<?xml version="1.0" standalone="no"?>
<!DOCTYPE svg PUBLIC "-//W3C//DTD SVG 1.1//EN" "http://www.w3.org/Graphics/SVG/1.1/DTD/svg11.dtd" >
<svg>
<metadata>
Created by FontForge 20110222 at Mon Aug 18 01:26:04 2014
 By Orthosie Webhosting
Copyright 2012 Monotype Imaging Inc. All rights reserved.
</metadata>
<defs>
<font id="ModernNAP-Display" horiz-adv-x="316" >
  <font-face 
    font-family="ModernNAP-Display"
    font-weight="400"
    font-stretch="normal"
    units-per-em="1000"
    panose-1="2 7 5 3 0 0 0 2 0 3"
    ascent="723"
    descent="-277"
    x-height="419"
    cap-height="674"
    bbox="-244 -246 1163 939"
    underline-thickness="24"
    underline-position="-25"
    unicode-range="U+0020-FB04"
  />
<missing-glyph horiz-adv-x="607" 
d="M107 700h500v-700h-500v700zM527 650h-340l170 -255zM557 95v510l-170 -255zM527 50l-170 255l-170 -255h340zM157 95l170 255l-170 255v-510z" />
    <glyph glyph-name="uniFB01" unicode="fi" horiz-adv-x="580" 
d="M496 61q0 -27 8.5 -38t31.5 -11h32v-12h-239v12h35q23 0 32 11.5t9 37.5v293q0 23 -13 33.5t-35 10.5h-152v-337q0 -27 8.5 -38t31.5 -11h32v-12h-239v12h35q23 0 32 11.5t9 37.5v337h-97v21h97v34q0 112 59 172t164 60q30 0 58.5 -6t50 -18t35 -31t13.5 -44t-14.5 -39
t-34.5 -14q-23 0 -36.5 15t-13.5 33q0 12 4 20t9 14t9 11.5t4 11.5q0 11 -18 22.5t-62 11.5q-30 0 -55 -7.5t-43 -24.5t-28 -43.5t-10 -65.5v-112h159q31 0 63.5 2.5t68.5 8.5v-369z" />
    <glyph glyph-name="uniFB02" unicode="fl" horiz-adv-x="580" 
d="M496 61q0 -27 8.5 -38t31.5 -11h32v-12h-239v12h35q23 0 32 11.5t9 37.5v570q0 17 -20 29t-55 12q-55 0 -90 -32t-35 -109v-112h91v-21h-91v-337q0 -27 8.5 -38t31.5 -11h32v-12h-239v12h35q23 0 32 11.5t9 37.5v337h-97v21h97v34q0 112 56 172t156 60q36 0 67 -11
q24 1 49.5 3t53.5 7v-623z" />
    <glyph glyph-name="uniFB00" unicode="ff" horiz-adv-x="619" 
d="M364 12q23 0 32 11.5t9 37.5v337h-200v-337q0 -27 8.5 -38t31.5 -11h32v-12h-239v12h35q23 0 32 11.5t9 37.5v337h-97v21h97v19q0 115 53.5 176t150.5 61q39 0 74 -13.5t55 -41.5q51 65 147 65q23 0 45 -4.5t39.5 -14t28 -23.5t10.5 -33q0 -25 -15 -38.5t-34 -13.5
q-24 0 -37 15t-13 32q0 12 4 20.5t9 13.5l9 9t4 7q0 7 -10 12t-36 5q-44 0 -73 -28.5t-29 -98.5v-126h91v-21h-91v-337q0 -27 8.5 -38t31.5 -11h32v-12h-239v12h35zM405 419v49q0 11 0.5 21t1.5 20q-20 3 -30.5 17t-10.5 31q0 15 6.5 23.5t14 14.5t14 10.5t6.5 11.5
q0 17 -20.5 31t-64.5 14q-51 0 -84 -33t-33 -113v-97h200z" />
    <glyph glyph-name="uniFB03" unicode="ffi" horiz-adv-x="871" 
d="M787 61q0 -27 8.5 -38t31.5 -11h32v-12h-239v12h35q23 0 32 11.5t9 37.5v293q0 23 -13 33.5t-35 10.5h-152v-337q0 -27 8.5 -38t31.5 -11h32v-12h-239v12h35q23 0 32 11.5t9 37.5v337h-200v-337q0 -27 8.5 -38t31.5 -11h32v-12h-239v12h35q23 0 32 11.5t9 37.5v337h-97
v21h97v19q0 115 53.5 176t150.5 61q42 0 79.5 -15.5t55.5 -47.5q29 35 73 54t102 19q30 0 58.5 -6t50 -18t35 -31t13.5 -44t-14.5 -39t-34.5 -14q-23 0 -36.5 15t-13.5 33q0 12 4 20t9 14t9 11.5t4 11.5q0 11 -18 22.5t-62 11.5q-30 0 -55 -7.5t-43 -24.5t-28 -43.5
t-10 -65.5v-112h159q31 0 63.5 2.5t68.5 8.5v-369zM205 419h200v34q0 15 1 29t3 27q-21 2 -32 16.5t-11 31.5q0 15 6.5 23.5t14 14.5t14 10.5t6.5 11.5q0 17 -20.5 31t-64.5 14q-51 0 -84 -33t-33 -113v-97z" />
    <glyph glyph-name="uniFB04" unicode="ffl" horiz-adv-x="871" 
d="M787 61q0 -27 8.5 -38t31.5 -11h32v-12h-239v12h35q23 0 32 11.5t9 37.5v570q0 17 -20 29t-55 12q-55 0 -90 -32t-35 -109v-112h91v-21h-91v-337q0 -27 8.5 -38t31.5 -11h32v-12h-239v12h35q23 0 32 11.5t9 37.5v337h-200v-337q0 -27 8.5 -38t31.5 -11h32v-12h-239v12h35
q23 0 32 11.5t9 37.5v337h-97v21h97v19q0 115 53.5 176t150.5 61q42 0 78.5 -15t55.5 -47q55 72 165 72q36 0 67 -11q24 1 49.5 3t53.5 7v-623zM205 419h200v34q0 15 1 29t3 27q-21 3 -32 17t-11 31q0 15 6.5 23.5t14 14.5t14 10.5t6.5 11.5q0 17 -20.5 31t-64.5 14
q-51 0 -84 -33t-33 -113v-97z" />
    <glyph glyph-name="f_b.liga" unicode="fb" horiz-adv-x="862" 
d="M480 324q24 59 63 84t78 25q47 0 85.5 -18.5t66 -49.5t42.5 -70.5t15 -82.5q0 -47 -15.5 -87t-43.5 -69t-67 -45.5t-85 -16.5q-45 0 -84.5 26.5t-65.5 85.5q-23 -16 -41.5 -47t-26.5 -69h-11v622q0 24 -19 42t-51 18q-25 0 -46 -7.5t-36.5 -24.5t-24 -43.5t-8.5 -65.5
v-112h91v-21h-91v-337q0 -27 8.5 -38t31.5 -11h32v-12h-239v12h35q23 0 32 11.5t9 37.5v337h-97v21h97v34q0 112 53 172t149 60q29 0 57 -10q28 1 56.5 3t50.5 6v-360zM480 212q0 -46 9.5 -84t27 -65t42.5 -42t57 -15q55 0 82.5 52.5t27.5 149.5q0 110 -26.5 161t-80.5 51
q-35 0 -61.5 -17t-43.5 -45.5t-25.5 -66t-8.5 -79.5z" />
    <glyph glyph-name="f_h.liga" unicode="fh" horiz-adv-x="888" 
d="M73 12q23 0 32 11.5t9 37.5v337h-97v21h97v34q0 112 56 172t156 60q36 0 67 -11q25 1 51 3.5t52 6.5v-387q43 136 151 136q38 0 66.5 -12.5t47.5 -35t28.5 -54t9.5 -68.5v-202q0 -28 8.5 -38.5t31.5 -10.5h33v-12h-240v12h35q24 0 32.5 11.5t8.5 37.5v226q0 60 -19 95
t-57 35q-31 0 -56 -18t-43 -48t-27.5 -68.5t-9.5 -78.5v-143q0 -27 8 -38t31 -11h32v-12h-238v12h35q23 0 32 11.5t9 37.5v570q0 17 -20 29t-55 12q-55 0 -90 -32t-35 -109v-112h91v-21h-91v-337q0 -27 8.5 -38t31.5 -11h32v-12h-239v12h35z" />
    <glyph glyph-name="f_k.liga" unicode="fk" horiz-adv-x="877" 
d="M496 158l156 157q13 13 19.5 25t6.5 26q0 17 -18.5 29t-58.5 12h-24v12h266v-12h-13q-69 0 -146 -76l-55 -55l155 -217q16 -22 33.5 -34.5t37.5 -12.5h16v-12h-249v12h42q11 0 17.5 4.5t6.5 13.5q0 10 -9 21l-114 160l-69 -69v-81q0 -27 8.5 -38t31.5 -11h32v-12h-239v12
h35q23 0 32 11.5t9 37.5v557l-79 44v10q-27 -1 -49 -9t-38 -24.5t-25 -43t-9 -64.5v-112h91v-21h-91v-337q0 -27 8.5 -38t31.5 -11h32v-12h-239v12h35q23 0 32 11.5t9 37.5v337h-97v21h97v34q0 112 56 172t156 60q36 0 67 -11q24 1 49.5 3t53.5 7v-526z" />
    <glyph glyph-name="f_f_b.liga" unicode="ffb" horiz-adv-x="1153" 
d="M364 12q23 0 32 11.5t9 37.5v337h-200v-337q0 -27 8.5 -38t31.5 -11h32v-12h-239v12h35q23 0 32 11.5t9 37.5v337h-97v21h97v19q0 115 53.5 176t150.5 61q41 0 77 -14.5t55 -45.5q53 70 157 70q29 0 57 -10q28 1 56.5 3t50.5 6v-360q24 59 63 84t78 25q47 0 85.5 -18.5
t66 -49.5t42.5 -70.5t15 -82.5q0 -47 -15.5 -87t-43.5 -69t-67 -45.5t-85 -16.5q-45 0 -84.5 26.5t-65.5 85.5q-23 -16 -41.5 -47t-26.5 -69h-11v622q0 24 -19 42t-51 18q-25 0 -46 -7.5t-36.5 -24.5t-24 -43.5t-8.5 -65.5v-112h91v-21h-91v-337q0 -27 8.5 -38t31.5 -11h32
v-12h-239v12h35zM771 212q0 -46 9.5 -84t27 -65t42.5 -42t57 -15q55 0 82.5 52.5t27.5 149.5q0 110 -26.5 161t-80.5 51q-35 0 -61.5 -17t-43.5 -45.5t-25.5 -66t-8.5 -79.5zM205 419h200v34q0 15 1 29t3 27q-21 3 -32 17t-11 31q0 15 6.5 23.5t14 14.5t14 10.5t6.5 11.5
q0 17 -20.5 31t-64.5 14q-51 0 -84 -33t-33 -113v-97z" />
    <glyph glyph-name="f_f_h.liga" unicode="ffh" horiz-adv-x="1167" 
d="M364 12q23 0 32 11.5t9 37.5v337h-200v-337q0 -27 8.5 -38t31.5 -11h32v-12h-239v12h35q23 0 32 11.5t9 37.5v337h-97v21h97v19q0 115 53.5 176t150.5 61q42 0 78.5 -15t55.5 -47q55 72 165 72q36 0 67 -11q25 1 51 3.5t52 6.5v-387q43 136 151 136q38 0 66.5 -12.5
t47.5 -35t28.5 -54t9.5 -68.5v-202q0 -28 8.5 -38.5t31.5 -10.5h33v-12h-240v12h35q24 0 32.5 11.5t8.5 37.5v226q0 60 -19 95t-57 35q-31 0 -56 -18t-43 -48t-27.5 -68.5t-9.5 -78.5v-143q0 -27 8 -38t31 -11h32v-12h-238v12h35q23 0 32 11.5t9 37.5v570q0 17 -20 29
t-55 12q-55 0 -90 -32t-35 -109v-112h91v-21h-91v-337q0 -27 8.5 -38t31.5 -11h32v-12h-239v12h35zM405 419v34q0 15 1 29t3 27q-21 3 -32 17t-11 31q0 15 6.5 23.5t14 14.5t14 10.5t6.5 11.5q0 17 -20.5 31t-64.5 14q-51 0 -84 -33t-33 -113v-97h200z" />
    <glyph glyph-name="f_f_k.liga" unicode="ffk" horiz-adv-x="1157" 
d="M364 12q23 0 32 11.5t9 37.5v337h-200v-337q0 -27 8.5 -38t31.5 -11h32v-12h-239v12h35q23 0 32 11.5t9 37.5v337h-97v21h97v19q0 115 53.5 176t150.5 61q42 0 78.5 -15t55.5 -47q55 72 165 72q36 0 67 -11q24 1 49.5 3t53.5 7v-526l156 157q13 13 19.5 25t6.5 26
q0 17 -18.5 29t-58.5 12h-24v12h266v-12h-13q-69 0 -146 -76l-55 -55l155 -217q16 -22 33.5 -34.5t37.5 -12.5h16v-12h-249v12h42q11 0 17.5 4.5t6.5 13.5q0 10 -9 21l-114 160l-69 -69v-81q0 -27 8.5 -38t31.5 -11h32v-12h-239v12h35q23 0 32 11.5t9 37.5v557l-79 44v10
q-27 -1 -49 -9t-38 -24.5t-25 -43t-9 -64.5v-112h91v-21h-91v-337q0 -27 8.5 -38t31.5 -11h32v-12h-239v12h35zM205 419h200v34q0 15 1 29t3 27q-21 3 -32 17t-11 31q0 15 6.5 23.5t14 14.5t14 10.5t6.5 11.5q0 17 -20.5 31t-64.5 14q-51 0 -84 -33t-33 -113v-97z" />
    <glyph glyph-name=".notdef" horiz-adv-x="607" 
d="M107 700h500v-700h-500v700zM527 650h-340l170 -255zM557 95v510l-170 -255zM527 50l-170 255l-170 -255h340zM157 95l170 255l-170 255v-510z" />
    <glyph glyph-name="glyph1" horiz-adv-x="0" 
 />
    <glyph glyph-name="glyph2" horiz-adv-x="250" 
 />
    <glyph glyph-name="space" unicode=" " horiz-adv-x="250" 
 />
    <glyph glyph-name="quotedbl" unicode="&#x22;" horiz-adv-x="335" 
d="M80 392l-36 198q-2 7 -2 14v15q0 58 42 58q43 0 43 -58q0 -8 -0.5 -15t-1.5 -14l-34 -198h-11zM246 392l-36 198q-1 7 -1.5 14t-0.5 15q0 58 43 58t43 -58q0 -8 -0.5 -15t-1.5 -14l-34 -198h-12z" />
    <glyph glyph-name="numbersign" unicode="#" horiz-adv-x="637" 
d="M226 463l42 204h28l-43 -204h189l43 204h28l-43 -204h123l-6 -27h-123l-47 -229h123l-6 -28h-123l-42 -202h-28l42 202h-189l-42 -202h-28l42 202h-122l6 28h122l48 229h-123l6 27h123zM200 207h189l48 229h-189z" />
    <glyph glyph-name="dollar" unicode="$" horiz-adv-x="511" 
d="M450 162q0 -41 -12 -71.5t-31.5 -51.5t-44 -34t-50.5 -19v-88h-13v85q-20 -4 -44 -4q-18 0 -34 3v-84h-12v86q-28 6 -54.5 18.5t-47.5 31t-33.5 42t-12.5 51.5q0 31 15 51t39 20q20 0 34 -16t14 -36t-9 -29t-20 -14.5t-20 -10.5t-9 -15q0 -14 9 -26.5t23.5 -23t33 -18
t38.5 -11.5v297q-74 37 -103 78.5t-29 94.5q0 34 10 63t28 51.5t42 38t52 24.5v70h12v-68q24 6 49 6q8 0 15 -0.5t14 -1.5v64h13v-66q31 -6 54.5 -19t40 -30t25 -37.5t8.5 -41.5q0 -28 -13.5 -45t-35.5 -17q-20 0 -35 14.5t-15 33.5q0 18 7 28t15 16.5t15 11.5t7 13
q0 17 -20 34.5t-53 25.5v-285q40 -21 67 -42t42.5 -44t22 -48.5t6.5 -54.5zM251 277q-8 3 -15.5 6t-14.5 7v-295q18 -3 34 -3q11 0 22 1t22 3v259q-11 5 -22.5 11t-25.5 11zM255 377q12 -5 23 -10t21 -10v281q-14 3 -29 3q-13 0 -25.5 -2t-23.5 -5v-241q8 -5 16.5 -8.5
t17.5 -7.5zM401 117q0 41 -18.5 72t-70.5 60v-250q17 5 33 13.5t28.5 23t20 34.5t7.5 47zM129 514q0 -37 16.5 -63.5t63.5 -51.5v231q-35 -14 -57.5 -42.5t-22.5 -73.5z" />
    <glyph glyph-name="percent" unicode="%" horiz-adv-x="713" 
d="M181 682q34 0 60.5 -15.5t45 -40t28 -56.5t9.5 -65t-9.5 -65t-28 -56.5t-45 -40t-60.5 -15.5t-61 15.5t-45.5 40t-28 56.5t-9.5 65t9.5 65t28 56.5t45.5 40t61 15.5zM247 556q0 113 -66 113t-66 -113v-102q0 -115 66 -115t66 115v102zM586 682h41l-499 -716h-41zM532 324
q34 0 61 -15.5t45.5 -40.5t28 -57t9.5 -65t-9.5 -64.5t-28 -56.5t-45.5 -40.5t-61 -15.5t-60.5 15.5t-45 40.5t-28 56.5t-9.5 64.5t9.5 65t28 57t45 40.5t60.5 15.5zM598 197q0 114 -66 114t-66 -114v-101q0 -116 66 -116t66 116v101z" />
    <glyph glyph-name="ampersand" unicode="&#x26;" horiz-adv-x="662" 
d="M357 55q-70 -76 -159 -76q-37 0 -69.5 12t-56.5 34t-38 52t-14 65q0 34 14 63.5t38 56.5t57 52t71 52q-20 46 -32.5 84t-12.5 67q0 30 9 55.5t25 44.5t39 30t51 11q22 0 42.5 -7t36.5 -20t25.5 -31.5t9.5 -41.5q0 -24 -9.5 -45t-25.5 -39.5t-38 -36t-46 -34.5l131 -264
q31 52 46 99.5t15 82.5q0 43 -20.5 64.5t-68.5 21.5h-14v12h267v-12h-16q-24 0 -44.5 -12t-38 -33t-32 -49t-26.5 -60q-17 -42 -32 -74.5t-29 -53.5q28 -56 54 -82.5t65 -26.5q56 0 77.5 51t21.5 151h13q0 -53 -6.5 -97t-23 -75.5t-45 -49t-72.5 -17.5q-42 0 -76 18t-63 58z
M351 66q-20 34 -41 74.5t-41 80t-36.5 74.5t-27.5 59q-24 -18 -43.5 -35.5t-33.5 -38t-22 -45.5t-9 -58q0 -34 9.5 -64t28 -52t45 -35t60.5 -13q26 0 54 12t57 41zM210 578q0 -33 16.5 -72.5t41.5 -90.5q35 23 57 60.5t22 79.5q0 52 -18 71t-50 19q-31 0 -50 -16.5
t-19 -50.5z" />
    <glyph glyph-name="quotesingle" unicode="'" horiz-adv-x="169" 
d="M80 392l-36 198q-2 7 -2 14v15q0 58 42 58q43 0 43 -58q0 -8 -0.5 -15t-1.5 -14l-34 -198h-11z" />
    <glyph glyph-name="parenleft" unicode="(" horiz-adv-x="332" 
d="M258 -200q-95 102 -137.5 211.5t-42.5 237.5q0 127 42.5 237t137.5 212h13q-62 -103 -92.5 -218.5t-30.5 -230.5t30.5 -230.5t92.5 -218.5h-13z" />
    <glyph glyph-name="parenright" unicode=")" horiz-adv-x="332" 
d="M73 698q95 -102 137.5 -212t42.5 -237q0 -128 -42.5 -237.5t-137.5 -211.5h-12q62 103 92 218.5t30 230.5t-30 230.5t-92 218.5h12z" />
    <glyph glyph-name="asterisk" unicode="*" horiz-adv-x="488" 
d="M259 462q15 -9 34 -14t38.5 -9t36.5 -8.5t28 -10.5q29 -16 29 -41q0 -14 -10 -23.5t-25 -9.5q-8 0 -16 2.5t-16 6.5q-11 6 -22.5 19t-25 28t-27.5 29t-29 23l-5 -3q0 -17 5 -36.5t11.5 -38t11.5 -35.5t5 -29q0 -20 -10 -35t-28 -15t-27.5 15t-9.5 35q0 12 5 29t11 35.5
t11 38t5 36.5l-5 3q-15 -9 -29 -23t-27 -29t-25 -28t-23 -19q-8 -4 -16 -6.5t-15 -2.5q-15 0 -25.5 9.5t-10.5 23.5q0 12 8 22.5t21 18.5q11 6 28 10.5t36.5 8.5t38.5 9t34 14v7q-15 9 -34 14t-38.5 9t-36.5 8t-28 10q-13 8 -21 19t-8 22q0 14 10.5 23.5t25.5 9.5
q16 0 31 -9q11 -6 23 -19t25 -27.5t27 -28.5t29 -23l5 2q0 17 -5 36.5t-11 38t-11 35.5t-5 30q0 20 9.5 34.5t27.5 14.5t28 -14.5t10 -34.5q0 -13 -5 -30t-11.5 -35.5t-11.5 -38t-5 -36.5l5 -2q15 9 29 23t27.5 28.5t25 27.5t22.5 19q16 9 32 9q15 0 25 -9.5t10 -23.5
q0 -23 -29 -41q-11 -6 -28 -10t-36.5 -8t-38.5 -9t-34 -14v-7v0z" />
    <glyph glyph-name="plus" unicode="+" horiz-adv-x="667" 
d="M71 341h240v242h43v-242h242v-43h-242v-239h-43v239h-240v43z" />
    <glyph glyph-name="comma" unicode="," horiz-adv-x="203" 
d="M47 -151q47 26 71.5 62t24.5 77q0 18 -11 18q-8 0 -15.5 -7t-26.5 -7t-32 15.5t-13 35.5q0 21 13.5 35t34.5 14q16 0 28.5 -8.5t20 -22t11.5 -30.5t4 -35q0 -50 -25 -88.5t-79 -69.5z" />
    <glyph glyph-name="hyphen" unicode="-" horiz-adv-x="286" 
d="M37 270h212v-29h-212v29z" />
    <glyph glyph-name="slash" unicode="/" horiz-adv-x="333" 
d="M83 -246h-26l206 929h26z" />
    <glyph glyph-name="zero" unicode="0" horiz-adv-x="514" 
d="M257 -21q-47 0 -88 32.5t-71.5 82.5t-48 109t-17.5 113t17.5 113t48 109t71.5 82.5t88 32.5t88 -32.5t71.5 -82.5t48 -109t17.5 -113t-17.5 -113t-48 -109t-71.5 -82.5t-88 -32.5zM257 -8q38 0 60.5 19.5t34.5 55t16 85.5t4 111v107q0 61 -4 111t-16 85.5t-34.5 55
t-60.5 19.5t-60.5 -19.5t-34.5 -55t-16 -85.5t-4 -111v-107q0 -61 4 -111t16 -85.5t34.5 -55t60.5 -19.5z" />
    <glyph glyph-name="one" unicode="1" horiz-adv-x="373" 
d="M24 541q54 19 107 47.5t98 64.5h12v-599q0 -42 37 -42h70v-12h-307v12h55q30 0 40.5 9t10.5 35v527q-25 -15 -55 -28.5t-63 -25.5z" />
    <glyph glyph-name="two" unicode="2" horiz-adv-x="490" 
d="M12 0q24 42 73.5 98t118.5 130q31 33 54.5 62t39.5 58.5t24 62t8 73.5q0 31 -7.5 59t-22.5 48.5t-37.5 32.5t-51.5 12t-56.5 -12.5t-50 -33.5t-36 -49t-13.5 -59q0 -14 5 -20t11 -6q4 0 8.5 5.5t10 11.5t14 11.5t20.5 5.5q24 0 39.5 -19t15.5 -42q0 -26 -17.5 -43
t-43.5 -17q-19 0 -33.5 9t-24 23.5t-14 33t-4.5 38.5q0 40 15.5 73.5t42 57t62 36.5t75.5 13t76.5 -14t64.5 -38t44.5 -56.5t16.5 -68.5q0 -27 -8.5 -49.5t-24.5 -42.5t-37.5 -40t-48.5 -41q-76 -62 -134.5 -118.5t-93.5 -98.5h267q33 0 42 15q5 7 9.5 21.5t8 30t6 30
t4.5 22.5h12l-35 -205h-394z" />
    <glyph glyph-name="three" unicode="3" horiz-adv-x="486" 
d="M419 487q0 -104 -170 -164q88 -13 140.5 -50t52.5 -107q0 -44 -19.5 -78.5t-52 -58.5t-75 -37t-89.5 -13q-36 0 -68 8t-55.5 24t-37 39.5t-13.5 53.5q0 31 17 53.5t45 22.5q23 0 40.5 -16t17.5 -44q0 -23 -10 -36t-21.5 -21t-21.5 -13.5t-10 -14.5q0 -10 11 -18t27 -13.5
t34.5 -8.5t32.5 -3q69 0 104.5 38.5t35.5 113.5q0 32 -6 62.5t-19 54t-34 37.5t-52 14q-16 0 -37 -7t-31 -7q-16 0 -16 12q0 8 11 10.5t34 3.5q68 2 102 41.5t34 122.5q0 81 -32 116.5t-84 35.5q-21 0 -41.5 -5.5t-37 -14t-26.5 -19.5t-10 -22q0 -9 12.5 -12t27.5 -7.5
t27.5 -16t12.5 -38.5q0 -26 -17.5 -45.5t-43.5 -19.5q-31 0 -48 23.5t-17 54.5q0 30 14.5 55t38 42.5t54 27.5t62.5 10q39 0 76 -12t66.5 -34t47 -52.5t17.5 -67.5z" />
    <glyph glyph-name="four" unicode="4" horiz-adv-x="501" 
d="M334 653h13v-444h130v-34h-130v-122q0 -23 7.5 -32t28.5 -9h84v-12h-330v12h88q31 0 31 35v128h-225l-20 20zM256 209v312l-219 -312h219z" />
    <glyph glyph-name="five" unicode="5" horiz-adv-x="472" 
d="M81 317q28 48 64 70t83 22q45 0 83.5 -16t67 -43.5t45 -65t16.5 -79.5q0 -47 -19.5 -88.5t-52.5 -72t-77 -48t-92 -17.5q-35 0 -69 10.5t-61.5 29t-44.5 44.5t-17 57q0 32 20.5 54.5t49.5 22.5q25 0 42.5 -17t17.5 -42q0 -21 -10.5 -32.5t-22.5 -19t-22.5 -14.5
t-10.5 -19q0 -15 12.5 -26t32 -19t41.5 -12t42 -4q70 0 100.5 50t30.5 153q0 43 -5.5 79.5t-18.5 63.5t-35 42.5t-55 15.5q-45 0 -82 -32t-53 -78q-3 -11 -4.5 -13.5t-6.5 -2.5q-6 0 -6 6t1 10l44 356q66 -20 114 -30.5t81 -10.5q38 0 62 12t31 37h13q-17 -63 -53.5 -91.5
t-101.5 -28.5q-46 0 -78 5t-67 14z" />
    <glyph glyph-name="six" unicode="6" horiz-adv-x="491" 
d="M144 300q27 55 59 79t80 24q39 0 71.5 -17t55.5 -45.5t36 -65t13 -75.5q0 -45 -15 -85t-42 -70t-65 -48t-84 -18q-59 0 -100.5 31t-68.5 78t-39.5 104t-12.5 109q0 65 18 128.5t51 113t79.5 80t103.5 30.5q27 0 52.5 -8t45 -22.5t31.5 -35.5t12 -47q0 -30 -18.5 -48
t-43.5 -18q-22 0 -37 14.5t-15 39.5q0 22 9.5 34t20.5 18.5t20.5 9t9.5 7.5q0 17 -24.5 30.5t-62.5 13.5q-42 0 -69 -17t-43 -48t-22 -75.5t-6 -99.5v-101zM145 186q0 -194 108 -194q33 0 53 11t31 34t14.5 60t3.5 90q0 46 -3 83.5t-12 64t-25.5 41t-42.5 14.5
q-30 0 -54 -16.5t-40 -44.5t-24.5 -65t-8.5 -78z" />
    <glyph glyph-name="seven" unicode="7" horiz-adv-x="419" 
d="M259 333q28 58 52.5 111t41.5 93h-255q-20 0 -31.5 -4t-17.5 -14t-8.5 -27.5t-5.5 -44.5l-3 -32h-12l16 238h11q0 -25 29 -25h333q-32 -65 -61.5 -134.5t-51.5 -134.5q-19 -56 -26 -128t-7 -149q0 -19 -3 -38t-10.5 -34t-19.5 -24.5t-30 -9.5q-27 0 -40.5 19t-13.5 42
q0 35 29 108t84 188z" />
    <glyph glyph-name="eight" unicode="8" horiz-adv-x="505" 
d="M435 507q0 -26 -7.5 -47t-22.5 -39t-37 -34.5t-50 -32.5q73 -35 108 -82t35 -107q0 -42 -17.5 -76t-47 -58.5t-68.5 -38t-82 -13.5q-39 0 -75.5 10t-64.5 29.5t-45 48.5t-17 67q0 28 9 50t26.5 41t42.5 35.5t57 33.5q-58 35 -87.5 80t-29.5 105q0 35 14 66.5t39 55.5
t60 38t77 14q39 0 72.5 -11.5t58 -31.5t38.5 -46.5t14 -56.5zM392 115q0 29 -11.5 51.5t-35.5 42t-61 38.5t-88 41q-51 -22 -73 -58.5t-22 -87.5q0 -70 38 -110t112 -40q66 0 103.5 34t37.5 89zM113 524q0 -29 14.5 -52.5t40.5 -43t60.5 -36t75.5 -32.5q42 21 58.5 54.5
t16.5 78.5q0 72 -36.5 110t-96.5 38q-63 0 -98 -33.5t-35 -83.5z" />
    <glyph glyph-name="nine" unicode="9" horiz-adv-x="491" 
d="M208 -8q42 0 69 16.5t42.5 47.5t22 75.5t6.5 99.5v102q-29 -56 -61 -80t-79 -24q-39 0 -71.5 17t-55.5 45.5t-36 65.5t-13 76q0 44 15 84t42 70t65 48t84 18q58 0 100 -30.5t69 -78t39.5 -104t12.5 -108.5q0 -65 -18 -128.5t-51 -113.5t-79.5 -80.5t-103.5 -30.5
q-27 0 -52.5 8t-45 22.5t-31.5 35.5t-12 48q0 30 18 47.5t43 17.5q22 0 38 -14t16 -40q0 -23 -9.5 -34.5t-21.5 -18t-21.5 -9.5t-9.5 -7q0 -17 24.5 -30t64.5 -13zM347 447q0 194 -110 194q-33 0 -52.5 -11t-30.5 -34.5t-14.5 -60.5t-3.5 -89q0 -46 3 -83.5t12 -64.5
t25.5 -41.5t42.5 -14.5q30 0 54 16.5t40.5 44.5t25 65t8.5 79z" />
    <glyph glyph-name="colon" unicode=":" horiz-adv-x="203" 
d="M154 380q0 -22 -15.5 -37.5t-36.5 -15.5q-23 0 -38 15.5t-15 37.5t15 37.5t38 15.5q21 0 36.5 -15.5t15.5 -37.5zM154 39q0 -22 -15.5 -37.5t-36.5 -15.5q-23 0 -38 15.5t-15 37.5t15 37.5t38 15.5q21 0 36.5 -15.5t15.5 -37.5z" />
    <glyph glyph-name="semicolon" unicode=";" horiz-adv-x="203" 
d="M47 -151q47 26 71.5 62t24.5 77q0 18 -11 18q-8 0 -15.5 -7t-26.5 -7t-32 15.5t-13 35.5q0 21 13.5 35t34.5 14q16 0 28.5 -8.5t20 -22t11.5 -30.5t4 -35q0 -50 -25 -88.5t-79 -69.5zM154 380q0 -22 -15.5 -37.5t-36.5 -15.5q-23 0 -38 15.5t-15 37.5t15 37.5t38 15.5
q21 0 36.5 -15.5t15.5 -37.5z" />
    <glyph glyph-name="less" unicode="&#x3c;" horiz-adv-x="667" 
d="M594 80l-523 222v38l523 221v-46l-466 -194l466 -195v-46z" />
    <glyph glyph-name="equal" unicode="=" horiz-adv-x="667" 
d="M72 457h523v-43h-523v43zM72 230h523v-43h-523v43z" />
    <glyph glyph-name="greater" unicode="&#x3e;" horiz-adv-x="667" 
d="M72 561l523 -222v-39l-523 -220v46l466 194l-466 194v47z" />
    <glyph glyph-name="question" unicode="?" horiz-adv-x="344" 
d="M37 472q0 47 11.5 82t31 58t44 34.5t51.5 11.5q28 0 52 -10.5t42 -30t28.5 -47.5t10.5 -62q0 -42 -16.5 -78.5t-53.5 -66.5q-15 -13 -33.5 -27t-34 -29.5t-26 -34t-10.5 -39.5q0 -20 11.5 -34.5t32.5 -14.5q48 0 58 74h13q-14 -87 -72 -87q-18 0 -32 9t-23.5 23.5
t-14.5 33.5t-5 39q0 36 12 61t30 44.5t39 36t39 35t30 41t12 55.5q0 24 -8 42t-20.5 30t-29 18t-33.5 6q-24 0 -46.5 -10.5t-40 -32.5t-27.5 -54.5t-10 -75.5h-12zM220 39q0 -22 -15.5 -37.5t-37.5 -15.5t-37 15.5t-15 37.5t15 37.5t37 15.5t37.5 -15.5t15.5 -37.5z" />
    <glyph glyph-name="at" unicode="@" horiz-adv-x="917" 
d="M887 84q-25 -65 -65.5 -119t-93.5 -92.5t-117.5 -60t-136.5 -21.5q-93 0 -171 31t-135 87.5t-89 134.5t-32 173q0 101 35.5 187t98 149t147.5 98.5t184 35.5q80 0 145 -25t110.5 -71t70.5 -111t25 -145q0 -59 -19.5 -116.5t-53.5 -102.5t-81.5 -72.5t-102.5 -27.5
q-41 0 -65 23t-24 65q0 10 1.5 23.5t3.5 28.5q-23 -42 -44 -68.5t-40.5 -42t-38 -21.5t-34.5 -6q-27 0 -50 12.5t-40 34.5t-26.5 51.5t-9.5 63.5q0 65 26.5 116.5t65.5 87.5t82.5 55.5t78.5 19.5t56.5 -28.5t26.5 -82.5l35 99h79l-99 -350q-2 -8 -3 -16t-1 -14q0 -33 38 -33
q44 0 85 25.5t72.5 68t50.5 96.5t19 111q0 76 -24 137t-67.5 104t-106 66t-138.5 23q-94 0 -172.5 -37t-135.5 -100.5t-88.5 -147t-31.5 -176.5q0 -87 28.5 -160t80 -126.5t122.5 -83t156 -29.5q70 0 132.5 20t113.5 57t90.5 88.5t63.5 113.5h13zM494 447q-35 0 -63 -33
q-25 -29 -46 -75t-36.5 -94t-24 -89t-8.5 -58q0 -32 13 -50t36 -18q28 0 53 16.5t47 43.5t39.5 60.5t30 67.5t19.5 65.5t7 53.5q0 52 -19 81t-48 29z" />
    <glyph glyph-name="A" unicode="A" horiz-adv-x="694" 
d="M442 228h-252q-17 -48 -26.5 -83t-9.5 -50q0 -35 29 -59t80 -24h26v-12h-287v12h7q29 0 50.5 11.5t38 31t29.5 46t24 56.5l196 528h38l198 -581q11 -31 20 -49.5t17 -25.5t21 -12t32 -5h18v-12h-313v12h84q19 0 28.5 9t9.5 23q0 15 -5 28zM198 247h237l-114 334z" />
    <glyph glyph-name="B" unicode="B" horiz-adv-x="642" 
d="M12 674h301q54 0 102.5 -9.5t85 -28.5t57.5 -49t21 -70q0 -37 -14.5 -64t-40.5 -46.5t-64 -32t-84 -19.5q46 -2 88.5 -15t75.5 -35.5t52.5 -54t19.5 -71.5q0 -44 -25 -77t-65.5 -56t-92.5 -34.5t-107 -11.5h-310v12h53q50 0 50 57v533q0 60 -50 60h-53v12zM215 361h90
q75 0 120.5 39t45.5 110q0 68 -37.5 110t-100.5 42h-92q-26 0 -26 -34v-267zM215 349v-302q0 -35 28 -35h87q37 0 68.5 12.5t54 35t35 53.5t12.5 67q0 39 -15 70.5t-41 53t-61.5 33.5t-76.5 12h-91z" />
    <glyph glyph-name="C" unicode="C" horiz-adv-x="623" 
d="M326 687q107 0 178 -116q26 23 42 53t21 63h11v-304h-11q-15 56 -36 108.5t-50.5 93.5t-67.5 65.5t-86 24.5q-84 0 -131 -91q-9 -18 -15 -46t-10 -64t-5.5 -78t-1.5 -88q0 -38 2.5 -75t8 -70t14 -59t19.5 -41q23 -32 56 -49.5t77 -17.5q50 0 91.5 19.5t72 53t48.5 79
t21 97.5h12q-2 -55 -21.5 -103t-52 -83t-76 -55.5t-94.5 -20.5q-59 0 -112.5 27t-95 73.5t-66 109.5t-24.5 136q0 67 22 131.5t60.5 115t89.5 81t110 30.5z" />
    <glyph glyph-name="D" unicode="D" horiz-adv-x="718" 
d="M12 674h330q70 0 131 -28t107 -75t72.5 -108.5t26.5 -129.5q0 -69 -28.5 -129.5t-76.5 -105.5t-110 -71.5t-128 -26.5h-324v12h53q50 0 50 57v535q0 58 -50 58h-53v12zM242 662q-27 0 -27 -31v-579q0 -40 29 -40h95q62 0 104.5 28t69 74.5t38 107.5t11.5 127
q0 67 -10.5 124.5t-37 99.5t-71.5 65.5t-114 23.5h-87z" />
    <glyph glyph-name="E" unicode="E" horiz-adv-x="644" 
d="M12 674h577v-244h-11q-25 107 -79.5 169.5t-136.5 62.5h-124q-23 0 -23 -33v-282h35q145 0 151 177h12v-370h-12q0 45 -11 78.5t-30.5 56t-46.5 34t-58 11.5h-40v-288q0 -34 31 -34h127q44 0 80 17.5t63.5 48.5t46.5 73.5t30 92.5h11l-5 -244h-587v12h52q51 0 51 57v535
q0 58 -49 58h-54v12z" />
    <glyph glyph-name="F" unicode="F" horiz-adv-x="604" 
d="M12 674h568v-249h-12q-26 118 -80 177.5t-136 59.5h-114q-23 0 -23 -33v-280h36q74 0 112 44.5t41 132.5h12v-374h-12q0 40 -7 74t-24 59t-45.5 38.5t-71.5 13.5h-41v-237q0 -42 9 -65t37 -23h75v-12h-324v12h52q51 0 51 57v535q0 58 -49 58h-54v12z" />
    <glyph glyph-name="G" unicode="G" horiz-adv-x="712" 
d="M342 683q121 0 193 -111q35 38 48 111h11l15 -313h-11q-13 64 -35 119t-53 95t-72 63t-92 23q-57 0 -93.5 -27t-57 -74.5t-28.5 -113t-8 -142.5q0 -69 7.5 -127.5t27.5 -100.5t53.5 -65.5t86.5 -23.5q36 0 68 11t56 33.5t37.5 56t13.5 77.5v55q0 33 -34 33h-99v12h332
v-12h-66q-37 0 -37 -38v-241h-10q-9 50 -24.5 83t-29.5 51q-42 -65 -88.5 -99.5t-115.5 -34.5q-68 0 -123 31t-94 80t-60 108t-21 116q0 65 23.5 130t65 117.5t96.5 85t118 32.5z" />
    <glyph glyph-name="H" unicode="H" horiz-adv-x="730" 
d="M12 674h303v-12h-50q-50 0 -50 -58v-246h301v246q0 58 -50 58h-53v12h305v-12h-52q-50 0 -50 -58v-534q0 -58 50 -58h52v-12h-305v12h53q50 0 50 58v270h-301v-270q0 -58 50 -58h50v-12h-303v12h53q50 0 50 58v534q0 58 -50 58h-53v12z" />
    <glyph glyph-name="I" unicode="I" horiz-adv-x="330" 
d="M12 12h53q50 0 50 57v535q0 58 -50 58h-53v12h305v-12h-52q-50 0 -50 -58v-535q0 -57 50 -57h52v-12h-305v12z" />
    <glyph glyph-name="J" unicode="J" horiz-adv-x="502" 
d="M498 674v-12h-53q-50 0 -50 -58v-391q0 -51 -15 -94t-42 -74t-65.5 -48.5t-85.5 -17.5q-37 0 -70 12t-58 34t-39.5 52.5t-14.5 66.5q0 35 17.5 61.5t49.5 26.5q26 0 43.5 -19.5t17.5 -45.5q0 -27 -12 -41t-26.5 -22.5t-26.5 -14.5t-12 -18q0 -16 11 -30.5t29.5 -25
t41.5 -17t47 -6.5q61 0 85.5 35.5t24.5 106.5v470q0 58 -50 58h-53v12h306z" />
    <glyph glyph-name="K" unicode="K" horiz-adv-x="763" 
d="M713 674v-12h-20q-61 0 -109 -27.5t-98 -77.5l-116 -117l241 -342q27 -38 60.5 -62t70.5 -24h18v-12h-338v12h76q26 0 26 23q0 14 -11 29l-215 304l-83 -84v-215q0 -57 50 -57h52v-12h-305v12h53q50 0 50 57v535q0 58 -50 58h-53v12h305v-12h-52q-50 0 -50 -58v-302
l229 230q45 45 45 79q0 24 -16.5 37.5t-43.5 13.5h-21v12h305z" />
    <glyph glyph-name="L" unicode="L" horiz-adv-x="599" 
d="M12 12h48q26 0 40.5 14t14.5 43v535q0 29 -14.5 43.5t-40.5 14.5h-46v12h296v-12h-45q-50 0 -50 -58v-540q0 -52 42 -52h71q46 0 86 20.5t71.5 55t54 80t33.5 96.5h11l-8 -264h-564v12z" />
    <glyph glyph-name="M" unicode="M" horiz-adv-x="866" 
d="M243 674l202 -525l201 525h208v-12h-49q-25 0 -39.5 -15.5t-14.5 -44.5v-532q0 -29 16.5 -43.5t42.5 -14.5h44v-12h-320v12h67q50 0 50 58v584l-251 -658h-10l-253 652v-479q0 -157 98 -157h31v-12h-254v12h18q51 0 73 39t22 118v420q0 73 -81 73h-32v12h231z" />
    <glyph glyph-name="N" unicode="N" horiz-adv-x="701" 
d="M12 674h182l374 -544v325q0 48 -5 86.5t-18.5 65t-37.5 41t-63 14.5h-18v12h270v-12h-20q-36 0 -55.5 -19t-28.5 -49t-10.5 -67t-1.5 -72v-478h-28l-415 604v-366q0 -101 25 -152t95 -51h33v-12h-278v12h20q23 0 40.5 9.5t29 33t17.5 62.5t6 98v298q0 41 -3 69.5t-13 46
t-27.5 25.5t-46.5 8h-23v12z" />
    <glyph glyph-name="O" unicode="O" horiz-adv-x="698" 
d="M39 330q0 67 23.5 130.5t65.5 113t99 79.5t123 30q67 0 123.5 -30.5t97.5 -80t64.5 -113t23.5 -129.5q0 -67 -23.5 -129.5t-65 -111t-98 -77.5t-122.5 -29q-72 0 -129.5 31.5t-98 82t-62 112t-21.5 121.5zM522 545q-17 61 -61.5 93t-110.5 32t-113 -32t-63 -95
q-7 -31 -10.5 -87t-3.5 -125t3.5 -124t11.5 -86q17 -64 61 -94.5t113 -30.5q71 0 116.5 33t58.5 99q7 33 10.5 89t3.5 124q0 66 -4 120.5t-12 83.5z" />
    <glyph glyph-name="P" unicode="P" horiz-adv-x="612" 
d="M215 314v-163q0 -35 1 -61t6 -43t15.5 -26t30.5 -9h68v-12h-324v12h53q50 0 50 57v535q0 58 -50 58h-53v12h320q55 0 102.5 -11.5t82.5 -34t55 -56.5t20 -80q0 -41 -22.5 -74t-59 -56t-82 -35.5t-91.5 -12.5h-122zM215 326h99q88 0 126.5 45t38.5 121q0 83 -40 126.5
t-120 43.5h-65q-22 0 -30.5 -8t-8.5 -30v-298z" />
    <glyph glyph-name="Q" unicode="Q" horiz-adv-x="698" 
d="M39 330q0 67 23.5 130.5t65.5 113t99 79.5t123 30q67 0 123.5 -30.5t97.5 -80t64.5 -113t23.5 -129.5q0 -49 -13 -96.5t-36.5 -88.5t-57 -74.5t-73.5 -54.5q1 -3 1 -6.5t1 -6.5q9 -61 19.5 -100.5t24 -62.5t30 -32t37.5 -9q41 0 66.5 40t25.5 112h12q-1 -42 -8.5 -77
t-24 -60.5t-41.5 -39.5t-60 -14q-54 0 -92 27t-54 93q-6 24 -9.5 53t-5.5 55q-12 -2 -25 -3.5t-26 -1.5q-72 0 -129.5 31.5t-98 82t-62 112t-21.5 121.5zM522 545q-17 61 -61.5 93t-110.5 32t-113 -32t-63 -95q-7 -31 -10.5 -87t-3.5 -125t3.5 -124t11.5 -86
q12 -48 41 -77.5t73 -41.5q-13 17 -19.5 36.5t-6.5 37.5q0 41 25.5 64.5t61.5 23.5q27 0 47.5 -9.5t35.5 -26.5t25.5 -40t16.5 -51q39 34 49 91q7 33 10.5 89t3.5 124q0 66 -4 120.5t-12 83.5zM277 76q0 -19 7 -39.5t21 -37.5q21 -3 44 -3q14 0 27 1t25 3q-1 15 -1.5 26.5
t-0.5 17.5q0 54 -12 78t-46 24q-27 0 -45.5 -19t-18.5 -51z" />
    <glyph glyph-name="R" unicode="R" horiz-adv-x="693" 
d="M12 12h53q50 0 50 57v535q0 58 -50 58h-53v12h316q53 0 100 -11t82.5 -32.5t56 -53t20.5 -71.5q0 -36 -19.5 -64.5t-51 -49.5t-73 -34.5t-84.5 -19.5q50 -11 86.5 -30t61.5 -49.5t38.5 -74.5t18.5 -105q3 -55 40 -55q21 0 36.5 37t15.5 103v54h12v-39q0 -88 -20.5 -136.5
t-75.5 -48.5q-62 0 -90.5 41.5t-32.5 109.5q-3 52 -14.5 88t-34.5 58.5t-59 32.5t-87 10h-39v-265q0 -57 50 -57h52v-12h-305v12zM265 662q-50 0 -50 -58v-257h80q84 0 130.5 40.5t46.5 119.5q0 78 -45.5 116.5t-122.5 38.5h-39z" />
    <glyph glyph-name="S" unicode="S" horiz-adv-x="569" 
d="M325 -17q-61 0 -110.5 26t-89.5 86q-20 -26 -32 -51.5t-22 -57.5h-11v309h11q27 -156 90.5 -227.5t163.5 -71.5q66 0 108 31.5t42 88.5q0 35 -15.5 61t-43 47t-64.5 38t-80 33q-42 16 -81 34t-68 42t-46.5 56t-17.5 77q0 37 14.5 70t40 57t59 38t72.5 14q51 0 95.5 -24.5
t79.5 -70.5q39 42 54 89h11v-261h-11q-7 53 -26.5 99t-49.5 80.5t-69 54.5t-84 20q-27 0 -52 -9t-44.5 -24.5t-31.5 -36.5t-12 -45q0 -28 14 -49t39.5 -39t61 -33t77.5 -31q50 -18 91 -38t70.5 -46.5t45.5 -62.5t16 -87q0 -43 -14.5 -77.5t-41 -58.5t-62 -37t-77.5 -13z" />
    <glyph glyph-name="T" unicode="T" horiz-adv-x="650" 
d="M614 421q-8 53 -21 97t-35 76t-54.5 50t-78.5 18q-27 0 -38 -6.5t-11 -25.5v-561q0 -57 51 -57h69v-12h-354v12h85q49 0 49 57v561q0 16 -10 24t-38 8q-48 0 -81 -19.5t-55.5 -52.5t-35.5 -76.5t-20 -92.5h-12v253h601v-253h-11z" />
    <glyph glyph-name="U" unicode="U" horiz-adv-x="728" 
d="M735 662q-122 -5 -122 -155v-254q0 -60 -17 -110.5t-49 -87t-78.5 -57t-105.5 -20.5q-100 0 -175 60q-73 60 -73 198v368q0 58 -50 58h-53v12h305v-12h-54q-48 0 -48 -62v-385q0 -213 172 -213q51 0 90.5 19.5t67 53t42 79.5t14.5 99v230q0 99 -38 139t-91 40h-25v12h288
v-12z" />
    <glyph glyph-name="V" unicode="V" horiz-adv-x="695" 
d="M207 629q0 -5 0.5 -9t1.5 -9l168 -498l136 354q16 42 22.5 65.5t6.5 46.5q0 40 -27 61.5t-65 21.5h-38v12h281v-12h-8q-38 0 -75.5 -38t-60.5 -98l-210 -547h-20l-214 632q-8 24 -23.5 37.5t-39.5 13.5h-40v12h325v-12h-79q-21 0 -31 -9t-10 -24z" />
    <glyph glyph-name="W" unicode="W" horiz-adv-x="1009" 
d="M199 628q0 -4 1 -8t2 -9l144 -490l142 412l-18 61q-11 37 -24 52.5t-38 15.5h-56v12h319v-12h-65q-44 0 -44 -34q0 -4 0.5 -8t1.5 -9l144 -489l120 356q9 28 13 50.5t4 45.5q0 38 -23 63t-70 25h-16v12h270v-12h-13q-25 0 -47 -15t-41 -39.5t-34.5 -56t-26.5 -64.5
l-172 -508h-24l-154 534l-184 -534h-24l-179 624q-8 28 -25 43.5t-41 15.5h-39v12h289v-12h-35q-57 0 -57 -34z" />
    <glyph glyph-name="X" unicode="X" horiz-adv-x="734" 
d="M288 662q-16 0 -24 -6.5t-8 -17.5t9 -24l140 -216l98 133q14 20 20.5 39.5t6.5 35.5q0 24 -18.5 40t-50.5 16h-41v12h295v-12h-19q-38 0 -83 -31.5t-90 -92.5l-111 -151l194 -299q13 -21 23.5 -35.5t21.5 -23.5t25 -13t34 -4h21v-12h-322v12h75q18 0 27 6.5t9 16.5
q0 8 -7 18l-165 255l-117 -158q-18 -24 -26.5 -45t-8.5 -37q0 -24 19.5 -40t54.5 -16h65v-12h-333v12h14q33 2 59.5 12t50 28t45.5 44t48 60l121 162l-196 303q-14 22 -27.5 31.5t-36.5 9.5h-58v12h334v-12h-68z" />
    <glyph glyph-name="Y" unicode="Y" horiz-adv-x="723" 
d="M210 638q0 -13 9 -28l183 -337l132 249q10 19 14 38t4 35q0 30 -22 48.5t-60 18.5h-52v12h303v-12h-13q-24 0 -44 -7t-39 -24t-38.5 -45t-41.5 -69l-139 -263v-185q0 -57 51 -57h68v-12h-354v12h85q50 0 50 57v172l-210 384q-11 20 -25 28.5t-37 8.5h-32v12h325v-12h-83
q-17 0 -25.5 -6.5t-8.5 -17.5z" />
    <glyph glyph-name="Z" unicode="Z" horiz-adv-x="648" 
d="M167 12h187q63 0 129 57q32 29 57 75.5t40 112.5h11l-6 -257h-548l446 662h-179q-80 0 -140 -60q-60 -59 -81 -167h-12l5 239h535z" />
    <glyph glyph-name="bracketleft" unicode="[" horiz-adv-x="338" 
d="M88 674h216v-12h-137v-830h136v-13h-215v855z" />
    <glyph glyph-name="backslash" unicode="\" horiz-adv-x="333" 
d="M44 683h27l206 -929h-27z" />
    <glyph glyph-name="bracketright" unicode="]" horiz-adv-x="337" 
d="M34 674h216v-855h-216v13h136v830h-136v12z" />
    <glyph glyph-name="asciicircum" unicode="^" horiz-adv-x="469" 
d="M234 609l-170 -285h-46l209 350h15l209 -350h-46z" />
    <glyph glyph-name="underscore" unicode="_" horiz-adv-x="500" 
d="M509 -216h-517v41h517v-41z" />
    <glyph glyph-name="grave" unicode="`" 
d="M114 598q-21 17 -30.5 28.5t-9.5 25.5q0 15 9 24t23 9q21 0 35.5 -15.5t37.5 -54.5l63 -110h-12z" />
    <glyph glyph-name="a" unicode="a" horiz-adv-x="506" 
d="M408 -6q-36 0 -62 22t-34 80q-25 -53 -57.5 -77.5t-82.5 -24.5q-64 0 -102 30t-38 77q0 33 17 54t43.5 34.5t59.5 21.5t65 15q56 12 88 28v76q0 42 -24 65t-68 23q-13 0 -29 -3.5t-29.5 -10t-22.5 -15.5t-9 -19q0 -7 6.5 -12t15 -11.5t15 -16.5t6.5 -26q0 -20 -13 -32.5
t-33 -12.5q-23 0 -37 16.5t-14 36.5q0 27 14 49t36.5 38t51.5 25t59 9q165 0 165 -136v-198q0 -80 37 -80q31 0 44 39.5t13 101.5h12q0 -89 -21.5 -127.5t-71.5 -38.5zM305 240q-24 -11 -55 -20q-28 -8 -50.5 -16.5t-38 -22t-24 -35.5t-8.5 -57q0 -32 16.5 -54.5t52.5 -22.5
q21 0 40 11.5t34 30.5t24 43t9 49v94z" />
    <glyph glyph-name="b" unicode="b" horiz-adv-x="545" 
d="M164 324q24 59 63 84t77 25q47 0 86 -18.5t66.5 -49.5t42.5 -70.5t15 -82.5q0 -47 -16 -87t-44 -69t-67 -45.5t-85 -16.5q-44 0 -83.5 26.5t-66.5 85.5q-22 -16 -40.5 -47t-27.5 -69h-11v622q0 50 -52 50h-44v12h33q16 0 35.5 0.5t40.5 2t41 3t37 4.5v-360zM164 212
q0 -46 9.5 -84t27 -65t42.5 -42t57 -15q55 0 82.5 52.5t27.5 149.5q0 110 -27 161t-81 51q-35 0 -61 -17t-43 -45.5t-25.5 -66t-8.5 -79.5z" />
    <glyph glyph-name="c" unicode="c" horiz-adv-x="442" 
d="M406 160q-2 -76 -45.5 -121t-112.5 -45q-44 0 -83.5 16.5t-69 45.5t-46.5 68t-17 84t17.5 85.5t47.5 71.5t71 49.5t89 18.5q31 0 58 -10.5t46.5 -28.5t30.5 -41t11 -48q0 -26 -12 -43t-37 -17q-23 0 -35 15.5t-12 32.5q0 34 30 49q9 5 14.5 8t5.5 12q0 10 -7.5 20.5
t-20.5 18.5t-31.5 13.5t-40.5 5.5q-63 0 -92 -50t-29 -162q0 -98 30 -149.5t90 -51.5q29 0 54 11.5t43.5 31.5t29 48.5t11.5 61.5h12z" />
    <glyph glyph-name="d" unicode="d" horiz-adv-x="554" 
d="M510 0q-32 0 -65 -2.5t-66 -7.5v116q-20 -55 -56 -84t-84 -29q-47 0 -85 16.5t-65 46t-42 68.5t-15 84t15.5 85.5t43 71.5t66 49.5t84.5 18.5q42 0 76.5 -25.5t61.5 -86.5v291q0 50 -53 50h-48v12h38q16 0 35.5 0.5t40.5 2t41 3t37 4.5v-627q0 -23 10.5 -34t36.5 -11h31
v-12h-38zM133 208q0 -107 27 -154.5t81 -47.5q35 0 61 17t43 45.5t25.5 64.5t8.5 75q0 45 -9.5 83.5t-27 67t-42.5 45t-57 16.5q-55 0 -82.5 -50t-27.5 -162z" />
    <glyph glyph-name="e" unicode="e" horiz-adv-x="491" 
d="M460 160q-8 -39 -26.5 -69.5t-45.5 -52t-61 -33t-72 -11.5q-48 0 -89 16.5t-70.5 45.5t-46.5 68t-17 84t16.5 85.5t45.5 71.5t69 49.5t87 18.5q43 0 79 -16t63 -44t43.5 -65t21.5 -80h-321v-26q0 -97 34.5 -146t94.5 -49q33 0 63 11t54 31t41.5 48t24.5 63h12zM321 240
q17 0 23 8.5t6 34.5q0 28 -7 53t-20.5 44t-32.5 29.5t-42 10.5q-50 0 -81 -47t-31 -133h185z" />
    <glyph glyph-name="f" unicode="f" horiz-adv-x="328" 
d="M73 12q23 0 32 11.5t9 37.5v337h-97v21h97v49q0 106 49.5 161.5t139.5 55.5q23 0 45 -4.5t39.5 -14t28 -23.5t10.5 -33q0 -25 -15 -38.5t-34 -13.5q-24 0 -37 15t-13 32q0 12 4 20.5t9 13.5l9 9t4 7q0 7 -10 12t-36 5q-44 0 -73 -28.5t-29 -98.5v-126h91v-21h-91v-337
q0 -27 8.5 -38t31.5 -11h32v-12h-239v12h35z" />
    <glyph glyph-name="g" unicode="g" horiz-adv-x="510" 
d="M7 -130q0 35 31 52t102 27q-55 9 -82.5 31.5t-27.5 65.5q0 24 10 40t26.5 25.5t37.5 14t43 4.5h16q-63 15 -95 54.5t-32 86.5q0 37 15.5 67t41 51t58.5 32.5t69 11.5q52 0 93.5 -25t69.5 -76q0 5 -0.5 12t-0.5 17q0 30 16 50.5t50 20.5q28 0 47.5 -16t19.5 -44
q0 -20 -11.5 -29.5t-25.5 -9.5q-16 0 -26.5 9.5t-10.5 25.5q0 13 6.5 17.5t6.5 15.5q0 16 -19 16q-17 0 -29 -15t-12 -41q0 -12 2 -22.5t4.5 -21t4.5 -22.5t2 -27q0 -36 -16.5 -64.5t-44.5 -48t-65 -29.5t-77 -10q-13 0 -27 1t-30 1q-35 0 -59 -11t-24 -34q0 -36 70 -36
q19 0 35.5 1l33 2t34.5 2t39 1q81 0 128 -33t47 -102q0 -39 -18 -67t-48 -46t-69.5 -26.5t-82.5 -8.5q-39 0 -79.5 6t-73 19t-53 34t-20.5 51zM233 -228q44 0 80 8t62 23t40 35.5t14 44.5q0 38 -33 52t-89 14q-51 0 -90 -2.5t-66 -7.5q-40 -8 -59 -26t-19 -44t13 -44
t35.5 -30t51 -17.5t60.5 -5.5zM220 420q-95 0 -95 -153q0 -63 24 -100t69 -37q100 0 100 148q0 142 -98 142z" />
    <glyph glyph-name="h" unicode="h" horiz-adv-x="560" 
d="M179 297q44 136 152 136q38 0 66.5 -12.5t47 -35t28 -54t9.5 -68.5v-202q0 -28 9 -38.5t32 -10.5h32v-12h-239v12h35q23 0 32 11.5t9 37.5v226q0 60 -19.5 95t-56.5 35q-31 0 -56.5 -18t-43.5 -48t-27.5 -68.5t-9.5 -78.5v-143q0 -27 8.5 -38t31.5 -11h32v-12h-238v12h35
q23 0 31.5 11.5t8.5 37.5v556q0 23 -10.5 34t-36.5 11h-31v12h38q32 0 65 2.5t66 7.5v-387z" />
    <glyph glyph-name="i" unicode="i" horiz-adv-x="264" 
d="M179 61q0 -27 8.5 -38t31.5 -11h32v-12h-238v12h35q23 0 31.5 11.5t8.5 37.5v303q0 23 -12.5 33t-34.5 10h-31v12h38q31 0 63.5 2.5t67.5 8.5v-369zM76 573q0 23 16.5 39.5t39.5 16.5t39.5 -16.5t16.5 -39.5t-16.5 -39.5t-39.5 -16.5t-39.5 16.5t-16.5 39.5z" />
    <glyph glyph-name="j" unicode="j" horiz-adv-x="251" 
d="M47 419q31 0 63.5 2.5t68.5 8.5v-508q0 -30 -8.5 -59t-25.5 -52t-43 -37t-61 -14q-18 0 -36 5.5t-32.5 16t-23 26.5t-8.5 36q0 22 12.5 35.5t35.5 13.5q20 0 31 -11.5t11 -28.5q0 -16 -5.5 -25.5t-11.5 -15.5t-11.5 -10t-5.5 -9q0 -9 13.5 -15t30.5 -6q27 0 37 17t10 65
v510q0 23 -13 33t-34 10h-32v12h38zM76 573q0 23 16.5 39.5t39.5 16.5t39.5 -16.5t16.5 -39.5t-16.5 -39.5t-39.5 -16.5t-39.5 16.5t-16.5 39.5z" />
    <glyph glyph-name="k" unicode="k" horiz-adv-x="549" 
d="M179 158l156 157q26 25 26 51q0 17 -18.5 29t-57.5 12h-25v12h267v-12h-14q-69 0 -145 -76l-55 -55l155 -217q15 -22 33 -34.5t38 -12.5h16v-12h-250v12h42q25 0 25 18q0 5 -3 10.5t-6 10.5l-114 160l-70 -69v-81q0 -27 8.5 -38t31.5 -11h32v-12h-238v12h35
q23 0 31.5 11.5t8.5 37.5v557q0 23 -12.5 33.5t-34.5 10.5h-31v12h38q31 0 63.5 2.5t67.5 7.5v-526z" />
    <glyph glyph-name="l" unicode="l" horiz-adv-x="264" 
d="M179 61q0 -27 8.5 -38t31.5 -11h32v-12h-238v12h35q23 0 31.5 11.5t8.5 37.5v557q0 23 -12.5 33.5t-34.5 10.5h-31v12h38q31 0 63.5 2.5t67.5 7.5v-623z" />
    <glyph glyph-name="m" unicode="m" horiz-adv-x="834" 
d="M328 433q53 0 88.5 -29.5t49.5 -96.5q26 67 64 96.5t83 29.5q36 0 63 -12t44.5 -33t26.5 -49.5t9 -61.5v-216q0 -27 9 -38t32 -11h32v-12h-239v12h35q23 0 32 11.5t9 37.5v229q0 67 -15 97t-50 30q-23 0 -46.5 -13t-42.5 -39t-31.5 -65.5t-12.5 -93.5v-145q0 -27 8.5 -38
t31.5 -11h33v-12h-240v12h35q23 0 32 11.5t9 37.5v235q0 121 -64 121q-18 0 -41.5 -11.5t-44 -40.5t-34.5 -78t-14 -123v-103q0 -27 8.5 -38t31.5 -11h32v-12h-238v12h35q23 0 31.5 11.5t8.5 37.5v303q0 23 -12.5 33t-34.5 10h-31v12h38q31 0 63.5 2.5t67.5 8.5v-143
q43 146 149 146z" />
    <glyph glyph-name="n" unicode="n" horiz-adv-x="560" 
d="M179 297q44 136 152 136q38 0 66.5 -12.5t47 -35t28 -54t9.5 -68.5v-202q0 -28 9 -38.5t32 -10.5h32v-12h-239v12h35q23 0 32 11.5t9 37.5v226q0 60 -19.5 95t-56.5 35q-31 0 -56.5 -18t-43.5 -48t-27.5 -68.5t-9.5 -78.5v-143q0 -27 8.5 -38t31.5 -11h32v-12h-238v12h35
q23 0 31.5 11.5t8.5 37.5v302q0 23 -10.5 33.5t-36.5 10.5h-31v12h38q32 0 65 3t66 8v-133z" />
    <glyph glyph-name="o" unicode="o" horiz-adv-x="522" 
d="M261 -6q-49 0 -91 16.5t-72.5 45.5t-48 68t-17.5 84t18 85.5t49 71.5t72.5 49.5t89.5 18.5t90 -18t73 -48.5t49 -71.5t18 -87q0 -45 -18 -84.5t-49 -68t-73 -45t-90 -16.5zM261 420q-66 0 -95.5 -50t-29.5 -162q0 -107 30 -154.5t95 -47.5q39 0 63.5 13.5t38.5 39.5
t19 63.5t5 85.5q0 110 -31.5 161t-94.5 51z" />
    <glyph glyph-name="p" unicode="p" horiz-adv-x="556" 
d="M312 -6q-42 0 -76.5 26.5t-61.5 88.5v-282q0 -26 8.5 -37.5t31.5 -11.5h32v-12h-238v12h35q23 0 31.5 11.5t8.5 37.5v531q0 26 -13 37.5t-39 11.5h-26v12h16q15 0 35 0.5t40.5 2t40.5 3.5t37 5v-113q20 52 55 84t85 32q46 0 85 -18t66.5 -48.5t43 -71.5t15.5 -87
q0 -45 -16 -84.5t-44 -68t-67 -45t-85 -16.5zM174 212q0 -40 9.5 -77t27 -65.5t42.5 -46t57 -17.5q55 0 82.5 52.5t27.5 149.5q0 110 -27 161t-81 51q-35 0 -61 -17.5t-43 -46.5t-25.5 -66.5t-8.5 -77.5z" />
    <glyph glyph-name="q" unicode="q" horiz-adv-x="542" 
d="M242 433q45 0 83.5 -28t64.5 -85q22 15 40.5 45.5t27.5 70.5h12v-609q0 -26 8 -37.5t31 -11.5h33v-12h-239v12h35q23 0 32 11.5t9 37.5v276q-23 -59 -61.5 -84t-77.5 -25q-47 0 -85.5 18.5t-65.5 49t-42 70.5t-15 82q0 47 15.5 87t43.5 69.5t66.5 46t84.5 16.5zM133 218
q0 -110 26.5 -161t81.5 -51q34 0 60 17.5t43.5 46.5t26 66.5t8.5 77.5q0 46 -9.5 84t-26.5 65t-42.5 42t-56.5 15q-57 0 -84 -52t-27 -150z" />
    <glyph glyph-name="r" unicode="r" horiz-adv-x="412" 
d="M179 300q23 70 57 101.5t74 31.5q18 0 34.5 -7t29 -18.5t20 -27t7.5 -32.5q0 -27 -14 -42.5t-37 -15.5t-39 14t-16 35q0 15 5.5 23.5t12 15t12 11.5t5.5 13q0 17 -24 17q-26 0 -49.5 -17t-40.5 -47.5t-27 -72.5t-10 -91v-130q0 -27 8.5 -38t31.5 -11h32v-12h-238v12h35
q23 0 31.5 11.5t8.5 37.5v303q0 23 -12.5 33t-34.5 10h-31v12h38q31 0 63.5 2.5t67.5 8.5v-130z" />
    <glyph glyph-name="s" unicode="s" horiz-adv-x="395" 
d="M229 -6q-34 0 -69.5 12.5t-64.5 46.5q-14 -12 -24.5 -28t-15.5 -31h-11v185h11q18 -85 60.5 -129t113.5 -44q39 0 65.5 17.5t26.5 55.5q0 18 -9.5 30.5t-27 22.5t-41 18.5t-51.5 16.5q-34 10 -61.5 22t-46.5 29.5t-29 40.5t-10 55q0 25 10 47t27 38t41 25t52 9
q35 0 65.5 -17t50.5 -41q16 12 24 25t12 28h11v-168h-11q-5 34 -19 63.5t-34 51t-45.5 33.5t-53.5 12q-36 0 -64 -18.5t-28 -54.5q0 -32 32.5 -49t87.5 -34q36 -12 65.5 -24.5t50.5 -30t32.5 -40.5t11.5 -54q0 -57 -38.5 -89t-95.5 -32z" />
    <glyph glyph-name="t" unicode="t" horiz-adv-x="374" 
d="M184 615v-196h139v-21h-139v-309q0 -32 14 -54t47 -22q49 0 74 53.5t25 159.5h12q0 -118 -30.5 -175t-106.5 -57q-60 0 -93 30t-33 87v287h-88v11q68 17 112 69t55 137h12z" />
    <glyph glyph-name="u" unicode="u" horiz-adv-x="544" 
d="M545 12v-12h-38q-32 0 -65 -2.5t-66 -7.5v140q-22 -70 -58 -103t-98 -33q-39 0 -66 12.5t-44 35t-24.5 53.5t-7.5 69v199q0 23 -11 33.5t-37 10.5h-31v12h38q32 0 65.5 3t65.5 8v-291q0 -60 15.5 -95t53.5 -35q36 0 62.5 21t43.5 53.5t25 72.5t8 78v129q0 23 -10.5 33.5
t-36.5 10.5h-32v12h38q32 0 65.5 3t66.5 8v-373q0 -23 10.5 -34t36.5 -11h31z" />
    <glyph glyph-name="v" unicode="v" horiz-adv-x="531" 
d="M187 378q0 -3 2 -11l114 -281l84 197q17 41 17 76q0 23 -14.5 35.5t-44.5 12.5h-29v12h220v-12h-12q-41 0 -64.5 -21.5t-44.5 -70.5l-140 -325h-30l-140 343q-14 34 -28 54t-43 20h-39v12h271v-12h-45q-34 0 -34 -29z" />
    <glyph glyph-name="w" unicode="w" horiz-adv-x="706" 
d="M422 388q0 -10 4 -21l84 -270l84 213q13 33 13 58q0 17 -12.5 28t-35.5 11h-16v12h167v-12h-4q-61 0 -94 -84l-130 -333h-32l-91 293l-119 -293h-31l-117 330q-8 22 -14.5 38.5t-14.5 27t-18.5 16t-26.5 5.5h-23v12h221v-12h-24q-27 0 -27 -16q0 -11 4 -22l98 -278
l86 211l-24 78q-5 14 -13 20.5t-28 6.5h-28v12h234v-12h-40q-32 0 -32 -19z" />
    <glyph glyph-name="x" unicode="x" horiz-adv-x="533" 
d="M303 247l123 -178q20 -29 35.5 -43t44.5 -14h17v-12h-248v12h24q37 0 37 19q0 8 -7 18l-94 139l-68 -84q-15 -18 -21 -33t-6 -27q0 -32 67 -32h19v-12h-216v12h8q31 0 63.5 23.5t67.5 67.5l77 95l-116 167q-15 21 -30 31.5t-38 10.5h-24v12h246v-12h-34q-23 0 -23 -13
q0 -11 9 -23l79 -115l69 89q14 17 14 34q0 28 -38 28h-32v12h202v-12h-19q-29 0 -63.5 -22t-71.5 -70z" />
    <glyph glyph-name="y" unicode="y" horiz-adv-x="542" 
d="M547 419v-12h-16q-42 0 -64.5 -24t-39.5 -64l-178 -430q-28 -67 -61 -98t-80 -31q-45 0 -72 21t-27 56q0 25 14.5 40t37.5 15q22 0 35 -14.5t13 -34.5q0 -11 -3.5 -19.5t-7.5 -15t-7.5 -12t-3.5 -10.5q0 -14 22 -14q42 0 72 29t54 87l27 66l-157 379q-14 34 -28.5 54
t-48.5 20h-33v12h271v-12h-45q-34 0 -34 -29q0 -6 3 -12l122 -294l87 211q18 43 18 76q0 23 -15 35.5t-44 12.5h-31v12h220z" />
    <glyph glyph-name="z" unicode="z" horiz-adv-x="453" 
d="M144 12h97q42 0 71.5 10.5t48.5 30.5t30 49.5t16 67.5h11v-170h-384v8l262 399h-81q-129 0 -151 -155h-11v167h359z" />
    <glyph glyph-name="braceleft" unicode="{" horiz-adv-x="355" 
d="M321 -199q-82 12 -132.5 62t-50.5 128q0 18 3.5 36.5t7.5 37t7.5 36.5t3.5 36q0 20 -9 38t-24 32t-35.5 23.5t-42.5 12.5v12q55 9 83 40t28 69q0 20 -3.5 37.5t-7.5 35t-7.5 36t-3.5 40.5q0 37 14 68.5t39 55.5t58 39.5t72 21.5v-12q-110 -32 -110 -114q0 -38 11 -76.5
t11 -77.5q0 -111 -144 -168q144 -59 144 -171q0 -37 -11 -76.5t-11 -76.5q0 -83 110 -113v-12z" />
    <glyph glyph-name="bar" unicode="|" horiz-adv-x="202" 
d="M116 674v-855h-31v855h31z" />
    <glyph glyph-name="braceright" unicode="}" horiz-adv-x="355" 
d="M34 698q83 -12 133 -62t50 -128q0 -37 -11 -74t-11 -72q0 -21 9 -39t24.5 -32t35.5 -23t43 -12v-12q-55 -10 -83.5 -40.5t-28.5 -68.5q0 -20 3.5 -37.5t8 -35t8 -36t3.5 -40.5q0 -38 -14.5 -69t-39 -55t-58 -39.5t-72.5 -21.5v12q111 30 111 114q0 19 -3.5 38t-7.5 38
t-7.5 38.5t-3.5 38.5q0 113 144 169q-144 58 -144 171q0 18 3.5 37t7.5 38.5t7.5 39t3.5 37.5q0 84 -111 114v12z" />
    <glyph glyph-name="asciitilde" unicode="~" horiz-adv-x="667" 
d="M479 244q-27 0 -66.5 14t-81 31t-81 31t-66.5 14q-39 0 -65.5 -22t-33.5 -67h-12q0 32 8.5 60t23.5 48.5t36 32.5t46 12q27 0 66.5 -14t81 -31t81 -31t66.5 -14q40 0 66.5 22t32.5 67h12q0 -32 -8.5 -60t-23.5 -48.5t-36 -32.5t-46 -12z" />
    <glyph glyph-name="exclamdown" unicode="&#xa1;" horiz-adv-x="252" 
d="M132 274v-28q0 -57 6 -117t13 -113.5t13 -96t6 -65.5q0 -41 -12 -64t-32 -23t-32 23t-12 64q0 23 6 65.5t13 96t13 113.5t6 117v28h12zM73 393q0 21 15.5 36.5t37.5 15.5t37.5 -15.5t15.5 -36.5q0 -22 -15.5 -37.5t-37.5 -15.5t-37.5 15.5t-15.5 37.5z" />
    <glyph glyph-name="cent" unicode="&#xa2;" horiz-adv-x="448" 
d="M406 160q-2 -76 -45.5 -121t-112.5 -45q-49 0 -92 20l-90 -258h-13l91 264q-50 27 -81 76.5t-31 111.5q0 45 17.5 85.5t47.5 71.5t71 49.5t89 18.5q15 0 30 -3l88 254h14l-90 -257q46 -13 75 -47t29 -75q0 -26 -12 -43t-37 -17q-23 0 -35 15.5t-12 32.5q0 34 30 49
q9 5 14.5 8t5.5 12q0 15 -16.5 30t-45.5 23l-126 -362q31 -46 87 -46q29 0 54 11.5t43.5 31.5t29 48.5t11.5 61.5h12zM136 208q0 -90 25 -140l122 350q-7 1 -13 1.5t-13 0.5q-63 0 -92 -50t-29 -162z" />
    <glyph glyph-name="sterling" unicode="&#xa3;" horiz-adv-x="510" 
d="M249 292q1 -9 1.5 -16.5t0.5 -15.5q0 -49 -13 -96t-34 -88q33 -7 70.5 -13.5t81.5 -6.5q45 0 71 16t28 49h11q0 -30 -10 -56.5t-26.5 -46t-37.5 -30.5t-43 -11q-23 0 -44 7t-41 17.5t-39 22.5t-38 23q-22 -35 -45 -51.5t-51 -16.5q-24 0 -39.5 13t-15.5 37q0 25 23 42
t65 17q14 0 29.5 -2.5t33.5 -5.5q9 30 9 69q0 37 -11 71.5t-23 71.5h-102v12h98q-9 27 -15 55.5t-6 60.5q0 46 12.5 88t35 74t55 51.5t73.5 19.5q27 0 50 -9t40 -24.5t26.5 -36.5t9.5 -45q0 -35 -17.5 -59.5t-46.5 -24.5q-20 0 -34 11.5t-14 33.5q0 20 11.5 32t28.5 12
q18 0 28 -10.5t18 -10.5q5 0 9.5 4.5t4.5 14.5q0 20 -8.5 38.5t-23.5 32t-36 21.5t-46 8q-23 0 -42.5 -9.5t-33.5 -26t-21.5 -38.5t-7.5 -46q0 -25 4.5 -52.5t11 -56t13 -56.5t10.5 -52h116v-12h-114zM91 -8q53 0 84 61q-15 8 -31 12.5t-33 4.5q-31 0 -47 -12t-16 -29
q0 -20 11.5 -28.5t31.5 -8.5z" />
    <glyph glyph-name="currency" unicode="&#xa4;" horiz-adv-x="677" 
d="M532 549l30 -30l-61 -61q49 -62 49 -139q0 -74 -49 -136l61 -61l-30 -30l-61 60q-63 -48 -138 -48q-76 0 -137 48l-62 -60l-30 30l62 61q-50 62 -50 137q0 74 50 138l-62 61l30 30l62 -61q62 49 137 49q74 0 138 -49zM160 320q0 -36 13.5 -67.5t37 -55t55 -37t67.5 -13.5
t67.5 13.5t55 37t37 55t13.5 67.5t-13.5 67.5t-37 55.5t-55 37.5t-67.5 13.5t-67.5 -13.5t-55 -37.5t-37 -55.5t-13.5 -67.5z" />
    <glyph glyph-name="yen" unicode="&#xa5;" horiz-adv-x="660" 
d="M387 293l-13 -25v-101h198v-13h-198v-85q0 -57 50 -57h69v-12h-354v12h85q50 0 50 57v85h-198v13h198v87l-22 39h-176v12h170l-150 275q-11 19 -25 27.5t-37 8.5h-32v12h292v-12h-50q-17 0 -25.5 -6.5t-8.5 -17.5q0 -12 9 -28l151 -278l101 191q10 19 13.5 38t3.5 35
q0 29 -21.5 47.5t-60.5 18.5h-20v12h271v-12h-13q-23 0 -43 -7t-39.5 -23.5t-38.5 -44.5t-41 -69l-88 -167h178v-12h-185z" />
    <glyph glyph-name="brokenbar" unicode="&#xa6;" horiz-adv-x="202" 
d="M116 117v-298h-31v298h31zM116 333h-31v341h31v-341z" />
    <glyph glyph-name="section" unicode="&#xa7;" horiz-adv-x="396" 
d="M271 98q-3 0 -9 0.5t-13 1.5q47 -44 70 -92.5t23 -90.5q0 -34 -10 -62.5t-28.5 -49.5t-45.5 -33t-60 -12q-23 0 -43 7.5t-35.5 21t-24.5 32t-9 39.5q0 27 15.5 45t37.5 18q20 0 33 -13t13 -33q0 -19 -10 -28t-21.5 -13.5t-21.5 -7.5t-10 -10q0 -9 7 -17.5t18 -15
t24.5 -10t27.5 -3.5q49 0 76.5 29.5t27.5 75.5q0 50 -36.5 97t-92.5 92q-53 43 -86.5 85.5t-33.5 94.5q0 42 23 72t65 30q6 0 13 -1t14 -3q-93 87 -93 168q0 31 10.5 57.5t29.5 46t44 31t54 11.5q24 0 45 -7.5t37 -20.5t25 -31.5t9 -39.5q0 -23 -13 -38t-34 -15
q-20 0 -34 13.5t-14 33.5q0 16 7.5 23.5t16 11.5t16 7t7.5 11q0 16 -19.5 27.5t-48.5 11.5q-42 0 -70.5 -28.5t-28.5 -73.5q0 -22 8 -40.5t23 -36t36.5 -35t47.5 -38.5q31 -25 56 -47.5t41.5 -45t25.5 -46.5t9 -52q0 -48 -24.5 -76t-66.5 -28zM142 335q-23 0 -40.5 -14
t-17.5 -39q0 -14 7 -28t17.5 -27.5t22 -25t21.5 -20.5q12 -11 26 -23t29.5 -22.5t31.5 -17.5t32 -7q31 0 45 16t14 37q0 23 -18 51t-53 57q-35 30 -65 46.5t-52 16.5z" />
    <glyph glyph-name="dieresis" unicode="&#xa8;" 
d="M11 571q0 22 15 37t36 15q22 0 37 -15t15 -37q0 -21 -15 -36t-37 -15q-21 0 -36 15t-15 36zM203 571q0 22 15 37t36 15t36 -15t15 -37q0 -21 -15 -36t-36 -15t-36 15t-15 36z" />
    <glyph glyph-name="copyright" unicode="&#xa9;" horiz-adv-x="782" 
d="M561 278q-4 -37 -17.5 -68.5t-36 -54t-52.5 -35.5t-66 -13q-46 0 -84.5 21.5t-66 54t-43 72t-15.5 75.5q0 40 16.5 80.5t43.5 73.5t63 54t75 21q43 0 72.5 -20.5t48.5 -43.5q4 -6 12 -6q7 0 14.5 16.5t17.5 53.5h11l6 -198h-11q-11 39 -27 73t-38 58.5t-48 39t-56 14.5
q-34 0 -56 -13t-35.5 -38.5t-19 -62t-5.5 -84.5q0 -122 30.5 -175t92.5 -53q28 0 55 9t49 28.5t37 49t20 71.5h13zM49 335q0 70 27 132.5t73.5 109t108.5 73.5t133 27t133 -27t108.5 -73.5t73.5 -109t27 -132.5q0 -71 -27 -133t-73.5 -108.5t-108.5 -73.5t-133 -27t-133 27
t-108.5 73.5t-73.5 108.5t-27 133zM65 335q0 -68 25.5 -127t70 -103.5t103.5 -70t127 -25.5q67 0 126.5 25.5t104 70t70 103.5t25.5 127q0 67 -25.5 126.5t-70 104t-104 70t-126.5 25.5q-68 0 -127 -25.5t-103.5 -70t-70 -104t-25.5 -126.5z" />
    <glyph glyph-name="ordfeminine" unicode="&#xaa;" horiz-adv-x="396" 
d="M303 322q-26 0 -44.5 17.5t-25.5 52.5q-29 -71 -98 -71q-45 0 -72.5 22.5t-27.5 60.5q0 33 23.5 56t77.5 44q20 8 44.5 17t48.5 17v59q0 71 -66 71q-29 0 -50 -9.5t-21 -24.5q0 -5 3.5 -8t14.5 -8t17 -12t6 -21q0 -17 -11 -28t-28 -11q-20 0 -33.5 13.5t-13.5 33.5
q0 18 9.5 34t26 28.5t40 19.5t50.5 7q51 0 85.5 -23t34.5 -74v-182q0 -49 29 -49q36 0 36 68v43h13v-43q0 -100 -68 -100zM229 524q-28 -8 -52 -19q-34 -15 -51.5 -34.5t-17.5 -54.5q0 -75 44 -75q15 0 28.5 6.5t24.5 18.5t17.5 28.5t6.5 36.5v93z" />
    <glyph glyph-name="guillemotleft" unicode="&#xab;" horiz-adv-x="383" 
d="M282 217l52 -175h-11l-113 175l113 176h11zM134 217l90 -223h-11l-164 223l164 223h11z" />
    <glyph glyph-name="logicalnot" unicode="&#xac;" horiz-adv-x="667" 
d="M71 461h524v-281h-42v239h-482v42z" />
    <glyph glyph-name="registered" unicode="&#xae;" horiz-adv-x="782" 
d="M49 335q0 70 27 132.5t73.5 109t108.5 73.5t133 27t133 -27t108.5 -73.5t73.5 -109t27 -132.5q0 -71 -27 -133t-73.5 -108.5t-108.5 -73.5t-133 -27t-133 27t-108.5 73.5t-73.5 108.5t-27 133zM65 335q0 -68 25.5 -127t70 -103.5t103.5 -70t127 -25.5q67 0 126.5 25.5
t104 70t70 103.5t25.5 127q0 67 -25.5 126.5t-70 104t-104 70t-126.5 25.5q-68 0 -127 -25.5t-103.5 -70t-70 -104t-25.5 -126.5zM180 560h224q82 0 122 -30.5t40 -72.5q0 -17 -8.5 -34.5t-26.5 -32.5t-45.5 -26t-65.5 -15q25 -5 42 -15t28.5 -23.5t18.5 -30t12 -33.5
q6 -21 10 -41t8.5 -35t11 -24t16.5 -9q21 0 34 23t13 62v22h12v-22q0 -20 -3.5 -39t-13 -33.5t-25.5 -23.5t-41 -9q-35 0 -58.5 27t-23.5 91q0 22 -3 42t-12.5 35t-27.5 23.5t-48 8.5h-39v-149q0 -29 8 -42.5t31 -13.5h47v-12h-237v12h39q23 0 30.5 13.5t7.5 42.5v296
q0 29 -7.5 42.5t-30.5 13.5h-39v12zM370 548q-23 0 -31 -13.5t-8 -42.5v-135h47q54 0 82 22t28 81q0 46 -21 67t-73 21h-24z" />
    <glyph glyph-name="degree" unicode="&#xb0;" horiz-adv-x="385" 
d="M54 541q0 29 11 54.5t29.5 44t43.5 29.5t54 11t54.5 -11t44.5 -29.5t30 -44t11 -54.5t-11 -54.5t-30 -44t-44.5 -29.5t-54.5 -11t-54 11t-43.5 29.5t-29.5 44t-11 54.5zM71 541q0 -25 9.5 -47t26 -38.5t38.5 -26t47 -9.5t47.5 9.5t39 26t26 38.5t9.5 47t-9.5 47.5t-26 39
t-39 26t-47.5 9.5t-47 -9.5t-38.5 -26t-26 -39t-9.5 -47.5z" />
    <glyph glyph-name="plusminus" unicode="&#xb1;" horiz-adv-x="667" 
d="M71 419h240v242h43v-242h242v-43h-242v-240h-43v240h-240v43zM71 25h525v-43h-525v43z" />
    <glyph glyph-name="uni00B2" unicode="&#xb2;" horiz-adv-x="333" 
d="M32 345q46 54 89 95.5t66 75.5q18 27 18 62q0 36 -19.5 59t-53.5 23q-17 0 -32 -6t-26 -15.5t-17.5 -22t-6.5 -25.5t9 -13q2 0 9 5q10 8 24 8q11 0 21.5 -11t10.5 -25t-11 -26t-28 -12q-20 0 -33.5 17.5t-13.5 47.5q0 25 10 44t26.5 31.5t38.5 18.5t46 6q54 0 88.5 -28
t34.5 -71q0 -38 -27 -65t-69 -53q-60 -37 -91 -70h158q14 0 20 10.5t7 36.5h11l-11 -107h-248v10z" />
    <glyph glyph-name="uni00B3" unicode="&#xb3;" horiz-adv-x="333" 
d="M283 595q0 -59 -94 -76q107 -23 107 -96q0 -23 -11 -40.5t-30 -29.5t-44 -18.5t-53 -6.5q-60 0 -92 21t-32 55q0 21 13 34t31 13q35 0 35 -35q0 -30 -34 -34q-13 -3 -13 -10q0 -10 19 -20.5t47 -10.5q38 0 62.5 22t24.5 61q0 14 -4 28.5t-12 26.5t-19.5 19.5t-26.5 7.5
q-7 0 -21 -3t-22 -3t-8 8q0 11 32 13q26 2 37 7q12 6 22 23t10 43q0 74 -62 74q-28 0 -49.5 -10.5t-21.5 -21.5q0 -6 14 -8q36 -3 36 -34q0 -35 -34 -35q-18 0 -30.5 13t-12.5 33q0 33 31 55t82 22q54 0 88.5 -24.5t34.5 -62.5z" />
    <glyph glyph-name="acute" unicode="&#xb4;" 
d="M86 505h-12l64 110q23 39 37.5 54.5t34.5 15.5q14 0 23 -9t9 -24q0 -14 -9.5 -25.5t-29.5 -28.5z" />
    <glyph glyph-name="paragraph" unicode="&#xb6;" horiz-adv-x="495" 
d="M485 674v-12h-20q-39 0 -48 -18q-11 -19 -11 -85v-793h-36v890h-95v-890h-37v526q-144 4 -194 60q-48 54 -48 131q0 87 58 139q61 52 169 52h262z" />
    <glyph glyph-name="cedilla" unicode="&#xb8;" 
d="M184 0h16l-33 -42q38 -8 59.5 -28t21.5 -45q0 -22 -15 -38.5t-40 -27.5t-57.5 -16.5t-67.5 -5.5v12q24 1 45 4.5t36.5 10.5t24.5 18.5t9 29.5q0 40 -65 43z" />
    <glyph glyph-name="uni00B9" unicode="&#xb9;" horiz-adv-x="333" 
d="M60 674q40 0 71 2t58 6h16v-306q0 -29 28 -29h46v-12h-219v12h43q34 0 34 36v250q0 29 -33 29h-44v12z" />
    <glyph glyph-name="ordmasculine" unicode="&#xba;" horiz-adv-x="396" 
d="M198 682q35 0 64.5 -14t51 -38t33.5 -57t12 -72t-12 -72t-33.5 -57.5t-51 -38t-64.5 -13.5t-64.5 13.5t-51 38t-33.5 57.5t-12 72t12 72t33.5 57t51 38t64.5 14zM198 333q45 0 66.5 40t21.5 128t-21.5 128t-66.5 40t-66.5 -40t-21.5 -128t21.5 -128t66.5 -40z" />
    <glyph glyph-name="guillemotright" unicode="&#xbb;" horiz-adv-x="383" 
d="M49 393h11l112 -176l-112 -175h-11l52 175zM159 440h11l164 -223l-164 -223h-11l90 223z" />
    <glyph glyph-name="AE" unicode="&#xc6;" horiz-adv-x="1006" 
d="M952 674v-244h-11q-25 107 -79.5 169.5t-136.5 62.5h-124q-23 0 -23 -33v-282h34q146 0 152 177h12v-370h-12q0 45 -11 78.5t-30.5 56t-46.5 34t-58 11.5h-40v-288q0 -34 31 -34h127q44 0 80 17.5t63.5 48.5t46.5 73.5t30 92.5h11l-6 -244h-586v12h52q51 0 51 57v218
h-226l-46 -85q-9 -17 -18.5 -34.5t-16.5 -34t-11.5 -31t-4.5 -24.5q0 -30 23 -48t53 -18h21v-12h-250v12q85 3 150 119l257 461q11 18 11 35q0 35 -52 35h-87v12h671zM263 306h215v333q0 23 -8 23q-7 0 -19 -21z" />
    <glyph glyph-name="Eth" unicode="&#xd0;" horiz-adv-x="718" 
d="M24 344h91v260q0 58 -50 58h-53v12h330q70 0 131 -28t107 -75t72.5 -108.5t26.5 -129.5q0 -69 -28.5 -129.5t-76.5 -105.5t-110 -71.5t-128 -26.5h-324v12h53q50 0 50 57v261h-91v14zM242 662q-27 0 -27 -31v-287h180v-14h-180v-278q0 -40 29 -40h95q62 0 104.5 28
t69 74.5t38 107.5t11.5 127q0 67 -10.5 124.5t-37 99.5t-71.5 65.5t-114 23.5h-87z" />
    <glyph glyph-name="multiply" unicode="&#xd7;" horiz-adv-x="667" 
d="M333 351l208 207l30 -30l-208 -208l206 -206l-30 -31l-206 207l-207 -207l-30 31l207 206l-207 208l30 30z" />
    <glyph glyph-name="Oslash" unicode="&#xd8;" horiz-adv-x="698" 
d="M39 330q0 67 23.5 130.5t65.5 113t99 79.5t123 30q63 0 117 -27.5t95 -72.5l99 112l10 -9l-100 -114q42 -50 65 -113t23 -129q0 -67 -23.5 -129.5t-65 -111t-98 -77.5t-122.5 -29q-67 0 -121 26.5t-93 71.5l-99 -112l-11 9l100 113q-42 51 -64.5 114t-22.5 125zM522 545
q-17 61 -61.5 93t-110.5 32t-113 -32t-63 -95q-7 -31 -10.5 -87t-3.5 -125q0 -60 3 -108.5t8 -81.5l352 398zM538 341q0 55 -3 102t-8 79l-353 -398l1 -3q17 -64 61 -94.5t113 -30.5q71 0 116.5 33t58.5 99q7 33 10.5 89t3.5 124z" />
    <glyph glyph-name="Thorn" unicode="&#xde;" horiz-adv-x="612" 
d="M12 12h53q50 0 50 57v535q0 58 -50 58h-53v12h305v-12h-52q-50 0 -50 -58v-88h117q55 0 102.5 -11t82.5 -33.5t55 -57t20 -80.5q0 -41 -22.5 -74t-59 -56t-82 -35.5t-91.5 -12.5h-122v-87q0 -57 50 -57h52v-12h-305v12zM215 504v-336h99q88 0 126.5 45t38.5 121
q0 83 -40 126.5t-120 43.5h-104z" />
    <glyph glyph-name="germandbls" unicode="&#xdf;" horiz-adv-x="555" 
d="M12 12h47q31 0 31 32v419q0 61 15 103t42 68.5t63.5 38.5t78.5 12q40 0 76.5 -11.5t64 -32.5t43.5 -50t16 -64q0 -98 -152 -141q186 -36 186 -199q0 -37 -14 -71.5t-37 -61.5t-54 -43.5t-65 -16.5q-38 0 -62.5 22.5t-24.5 54.5q0 21 13 35t32 14q16 0 28 -11t12 -29
q0 -9 -4 -17t-8.5 -14t-8.5 -11.5t-4 -10.5q0 -9 7 -15t22 -6q24 0 37 17t19 43t7 58.5t1 62.5q0 40 -4 75t-16.5 60t-37 39.5t-65.5 14.5h-26v13q66 0 95 33t29 96q0 75 -24.5 114.5t-78.5 39.5q-58 0 -84 -31.5t-26 -93.5v-506q0 -29 27 -29h39v-12h-235v12z" />
    <glyph glyph-name="ae" unicode="&#xe6;" horiz-adv-x="750" 
d="M230 433q103 0 142 -54q26 25 60 39.5t76 14.5q43 0 79 -16t63 -44t44 -65t21 -80h-320v-26q0 -97 34.5 -146t94.5 -49q32 0 62 11t54.5 31t42 48t24.5 63h12q-8 -39 -26.5 -69.5t-45.5 -52t-61 -33t-72 -11.5q-69 0 -120.5 33t-74.5 86q-25 -62 -59 -90.5t-88 -28.5
q-64 0 -102 30t-38 77q0 33 17 54t43.5 34.5t59.5 21.5t65 15q56 12 88 28v76q0 42 -24 65t-68 23q-13 0 -29 -3.5t-29.5 -10t-22.5 -15.5t-9 -19q0 -7 6.5 -12t15 -11.5t15 -16.5t6.5 -26q0 -20 -13 -32.5t-33 -12.5q-23 0 -37 16.5t-14 36.5q0 27 14 49t36.5 38t51.5 25
t59 9zM580 240q17 0 23 8.5t6 34.5q0 28 -7 53t-20.5 44t-32.5 29.5t-42 10.5q-50 0 -81 -47t-31 -133h185zM305 240q-24 -11 -55 -20q-28 -8 -50.5 -16.5t-38 -22t-24 -35.5t-8.5 -57q0 -32 16.5 -54.5t52.5 -22.5q21 0 40 11.5t34 30.5t24 43t9 49v94z" />
    <glyph glyph-name="eth" unicode="&#xf0;" horiz-adv-x="522" 
d="M278 628q97 -71 155 -164.5t58 -202.5q0 -45 -12.5 -92.5t-40 -86.5t-72 -63.5t-108.5 -24.5q-48 0 -89.5 16.5t-72 45.5t-47.5 68t-17 84t17.5 85.5t48.5 71.5t72 49.5t88 18.5q38 0 63 -11.5t54 -30.5q-9 60 -37.5 119.5t-81.5 109.5l-114 -46l-7 17l106 42
q-30 26 -63 44l7 10q20 -11 38.5 -22t36.5 -24l94 38l7 -17zM136 208q0 -107 29.5 -154.5t92.5 -47.5q40 0 65 13.5t39.5 39.5t19.5 63.5t5 85.5q0 110 -32 161t-97 51q-63 0 -92.5 -50t-29.5 -162z" />
    <glyph glyph-name="divide" unicode="&#xf7;" horiz-adv-x="667" 
d="M71 341h525v-42h-525v42zM289 533q0 18 12.5 31t31.5 13q18 0 30.5 -13t12.5 -31q0 -19 -12.5 -31.5t-30.5 -12.5q-19 0 -31.5 12.5t-12.5 31.5zM289 107q0 18 12.5 31t31.5 13q18 0 30.5 -13t12.5 -31t-12.5 -31t-30.5 -13q-19 0 -31.5 13t-12.5 31z" />
    <glyph glyph-name="oslash" unicode="&#xf8;" horiz-adv-x="522" 
d="M261 -6q-42 0 -78 11.5t-65 33.5l-59 -69l-11 9l59 68q-35 29 -55 71t-20 90q0 45 18 85.5t49 71.5t72.5 49.5t89.5 18.5q40 0 76 -12.5t65 -35.5l62 72l11 -10l-62 -71q35 -31 56.5 -74t21.5 -94q0 -45 -18 -84.5t-49 -68t-73 -45t-90 -16.5zM387 208q0 74 -15 122
l-218 -251q28 -73 107 -73q39 0 63.5 13.5t38.5 39.5t19 63.5t5 85.5zM261 420q-66 0 -95.5 -50t-29.5 -162q0 -69 12 -114l219 251q-29 75 -106 75z" />
    <glyph glyph-name="thorn" unicode="&#xfe;" horiz-adv-x="545" 
d="M302 -6q-42 0 -76.5 26.5t-61.5 88.5v-282q0 -26 8.5 -37.5t31.5 -11.5h32v-12h-238v12h35q23 0 31.5 11.5t8.5 37.5v785q0 50 -52 50h-26v12h15q16 0 35.5 0.5t40.5 2t41 3t37 4.5v-367q20 52 54.5 84t85.5 32q46 0 85 -18t66.5 -48.5t43 -71.5t15.5 -87
q0 -45 -16 -84.5t-44 -68t-67 -45t-85 -16.5zM164 212q0 -40 9.5 -77t27 -65.5t42.5 -46t57 -17.5q55 0 82.5 52.5t27.5 149.5q0 110 -27 161t-81 51q-35 0 -61 -17.5t-43 -46.5t-25.5 -66.5t-8.5 -77.5z" />
    <glyph glyph-name="dotlessi" unicode="&#x131;" horiz-adv-x="264" 
d="M179 61q0 -27 8.5 -38t31.5 -11h32v-12h-238v12h35q23 0 31.5 11.5t8.5 37.5v303q0 23 -12.5 33t-34.5 10h-31v12h38q31 0 63.5 2.5t67.5 8.5v-369z" />
    <glyph glyph-name="Lslash" unicode="&#x141;" horiz-adv-x="599" 
d="M12 12h48q26 0 40.5 14t14.5 43v223l-103 -84v20l103 84v292q0 29 -14.5 43.5t-40.5 14.5h-46v12h296v-12h-45q-50 0 -50 -58v-211l162 133v-19l-162 -132v-311q0 -52 42 -52h71q46 0 86 20.5t71.5 55t54 80t33.5 96.5h11l-8 -264h-564v12z" />
    <glyph glyph-name="lslash" unicode="&#x142;" horiz-adv-x="264" 
d="M179 414l64 51v-19l-64 -51v-334q0 -27 8.5 -38t31.5 -11h32v-12h-238v12h35q23 0 31.5 11.5t8.5 37.5v259l-63 -51v19l63 51v279q0 23 -12.5 33.5t-34.5 10.5h-31v12h38q31 0 63.5 2.5t67.5 7.5v-270z" />
    <glyph glyph-name="OE" unicode="&#x152;" horiz-adv-x="1066" 
d="M502 0q-23 0 -63.5 -8.5t-88.5 -8.5q-72 0 -129.5 32.5t-98 83.5t-62 113t-21.5 121q0 67 23.5 131t65.5 113.5t99 79.5t123 30q47 0 78 -6.5t49 -6.5h535v-244h-11q-25 107 -79.5 169.5t-136.5 62.5h-124q-23 0 -23 -33v-282h34q146 0 152 177h12v-370h-12
q0 45 -11 78.5t-30.5 56t-46.5 34t-58 11.5h-40v-288q0 -34 31 -34h127q44 0 80 17.5t63.5 48.5t46.5 73.5t30 92.5h11l-6 -244h-519zM176 132q16 -65 60 -100.5t113 -35.5q68 0 106 20.5t56.5 63.5t22.5 108.5t4 155.5q0 84 -5 146.5t-24 103.5t-56.5 61t-102.5 20
q-66 0 -113.5 -37t-62.5 -100q-7 -31 -10.5 -83.5t-3.5 -121.5q0 -67 4 -119t12 -82z" />
    <glyph glyph-name="oe" unicode="&#x153;" horiz-adv-x="846" 
d="M815 160q-8 -39 -26.5 -69.5t-45.5 -52t-61 -33t-72 -11.5q-54 0 -99 23t-74 62q-30 -39 -76 -62t-100 -23q-49 0 -91 16.5t-72.5 45.5t-48 68t-17.5 84t18 85.5t49 71.5t72.5 49.5t89.5 18.5q54 0 100 -25t76 -66q29 41 71.5 66t95.5 25q43 0 79.5 -16t63.5 -44
t43.5 -65t21.5 -80h-321v-26q0 -97 34.5 -146t94.5 -49q33 0 63 11t54 31t41.5 48t24.5 63h12zM261 420q-66 0 -95.5 -50t-29.5 -162q0 -107 30 -154.5t95 -47.5q39 0 63.5 13.5t38.5 39.5t19 63.5t5 85.5q0 110 -31.5 161t-94.5 51zM676 240q17 0 23 8.5t6 34.5q0 28 -7 53
t-20.5 44t-32.5 29.5t-42 10.5q-50 0 -81 -47t-31 -133h185z" />
    <glyph glyph-name="florin" unicode="&#x192;" horiz-adv-x="490" 
d="M85 -222q15 0 27.5 11.5t25.5 45t27 93.5t32 157l54 296h-85l4 22q25 2 40 3.5t21 3.5q14 5 25 22t25 59q16 46 31 77.5t31.5 50t35 26.5t41.5 8q38 0 61 -17t23 -42q0 -17 -9.5 -27.5t-23.5 -10.5q-12 0 -21.5 8.5t-9.5 19.5t5.5 16.5t5.5 13.5q0 27 -31 27
q-28 0 -41 -25.5t-22 -82.5l-22 -130h87l-5 -22h-86l-50 -241q-25 -119 -49.5 -192.5t-49 -114t-48.5 -54t-49 -13.5q-35 0 -55.5 15.5t-20.5 39.5q0 17 12 27t26 10q12 0 22 -9t10 -20q0 -13 -6 -20t-6 -15q0 -16 18 -16z" />
    <glyph glyph-name="circumflex" unicode="&#x2c6;" 
d="M121 668h75l103 -164h-12l-130 105l-128 -105h-12z" />
    <glyph glyph-name="caron" unicode="&#x2c7;" 
d="M196 519h-76l-103 164h12l130 -106l128 106h12z" />
    <glyph glyph-name="macron" unicode="&#xaf;" 
d="M9 575h299v-34h-299v34z" />
    <glyph glyph-name="breve" unicode="&#x2d8;" 
d="M39 669q12 -38 43.5 -58.5t75.5 -20.5t75 20.5t45 58.5h13q-7 -67 -42 -108t-91 -41t-90 41.5t-42 107.5h13z" />
    <glyph glyph-name="dotaccent" unicode="&#x2d9;" 
d="M102 580q0 23 16.5 39.5t39.5 16.5t39.5 -16.5t16.5 -39.5t-16.5 -40t-39.5 -17t-39.5 17t-16.5 40z" />
    <glyph glyph-name="ring" unicode="&#x2da;" 
d="M66 596q0 19 7 36t19.5 29.5t29.5 19.5t36 7t35.5 -7t29 -19.5t20 -29.5t7.5 -36t-7.5 -35.5t-20 -29t-29 -19.5t-35.5 -7t-36 7t-29.5 19.5t-19.5 29t-7 35.5zM88 596q0 -29 20.5 -49t49.5 -20t49.5 20t20.5 49t-20.5 49.5t-49.5 20.5t-49.5 -20.5t-20.5 -49.5z" />
    <glyph glyph-name="ogonek" unicode="&#x2db;" 
d="M185 0q-28 -22 -49 -40q-10 -9 -17.5 -18.5t-12 -22.5t-6.5 -30.5t-2 -42.5q0 -31 14 -47.5t35 -16.5q18 0 30.5 9.5t28.5 36.5l10 -6q-18 -32 -40 -47t-61 -15q-48 0 -76 22.5t-28 63.5q0 30 23.5 52t61.5 51q21 16 37.5 28t31.5 23h20z" />
    <glyph glyph-name="tilde" unicode="&#x2dc;" 
d="M308 636q-9 -116 -82 -116q-15 0 -32 5t-37 16q-10 6 -21.5 12.5t-22.5 12.5t-22 10t-20 4q-20 0 -33 -15t-17 -45h-13q7 117 84 117q17 0 34 -6.5t36 -17.5q23 -14 44.5 -25t39.5 -11q17 0 32.5 15.5t17.5 43.5h12z" />
    <glyph glyph-name="hungarumlaut" unicode="&#x2dd;" 
d="M162 505h-14l63 124q14 29 27.5 44t29.5 15t26 -10t10 -26q0 -11 -9 -23t-26 -29zM25 505h-12l62 124q15 29 28 44t30 15q15 0 25 -10t10 -26q0 -21 -35 -52z" />
    <glyph glyph-name="endash" unicode="&#x2013;" horiz-adv-x="494" 
d="M5 267h484v-23h-484v23z" />
    <glyph glyph-name="emdash" unicode="&#x2014;" horiz-adv-x="1000" 
d="M5 267h990v-23h-990v23z" />
    <glyph glyph-name="quoteleft" unicode="&#x2018;" horiz-adv-x="185" 
d="M146 671q-47 -26 -71.5 -62t-24.5 -76q0 -19 11 -19q8 0 16 7.5t27 7.5q18 0 31 -15.5t13 -35.5q0 -21 -13.5 -35t-33.5 -14q-17 0 -29 8t-19.5 21.5t-11.5 31t-4 35.5q0 50 24.5 88.5t78.5 68.5z" />
    <glyph glyph-name="quoteright" unicode="&#x2019;" horiz-adv-x="185" 
d="M39 439q47 26 71.5 62t24.5 77q0 19 -11 19q-8 0 -16 -7.5t-26 -7.5q-19 0 -32 15.5t-13 35.5q0 21 13.5 35t33.5 14q16 0 28.5 -8t20 -21.5t11.5 -31t4 -35.5q0 -50 -24.5 -88.5t-78.5 -68.5z" />
    <glyph glyph-name="quotesinglbase" unicode="&#x201a;" horiz-adv-x="195" 
d="M44 -151q47 26 71.5 62t24.5 77q0 18 -11 18q-8 0 -16 -7t-27 -7q-18 0 -31 15.5t-13 35.5q0 21 13.5 35t33.5 14q16 0 28.5 -8.5t20 -22t11.5 -30.5t4 -35q0 -50 -24.5 -88.5t-78.5 -69.5z" />
    <glyph glyph-name="quotedblleft" unicode="&#x201c;" horiz-adv-x="363" 
d="M146 671q-47 -26 -71.5 -62t-24.5 -76q0 -19 11 -19q8 0 16 7.5t27 7.5q18 0 31 -15.5t13 -35.5q0 -21 -13.5 -35t-33.5 -14q-17 0 -29 8t-19.5 21.5t-11.5 31t-4 35.5q0 50 24.5 88.5t78.5 68.5zM324 671q-47 -26 -71 -62t-24 -76q0 -19 10 -19q8 0 16 7.5t27 7.5
q18 0 31.5 -15.5t13.5 -35.5q0 -21 -13.5 -35t-34.5 -14q-17 0 -29 8t-19.5 21.5t-11.5 31t-4 35.5q0 50 24.5 88.5t78.5 68.5z" />
    <glyph glyph-name="quotedblright" unicode="&#x201d;" horiz-adv-x="363" 
d="M39 439q47 26 71.5 62t24.5 77q0 19 -11 19q-8 0 -16 -7.5t-26 -7.5q-19 0 -32 15.5t-13 35.5q0 21 13.5 35t33.5 14q16 0 28.5 -8t20 -21.5t11.5 -31t4 -35.5q0 -50 -24.5 -88.5t-78.5 -68.5zM217 439q47 26 71.5 62t24.5 77q0 19 -11 19q-8 0 -15.5 -7.5t-26.5 -7.5
t-32 15.5t-13 35.5q0 21 13.5 35t34.5 14q16 0 28.5 -8t20 -21.5t11.5 -31t4 -35.5q0 -98 -104 -157z" />
    <glyph glyph-name="quotedblbase" unicode="&#x201e;" horiz-adv-x="368" 
d="M217 -148q47 26 71.5 62t24.5 76q0 19 -11 19q-8 0 -15.5 -7.5t-26.5 -7.5t-32 15.5t-13 35.5q0 21 13.5 35t34.5 14q16 0 28.5 -8t20 -21.5t11.5 -31t4 -35.5q0 -98 -104 -157zM44 -151q47 26 71.5 62t24.5 77q0 18 -11 18q-8 0 -16 -7t-27 -7q-18 0 -31 15.5t-13 35.5
q0 21 13.5 35t33.5 14q16 0 28.5 -8.5t20 -22t11.5 -30.5t4 -35q0 -50 -24.5 -88.5t-78.5 -69.5z" />
    <glyph glyph-name="dagger" unicode="&#x2020;" horiz-adv-x="508" 
d="M262 -232h-16v62q0 50 -3 114.5t-8.5 131t-13 128.5t-17.5 106q38 39 42 104q-22 0 -41.5 -4.5t-37.5 -10.5t-34 -10.5t-31 -4.5q-23 0 -38 10.5t-15 26.5q0 17 15 27.5t38 10.5q15 0 31 -4.5t34 -10.5t37.5 -10.5t41.5 -4.5q0 26 -6 49.5t-12.5 44.5t-12.5 41t-6 38
q0 30 14 49t31 19t31 -19t14 -49q0 -18 -6 -38t-12.5 -41t-12.5 -44.5t-6 -49.5q22 0 41.5 4.5t37.5 10.5t34 10.5t31 4.5q23 0 38 -10.5t15 -27.5q0 -16 -15 -26.5t-38 -10.5q-15 0 -31 4.5t-34 10.5t-37.5 10.5t-41.5 4.5q4 -65 42 -104q-10 -44 -17.5 -106t-13 -128.5
t-8.5 -131t-3 -114.5v-62z" />
    <glyph glyph-name="daggerdbl" unicode="&#x2021;" horiz-adv-x="468" 
d="M234 -238q-16 0 -28 17t-12 39q0 13 5 29.5t11 35.5t11 38t5 37q-20 0 -37 -4t-32 -9.5t-28.5 -9.5t-25.5 -4q-24 0 -39 9.5t-15 25.5q0 17 15.5 26t38.5 9q12 0 25.5 -4t28.5 -9.5t32 -9.5t37 -4q-3 49 -35 81q35 61 35 162q0 102 -35 163q32 32 35 80q-20 0 -37 -4
t-32 -9.5t-28.5 -9.5t-25.5 -4q-23 0 -38.5 9t-15.5 26t15 26.5t39 9.5q12 0 25.5 -4.5l28.5 -9.5t32 -9.5t37 -4.5q0 18 -5 37.5t-11 38t-11 35.5t-5 30q0 22 12 38.5t28 16.5t28 -16.5t12 -38.5q0 -13 -5 -30t-11 -35.5t-11 -38t-5 -37.5q19 0 36.5 4.5t32.5 9.5l28.5 9.5
t25.5 4.5q24 0 39 -9.5t15 -26.5t-15.5 -26t-38.5 -9q-12 0 -25.5 4t-28.5 9.5t-32.5 9.5t-36.5 4q3 -50 35 -80q-35 -61 -35 -163q0 -101 35 -162q-32 -30 -35 -81q19 0 36.5 4t32.5 9.5t28.5 9.5t25.5 4q23 0 38.5 -9t15.5 -26q0 -16 -15 -25.5t-39 -9.5q-12 0 -25.5 4
t-28.5 9.5t-32.5 9.5t-36.5 4q0 -18 5 -37t11 -38t11 -35.5t5 -29.5q0 -22 -12 -39t-28 -17z" />
    <glyph glyph-name="bullet" unicode="&#x2022;" horiz-adv-x="354" 
d="M55 331q0 25 9.5 47.5t26 39t38.5 26t48 9.5q25 0 47.5 -9.5t39.5 -26t26.5 -39t9.5 -47.5q0 -26 -9.5 -48t-26.5 -39t-39.5 -26.5t-47.5 -9.5q-26 0 -48 9.5t-38.5 26.5t-26 39t-9.5 48z" />
    <glyph glyph-name="ellipsis" unicode="&#x2026;" horiz-adv-x="1005" 
d="M220 39q0 -22 -15.5 -37.5t-37.5 -15.5t-37 15.5t-15 37.5t15 37.5t37 15.5t37.5 -15.5t15.5 -37.5zM555 39q0 -22 -15.5 -37.5t-37.5 -15.5t-37 15.5t-15 37.5t15 37.5t37 15.5t37.5 -15.5t15.5 -37.5zM890 39q0 -22 -15.5 -37.5t-37.5 -15.5t-37 15.5t-15 37.5t15 37.5
t37 15.5t37.5 -15.5t15.5 -37.5z" />
    <glyph glyph-name="perthousand" unicode="&#x2030;" horiz-adv-x="1042" 
d="M181 682q34 0 60.5 -15.5t45 -40t28 -56.5t9.5 -65t-9.5 -65t-28 -56.5t-45 -40t-60.5 -15.5t-61 15.5t-45.5 40t-28 56.5t-9.5 65t9.5 65t28 56.5t45.5 40t61 15.5zM247 556q0 113 -66 113t-66 -113v-102q0 -115 66 -115t66 115v102zM586 682h41l-499 -716h-41zM532 324
q34 0 61 -15.5t45.5 -40.5t28 -57t9.5 -65t-9.5 -64.5t-28 -56.5t-45.5 -40.5t-61 -15.5t-60.5 15.5t-45 40.5t-28 56.5t-9.5 64.5t9.5 65t28 57t45 40.5t60.5 15.5zM598 197q0 114 -66 114t-66 -114v-101q0 -116 66 -116t66 116v101zM865 324q34 0 60.5 -15.5t45 -40.5
t28 -57t9.5 -65t-9.5 -64.5t-28 -56.5t-45 -40.5t-60.5 -15.5t-61 15.5t-45.5 40.5t-28 56.5t-9.5 64.5t9.5 65t28 57t45.5 40.5t61 15.5zM931 197q0 114 -66 114t-66 -114v-101q0 -116 66 -116t66 116v101z" />
    <glyph glyph-name="guilsinglleft" unicode="&#x2039;" horiz-adv-x="273" 
d="M134 217l90 -223h-11l-164 223l164 223h11z" />
    <glyph glyph-name="guilsinglright" unicode="&#x203a;" horiz-adv-x="273" 
d="M49 440h11l164 -223l-164 -223h-11l90 223z" />
    <glyph glyph-name="trademark" unicode="&#x2122;" horiz-adv-x="905" 
d="M554 674l85 -259l84 259h146v-12h-33q-23 0 -30.5 -14t-7.5 -43v-222q0 -29 7.5 -42.5t30.5 -13.5h32v-12h-206v12h36q23 0 31 13.5t8 42.5v279h-5l-113 -347h-11l-113 347h-5v-259q0 -39 11.5 -57.5t46.5 -18.5h19v-12h-160v12h12q35 0 47 18.5t12 57.5v200q0 23 -10 41
t-37 18h-24v12h147zM256 662q-22 0 -22 -23v-256q0 -29 8 -42.5t31 -13.5h45v-12h-229v12h46q23 0 30.5 13.5t7.5 42.5v256q0 23 -22 23h-14q-14 0 -20.5 -1.5t-14.5 -10.5q-17 -17 -32 -51.5t-23 -70.5h-10v146h334v-146h-10q-8 36 -23 70.5t-32 51.5q-8 9 -14.5 10.5
t-20.5 1.5h-15z" />
    <glyph glyph-name="minus" unicode="&#x2212;" horiz-adv-x="667" 
d="M71 342h524v-43h-524v43z" />
    <glyph glyph-name="fraction" unicode="&#x2044;" horiz-adv-x="51" 
d="M255 682h40l-499 -716h-40z" />
    <glyph glyph-name="periodcentered" unicode="&#xb7;" horiz-adv-x="281" 
d="M193 276q0 -22 -15.5 -37.5t-36.5 -15.5q-23 0 -38 15.5t-15 37.5t15 37.5t38 15.5q21 0 36.5 -15.5t15.5 -37.5z" />
    <glyph glyph-name="Cacute" unicode="&#x106;" horiz-adv-x="623" 
d="M326 687q107 0 178 -116q26 23 42 53t21 63h11v-304h-11q-15 56 -36 108.5t-50.5 93.5t-67.5 65.5t-86 24.5q-84 0 -131 -91q-9 -18 -15 -46t-10 -64t-5.5 -78t-1.5 -88q0 -38 2.5 -75t8 -70t14 -59t19.5 -41q23 -32 56 -49.5t77 -17.5q50 0 91.5 19.5t72 53t48.5 79
t21 97.5h12q-2 -55 -21.5 -103t-52 -83t-76 -55.5t-94.5 -20.5q-59 0 -112.5 27t-95 73.5t-66 109.5t-24.5 136q0 67 22 131.5t60.5 115t89.5 81t110 30.5zM269 759h-12l64 110q23 39 37.5 54.5t34.5 15.5q14 0 23 -9t9 -24q0 -14 -9.5 -25.5t-29.5 -28.5z" />
    <glyph glyph-name="Ccaron" unicode="&#x10c;" horiz-adv-x="623" 
d="M326 687q107 0 178 -116q26 23 42 53t21 63h11v-304h-11q-15 56 -36 108.5t-50.5 93.5t-67.5 65.5t-86 24.5q-84 0 -131 -91q-9 -18 -15 -46t-10 -64t-5.5 -78t-1.5 -88q0 -38 2.5 -75t8 -70t14 -59t19.5 -41q23 -32 56 -49.5t77 -17.5q50 0 91.5 19.5t72 53t48.5 79
t21 97.5h12q-2 -55 -21.5 -103t-52 -83t-76 -55.5t-94.5 -20.5q-59 0 -112.5 27t-95 73.5t-66 109.5t-24.5 136q0 67 22 131.5t60.5 115t89.5 81t110 30.5zM369 773h-76l-103 164h12l130 -106l128 106h12z" />
    <glyph glyph-name="Cdotaccent" unicode="&#x10a;" horiz-adv-x="623" 
d="M326 687q107 0 178 -116q26 23 42 53t21 63h11v-304h-11q-15 56 -36 108.5t-50.5 93.5t-67.5 65.5t-86 24.5q-84 0 -131 -91q-9 -18 -15 -46t-10 -64t-5.5 -78t-1.5 -88q0 -38 2.5 -75t8 -70t14 -59t19.5 -41q23 -32 56 -49.5t77 -17.5q50 0 91.5 19.5t72 53t48.5 79
t21 97.5h12q-2 -55 -21.5 -103t-52 -83t-76 -55.5t-94.5 -20.5q-59 0 -112.5 27t-95 73.5t-66 109.5t-24.5 136q0 67 22 131.5t60.5 115t89.5 81t110 30.5zM284 835q0 23 16.5 39.5t39.5 16.5t39.5 -16.5t16.5 -39.5t-16.5 -40t-39.5 -17t-39.5 17t-16.5 40z" />
    <glyph glyph-name="Eacute" unicode="&#xc9;" horiz-adv-x="644" 
d="M12 674h577v-244h-11q-25 107 -79.5 169.5t-136.5 62.5h-124q-23 0 -23 -33v-282h35q145 0 151 177h12v-370h-12q0 45 -11 78.5t-30.5 56t-46.5 34t-58 11.5h-40v-288q0 -34 31 -34h127q44 0 80 17.5t63.5 48.5t46.5 73.5t30 92.5h11l-5 -244h-587v12h52q51 0 51 57v535
q0 58 -49 58h-54v12zM322 759h-12l64 110q23 39 37.5 54.5t34.5 15.5q14 0 23 -9t9 -24q0 -14 -9.5 -25.5t-29.5 -28.5z" />
    <glyph glyph-name="Ecaron" unicode="&#x11a;" horiz-adv-x="644" 
d="M12 674h577v-244h-11q-25 107 -79.5 169.5t-136.5 62.5h-124q-23 0 -23 -33v-282h35q145 0 151 177h12v-370h-12q0 45 -11 78.5t-30.5 56t-46.5 34t-58 11.5h-40v-288q0 -34 31 -34h127q44 0 80 17.5t63.5 48.5t46.5 73.5t30 92.5h11l-5 -244h-587v12h52q51 0 51 57v535
q0 58 -49 58h-54v12zM422 773h-76l-103 164h12l130 -106l128 106h12z" />
    <glyph glyph-name="Ecircumflex" unicode="&#xca;" horiz-adv-x="644" 
d="M12 674h577v-244h-11q-25 107 -79.5 169.5t-136.5 62.5h-124q-23 0 -23 -33v-282h35q145 0 151 177h12v-370h-12q0 45 -11 78.5t-30.5 56t-46.5 34t-58 11.5h-40v-288q0 -34 31 -34h127q44 0 80 17.5t63.5 48.5t46.5 73.5t30 92.5h11l-5 -244h-587v12h52q51 0 51 57v535
q0 58 -49 58h-54v12zM347 922h75l103 -164h-12l-130 105l-128 -105h-12z" />
    <glyph glyph-name="Edieresis" unicode="&#xcb;" horiz-adv-x="644" 
d="M12 674h577v-244h-11q-25 107 -79.5 169.5t-136.5 62.5h-124q-23 0 -23 -33v-282h35q145 0 151 177h12v-370h-12q0 45 -11 78.5t-30.5 56t-46.5 34t-58 11.5h-40v-288q0 -34 31 -34h127q44 0 80 17.5t63.5 48.5t46.5 73.5t30 92.5h11l-5 -244h-587v12h52q51 0 51 57v535
q0 58 -49 58h-54v12zM237 825q0 22 15 37t36 15q22 0 37 -15t15 -37q0 -21 -15 -36t-37 -15q-21 0 -36 15t-15 36zM429 825q0 22 15 37t36 15t36 -15t15 -37q0 -21 -15 -36t-36 -15t-36 15t-15 36z" />
    <glyph glyph-name="Edotaccent" unicode="&#x116;" horiz-adv-x="644" 
d="M12 674h577v-244h-11q-25 107 -79.5 169.5t-136.5 62.5h-124q-23 0 -23 -33v-282h35q145 0 151 177h12v-370h-12q0 45 -11 78.5t-30.5 56t-46.5 34t-58 11.5h-40v-288q0 -34 31 -34h127q44 0 80 17.5t63.5 48.5t46.5 73.5t30 92.5h11l-5 -244h-587v12h52q51 0 51 57v535
q0 58 -49 58h-54v12zM336 835q0 23 16.5 39.5t39.5 16.5t39.5 -16.5t16.5 -39.5t-16.5 -40t-39.5 -17t-39.5 17t-16.5 40z" />
    <glyph glyph-name="Egrave" unicode="&#xc8;" horiz-adv-x="644" 
d="M12 674h577v-244h-11q-25 107 -79.5 169.5t-136.5 62.5h-124q-23 0 -23 -33v-282h35q145 0 151 177h12v-370h-12q0 45 -11 78.5t-30.5 56t-46.5 34t-58 11.5h-40v-288q0 -34 31 -34h127q44 0 80 17.5t63.5 48.5t46.5 73.5t30 92.5h11l-5 -244h-587v12h52q51 0 51 57v535
q0 58 -49 58h-54v12zM350 852q-21 17 -30.5 28.5t-9.5 25.5q0 15 9 24t23 9q21 0 35.5 -15.5t37.5 -54.5l63 -110h-12z" />
    <glyph glyph-name="Emacron" unicode="&#x112;" horiz-adv-x="644" 
d="M12 674h577v-244h-11q-25 107 -79.5 169.5t-136.5 62.5h-124q-23 0 -23 -33v-282h35q145 0 151 177h12v-370h-12q0 45 -11 78.5t-30.5 56t-46.5 34t-58 11.5h-40v-288q0 -34 31 -34h127q44 0 80 17.5t63.5 48.5t46.5 73.5t30 92.5h11l-5 -244h-587v12h52q51 0 51 57v535
q0 58 -49 58h-54v12zM235 829h299v-34h-299v34z" />
    <glyph glyph-name="Gbreve" unicode="&#x11e;" horiz-adv-x="712" 
d="M342 683q121 0 193 -111q35 38 48 111h11l15 -313h-11q-13 64 -35 119t-53 95t-72 63t-92 23q-57 0 -93.5 -27t-57 -74.5t-28.5 -113t-8 -142.5q0 -69 7.5 -127.5t27.5 -100.5t53.5 -65.5t86.5 -23.5q36 0 68 11t56 33.5t37.5 56t13.5 77.5v55q0 33 -34 33h-99v12h332
v-12h-66q-37 0 -37 -38v-241h-10q-9 50 -24.5 83t-29.5 51q-42 -65 -88.5 -99.5t-115.5 -34.5q-68 0 -123 31t-94 80t-60 108t-21 116q0 65 23.5 130t65 117.5t96.5 85t118 32.5zM232 924q12 -38 43.5 -58.5t75.5 -20.5t75 20.5t45 58.5h13q-7 -67 -42 -108t-91 -41
t-90 41.5t-42 107.5h13z" />
    <glyph glyph-name="Gdotaccent" unicode="&#x120;" horiz-adv-x="712" 
d="M342 683q121 0 193 -111q35 38 48 111h11l15 -313h-11q-13 64 -35 119t-53 95t-72 63t-92 23q-57 0 -93.5 -27t-57 -74.5t-28.5 -113t-8 -142.5q0 -69 7.5 -127.5t27.5 -100.5t53.5 -65.5t86.5 -23.5q36 0 68 11t56 33.5t37.5 56t13.5 77.5v55q0 33 -34 33h-99v12h332
v-12h-66q-37 0 -37 -38v-241h-10q-9 50 -24.5 83t-29.5 51q-42 -65 -88.5 -99.5t-115.5 -34.5q-68 0 -123 31t-94 80t-60 108t-21 116q0 65 23.5 130t65 117.5t96.5 85t118 32.5zM304 835q0 23 16.5 39.5t39.5 16.5t39.5 -16.5t16.5 -39.5t-16.5 -40t-39.5 -17t-39.5 17
t-16.5 40z" />
    <glyph glyph-name="Hbar" unicode="&#x126;" horiz-adv-x="730" 
d="M12 674h303v-12h-50q-50 0 -50 -58v-86h301v86q0 58 -50 58h-53v12h305v-12h-52q-50 0 -50 -58v-86h66v-15h-66v-433q0 -58 50 -58h52v-12h-305v12h53q50 0 50 58v270h-301v-270q0 -58 50 -58h50v-12h-303v12h53q50 0 50 58v433h-67v15h67v86q0 58 -50 58h-53v12z
M516 358v145h-301v-145h301z" />
    <glyph glyph-name="Eng" unicode="&#x14a;" horiz-adv-x="701" 
d="M12 674h182l374 -544v325q0 48 -5 86.5t-18.5 65t-37.5 41t-63 14.5h-18v12h270v-12h-20q-36 0 -55.5 -19t-28.5 -49t-10.5 -67t-1.5 -72v-533q0 -30 -7.5 -59t-22.5 -52t-38 -37t-54 -14q-18 0 -36.5 5.5t-32.5 16t-23 26.5t-9 36q0 22 12.5 35.5t34.5 13.5
q20 0 31.5 -11.5t11.5 -28.5q0 -15 -4 -23.5t-9.5 -14l-9.5 -9.5t-4 -10q0 -11 10 -17.5t27 -6.5q27 0 37 17t10 64v193l-367 535v-366q0 -101 25 -152t95 -51h33v-12h-278v12h20q23 0 40.5 9.5t29 33t17.5 62.5t6 98v298q0 41 -3 69.5t-13 46t-27.5 25.5t-46.5 8h-23v12z
" />
    <glyph glyph-name="eng" unicode="&#x14b;" horiz-adv-x="550" 
d="M48 419q32 0 65 3t66 8v-133q44 136 152 136q38 0 66.5 -12.5t47 -35t28 -54t9.5 -68.5v-341q0 -30 -8.5 -59t-25.5 -52t-42.5 -37t-60.5 -14q-18 0 -36 5.5t-32.5 16t-23 26.5t-8.5 36q0 22 12 35.5t35 13.5q20 0 31 -11.5t11 -28.5q0 -16 -5.5 -25.5t-11.5 -15.5
t-11.5 -10t-5.5 -9q0 -9 13.5 -15t30.5 -6q28 0 38 17t10 65v433q0 60 -19.5 95t-56.5 35q-31 0 -56.5 -18t-43.5 -48t-27.5 -68.5t-9.5 -78.5v-143q0 -27 8.5 -38t31.5 -11h32v-12h-238v12h35q23 0 31.5 11.5t8.5 37.5v302q0 23 -10.5 33.5t-36.5 10.5h-31v12h38z" />
    <glyph glyph-name="agrave" unicode="&#xe0;" horiz-adv-x="506" 
d="M408 -6q-36 0 -62 22t-34 80q-25 -53 -57.5 -77.5t-82.5 -24.5q-64 0 -102 30t-38 77q0 33 17 54t43.5 34.5t59.5 21.5t65 15q56 12 88 28v76q0 42 -24 65t-68 23q-13 0 -29 -3.5t-29.5 -10t-22.5 -15.5t-9 -19q0 -7 6.5 -12t15 -11.5t15 -16.5t6.5 -26q0 -20 -13 -32.5
t-33 -12.5q-23 0 -37 16.5t-14 36.5q0 27 14 49t36.5 38t51.5 25t59 9q165 0 165 -136v-198q0 -80 37 -80q31 0 44 39.5t13 101.5h12q0 -89 -21.5 -127.5t-71.5 -38.5zM305 240q-24 -11 -55 -20q-28 -8 -50.5 -16.5t-38 -22t-24 -35.5t-8.5 -57q0 -32 16.5 -54.5t52.5 -22.5
q21 0 40 11.5t34 30.5t24 43t9 49v94zM157 598q-21 17 -30.5 28.5t-9.5 25.5q0 15 9 24t23 9q21 0 35.5 -15.5t37.5 -54.5l63 -110h-12z" />
    <glyph glyph-name="aacute" unicode="&#xe1;" horiz-adv-x="506" 
d="M408 -6q-36 0 -62 22t-34 80q-25 -53 -57.5 -77.5t-82.5 -24.5q-64 0 -102 30t-38 77q0 33 17 54t43.5 34.5t59.5 21.5t65 15q56 12 88 28v76q0 42 -24 65t-68 23q-13 0 -29 -3.5t-29.5 -10t-22.5 -15.5t-9 -19q0 -7 6.5 -12t15 -11.5t15 -16.5t6.5 -26q0 -20 -13 -32.5
t-33 -12.5q-23 0 -37 16.5t-14 36.5q0 27 14 49t36.5 38t51.5 25t59 9q165 0 165 -136v-198q0 -80 37 -80q31 0 44 39.5t13 101.5h12q0 -89 -21.5 -127.5t-71.5 -38.5zM305 240q-24 -11 -55 -20q-28 -8 -50.5 -16.5t-38 -22t-24 -35.5t-8.5 -57q0 -32 16.5 -54.5t52.5 -22.5
q21 0 40 11.5t34 30.5t24 43t9 49v94zM188 505h-12l64 110q23 39 37.5 54.5t34.5 15.5q14 0 23 -9t9 -24q0 -14 -9.5 -25.5t-29.5 -28.5z" />
    <glyph glyph-name="acircumflex" unicode="&#xe2;" horiz-adv-x="506" 
d="M408 -6q-36 0 -62 22t-34 80q-25 -53 -57.5 -77.5t-82.5 -24.5q-64 0 -102 30t-38 77q0 33 17 54t43.5 34.5t59.5 21.5t65 15q56 12 88 28v76q0 42 -24 65t-68 23q-13 0 -29 -3.5t-29.5 -10t-22.5 -15.5t-9 -19q0 -7 6.5 -12t15 -11.5t15 -16.5t6.5 -26q0 -20 -13 -32.5
t-33 -12.5q-23 0 -37 16.5t-14 36.5q0 27 14 49t36.5 38t51.5 25t59 9q165 0 165 -136v-198q0 -80 37 -80q31 0 44 39.5t13 101.5h12q0 -89 -21.5 -127.5t-71.5 -38.5zM305 240q-24 -11 -55 -20q-28 -8 -50.5 -16.5t-38 -22t-24 -35.5t-8.5 -57q0 -32 16.5 -54.5t52.5 -22.5
q21 0 40 11.5t34 30.5t24 43t9 49v94zM193 668h75l103 -164h-12l-130 105l-128 -105h-12z" />
    <glyph glyph-name="atilde" unicode="&#xe3;" horiz-adv-x="506" 
d="M408 -6q-36 0 -62 22t-34 80q-25 -53 -57.5 -77.5t-82.5 -24.5q-64 0 -102 30t-38 77q0 33 17 54t43.5 34.5t59.5 21.5t65 15q56 12 88 28v76q0 42 -24 65t-68 23q-13 0 -29 -3.5t-29.5 -10t-22.5 -15.5t-9 -19q0 -7 6.5 -12t15 -11.5t15 -16.5t6.5 -26q0 -20 -13 -32.5
t-33 -12.5q-23 0 -37 16.5t-14 36.5q0 27 14 49t36.5 38t51.5 25t59 9q165 0 165 -136v-198q0 -80 37 -80q31 0 44 39.5t13 101.5h12q0 -89 -21.5 -127.5t-71.5 -38.5zM305 240q-24 -11 -55 -20q-28 -8 -50.5 -16.5t-38 -22t-24 -35.5t-8.5 -57q0 -32 16.5 -54.5t52.5 -22.5
q21 0 40 11.5t34 30.5t24 43t9 49v94zM380 636q-9 -116 -82 -116q-15 0 -32 5t-37 16q-10 6 -21.5 12.5t-22.5 12.5t-22 10t-20 4q-20 0 -33 -15t-17 -45h-13q7 117 84 117q17 0 34 -6.5t36 -17.5q23 -14 44.5 -25t39.5 -11q17 0 32.5 15.5t17.5 43.5h12z" />
    <glyph glyph-name="adieresis" unicode="&#xe4;" horiz-adv-x="506" 
d="M408 -6q-36 0 -62 22t-34 80q-25 -53 -57.5 -77.5t-82.5 -24.5q-64 0 -102 30t-38 77q0 33 17 54t43.5 34.5t59.5 21.5t65 15q56 12 88 28v76q0 42 -24 65t-68 23q-13 0 -29 -3.5t-29.5 -10t-22.5 -15.5t-9 -19q0 -7 6.5 -12t15 -11.5t15 -16.5t6.5 -26q0 -20 -13 -32.5
t-33 -12.5q-23 0 -37 16.5t-14 36.5q0 27 14 49t36.5 38t51.5 25t59 9q165 0 165 -136v-198q0 -80 37 -80q31 0 44 39.5t13 101.5h12q0 -89 -21.5 -127.5t-71.5 -38.5zM305 240q-24 -11 -55 -20q-28 -8 -50.5 -16.5t-38 -22t-24 -35.5t-8.5 -57q0 -32 16.5 -54.5t52.5 -22.5
q21 0 40 11.5t34 30.5t24 43t9 49v94zM83 571q0 22 15 37t36 15q22 0 37 -15t15 -37q0 -21 -15 -36t-37 -15q-21 0 -36 15t-15 36zM275 571q0 22 15 37t36 15t36 -15t15 -37q0 -21 -15 -36t-36 -15t-36 15t-15 36z" />
    <glyph glyph-name="amacron" unicode="&#x101;" horiz-adv-x="506" 
d="M408 -6q-36 0 -62 22t-34 80q-25 -53 -57.5 -77.5t-82.5 -24.5q-64 0 -102 30t-38 77q0 33 17 54t43.5 34.5t59.5 21.5t65 15q56 12 88 28v76q0 42 -24 65t-68 23q-13 0 -29 -3.5t-29.5 -10t-22.5 -15.5t-9 -19q0 -7 6.5 -12t15 -11.5t15 -16.5t6.5 -26q0 -20 -13 -32.5
t-33 -12.5q-23 0 -37 16.5t-14 36.5q0 27 14 49t36.5 38t51.5 25t59 9q165 0 165 -136v-198q0 -80 37 -80q31 0 44 39.5t13 101.5h12q0 -89 -21.5 -127.5t-71.5 -38.5zM305 240q-24 -11 -55 -20q-28 -8 -50.5 -16.5t-38 -22t-24 -35.5t-8.5 -57q0 -32 16.5 -54.5t52.5 -22.5
q21 0 40 11.5t34 30.5t24 43t9 49v94zM81 575h299v-34h-299v34z" />
    <glyph glyph-name="abreve" unicode="&#x103;" horiz-adv-x="506" 
d="M408 -6q-36 0 -62 22t-34 80q-25 -53 -57.5 -77.5t-82.5 -24.5q-64 0 -102 30t-38 77q0 33 17 54t43.5 34.5t59.5 21.5t65 15q56 12 88 28v76q0 42 -24 65t-68 23q-13 0 -29 -3.5t-29.5 -10t-22.5 -15.5t-9 -19q0 -7 6.5 -12t15 -11.5t15 -16.5t6.5 -26q0 -20 -13 -32.5
t-33 -12.5q-23 0 -37 16.5t-14 36.5q0 27 14 49t36.5 38t51.5 25t59 9q165 0 165 -136v-198q0 -80 37 -80q31 0 44 39.5t13 101.5h12q0 -89 -21.5 -127.5t-71.5 -38.5zM305 240q-24 -11 -55 -20q-28 -8 -50.5 -16.5t-38 -22t-24 -35.5t-8.5 -57q0 -32 16.5 -54.5t52.5 -22.5
q21 0 40 11.5t34 30.5t24 43t9 49v94zM111 669q12 -38 43.5 -58.5t75.5 -20.5t75 20.5t45 58.5h13q-7 -67 -42 -108t-91 -41t-90 41.5t-42 107.5h13z" />
    <glyph glyph-name="aring" unicode="&#xe5;" horiz-adv-x="506" 
d="M408 -6q-36 0 -62 22t-34 80q-25 -53 -57.5 -77.5t-82.5 -24.5q-64 0 -102 30t-38 77q0 33 17 54t43.5 34.5t59.5 21.5t65 15q56 12 88 28v76q0 42 -24 65t-68 23q-13 0 -29 -3.5t-29.5 -10t-22.5 -15.5t-9 -19q0 -7 6.5 -12t15 -11.5t15 -16.5t6.5 -26q0 -20 -13 -32.5
t-33 -12.5q-23 0 -37 16.5t-14 36.5q0 27 14 49t36.5 38t51.5 25t59 9q165 0 165 -136v-198q0 -80 37 -80q31 0 44 39.5t13 101.5h12q0 -89 -21.5 -127.5t-71.5 -38.5zM305 240q-24 -11 -55 -20q-28 -8 -50.5 -16.5t-38 -22t-24 -35.5t-8.5 -57q0 -32 16.5 -54.5t52.5 -22.5
q21 0 40 11.5t34 30.5t24 43t9 49v94zM138 596q0 19 7 36t19.5 29.5t29.5 19.5t36 7t35.5 -7t29 -19.5t20 -29.5t7.5 -36t-7.5 -35.5t-20 -29t-29 -19.5t-35.5 -7t-36 7t-29.5 19.5t-19.5 29t-7 35.5zM160 596q0 -29 20.5 -49t49.5 -20t49.5 20t20.5 49t-20.5 49.5
t-49.5 20.5t-49.5 -20.5t-20.5 -49.5z" />
    <glyph glyph-name="ograve" unicode="&#xf2;" horiz-adv-x="522" 
d="M261 -6q-49 0 -91 16.5t-72.5 45.5t-48 68t-17.5 84t18 85.5t49 71.5t72.5 49.5t89.5 18.5t90 -18t73 -48.5t49 -71.5t18 -87q0 -45 -18 -84.5t-49 -68t-73 -45t-90 -16.5zM261 420q-66 0 -95.5 -50t-29.5 -162q0 -107 30 -154.5t95 -47.5q39 0 63.5 13.5t38.5 39.5
t19 63.5t5 85.5q0 110 -31.5 161t-94.5 51zM188 598q-21 17 -30.5 28.5t-9.5 25.5q0 15 9 24t23 9q21 0 35.5 -15.5t37.5 -54.5l63 -110h-12z" />
    <glyph glyph-name="oacute" unicode="&#xf3;" horiz-adv-x="522" 
d="M261 -6q-49 0 -91 16.5t-72.5 45.5t-48 68t-17.5 84t18 85.5t49 71.5t72.5 49.5t89.5 18.5t90 -18t73 -48.5t49 -71.5t18 -87q0 -45 -18 -84.5t-49 -68t-73 -45t-90 -16.5zM261 420q-66 0 -95.5 -50t-29.5 -162q0 -107 30 -154.5t95 -47.5q39 0 63.5 13.5t38.5 39.5
t19 63.5t5 85.5q0 110 -31.5 161t-94.5 51zM219 505h-12l64 110q23 39 37.5 54.5t34.5 15.5q14 0 23 -9t9 -24q0 -14 -9.5 -25.5t-29.5 -28.5z" />
    <glyph glyph-name="ocircumflex" unicode="&#xf4;" horiz-adv-x="522" 
d="M261 -6q-49 0 -91 16.5t-72.5 45.5t-48 68t-17.5 84t18 85.5t49 71.5t72.5 49.5t89.5 18.5t90 -18t73 -48.5t49 -71.5t18 -87q0 -45 -18 -84.5t-49 -68t-73 -45t-90 -16.5zM261 420q-66 0 -95.5 -50t-29.5 -162q0 -107 30 -154.5t95 -47.5q39 0 63.5 13.5t38.5 39.5
t19 63.5t5 85.5q0 110 -31.5 161t-94.5 51zM224 668h75l103 -164h-12l-130 105l-128 -105h-12z" />
    <glyph glyph-name="otilde" unicode="&#xf5;" horiz-adv-x="522" 
d="M261 -6q-49 0 -91 16.5t-72.5 45.5t-48 68t-17.5 84t18 85.5t49 71.5t72.5 49.5t89.5 18.5t90 -18t73 -48.5t49 -71.5t18 -87q0 -45 -18 -84.5t-49 -68t-73 -45t-90 -16.5zM261 420q-66 0 -95.5 -50t-29.5 -162q0 -107 30 -154.5t95 -47.5q39 0 63.5 13.5t38.5 39.5
t19 63.5t5 85.5q0 110 -31.5 161t-94.5 51zM411 636q-9 -116 -82 -116q-15 0 -32 5t-37 16q-10 6 -21.5 12.5t-22.5 12.5t-22 10t-20 4q-20 0 -33 -15t-17 -45h-13q7 117 84 117q17 0 34 -6.5t36 -17.5q23 -14 44.5 -25t39.5 -11q17 0 32.5 15.5t17.5 43.5h12z" />
    <glyph glyph-name="odieresis" unicode="&#xf6;" horiz-adv-x="522" 
d="M261 -6q-49 0 -91 16.5t-72.5 45.5t-48 68t-17.5 84t18 85.5t49 71.5t72.5 49.5t89.5 18.5t90 -18t73 -48.5t49 -71.5t18 -87q0 -45 -18 -84.5t-49 -68t-73 -45t-90 -16.5zM261 420q-66 0 -95.5 -50t-29.5 -162q0 -107 30 -154.5t95 -47.5q39 0 63.5 13.5t38.5 39.5
t19 63.5t5 85.5q0 110 -31.5 161t-94.5 51zM114 571q0 22 15 37t36 15q22 0 37 -15t15 -37q0 -21 -15 -36t-37 -15q-21 0 -36 15t-15 36zM306 571q0 22 15 37t36 15t36 -15t15 -37q0 -21 -15 -36t-36 -15t-36 15t-15 36z" />
    <glyph glyph-name="omacron" unicode="&#x14d;" horiz-adv-x="522" 
d="M261 -6q-49 0 -91 16.5t-72.5 45.5t-48 68t-17.5 84t18 85.5t49 71.5t72.5 49.5t89.5 18.5t90 -18t73 -48.5t49 -71.5t18 -87q0 -45 -18 -84.5t-49 -68t-73 -45t-90 -16.5zM261 420q-66 0 -95.5 -50t-29.5 -162q0 -107 30 -154.5t95 -47.5q39 0 63.5 13.5t38.5 39.5
t19 63.5t5 85.5q0 110 -31.5 161t-94.5 51zM112 575h299v-34h-299v34z" />
    <glyph glyph-name="ohungarumlaut" unicode="&#x151;" horiz-adv-x="522" 
d="M261 -6q-49 0 -91 16.5t-72.5 45.5t-48 68t-17.5 84t18 85.5t49 71.5t72.5 49.5t89.5 18.5t90 -18t73 -48.5t49 -71.5t18 -87q0 -45 -18 -84.5t-49 -68t-73 -45t-90 -16.5zM261 420q-66 0 -95.5 -50t-29.5 -162q0 -107 30 -154.5t95 -47.5q39 0 63.5 13.5t38.5 39.5
t19 63.5t5 85.5q0 110 -31.5 161t-94.5 51zM309 505h-14l63 124q14 29 27.5 44t29.5 15t26 -10t10 -26q0 -11 -9 -23t-26 -29zM172 505h-12l62 124q15 29 28 44t30 15q15 0 25 -10t10 -26q0 -21 -35 -52z" />
    <glyph glyph-name="nacute" unicode="&#x144;" horiz-adv-x="560" 
d="M179 297q44 136 152 136q38 0 66.5 -12.5t47 -35t28 -54t9.5 -68.5v-202q0 -28 9 -38.5t32 -10.5h32v-12h-239v12h35q23 0 32 11.5t9 37.5v226q0 60 -19.5 95t-56.5 35q-31 0 -56.5 -18t-43.5 -48t-27.5 -68.5t-9.5 -78.5v-143q0 -27 8.5 -38t31.5 -11h32v-12h-238v12h35
q23 0 31.5 11.5t8.5 37.5v302q0 23 -10.5 33.5t-36.5 10.5h-31v12h38q32 0 65 3t66 8v-133zM243 505h-12l64 110q23 39 37.5 54.5t34.5 15.5q14 0 23 -9t9 -24q0 -14 -9.5 -25.5t-29.5 -28.5z" />
    <glyph glyph-name="ncaron" unicode="&#x148;" horiz-adv-x="560" 
d="M179 297q44 136 152 136q38 0 66.5 -12.5t47 -35t28 -54t9.5 -68.5v-202q0 -28 9 -38.5t32 -10.5h32v-12h-239v12h35q23 0 32 11.5t9 37.5v226q0 60 -19.5 95t-56.5 35q-31 0 -56.5 -18t-43.5 -48t-27.5 -68.5t-9.5 -78.5v-143q0 -27 8.5 -38t31.5 -11h32v-12h-238v12h35
q23 0 31.5 11.5t8.5 37.5v302q0 23 -10.5 33.5t-36.5 10.5h-31v12h38q32 0 65 3t66 8v-133zM324 519h-76l-103 164h12l130 -106l128 106h12z" />
    <glyph glyph-name="ntilde" unicode="&#xf1;" horiz-adv-x="560" 
d="M179 297q44 136 152 136q38 0 66.5 -12.5t47 -35t28 -54t9.5 -68.5v-202q0 -28 9 -38.5t32 -10.5h32v-12h-239v12h35q23 0 32 11.5t9 37.5v226q0 60 -19.5 95t-56.5 35q-31 0 -56.5 -18t-43.5 -48t-27.5 -68.5t-9.5 -78.5v-143q0 -27 8.5 -38t31.5 -11h32v-12h-238v12h35
q23 0 31.5 11.5t8.5 37.5v302q0 23 -10.5 33.5t-36.5 10.5h-31v12h38q32 0 65 3t66 8v-133zM436 636q-9 -116 -82 -116q-15 0 -32 5t-37 16q-10 6 -21.5 12.5t-22.5 12.5t-22 10t-20 4q-20 0 -33 -15t-17 -45h-13q7 117 84 117q17 0 34 -6.5t36 -17.5q23 -14 44.5 -25
t39.5 -11q17 0 32.5 15.5t17.5 43.5h12z" />
    <glyph glyph-name="ugrave" unicode="&#xf9;" horiz-adv-x="544" 
d="M545 12v-12h-38q-32 0 -65 -2.5t-66 -7.5v140q-22 -70 -58 -103t-98 -33q-39 0 -66 12.5t-44 35t-24.5 53.5t-7.5 69v199q0 23 -11 33.5t-37 10.5h-31v12h38q32 0 65.5 3t65.5 8v-291q0 -60 15.5 -95t53.5 -35q36 0 62.5 21t43.5 53.5t25 72.5t8 78v129q0 23 -10.5 33.5
t-36.5 10.5h-32v12h38q32 0 65.5 3t66.5 8v-373q0 -23 10.5 -34t36.5 -11h31zM181 598q-21 17 -30.5 28.5t-9.5 25.5q0 15 9 24t23 9q21 0 35.5 -15.5t37.5 -54.5l63 -110h-12z" />
    <glyph glyph-name="uacute" unicode="&#xfa;" horiz-adv-x="544" 
d="M545 12v-12h-38q-32 0 -65 -2.5t-66 -7.5v140q-22 -70 -58 -103t-98 -33q-39 0 -66 12.5t-44 35t-24.5 53.5t-7.5 69v199q0 23 -11 33.5t-37 10.5h-31v12h38q32 0 65.5 3t65.5 8v-291q0 -60 15.5 -95t53.5 -35q36 0 62.5 21t43.5 53.5t25 72.5t8 78v129q0 23 -10.5 33.5
t-36.5 10.5h-32v12h38q32 0 65.5 3t66.5 8v-373q0 -23 10.5 -34t36.5 -11h31zM211 505h-12l64 110q23 39 37.5 54.5t34.5 15.5q14 0 23 -9t9 -24q0 -14 -9.5 -25.5t-29.5 -28.5z" />
    <glyph glyph-name="ucircumflex" unicode="&#xfb;" horiz-adv-x="544" 
d="M545 12v-12h-38q-32 0 -65 -2.5t-66 -7.5v140q-22 -70 -58 -103t-98 -33q-39 0 -66 12.5t-44 35t-24.5 53.5t-7.5 69v199q0 23 -11 33.5t-37 10.5h-31v12h38q32 0 65.5 3t65.5 8v-291q0 -60 15.5 -95t53.5 -35q36 0 62.5 21t43.5 53.5t25 72.5t8 78v129q0 23 -10.5 33.5
t-36.5 10.5h-32v12h38q32 0 65.5 3t66.5 8v-373q0 -23 10.5 -34t36.5 -11h31zM217 668h75l103 -164h-12l-130 105l-128 -105h-12z" />
    <glyph glyph-name="udieresis" unicode="&#xfc;" horiz-adv-x="544" 
d="M545 12v-12h-38q-32 0 -65 -2.5t-66 -7.5v140q-22 -70 -58 -103t-98 -33q-39 0 -66 12.5t-44 35t-24.5 53.5t-7.5 69v199q0 23 -11 33.5t-37 10.5h-31v12h38q32 0 65.5 3t65.5 8v-291q0 -60 15.5 -95t53.5 -35q36 0 62.5 21t43.5 53.5t25 72.5t8 78v129q0 23 -10.5 33.5
t-36.5 10.5h-32v12h38q32 0 65.5 3t66.5 8v-373q0 -23 10.5 -34t36.5 -11h31zM107 571q0 22 15 37t36 15q22 0 37 -15t15 -37q0 -21 -15 -36t-37 -15q-21 0 -36 15t-15 36zM299 571q0 22 15 37t36 15t36 -15t15 -37q0 -21 -15 -36t-36 -15t-36 15t-15 36z" />
    <glyph glyph-name="umacron" unicode="&#x16b;" horiz-adv-x="544" 
d="M545 12v-12h-38q-32 0 -65 -2.5t-66 -7.5v140q-22 -70 -58 -103t-98 -33q-39 0 -66 12.5t-44 35t-24.5 53.5t-7.5 69v199q0 23 -11 33.5t-37 10.5h-31v12h38q32 0 65.5 3t65.5 8v-291q0 -60 15.5 -95t53.5 -35q36 0 62.5 21t43.5 53.5t25 72.5t8 78v129q0 23 -10.5 33.5
t-36.5 10.5h-32v12h38q32 0 65.5 3t66.5 8v-373q0 -23 10.5 -34t36.5 -11h31zM104 575h299v-34h-299v34z" />
    <glyph glyph-name="uring" unicode="&#x16f;" horiz-adv-x="544" 
d="M545 12v-12h-38q-32 0 -65 -2.5t-66 -7.5v140q-22 -70 -58 -103t-98 -33q-39 0 -66 12.5t-44 35t-24.5 53.5t-7.5 69v199q0 23 -11 33.5t-37 10.5h-31v12h38q32 0 65.5 3t65.5 8v-291q0 -60 15.5 -95t53.5 -35q36 0 62.5 21t43.5 53.5t25 72.5t8 78v129q0 23 -10.5 33.5
t-36.5 10.5h-32v12h38q32 0 65.5 3t66.5 8v-373q0 -23 10.5 -34t36.5 -11h31zM161 596q0 19 7 36t19.5 29.5t29.5 19.5t36 7t35.5 -7t29 -19.5t20 -29.5t7.5 -36t-7.5 -35.5t-20 -29t-29 -19.5t-35.5 -7t-36 7t-29.5 19.5t-19.5 29t-7 35.5zM183 596q0 -29 20.5 -49
t49.5 -20t49.5 20t20.5 49t-20.5 49.5t-49.5 20.5t-49.5 -20.5t-20.5 -49.5z" />
    <glyph glyph-name="uhungarumlaut" unicode="&#x171;" horiz-adv-x="544" 
d="M545 12v-12h-38q-32 0 -65 -2.5t-66 -7.5v140q-22 -70 -58 -103t-98 -33q-39 0 -66 12.5t-44 35t-24.5 53.5t-7.5 69v199q0 23 -11 33.5t-37 10.5h-31v12h38q32 0 65.5 3t65.5 8v-291q0 -60 15.5 -95t53.5 -35q36 0 62.5 21t43.5 53.5t25 72.5t8 78v129q0 23 -10.5 33.5
t-36.5 10.5h-32v12h38q32 0 65.5 3t66.5 8v-373q0 -23 10.5 -34t36.5 -11h31zM301 505h-14l63 124q14 29 27.5 44t29.5 15t26 -10t10 -26q0 -11 -9 -23t-26 -29zM164 505h-12l62 124q15 29 28 44t30 15q15 0 25 -10t10 -26q0 -21 -35 -52z" />
    <glyph glyph-name="wgrave" unicode="&#x1e81;" horiz-adv-x="706" 
d="M422 388q0 -10 4 -21l84 -270l84 213q13 33 13 58q0 17 -12.5 28t-35.5 11h-16v12h167v-12h-4q-61 0 -94 -84l-130 -333h-32l-91 293l-119 -293h-31l-117 330q-8 22 -14.5 38.5t-14.5 27t-18.5 16t-26.5 5.5h-23v12h221v-12h-24q-27 0 -27 -16q0 -11 4 -22l98 -278
l86 211l-24 78q-5 14 -13 20.5t-28 6.5h-28v12h234v-12h-40q-32 0 -32 -19zM298 598q-21 17 -30.5 28.5t-9.5 25.5q0 15 9 24t23 9q21 0 35.5 -15.5t37.5 -54.5l63 -110h-12z" />
    <glyph glyph-name="wacute" unicode="&#x1e83;" horiz-adv-x="706" 
d="M422 388q0 -10 4 -21l84 -270l84 213q13 33 13 58q0 17 -12.5 28t-35.5 11h-16v12h167v-12h-4q-61 0 -94 -84l-130 -333h-32l-91 293l-119 -293h-31l-117 330q-8 22 -14.5 38.5t-14.5 27t-18.5 16t-26.5 5.5h-23v12h221v-12h-24q-27 0 -27 -16q0 -11 4 -22l98 -278
l86 211l-24 78q-5 14 -13 20.5t-28 6.5h-28v12h234v-12h-40q-32 0 -32 -19zM329 505h-12l64 110q23 39 37.5 54.5t34.5 15.5q14 0 23 -9t9 -24q0 -14 -9.5 -25.5t-29.5 -28.5z" />
    <glyph glyph-name="wcircumflex" unicode="&#x175;" horiz-adv-x="706" 
d="M422 388q0 -10 4 -21l84 -270l84 213q13 33 13 58q0 17 -12.5 28t-35.5 11h-16v12h167v-12h-4q-61 0 -94 -84l-130 -333h-32l-91 293l-119 -293h-31l-117 330q-8 22 -14.5 38.5t-14.5 27t-18.5 16t-26.5 5.5h-23v12h221v-12h-24q-27 0 -27 -16q0 -11 4 -22l98 -278
l86 211l-24 78q-5 14 -13 20.5t-28 6.5h-28v12h234v-12h-40q-32 0 -32 -19zM334 668h75l103 -164h-12l-130 105l-128 -105h-12z" />
    <glyph glyph-name="wdieresis" unicode="&#x1e85;" horiz-adv-x="706" 
d="M422 388q0 -10 4 -21l84 -270l84 213q13 33 13 58q0 17 -12.5 28t-35.5 11h-16v12h167v-12h-4q-61 0 -94 -84l-130 -333h-32l-91 293l-119 -293h-31l-117 330q-8 22 -14.5 38.5t-14.5 27t-18.5 16t-26.5 5.5h-23v12h221v-12h-24q-27 0 -27 -16q0 -11 4 -22l98 -278
l86 211l-24 78q-5 14 -13 20.5t-28 6.5h-28v12h234v-12h-40q-32 0 -32 -19zM225 571q0 22 15 37t36 15q22 0 37 -15t15 -37q0 -21 -15 -36t-37 -15q-21 0 -36 15t-15 36zM417 571q0 22 15 37t36 15t36 -15t15 -37q0 -21 -15 -36t-36 -15t-36 15t-15 36z" />
    <glyph glyph-name="ygrave" unicode="&#x1ef3;" horiz-adv-x="542" 
d="M547 419v-12h-16q-42 0 -64.5 -24t-39.5 -64l-178 -430q-28 -67 -61 -98t-80 -31q-45 0 -72 21t-27 56q0 25 14.5 40t37.5 15q22 0 35 -14.5t13 -34.5q0 -11 -3.5 -19.5t-7.5 -15t-7.5 -12t-3.5 -10.5q0 -14 22 -14q42 0 72 29t54 87l27 66l-157 379q-14 34 -28.5 54
t-48.5 20h-33v12h271v-12h-45q-34 0 -34 -29q0 -6 3 -12l122 -294l87 211q18 43 18 76q0 23 -15 35.5t-44 12.5h-31v12h220zM223 598q-21 17 -30.5 28.5t-9.5 25.5q0 15 9 24t23 9q21 0 35.5 -15.5t37.5 -54.5l63 -110h-12z" />
    <glyph glyph-name="yacute" unicode="&#xfd;" horiz-adv-x="542" 
d="M547 419v-12h-16q-42 0 -64.5 -24t-39.5 -64l-178 -430q-28 -67 -61 -98t-80 -31q-45 0 -72 21t-27 56q0 25 14.5 40t37.5 15q22 0 35 -14.5t13 -34.5q0 -11 -3.5 -19.5t-7.5 -15t-7.5 -12t-3.5 -10.5q0 -14 22 -14q42 0 72 29t54 87l27 66l-157 379q-14 34 -28.5 54
t-48.5 20h-33v12h271v-12h-45q-34 0 -34 -29q0 -6 3 -12l122 -294l87 211q18 43 18 76q0 23 -15 35.5t-44 12.5h-31v12h220zM254 505h-12l64 110q23 39 37.5 54.5t34.5 15.5q14 0 23 -9t9 -24q0 -14 -9.5 -25.5t-29.5 -28.5z" />
    <glyph glyph-name="ycircumflex" unicode="&#x177;" horiz-adv-x="542" 
d="M547 419v-12h-16q-42 0 -64.5 -24t-39.5 -64l-178 -430q-28 -67 -61 -98t-80 -31q-45 0 -72 21t-27 56q0 25 14.5 40t37.5 15q22 0 35 -14.5t13 -34.5q0 -11 -3.5 -19.5t-7.5 -15t-7.5 -12t-3.5 -10.5q0 -14 22 -14q42 0 72 29t54 87l27 66l-157 379q-14 34 -28.5 54
t-48.5 20h-33v12h271v-12h-45q-34 0 -34 -29q0 -6 3 -12l122 -294l87 211q18 43 18 76q0 23 -15 35.5t-44 12.5h-31v12h220zM259 668h75l103 -164h-12l-130 105l-128 -105h-12z" />
    <glyph glyph-name="ydieresis" unicode="&#xff;" horiz-adv-x="542" 
d="M547 419v-12h-16q-42 0 -64.5 -24t-39.5 -64l-178 -430q-28 -67 -61 -98t-80 -31q-45 0 -72 21t-27 56q0 25 14.5 40t37.5 15q22 0 35 -14.5t13 -34.5q0 -11 -3.5 -19.5t-7.5 -15t-7.5 -12t-3.5 -10.5q0 -14 22 -14q42 0 72 29t54 87l27 66l-157 379q-14 34 -28.5 54
t-48.5 20h-33v12h271v-12h-45q-34 0 -34 -29q0 -6 3 -12l122 -294l87 211q18 43 18 76q0 23 -15 35.5t-44 12.5h-31v12h220zM149 571q0 22 15 37t36 15q22 0 37 -15t15 -37q0 -21 -15 -36t-37 -15q-21 0 -36 15t-15 36zM341 571q0 22 15 37t36 15t36 -15t15 -37
q0 -21 -15 -36t-36 -15t-36 15t-15 36z" />
    <glyph glyph-name="zacute" unicode="&#x17a;" horiz-adv-x="453" 
d="M144 12h97q42 0 71.5 10.5t48.5 30.5t30 49.5t16 67.5h11v-170h-384v8l262 399h-81q-129 0 -151 -155h-11v167h359zM188 505h-12l64 110q23 39 37.5 54.5t34.5 15.5q14 0 23 -9t9 -24q0 -14 -9.5 -25.5t-29.5 -28.5z" />
    <glyph glyph-name="zcaron" unicode="&#x17e;" horiz-adv-x="453" 
d="M144 12h97q42 0 71.5 10.5t48.5 30.5t30 49.5t16 67.5h11v-170h-384v8l262 399h-81q-129 0 -151 -155h-11v167h359zM268 519h-76l-103 164h12l130 -106l128 106h12z" />
    <glyph glyph-name="zdotaccent" unicode="&#x17c;" horiz-adv-x="453" 
d="M144 12h97q42 0 71.5 10.5t48.5 30.5t30 49.5t16 67.5h11v-170h-384v8l262 399h-81q-129 0 -151 -155h-11v167h359zM174 580q0 23 16.5 39.5t39.5 16.5t39.5 -16.5t16.5 -39.5t-16.5 -40t-39.5 -17t-39.5 17t-16.5 40z" />
    <glyph glyph-name="racute" unicode="&#x155;" horiz-adv-x="412" 
d="M179 300q23 70 57 101.5t74 31.5q18 0 34.5 -7t29 -18.5t20 -27t7.5 -32.5q0 -27 -14 -42.5t-37 -15.5t-39 14t-16 35q0 15 5.5 23.5t12 15t12 11.5t5.5 13q0 17 -24 17q-26 0 -49.5 -17t-40.5 -47.5t-27 -72.5t-10 -91v-130q0 -27 8.5 -38t31.5 -11h32v-12h-238v12h35
q23 0 31.5 11.5t8.5 37.5v303q0 23 -12.5 33t-34.5 10h-31v12h38q31 0 63.5 2.5t67.5 8.5v-130zM174 505h-12l64 110q23 39 37.5 54.5t34.5 15.5q14 0 23 -9t9 -24q0 -14 -9.5 -25.5t-29.5 -28.5z" />
    <glyph glyph-name="rcaron" unicode="&#x159;" horiz-adv-x="412" 
d="M179 300q23 70 57 101.5t74 31.5q18 0 34.5 -7t29 -18.5t20 -27t7.5 -32.5q0 -27 -14 -42.5t-37 -15.5t-39 14t-16 35q0 15 5.5 23.5t12 15t12 11.5t5.5 13q0 17 -24 17q-26 0 -49.5 -17t-40.5 -47.5t-27 -72.5t-10 -91v-130q0 -27 8.5 -38t31.5 -11h32v-12h-238v12h35
q23 0 31.5 11.5t8.5 37.5v303q0 23 -12.5 33t-34.5 10h-31v12h38q31 0 63.5 2.5t67.5 8.5v-130zM254 519h-76l-103 164h12l130 -106l128 106h12z" />
    <glyph glyph-name="uni2084" unicode="&#x2084;" horiz-adv-x="333" 
d="M203 349h11v-229h80v-32h-80v-50q0 -26 27 -26h38v-12h-192v12h39q28 0 28 26v50h-128l-19 20zM154 120v150l-122 -150h122z" />
    <glyph glyph-name="uni2082" unicode="&#x2082;" horiz-adv-x="333" 
d="M32 10q46 54 89 95.5t66 75.5q18 27 18 62q0 36 -19.5 59t-53.5 23t-58 -21t-24 -48q0 -13 9 -13q2 0 9 5q10 8 24 8q11 0 21.5 -11t10.5 -25t-11 -26t-28 -12q-20 0 -33.5 18t-13.5 47q0 25 10 44t26.5 31.5t38.5 18.5t46 6q54 0 88.5 -28t34.5 -71q0 -38 -27 -64.5
t-69 -53.5q-60 -37 -91 -70h158q14 0 20 10.5t7 36.5h11l-11 -107h-248v10z" />
    <glyph glyph-name="onequarter" unicode="&#xbc;" horiz-adv-x="718" 
d="M60 674q40 0 71 2t58 6h16v-306q0 -29 28 -29h46v-12h-219v12h43q34 0 34 36v250q0 29 -33 29h-44v12zM588 682h41l-499 -716h-41zM588 349h11v-229h80v-32h-80v-50q0 -26 27 -26h38v-12h-192v12h39q28 0 28 26v50h-128l-19 20zM539 120v150l-122 -150h122z" />
    <glyph glyph-name="onehalf" unicode="&#xbd;" horiz-adv-x="718" 
d="M60 674q40 0 71 2t58 6h16v-306q0 -29 28 -29h46v-12h-219v12h43q34 0 34 36v250q0 29 -33 29h-44v12zM588 682h41l-499 -716h-41zM417 10q46 54 89 95.5t65 75.5q19 28 19 62q0 36 -19.5 59t-53.5 23t-58 -21t-24 -48q0 -13 8 -13q3 0 10 5q10 8 24 8q11 0 21 -11
t10 -25t-10.5 -26t-27.5 -12q-20 0 -34 18t-14 47q0 25 10 44t27 31.5t39 18.5t46 6q54 0 88.5 -28t34.5 -71q0 -38 -27.5 -64.5t-68.5 -53.5q-60 -37 -91 -70h158q14 0 20 10.5t7 36.5h10l-10 -107h-248v10z" />
    <glyph glyph-name="uni00AD" unicode="&#xad;" horiz-adv-x="286" 
d="M37 270h212v-29h-212v29z" />
    <glyph glyph-name="uni00A0" unicode="&#xa0;" horiz-adv-x="250" 
 />
    <glyph glyph-name="Ccircumflex" unicode="&#x108;" horiz-adv-x="623" 
d="M326 687q107 0 178 -116q26 23 42 53t21 63h11v-304h-11q-15 56 -36 108.5t-50.5 93.5t-67.5 65.5t-86 24.5q-84 0 -131 -91q-9 -18 -15 -46t-10 -64t-5.5 -78t-1.5 -88q0 -38 2.5 -75t8 -70t14 -59t19.5 -41q23 -32 56 -49.5t77 -17.5q50 0 91.5 19.5t72 53t48.5 79
t21 97.5h12q-2 -55 -21.5 -103t-52 -83t-76 -55.5t-94.5 -20.5q-59 0 -112.5 27t-95 73.5t-66 109.5t-24.5 136q0 67 22 131.5t60.5 115t89.5 81t110 30.5zM289 912h75l103 -164h-12l-130 105l-128 -105h-12z" />
    <glyph glyph-name="Ebreve" unicode="&#x114;" horiz-adv-x="644" 
d="M12 674h577v-244h-11q-25 107 -79.5 169.5t-136.5 62.5h-124q-23 0 -23 -33v-282h35q145 0 151 177h12v-370h-12q0 45 -11 78.5t-30.5 56t-46.5 34t-58 11.5h-40v-288q0 -34 31 -34h127q44 0 80 17.5t63.5 48.5t46.5 73.5t30 92.5h11l-5 -244h-587v12h52q51 0 51 57v535
q0 58 -49 58h-54v12zM193 914q12 -38 43.5 -58.5t75.5 -20.5t75 20.5t45 58.5h13q-7 -67 -42 -108t-91 -41t-90 41.5t-42 107.5h13z" />
    <glyph glyph-name="aogonek" unicode="&#x105;" horiz-adv-x="506" 
d="M408 -6q-36 0 -62 22t-34 80q-25 -53 -57.5 -77.5t-82.5 -24.5q-64 0 -102 30t-38 77q0 33 17 54t43.5 34.5t59.5 21.5t65 15q56 12 88 28v76q0 42 -24 65t-68 23q-13 0 -29 -3.5t-29.5 -10t-22.5 -15.5t-9 -19q0 -7 6.5 -12t15 -11.5t15 -16.5t6.5 -26q0 -20 -13 -32.5
t-33 -12.5q-23 0 -37 16.5t-14 36.5q0 27 14 49t36.5 38t51.5 25t59 9q165 0 165 -136v-198q0 -80 37 -80q31 0 44 39.5t13 101.5h12q0 -71 -13.5 -109.5t-44.5 -50.5q-14 -11 -25.5 -20.5t-22.5 -19.5q-10 -9 -17.5 -18.5t-12 -22.5t-6.5 -30.5t-2 -42.5q0 -31 13.5 -47.5
t35.5 -16.5q18 0 30 9.5t28 36.5l11 -6q-18 -32 -40 -47t-61 -15q-48 0 -76 22.5t-28 63.5q0 30 23.5 52t61.5 51q17 14 31.5 24.5t28.5 20.5h-7zM305 240q-24 -11 -55 -20q-28 -8 -50.5 -16.5t-38 -22t-24 -35.5t-8.5 -57q0 -32 16.5 -54.5t52.5 -22.5q21 0 40 11.5
t34 30.5t24 43t9 49v94z" />
    <glyph glyph-name="Gcircumflex" unicode="&#x11c;" horiz-adv-x="712" 
d="M342 683q121 0 193 -111q35 38 48 111h11l15 -313h-11q-13 64 -35 119t-53 95t-72 63t-92 23q-57 0 -93.5 -27t-57 -74.5t-28.5 -113t-8 -142.5q0 -69 7.5 -127.5t27.5 -100.5t53.5 -65.5t86.5 -23.5q36 0 68 11t56 33.5t37.5 56t13.5 77.5v55q0 33 -34 33h-99v12h332
v-12h-66q-37 0 -37 -38v-241h-10q-9 50 -24.5 83t-29.5 51q-42 -65 -88.5 -99.5t-115.5 -34.5q-68 0 -123 31t-94 80t-60 108t-21 116q0 65 23.5 130t65 117.5t96.5 85t118 32.5zM319 922h75l103 -164h-12l-130 105l-128 -105h-12z" />
    <glyph glyph-name="Hcircumflex" unicode="&#x124;" horiz-adv-x="730" 
d="M12 674h303v-12h-50q-50 0 -50 -58v-246h301v246q0 58 -50 58h-53v12h305v-12h-52q-50 0 -50 -58v-534q0 -58 50 -58h52v-12h-305v12h53q50 0 50 58v270h-301v-270q0 -58 50 -58h50v-12h-303v12h53q50 0 50 58v534q0 58 -50 58h-53v12zM328 922h75l103 -164h-12l-130 105
l-128 -105h-12z" />
    <glyph glyph-name="uni0237" unicode="&#x237;" horiz-adv-x="251" 
d="M47 419q31 0 63.5 2.5t68.5 8.5v-508q0 -30 -8.5 -59t-25.5 -52t-43 -37t-61 -14q-18 0 -36 5.5t-32.5 16t-23 26.5t-8.5 36q0 22 12.5 35.5t35.5 13.5q20 0 31 -11.5t11 -28.5q0 -16 -5.5 -25.5t-11.5 -15.5t-11.5 -10t-5.5 -9q0 -9 13.5 -15t30.5 -6q27 0 37 17t10 65
v510q0 23 -13 33t-34 10h-32v12h38z" />
    <glyph glyph-name="kgreenlandic" unicode="&#x138;" horiz-adv-x="549" 
d="M179 158l156 157q26 25 26 51q0 17 -18.5 29t-57.5 12h-25v12h267v-12h-14q-69 0 -145 -76l-55 -55l155 -217q15 -22 33 -34.5t38 -12.5h16v-12h-250v12h42q25 0 25 18q0 5 -3 10.5t-6 10.5l-114 160l-70 -69v-81q0 -27 8.5 -38t31.5 -11h32v-12h-238v12h35
q23 0 31.5 11.5t8.5 37.5v303q0 23 -12.5 33t-34.5 10h-31v12h38q31 0 63.5 2.5t67.5 8.5v-272z" />
    <glyph glyph-name="obreve" unicode="&#x14f;" horiz-adv-x="522" 
d="M261 -6q-49 0 -91 16.5t-72.5 45.5t-48 68t-17.5 84t18 85.5t49 71.5t72.5 49.5t89.5 18.5t90 -18t73 -48.5t49 -71.5t18 -87q0 -45 -18 -84.5t-49 -68t-73 -45t-90 -16.5zM261 420q-66 0 -95.5 -50t-29.5 -162q0 -107 30 -154.5t95 -47.5q39 0 63.5 13.5t38.5 39.5
t19 63.5t5 85.5q0 110 -31.5 161t-94.5 51zM142 669q12 -38 43.5 -58.5t75.5 -20.5t75 20.5t45 58.5h13q-7 -67 -42 -108t-91 -41t-90 41.5t-42 107.5h13z" />
    <glyph glyph-name="ubreve" unicode="&#x16d;" horiz-adv-x="544" 
d="M545 12v-12h-38q-32 0 -65 -2.5t-66 -7.5v140q-22 -70 -58 -103t-98 -33q-39 0 -66 12.5t-44 35t-24.5 53.5t-7.5 69v199q0 23 -11 33.5t-37 10.5h-31v12h38q32 0 65.5 3t65.5 8v-291q0 -60 15.5 -95t53.5 -35q36 0 62.5 21t43.5 53.5t25 72.5t8 78v129q0 23 -10.5 33.5
t-36.5 10.5h-32v12h38q32 0 65.5 3t66.5 8v-373q0 -23 10.5 -34t36.5 -11h31zM135 669q12 -38 43.5 -58.5t75.5 -20.5t75 20.5t45 58.5h13q-7 -67 -42 -108t-91 -41t-90 41.5t-42 107.5h13z" />
    <glyph glyph-name="utilde" unicode="&#x169;" horiz-adv-x="544" 
d="M545 12v-12h-38q-32 0 -65 -2.5t-66 -7.5v140q-22 -70 -58 -103t-98 -33q-39 0 -66 12.5t-44 35t-24.5 53.5t-7.5 69v199q0 23 -11 33.5t-37 10.5h-31v12h38q32 0 65.5 3t65.5 8v-291q0 -60 15.5 -95t53.5 -35q36 0 62.5 21t43.5 53.5t25 72.5t8 78v129q0 23 -10.5 33.5
t-36.5 10.5h-32v12h38q32 0 65.5 3t66.5 8v-373q0 -23 10.5 -34t36.5 -11h31zM404 636q-9 -116 -82 -116q-15 0 -32 5t-37 16q-10 6 -21.5 12.5t-22.5 12.5t-22 10t-20 4q-20 0 -33 -15t-17 -45h-13q7 117 84 117q17 0 34 -6.5t36 -17.5q23 -14 44.5 -25t39.5 -11
q17 0 32.5 15.5t17.5 43.5h12z" />
    <glyph glyph-name="hcircumflex" unicode="&#x125;" horiz-adv-x="560" 
d="M179 297q44 136 152 136q38 0 66.5 -12.5t47 -35t28 -54t9.5 -68.5v-202q0 -28 9 -38.5t32 -10.5h32v-12h-239v12h35q23 0 32 11.5t9 37.5v226q0 60 -19.5 95t-56.5 35q-31 0 -56.5 -18t-43.5 -48t-27.5 -68.5t-9.5 -78.5v-143q0 -27 8.5 -38t31.5 -11h32v-12h-238v12h35
q23 0 31.5 11.5t8.5 37.5v556q0 23 -10.5 34t-36.5 11h-31v12h38q32 0 65 2.5t66 7.5v-387zM215 912h75l103 -164h-12l-130 105l-128 -105h-12z" />
    <glyph glyph-name="lacute" unicode="&#x13a;" horiz-adv-x="264" 
d="M179 61q0 -27 8.5 -38t31.5 -11h32v-12h-238v12h35q23 0 31.5 11.5t8.5 37.5v557q0 23 -12.5 33.5t-34.5 10.5h-31v12h38q31 0 63.5 2.5t67.5 7.5v-623zM91 749h-12l64 110q23 39 37.5 54.5t34.5 15.5q14 0 23 -9t9 -24q0 -14 -9.5 -25.5t-29.5 -28.5z" />
    <glyph glyph-name="iogonek" unicode="&#x12f;" horiz-adv-x="256" 
d="M13 0v12h35q23 0 31.5 11.5t8.5 37.5v303q0 23 -12.5 33t-34.5 10h-31v12h38q31 0 63.5 2.5t67.5 8.5v-369q0 -27 8.5 -38t31.5 -11h32v-12h-62q-14 -11 -25.5 -20.5t-22.5 -19.5q-10 -9 -17.5 -18.5t-12 -22.5t-6.5 -30.5t-2 -42.5q0 -31 13.5 -47.5t35.5 -16.5
q17 0 29.5 9.5t28.5 36.5l11 -6q-18 -32 -40.5 -47t-60.5 -15q-48 0 -76 22.5t-28 63.5q0 30 23.5 52t61.5 51q20 16 36.5 28t31.5 23h-156zM76 573q0 23 16.5 39.5t39.5 16.5t39.5 -16.5t16.5 -39.5t-16.5 -39.5t-39.5 -16.5t-39.5 16.5t-16.5 39.5z" />
    <glyph glyph-name="igrave" unicode="&#xec;" horiz-adv-x="256" 
d="M179 61q0 -27 8.5 -38t31.5 -11h32v-12h-238v12h35q23 0 31.5 11.5t8.5 37.5v303q0 23 -12.5 33t-34.5 10h-31v12h38q31 0 63.5 2.5t67.5 8.5v-369zM60 598q-20 17 -29.5 28.5t-9.5 25.5q0 15 8.5 24t22.5 9q21 0 35.5 -15.5t37.5 -54.5l63 -110h-12z" />
    <glyph glyph-name="iacute" unicode="&#xed;" horiz-adv-x="256" 
d="M179 61q0 -27 8.5 -38t31.5 -11h32v-12h-238v12h35q23 0 31.5 11.5t8.5 37.5v303q0 23 -12.5 33t-34.5 10h-31v12h38q31 0 63.5 2.5t67.5 8.5v-369zM91 505h-12l64 110q23 39 37 54.5t35 15.5q14 0 23 -9t9 -24q0 -14 -9.5 -25.5t-29.5 -28.5z" />
    <glyph glyph-name="icircumflex" unicode="&#xee;" horiz-adv-x="256" 
d="M179 61q0 -27 8.5 -38t31.5 -11h32v-12h-238v12h35q23 0 31.5 11.5t8.5 37.5v303q0 23 -12.5 33t-34.5 10h-31v12h38q31 0 63.5 2.5t67.5 8.5v-369zM96 668h76l103 -164h-12l-130 105l-128 -105h-12z" />
    <glyph glyph-name="itilde" unicode="&#x129;" horiz-adv-x="256" 
d="M179 61q0 -27 8.5 -38t31.5 -11h32v-12h-238v12h35q23 0 31.5 11.5t8.5 37.5v303q0 23 -12.5 33t-34.5 10h-31v12h38q31 0 63.5 2.5t67.5 8.5v-369zM284 636q-9 -116 -83 -116q-15 0 -31.5 5t-36.5 16q-10 6 -21.5 12.5t-23 12.5t-22.5 10t-20 4q-19 0 -32 -15t-18 -45
h-12q6 117 84 117q17 0 34 -6.5t36 -17.5q23 -14 44 -25t39 -11q17 0 32.5 15.5t17.5 43.5h13z" />
    <glyph glyph-name="idieresis" unicode="&#xef;" horiz-adv-x="256" 
d="M179 61q0 -27 8.5 -38t31.5 -11h32v-12h-238v12h35q23 0 31.5 11.5t8.5 37.5v303q0 23 -12.5 33t-34.5 10h-31v12h38q31 0 63.5 2.5t67.5 8.5v-369zM-13 571q0 22 15 37t36 15t36 -15t15 -37q0 -21 -15 -36t-36 -15t-36 15t-15 36zM178 571q0 22 15 37t36 15q22 0 37 -15
t15 -37q0 -21 -15 -36t-37 -15q-21 0 -36 15t-15 36z" />
    <glyph glyph-name="imacron" unicode="&#x12b;" horiz-adv-x="256" 
d="M179 61q0 -27 8.5 -38t31.5 -11h32v-12h-238v12h35q23 0 31.5 11.5t8.5 37.5v303q0 23 -12.5 33t-34.5 10h-31v12h38q31 0 63.5 2.5t67.5 8.5v-369zM-16 575h299v-34h-299v34z" />
    <glyph glyph-name="ibreve" unicode="&#x12d;" horiz-adv-x="256" 
d="M179 61q0 -27 8.5 -38t31.5 -11h32v-12h-238v12h35q23 0 31.5 11.5t8.5 37.5v303q0 23 -12.5 33t-34.5 10h-31v12h38q31 0 63.5 2.5t67.5 8.5v-369zM14 669q12 -38 44 -58.5t76 -20.5q43 0 74 20.5t45 58.5h13q-6 -67 -41 -108t-91 -41t-90.5 41.5t-42.5 107.5h13z" />
    <glyph glyph-name="jcircumflex" unicode="&#x135;" horiz-adv-x="251" 
d="M47 419q31 0 63.5 2.5t68.5 8.5v-508q0 -30 -8.5 -59t-25.5 -52t-43 -37t-61 -14q-18 0 -36 5.5t-32.5 16t-23 26.5t-8.5 36q0 22 12.5 35.5t35.5 13.5q20 0 31 -11.5t11 -28.5q0 -16 -5.5 -25.5t-11.5 -15.5t-11.5 -10t-5.5 -9q0 -9 13.5 -15t30.5 -6q27 0 37 17t10 65
v510q0 23 -13 33t-34 10h-32v12h38zM88 668h76l103 -164h-12l-130 105l-128 -105h-12z" />
    <glyph glyph-name="uogonek" unicode="&#x173;" horiz-adv-x="544" 
d="M545 12v-12h-38h-31q-14 -11 -25.5 -20.5t-22.5 -19.5q-10 -9 -17.5 -18.5t-12 -22.5t-6.5 -30.5t-2 -42.5q0 -31 14 -47.5t35 -16.5q18 0 30.5 9.5t28.5 36.5l10 -6q-18 -32 -40 -47t-61 -15q-48 0 -76 22.5t-28 63.5q0 30 23.5 52t61.5 51l36 27t31 23q-40 -3 -79 -9
v140q-22 -70 -58 -103t-98 -33q-39 0 -66 12.5t-44 35t-24.5 53.5t-7.5 69v199q0 23 -11 33.5t-37 10.5h-31v12h38q32 0 65.5 3t65.5 8v-291q0 -60 15.5 -95t53.5 -35q36 0 62.5 21t43.5 53.5t25 72.5t8 78v129q0 23 -10.5 33.5t-36.5 10.5h-32v12h38q32 0 65.5 3t66.5 8
v-373q0 -23 10.5 -34t36.5 -11h31z" />
    <glyph glyph-name="uniF6C3" unicode="&#xf6c3;" 
d="M121 -229q32 16 47.5 36t15.5 40q0 11 -10 11q-5 0 -9.5 -2t-16.5 -2q-18 0 -31 12t-13 29q0 21 13 35t30 14q29 0 41.5 -19.5t12.5 -54.5q0 -38 -18 -64t-56 -46z" />
    <glyph glyph-name="Gcommaaccent" unicode="&#x122;" horiz-adv-x="712" 
d="M342 683q121 0 193 -111q35 38 48 111h11l15 -313h-11q-13 64 -35 119t-53 95t-72 63t-92 23q-57 0 -93.5 -27t-57 -74.5t-28.5 -113t-8 -142.5q0 -69 7.5 -127.5t27.5 -100.5t53.5 -65.5t86.5 -23.5q36 0 68 11t56 33.5t37.5 56t13.5 77.5v55q0 33 -34 33h-99v12h332
v-12h-66q-37 0 -37 -38v-241h-10q-9 50 -24.5 83t-29.5 51q-42 -65 -88.5 -99.5t-115.5 -34.5q-68 0 -123 31t-94 80t-60 108t-21 116q0 65 23.5 130t65 117.5t96.5 85t118 32.5zM299 -229q32 16 47.5 36t15.5 40q0 11 -10 11q-5 0 -9.5 -2t-16.5 -2q-18 0 -31 12t-13 29
q0 21 13 35t30 14q29 0 41.5 -19.5t12.5 -54.5q0 -38 -18 -64t-56 -46z" />
    <glyph glyph-name="kcommaaccent" unicode="&#x137;" horiz-adv-x="549" 
d="M179 158l156 157q26 25 26 51q0 17 -18.5 29t-57.5 12h-25v12h267v-12h-14q-69 0 -145 -76l-55 -55l155 -217q15 -22 33 -34.5t38 -12.5h16v-12h-250v12h42q25 0 25 18q0 5 -3 10.5t-6 10.5l-114 160l-70 -69v-81q0 -27 8.5 -38t31.5 -11h32v-12h-238v12h35
q23 0 31.5 11.5t8.5 37.5v557q0 23 -12.5 33.5t-34.5 10.5h-31v12h38q31 0 63.5 2.5t67.5 7.5v-526zM240 -229q32 16 47.5 36t15.5 40q0 11 -10 11q-5 0 -9.5 -2t-16.5 -2q-18 0 -31 12t-13 29q0 21 13 35t30 14q29 0 41.5 -19.5t12.5 -54.5q0 -38 -18 -64t-56 -46z" />
    <glyph glyph-name="ncommaaccent" unicode="&#x146;" horiz-adv-x="560" 
d="M179 297q44 136 152 136q38 0 66.5 -12.5t47 -35t28 -54t9.5 -68.5v-202q0 -28 9 -38.5t32 -10.5h32v-12h-239v12h35q23 0 32 11.5t9 37.5v226q0 60 -19.5 95t-56.5 35q-31 0 -56.5 -18t-43.5 -48t-27.5 -68.5t-9.5 -78.5v-143q0 -27 8.5 -38t31.5 -11h32v-12h-238v12h35
q23 0 31.5 11.5t8.5 37.5v302q0 23 -10.5 33.5t-36.5 10.5h-31v12h38q32 0 65 3t66 8v-133zM246 -229q32 16 47.5 36t15.5 40q0 11 -10 11q-5 0 -9.5 -2t-16.5 -2q-18 0 -31 12t-13 29q0 21 13 35t30 14q29 0 41.5 -19.5t12.5 -54.5q0 -38 -18 -64t-56 -46z" />
    <glyph glyph-name="lcommaaccent" unicode="&#x13c;" horiz-adv-x="264" 
d="M179 61q0 -27 8.5 -38t31.5 -11h32v-12h-238v12h35q23 0 31.5 11.5t8.5 37.5v557q0 23 -12.5 33.5t-34.5 10.5h-31v12h38q31 0 63.5 2.5t67.5 7.5v-623zM103 -229q32 16 47.5 36t15.5 40q0 11 -10 11q-5 0 -9.5 -2t-16.5 -2q-18 0 -31 12t-13 29q0 21 13 35t30 14
q29 0 41.5 -19.5t12.5 -54.5q0 -38 -18 -64t-56 -46z" />
    <glyph glyph-name="rcommaaccent" unicode="&#x157;" horiz-adv-x="412" 
d="M179 300q23 70 57 101.5t74 31.5q18 0 34.5 -7t29 -18.5t20 -27t7.5 -32.5q0 -27 -14 -42.5t-37 -15.5t-39 14t-16 35q0 15 5.5 23.5t12 15t12 11.5t5.5 13q0 17 -24 17q-26 0 -49.5 -17t-40.5 -47.5t-27 -72.5t-10 -91v-130q0 -27 8.5 -38t31.5 -11h32v-12h-238v12h35
q23 0 31.5 11.5t8.5 37.5v303q0 23 -12.5 33t-34.5 10h-31v12h38q31 0 63.5 2.5t67.5 8.5v-130zM104 -229q32 16 47.5 36t15.5 40q0 11 -10 11q-5 0 -9.5 -2t-16.5 -2q-18 0 -31 12t-13 29q0 21 13 35t30 14q29 0 41.5 -19.5t12.5 -54.5q0 -38 -18 -64t-56 -46z" />
    <glyph glyph-name="scommaaccent" unicode="&#x219;" horiz-adv-x="395" 
d="M229 -6q-34 0 -69.5 12.5t-64.5 46.5q-14 -12 -24.5 -28t-15.5 -31h-11v185h11q18 -85 60.5 -129t113.5 -44q39 0 65.5 17.5t26.5 55.5q0 18 -9.5 30.5t-27 22.5t-41 18.5t-51.5 16.5q-34 10 -61.5 22t-46.5 29.5t-29 40.5t-10 55q0 25 10 47t27 38t41 25t52 9
q35 0 65.5 -17t50.5 -41q16 12 24 25t12 28h11v-168h-11q-5 34 -19 63.5t-34 51t-45.5 33.5t-53.5 12q-36 0 -64 -18.5t-28 -54.5q0 -32 32.5 -49t87.5 -34q36 -12 65.5 -24.5t50.5 -30t32.5 -40.5t11.5 -54q0 -57 -38.5 -89t-95.5 -32zM191 -229q32 16 47.5 36t15.5 40
q0 11 -10 11q-5 0 -9.5 -2t-16.5 -2q-18 0 -31 12t-13 29q0 21 13 35t30 14q29 0 41.5 -19.5t12.5 -54.5q0 -38 -18 -64t-56 -46z" />
    <glyph glyph-name="tcommaaccent" unicode="&#x163;" horiz-adv-x="374" 
d="M206 -6q-54 4 -83.5 33.5t-29.5 83.5v287h-88v11q68 17 112 69t55 137h12v-196h139v-21h-139v-309q0 -32 14 -54t47 -22q49 0 74 53.5t25 159.5h12q0 -116 -30 -173.5t-104 -58.5l-28 -36q38 -8 59.5 -28t21.5 -45q0 -22 -15 -38.5t-40 -27.5t-57.5 -16.5t-67.5 -5.5v12
q24 1 45 4.5t36.5 10.5t24 18.5t8.5 29.5q0 40 -64 43z" />
    <glyph glyph-name="uni021B" unicode="&#x21b;" horiz-adv-x="374" 
d="M184 615v-196h139v-21h-139v-309q0 -32 14 -54t47 -22q49 0 74 53.5t25 159.5h12q0 -118 -30.5 -175t-106.5 -57q-60 0 -93 30t-33 87v287h-88v11q68 17 112 69t55 137h12zM182 -229q32 16 47.5 36t15.5 40q0 11 -10 11q-5 0 -10 -2t-16 -2q-18 0 -31.5 12t-13.5 29
q0 21 13 35t31 14q29 0 41 -19.5t12 -54.5q0 -38 -17.5 -64t-55.5 -46z" />
    <glyph glyph-name="Tbar" unicode="&#x166;" horiz-adv-x="650" 
d="M614 421q-8 53 -21 97t-35 76t-54.5 50t-78.5 18q-27 0 -38 -6.5t-11 -25.5v-286h135v-14h-135v-261q0 -57 51 -57h69v-12h-354v12h85q49 0 49 57v261h-134v14h134v286q0 16 -10 24t-38 8q-48 0 -81 -19.5t-55.5 -52.5t-35.5 -76.5t-20 -92.5h-12v253h601v-253h-11z" />
    <glyph glyph-name="dcroat" unicode="&#x111;" horiz-adv-x="554" 
d="M257 550h122v62q0 50 -53 50h-48v12h38q16 0 35.5 0.5t40.5 2t41 3t37 4.5v-134h78v-15h-78v-478q0 -23 10.5 -34t36.5 -11h31v-12h-38q-32 0 -65 -2.5t-66 -7.5v116q-20 -55 -56 -84t-84 -29q-47 0 -85 16.5t-65 46t-42 68.5t-15 84t15.5 85.5t43 71.5t66 49.5
t84.5 18.5q42 0 76.5 -25.5t61.5 -86.5v214h-122v15zM133 208q0 -107 27 -154.5t81 -47.5q35 0 61 17t43 45.5t25.5 64.5t8.5 75q0 45 -9.5 83.5t-27 67t-42.5 45t-57 16.5q-55 0 -82.5 -50t-27.5 -162z" />
    <glyph glyph-name="hbar" unicode="&#x127;" horiz-adv-x="560" 
d="M179 550h122v-15h-122v-238q44 136 152 136q38 0 66.5 -12.5t47 -35t28 -54t9.5 -68.5v-202q0 -28 9 -38.5t32 -10.5h32v-12h-239v12h35q23 0 32 11.5t9 37.5v226q0 60 -19.5 95t-56.5 35q-31 0 -56.5 -18t-43.5 -48t-27.5 -68.5t-9.5 -78.5v-143q0 -27 8.5 -38t31.5 -11
h32v-12h-238v12h35q23 0 31.5 11.5t8.5 37.5v474h-78v15h78v67q0 23 -10.5 34t-36.5 11h-31v12h38q32 0 65 2.5t66 7.5v-134z" />
    <glyph glyph-name="tbar" unicode="&#x167;" horiz-adv-x="374" 
d="M184 615v-196h139v-21h-139v-127h123v-15h-123v-167q0 -32 14 -54t47 -22q49 0 74 53.5t25 159.5h12q0 -118 -30.5 -175t-106.5 -57q-60 0 -93 30t-33 87v145h-78v15h78v127h-88v11q68 17 112 69t55 137h12z" />
    <glyph glyph-name="Ldot" unicode="&#x13f;" horiz-adv-x="618" 
d="M12 12h48q26 0 40.5 14t14.5 43v535q0 29 -14.5 43.5t-40.5 14.5h-46v12h296v-12h-45q-50 0 -50 -58v-540q0 -52 42 -52h71q46 0 86 20.5t71.5 55t54 80t33.5 96.5h11l-8 -264h-564v12zM527 443q0 -21 -15.5 -36.5t-37.5 -15.5t-37.5 15.5t-15.5 36.5q0 22 15.5 37.5
t37.5 15.5t37.5 -15.5t15.5 -37.5z" />
    <glyph glyph-name="glyph261" 
d="M178 697q-29 -17 -43.5 -36.5t-14.5 -39.5q0 -12 10 -12q7 0 12 2.5t19 2.5q18 0 31.5 -12.5t13.5 -29.5q0 -21 -13 -35t-31 -14q-31 0 -44.5 21t-13.5 59q0 32 16.5 58.5t51.5 46.5z" />
    <glyph glyph-name="glyph262" 
d="M123 470h-11l13 119q5 39 16.5 57t31.5 18q14 0 23 -9t9 -24q0 -9 -5 -22.5t-19 -38.5z" />
    <glyph glyph-name="dcaron" unicode="&#x10f;" horiz-adv-x="554" 
d="M510 0q-32 0 -65 -2.5t-66 -7.5v116q-20 -55 -56 -84t-84 -29q-47 0 -85 16.5t-65 46t-42 68.5t-15 84t15.5 85.5t43 71.5t66 49.5t84.5 18.5q42 0 76.5 -25.5t61.5 -86.5v291q0 50 -53 50h-48v12h38q16 0 35.5 0.5t40.5 2t41 3t37 4.5v-627q0 -23 10.5 -34t36.5 -11h31
v-12h-38zM133 208q0 -107 27 -154.5t81 -47.5q35 0 61 17t43 45.5t25.5 64.5t8.5 75q0 45 -9.5 83.5t-27 67t-42.5 45t-57 16.5q-55 0 -82.5 -50t-27.5 -162zM529 470h-10l13 119q5 39 16 57t32 18q14 0 23 -9t9 -24q0 -9 -5.5 -22.5t-19.5 -38.5z" />
    <glyph glyph-name="lcaron" unicode="&#x13e;" horiz-adv-x="264" 
d="M179 61q0 -27 8.5 -38t31.5 -11h32v-12h-238v12h35q23 0 31.5 11.5t8.5 37.5v557q0 23 -12.5 33.5t-34.5 10.5h-31v12h38q31 0 63.5 2.5t67.5 7.5v-623zM239 470h-11l13 119q5 39 16.5 57t32.5 18q14 0 22.5 -9t8.5 -24q0 -9 -5 -22.5t-19 -38.5z" />
    <glyph glyph-name="napostrophe" unicode="&#x149;" horiz-adv-x="696" 
d="M39 439q47 26 71.5 62t24.5 77q0 19 -11 19q-8 0 -16 -7.5t-26 -7.5q-19 0 -32 15.5t-13 35.5q0 21 13.5 35t33.5 14q16 0 28.5 -8t20 -21.5t11.5 -31t4 -35.5q0 -50 -24.5 -88.5t-78.5 -68.5zM315 297q44 136 152 136q38 0 66.5 -12.5t47.5 -35t28.5 -54t9.5 -68.5v-202
q0 -28 8.5 -38.5t31.5 -10.5h32v-12h-239v12h35q24 0 32.5 11.5t8.5 37.5v226q0 60 -19.5 95t-56.5 35q-31 0 -56.5 -18t-43.5 -48t-27.5 -68.5t-9.5 -78.5v-143q0 -27 8.5 -38t31.5 -11h32v-12h-238v12h35q23 0 32 11.5t9 37.5v302q0 23 -11 33.5t-37 10.5h-31v12h38
q32 0 65 3t66 8v-133z" />
    <glyph glyph-name="ldot" unicode="&#x140;" horiz-adv-x="392" 
d="M179 61q0 -27 8.5 -38t31.5 -11h32v-12h-238v12h35q23 0 31.5 11.5t8.5 37.5v557q0 23 -12.5 33.5t-34.5 10.5h-31v12h38q31 0 63.5 2.5t67.5 7.5v-623zM382 332q0 -22 -15.5 -37.5t-36.5 -15.5q-23 0 -38 15.5t-15 37.5t15 37.5t38 15.5q21 0 36.5 -15.5t15.5 -37.5z
" />
    <glyph glyph-name="tcaron" unicode="&#x165;" horiz-adv-x="374" 
d="M184 615v-196h139v-21h-139v-309q0 -32 14 -54t47 -22q49 0 74 53.5t25 159.5h12q0 -118 -30.5 -175t-106.5 -57q-60 0 -93 30t-33 87v287h-88v11q68 17 112 69t55 137h12zM258 470h-11l13 119q5 39 16.5 57t32.5 18q14 0 22.5 -9t8.5 -24q0 -9 -5 -22.5t-19 -38.5z" />
    <glyph glyph-name="Euro" unicode="&#x20ac;" horiz-adv-x="589" 
d="M83 255q-2 14 -3 28t-1 29q0 26 3 50h-58l5 13h55q9 55 31 105.5t54.5 88.5t72.5 61t85 23q92 0 155 -110q21 23 34 50.5t18 59.5h11v-289h-11q-12 53 -30 103t-43.5 88.5t-58.5 62t-74 23.5q-36 0 -61.5 -22t-44.5 -64q-11 -26 -15.5 -73t-6.5 -107h237l-5 -13h-233v-71
v-36h213l-4 -12h-208q2 -60 10.5 -110t22.5 -74q20 -29 46 -46t63 -17q42 0 77 18t61.5 49.5t42 74t18.5 90.5h12q-2 -52 -19 -96.5t-45 -77.5t-65.5 -52t-80.5 -19q-46 0 -88.5 19.5t-77 54t-58.5 82.5t-34 104h-80l4 12h74z" />
    <glyph glyph-name="Dcroat" unicode="&#x110;" horiz-adv-x="718" 
d="M24 344h91v260q0 58 -50 58h-53v12h330q70 0 131 -28t107 -75t72.5 -108.5t26.5 -129.5q0 -69 -28.5 -129.5t-76.5 -105.5t-110 -71.5t-128 -26.5h-324v12h53q50 0 50 57v261h-91v14zM242 662q-27 0 -27 -31v-287h180v-14h-180v-278q0 -40 29 -40h95q62 0 104.5 28
t69 74.5t38 107.5t11.5 127q0 67 -10.5 124.5t-37 99.5t-71.5 65.5t-114 23.5h-87z" />
    <glyph glyph-name="Eogonek" unicode="&#x118;" horiz-adv-x="644" 
d="M12 0v12h52q51 0 51 57v535q0 58 -49 58h-54v12h577v-244h-11q-25 107 -79.5 169.5t-136.5 62.5h-124q-23 0 -23 -33v-282h35q145 0 151 177h12v-370h-12q0 45 -11 78.5t-30.5 56t-46.5 34t-58 11.5h-40v-288q0 -34 31 -34h127q44 0 80 17.5t63.5 48.5t46.5 73.5t30 92.5
h11l-5 -244h-57q-14 -11 -25.5 -20.5t-22.5 -19.5q-10 -9 -17.5 -18.5t-12 -22.5t-6.5 -30.5t-2 -42.5q0 -31 13.5 -47.5t35.5 -16.5q17 0 29.5 9.5t28.5 36.5l11 -6q-18 -32 -40.5 -47t-60.5 -15q-48 0 -76 22.5t-28 63.5q0 30 23.5 52t61.5 51q20 16 36.5 28t31.5 23h-510
z" />
    <glyph glyph-name="Dcaron" unicode="&#x10e;" horiz-adv-x="718" 
d="M12 674h330q70 0 131 -28t107 -75t72.5 -108.5t26.5 -129.5q0 -69 -28.5 -129.5t-76.5 -105.5t-110 -71.5t-128 -26.5h-324v12h53q50 0 50 57v535q0 58 -50 58h-53v12zM242 662q-27 0 -27 -31v-579q0 -40 29 -40h95q62 0 104.5 28t69 74.5t38 107.5t11.5 127
q0 67 -10.5 124.5t-37 99.5t-71.5 65.5t-114 23.5h-87zM350 763h-76l-103 164h12l130 -106l128 106h12z" />
    <glyph glyph-name="sacute" unicode="&#x15b;" horiz-adv-x="395" 
d="M229 -6q-34 0 -69.5 12.5t-64.5 46.5q-14 -12 -24.5 -28t-15.5 -31h-11v185h11q18 -85 60.5 -129t113.5 -44q39 0 65.5 17.5t26.5 55.5q0 18 -9.5 30.5t-27 22.5t-41 18.5t-51.5 16.5q-34 10 -61.5 22t-46.5 29.5t-29 40.5t-10 55q0 25 10 47t27 38t41 25t52 9
q35 0 65.5 -17t50.5 -41q16 12 24 25t12 28h11v-168h-11q-5 34 -19 63.5t-34 51t-45.5 33.5t-53.5 12q-36 0 -64 -18.5t-28 -54.5q0 -32 32.5 -49t87.5 -34q36 -12 65.5 -24.5t50.5 -30t32.5 -40.5t11.5 -54q0 -57 -38.5 -89t-95.5 -32zM149 505h-12l64 110q23 39 37.5 54.5
t34.5 15.5q14 0 23 -9t9 -24q0 -14 -9.5 -25.5t-29.5 -28.5z" />
    <glyph glyph-name="scaron" unicode="&#x161;" horiz-adv-x="395" 
d="M229 -6q-34 0 -69.5 12.5t-64.5 46.5q-14 -12 -24.5 -28t-15.5 -31h-11v185h11q18 -85 60.5 -129t113.5 -44q39 0 65.5 17.5t26.5 55.5q0 18 -9.5 30.5t-27 22.5t-41 18.5t-51.5 16.5q-34 10 -61.5 22t-46.5 29.5t-29 40.5t-10 55q0 25 10 47t27 38t41 25t52 9
q35 0 65.5 -17t50.5 -41q16 12 24 25t12 28h11v-168h-11q-5 34 -19 63.5t-34 51t-45.5 33.5t-53.5 12q-36 0 -64 -18.5t-28 -54.5q0 -32 32.5 -49t87.5 -34q36 -12 65.5 -24.5t50.5 -30t32.5 -40.5t11.5 -54q0 -57 -38.5 -89t-95.5 -32zM230 519h-76l-103 164h12l130 -106
l128 106h12z" />
    <glyph glyph-name="scircumflex" unicode="&#x15d;" horiz-adv-x="395" 
d="M229 -6q-34 0 -69.5 12.5t-64.5 46.5q-14 -12 -24.5 -28t-15.5 -31h-11v185h11q18 -85 60.5 -129t113.5 -44q39 0 65.5 17.5t26.5 55.5q0 18 -9.5 30.5t-27 22.5t-41 18.5t-51.5 16.5q-34 10 -61.5 22t-46.5 29.5t-29 40.5t-10 55q0 25 10 47t27 38t41 25t52 9
q35 0 65.5 -17t50.5 -41q16 12 24 25t12 28h11v-168h-11q-5 34 -19 63.5t-34 51t-45.5 33.5t-53.5 12q-36 0 -64 -18.5t-28 -54.5q0 -32 32.5 -49t87.5 -34q36 -12 65.5 -24.5t50.5 -30t32.5 -40.5t11.5 -54q0 -57 -38.5 -89t-95.5 -32zM155 668h75l103 -164h-12l-130 105
l-128 -105h-12z" />
    <glyph glyph-name="scedilla" unicode="&#x15f;" horiz-adv-x="395" 
d="M215 -6q-31 2 -62.5 15t-57.5 44q-14 -12 -24.5 -28t-15.5 -31h-11v185h11q18 -85 60.5 -129t113.5 -44q39 0 65.5 17.5t26.5 55.5q0 18 -9.5 30.5t-27 22.5t-41 18.5t-51.5 16.5q-34 10 -61.5 22t-46.5 29.5t-29 40.5t-10 55q0 25 10 47t27 38t41 25t52 9q35 0 65.5 -17
t50.5 -41q16 12 24 25t12 28h11v-168h-11q-5 34 -19 63.5t-34 51t-45.5 33.5t-53.5 12q-36 0 -64 -18.5t-28 -54.5q0 -32 32.5 -49t87.5 -34q36 -12 65.5 -24.5t50.5 -30t32.5 -40.5t11.5 -54q0 -57 -37.5 -88.5t-93.5 -32.5l-28 -36q37 -8 59 -28t22 -45q0 -22 -15 -38.5
t-40 -27.5t-57.5 -16.5t-67.5 -5.5v12q24 1 45 4.5t36 10.5t24 18.5t9 29.5q0 40 -65 43z" />
    <glyph glyph-name="gcircumflex" unicode="&#x11d;" horiz-adv-x="510" 
d="M7 -130q0 35 31 52t102 27q-55 9 -82.5 31.5t-27.5 65.5q0 24 10 40t26.5 25.5t37.5 14t43 4.5h16q-63 15 -95 54.5t-32 86.5q0 37 15.5 67t41 51t58.5 32.5t69 11.5q52 0 93.5 -25t69.5 -76q0 5 -0.5 12t-0.5 17q0 30 16 50.5t50 20.5q28 0 47.5 -16t19.5 -44
q0 -20 -11.5 -29.5t-25.5 -9.5q-16 0 -26.5 9.5t-10.5 25.5q0 13 6.5 17.5t6.5 15.5q0 16 -19 16q-17 0 -29 -15t-12 -41q0 -12 2 -22.5t4.5 -21t4.5 -22.5t2 -27q0 -36 -16.5 -64.5t-44.5 -48t-65 -29.5t-77 -10q-13 0 -27 1t-30 1q-35 0 -59 -11t-24 -34q0 -36 70 -36
q19 0 35.5 1l33 2t34.5 2t39 1q81 0 128 -33t47 -102q0 -39 -18 -67t-48 -46t-69.5 -26.5t-82.5 -8.5q-39 0 -79.5 6t-73 19t-53 34t-20.5 51zM233 -228q44 0 80 8t62 23t40 35.5t14 44.5q0 38 -33 52t-89 14q-51 0 -90 -2.5t-66 -7.5q-40 -8 -59 -26t-19 -44t13 -44
t35.5 -30t51 -17.5t60.5 -5.5zM220 420q-95 0 -95 -153q0 -63 24 -100t69 -37q100 0 100 148q0 142 -98 142zM205 668h75l103 -164h-12l-130 105l-128 -105h-12z" />
    <glyph glyph-name="gbreve" unicode="&#x11f;" horiz-adv-x="510" 
d="M7 -130q0 35 31 52t102 27q-55 9 -82.5 31.5t-27.5 65.5q0 24 10 40t26.5 25.5t37.5 14t43 4.5h16q-63 15 -95 54.5t-32 86.5q0 37 15.5 67t41 51t58.5 32.5t69 11.5q52 0 93.5 -25t69.5 -76q0 5 -0.5 12t-0.5 17q0 30 16 50.5t50 20.5q28 0 47.5 -16t19.5 -44
q0 -20 -11.5 -29.5t-25.5 -9.5q-16 0 -26.5 9.5t-10.5 25.5q0 13 6.5 17.5t6.5 15.5q0 16 -19 16q-17 0 -29 -15t-12 -41q0 -12 2 -22.5t4.5 -21t4.5 -22.5t2 -27q0 -36 -16.5 -64.5t-44.5 -48t-65 -29.5t-77 -10q-13 0 -27 1t-30 1q-35 0 -59 -11t-24 -34q0 -36 70 -36
q19 0 35.5 1l33 2t34.5 2t39 1q81 0 128 -33t47 -102q0 -39 -18 -67t-48 -46t-69.5 -26.5t-82.5 -8.5q-39 0 -79.5 6t-73 19t-53 34t-20.5 51zM233 -228q44 0 80 8t62 23t40 35.5t14 44.5q0 38 -33 52t-89 14q-51 0 -90 -2.5t-66 -7.5q-40 -8 -59 -26t-19 -44t13 -44
t35.5 -30t51 -17.5t60.5 -5.5zM220 420q-95 0 -95 -153q0 -63 24 -100t69 -37q100 0 100 148q0 142 -98 142zM122 669q12 -38 43.5 -58.5t75.5 -20.5t75 20.5t45 58.5h13q-7 -67 -42 -108t-91 -41t-90 41.5t-42 107.5h13z" />
    <glyph glyph-name="gdotaccent" unicode="&#x121;" horiz-adv-x="510" 
d="M7 -130q0 35 31 52t102 27q-55 9 -82.5 31.5t-27.5 65.5q0 24 10 40t26.5 25.5t37.5 14t43 4.5h16q-63 15 -95 54.5t-32 86.5q0 37 15.5 67t41 51t58.5 32.5t69 11.5q52 0 93.5 -25t69.5 -76q0 5 -0.5 12t-0.5 17q0 30 16 50.5t50 20.5q28 0 47.5 -16t19.5 -44
q0 -20 -11.5 -29.5t-25.5 -9.5q-16 0 -26.5 9.5t-10.5 25.5q0 13 6.5 17.5t6.5 15.5q0 16 -19 16q-17 0 -29 -15t-12 -41q0 -12 2 -22.5t4.5 -21t4.5 -22.5t2 -27q0 -36 -16.5 -64.5t-44.5 -48t-65 -29.5t-77 -10q-13 0 -27 1t-30 1q-35 0 -59 -11t-24 -34q0 -36 70 -36
q19 0 35.5 1l33 2t34.5 2t39 1q81 0 128 -33t47 -102q0 -39 -18 -67t-48 -46t-69.5 -26.5t-82.5 -8.5q-39 0 -79.5 6t-73 19t-53 34t-20.5 51zM233 -228q44 0 80 8t62 23t40 35.5t14 44.5q0 38 -33 52t-89 14q-51 0 -90 -2.5t-66 -7.5q-40 -8 -59 -26t-19 -44t13 -44
t35.5 -30t51 -17.5t60.5 -5.5zM220 420q-95 0 -95 -153q0 -63 24 -100t69 -37q100 0 100 148q0 142 -98 142zM186 580q0 23 16.5 39.5t39.5 16.5t39.5 -16.5t16.5 -39.5t-16.5 -40t-39.5 -17t-39.5 17t-16.5 40z" />
    <glyph glyph-name="gcommaaccent" unicode="&#x123;" horiz-adv-x="510" 
d="M7 -130q0 35 31 52t102 27q-55 9 -82.5 31.5t-27.5 65.5q0 24 10 40t26.5 25.5t37.5 14t43 4.5h16q-63 15 -95 54.5t-32 86.5q0 37 15.5 67t41 51t58.5 32.5t69 11.5q52 0 93.5 -25t69.5 -76q0 5 -0.5 12t-0.5 17q0 30 16 50.5t50 20.5q28 0 47.5 -16t19.5 -44
q0 -20 -11.5 -29.5t-25.5 -9.5q-16 0 -26.5 9.5t-10.5 25.5q0 13 6.5 17.5t6.5 15.5q0 16 -19 16q-17 0 -29 -15t-12 -41q0 -12 2 -22.5t4.5 -21t4.5 -22.5t2 -27q0 -36 -16.5 -64.5t-44.5 -48t-65 -29.5t-77 -10q-13 0 -27 1t-30 1q-35 0 -59 -11t-24 -34q0 -36 70 -36
q19 0 35.5 1l33 2t34.5 2t39 1q81 0 128 -33t47 -102q0 -39 -18 -67t-48 -46t-69.5 -26.5t-82.5 -8.5q-39 0 -79.5 6t-73 19t-53 34t-20.5 51zM233 -228q44 0 80 8t62 23t40 35.5t14 44.5q0 38 -33 52t-89 14q-51 0 -90 -2.5t-66 -7.5q-40 -8 -59 -26t-19 -44t13 -44
t35.5 -30t51 -17.5t60.5 -5.5zM220 420q-95 0 -95 -153q0 -63 24 -100t69 -37q100 0 100 148q0 142 -98 142zM262 697q-29 -17 -43.5 -36.5t-14.5 -39.5q0 -12 9 -12q7 0 12 2.5t19 2.5q19 0 32 -12.5t13 -29.5q0 -21 -13 -35t-30 -14q-32 0 -45.5 21t-13.5 59q0 65 68 105z
" />
    <glyph glyph-name="cacute" unicode="&#x107;" horiz-adv-x="442" 
d="M406 160q-2 -76 -45.5 -121t-112.5 -45q-44 0 -83.5 16.5t-69 45.5t-46.5 68t-17 84t17.5 85.5t47.5 71.5t71 49.5t89 18.5q31 0 58 -10.5t46.5 -28.5t30.5 -41t11 -48q0 -26 -12 -43t-37 -17q-23 0 -35 15.5t-12 32.5q0 34 30 49q9 5 14.5 8t5.5 12q0 10 -7.5 20.5
t-20.5 18.5t-31.5 13.5t-40.5 5.5q-63 0 -92 -50t-29 -162q0 -98 30 -149.5t90 -51.5q29 0 54 11.5t43.5 31.5t29 48.5t11.5 61.5h12zM209 505h-12l64 110q23 39 37.5 54.5t34.5 15.5q14 0 23 -9t9 -24q0 -14 -9.5 -25.5t-29.5 -28.5z" />
    <glyph glyph-name="ccircumflex" unicode="&#x109;" horiz-adv-x="442" 
d="M406 160q-2 -76 -45.5 -121t-112.5 -45q-44 0 -83.5 16.5t-69 45.5t-46.5 68t-17 84t17.5 85.5t47.5 71.5t71 49.5t89 18.5q31 0 58 -10.5t46.5 -28.5t30.5 -41t11 -48q0 -26 -12 -43t-37 -17q-23 0 -35 15.5t-12 32.5q0 34 30 49q9 5 14.5 8t5.5 12q0 10 -7.5 20.5
t-20.5 18.5t-31.5 13.5t-40.5 5.5q-63 0 -92 -50t-29 -162q0 -98 30 -149.5t90 -51.5q29 0 54 11.5t43.5 31.5t29 48.5t11.5 61.5h12zM214 668h75l103 -164h-12l-130 105l-128 -105h-12z" />
    <glyph glyph-name="ccaron" unicode="&#x10d;" horiz-adv-x="442" 
d="M406 160q-2 -76 -45.5 -121t-112.5 -45q-44 0 -83.5 16.5t-69 45.5t-46.5 68t-17 84t17.5 85.5t47.5 71.5t71 49.5t89 18.5q31 0 58 -10.5t46.5 -28.5t30.5 -41t11 -48q0 -26 -12 -43t-37 -17q-23 0 -35 15.5t-12 32.5q0 34 30 49q9 5 14.5 8t5.5 12q0 10 -7.5 20.5
t-20.5 18.5t-31.5 13.5t-40.5 5.5q-63 0 -92 -50t-29 -162q0 -98 30 -149.5t90 -51.5q29 0 54 11.5t43.5 31.5t29 48.5t11.5 61.5h12zM289 519h-76l-103 164h12l130 -106l128 106h12z" />
    <glyph glyph-name="ccedilla" unicode="&#xe7;" horiz-adv-x="442" 
d="M234 -6q-42 2 -78.5 19.5t-64 46.5t-43.5 67t-16 81q0 45 17.5 85.5t47.5 71.5t71 49.5t89 18.5q31 0 58 -10.5t46.5 -28.5t30.5 -41t11 -48q0 -26 -12 -43t-37 -17q-23 0 -35 15.5t-12 32.5q0 34 30 49q9 5 14.5 8t5.5 12q0 10 -7.5 20.5t-20.5 18.5t-31.5 13.5
t-40.5 5.5q-63 0 -92 -50t-29 -162q0 -98 30 -149.5t90 -51.5q29 0 54 11.5t43.5 31.5t29 48.5t11.5 61.5h12q-2 -75 -44.5 -119.5t-110.5 -46.5l-28 -36q37 -8 59 -28t22 -45q0 -22 -15 -38.5t-40 -27.5t-57.5 -16.5t-67.5 -5.5v12q24 1 45 4.5t36 10.5t24 18.5t9 29.5
q0 40 -65 43z" />
    <glyph glyph-name="cdotaccent" unicode="&#x10b;" horiz-adv-x="442" 
d="M406 160q-2 -76 -45.5 -121t-112.5 -45q-44 0 -83.5 16.5t-69 45.5t-46.5 68t-17 84t17.5 85.5t47.5 71.5t71 49.5t89 18.5q31 0 58 -10.5t46.5 -28.5t30.5 -41t11 -48q0 -26 -12 -43t-37 -17q-23 0 -35 15.5t-12 32.5q0 34 30 49q9 5 14.5 8t5.5 12q0 10 -7.5 20.5
t-20.5 18.5t-31.5 13.5t-40.5 5.5q-63 0 -92 -50t-29 -162q0 -98 30 -149.5t90 -51.5q29 0 54 11.5t43.5 31.5t29 48.5t11.5 61.5h12zM195 580q0 23 16.5 39.5t39.5 16.5t39.5 -16.5t16.5 -39.5t-16.5 -40t-39.5 -17t-39.5 17t-16.5 40z" />
    <glyph glyph-name="ij" unicode="&#x133;" horiz-adv-x="523" 
d="M179 61q0 -27 8.5 -38t31.5 -11h32v-12h-238v12h35q23 0 31.5 11.5t8.5 37.5v303q0 23 -12.5 33t-34.5 10h-31v12h38q31 0 63.5 2.5t67.5 8.5v-369zM76 573q0 23 16.5 39.5t39.5 16.5t39.5 -16.5t16.5 -39.5t-16.5 -39.5t-39.5 -16.5t-39.5 16.5t-16.5 39.5zM319 419
q31 0 63.5 2.5t67.5 8.5v-508q0 -30 -8.5 -59t-25.5 -52t-43 -37t-61 -14q-18 0 -36 5.5t-32 16t-23 26.5t-9 36q0 22 12.5 35.5t35.5 13.5q20 0 31 -11.5t11 -28.5q0 -16 -5.5 -25.5t-11.5 -15.5t-11.5 -10t-5.5 -9q0 -9 13.5 -15t30.5 -6q28 0 37.5 17t9.5 65v510
q0 23 -12.5 33t-34.5 10h-31v12h38zM347 573q0 23 16.5 39.5t39.5 16.5t39.5 -16.5t16.5 -39.5t-16.5 -39.5t-39.5 -16.5t-39.5 16.5t-16.5 39.5z" />
    <glyph glyph-name="Ccedilla" unicode="&#xc7;" horiz-adv-x="623" 
d="M329 -17q-57 3 -108.5 31t-90.5 74.5t-62.5 108t-23.5 132.5q0 67 22 131.5t60.5 115t89.5 81t110 30.5q107 0 178 -116q26 23 42 53t21 63h11v-304h-11q-15 56 -36 108.5t-50.5 93.5t-67.5 65.5t-86 24.5q-84 0 -131 -91q-9 -18 -15 -46t-10 -64t-5.5 -78t-1.5 -88
q0 -38 2.5 -75t8 -70t14 -59t19.5 -41q23 -32 56 -49.5t77 -17.5q50 0 91.5 19.5t72 53t48.5 79t21 97.5h12q-2 -55 -21 -102.5t-51 -82.5t-75 -55.5t-93 -21.5l-24 -30q38 -8 59.5 -28t21.5 -45q0 -22 -15 -38.5t-40 -27.5t-57.5 -16.5t-67.5 -5.5v12q24 1 45 4.5
t36.5 10.5t24 18.5t8.5 29.5q0 40 -65 43z" />
    <glyph glyph-name="threequarters" unicode="&#xbe;" horiz-adv-x="718" 
d="M283 595q0 -59 -94 -76q107 -23 107 -96q0 -23 -11 -40.5t-30 -29.5t-44 -18.5t-53 -6.5q-60 0 -92 21t-32 55q0 21 13 34t31 13q35 0 35 -35q0 -30 -34 -34q-13 -3 -13 -10q0 -10 19 -20.5t47 -10.5q38 0 62.5 22t24.5 61q0 14 -4 28.5t-12 26.5t-19.5 19.5t-26.5 7.5
q-7 0 -21 -3t-22 -3t-8 8q0 11 32 13q26 2 37 7q12 6 22 23t10 43q0 74 -62 74q-28 0 -49.5 -10.5t-21.5 -21.5q0 -6 14 -8q36 -3 36 -34q0 -35 -34 -35q-18 0 -30.5 13t-12.5 33q0 33 31 55t82 22q54 0 88.5 -24.5t34.5 -62.5zM588 682h41l-499 -716h-41zM588 349h11v-229
h80v-32h-80v-50q0 -26 27 -26h38v-12h-192v12h39q28 0 28 26v50h-128l-19 20zM539 120v150l-122 -150h122z" />
    <glyph glyph-name="questiondown" unicode="&#xbf;" horiz-adv-x="344" 
d="M308 -39q0 -47 -11.5 -82t-31 -58t-44.5 -34t-52 -11t-51 10.5t-42 30t-28.5 47t-10.5 62.5q0 42 16.5 78t52.5 67q15 13 33.5 27t34 29.5t26 34t10.5 39.5q0 20 -11.5 34.5t-31.5 14.5q-26 0 -39.5 -18.5t-19.5 -56.5h-13q14 88 72 88q18 0 32 -9t23.5 -23.5t14.5 -33.5
t5 -40q0 -36 -12 -61t-30 -44.5t-39 -36t-39 -35t-30 -41.5t-12 -55q0 -23 8 -41t20.5 -30t29 -18t33.5 -6q24 0 46.5 10.5t40 32t27.5 54t10 75.5h13zM124 395q0 21 15.5 36.5t37.5 15.5t37 -15.5t15 -36.5q0 -22 -15 -37.5t-37 -15.5t-37.5 15.5t-15.5 37.5z" />
    <glyph glyph-name="Agrave" unicode="&#xc0;" horiz-adv-x="694" 
d="M442 228h-252q-17 -48 -26.5 -83t-9.5 -50q0 -35 29 -59t80 -24h26v-12h-287v12h7q29 0 50.5 11.5t38 31t29.5 46t24 56.5l196 528h38l198 -581q11 -31 20 -49.5t17 -25.5t21 -12t32 -5h18v-12h-313v12h84q19 0 28.5 9t9.5 23q0 15 -5 28zM198 247h237l-114 334zM293 842
q-21 17 -30.5 28.5t-9.5 25.5q0 15 9 24t23 9q21 0 35.5 -15.5t37.5 -54.5l63 -110h-12z" />
    <glyph glyph-name="Aacute" unicode="&#xc1;" horiz-adv-x="694" 
d="M442 228h-252q-17 -48 -26.5 -83t-9.5 -50q0 -35 29 -59t80 -24h26v-12h-287v12h7q29 0 50.5 11.5t38 31t29.5 46t24 56.5l196 528h38l198 -581q11 -31 20 -49.5t17 -25.5t21 -12t32 -5h18v-12h-313v12h84q19 0 28.5 9t9.5 23q0 15 -5 28zM198 247h237l-114 334zM323 749
h-12l64 110q23 39 37.5 54.5t34.5 15.5q14 0 23 -9t9 -24q0 -14 -9.5 -25.5t-29.5 -28.5z" />
    <glyph glyph-name="Acircumflex" unicode="&#xc2;" horiz-adv-x="694" 
d="M442 228h-252q-17 -48 -26.5 -83t-9.5 -50q0 -35 29 -59t80 -24h26v-12h-287v12h7q29 0 50.5 11.5t38 31t29.5 46t24 56.5l196 528h38l198 -581q11 -31 20 -49.5t17 -25.5t21 -12t32 -5h18v-12h-313v12h84q19 0 28.5 9t9.5 23q0 15 -5 28zM198 247h237l-114 334zM329 912
h75l103 -164h-12l-130 105l-128 -105h-12z" />
    <glyph glyph-name="Atilde" unicode="&#xc3;" horiz-adv-x="694" 
d="M442 228h-252q-17 -48 -26.5 -83t-9.5 -50q0 -35 29 -59t80 -24h26v-12h-287v12h7q29 0 50.5 11.5t38 31t29.5 46t24 56.5l196 528h38l198 -581q11 -31 20 -49.5t17 -25.5t21 -12t32 -5h18v-12h-313v12h84q19 0 28.5 9t9.5 23q0 15 -5 28zM198 247h237l-114 334zM516 880
q-9 -116 -82 -116q-15 0 -32 5t-37 16q-10 6 -21.5 12.5t-22.5 12.5t-22 10t-20 4q-20 0 -33 -15t-17 -45h-13q7 117 84 117q17 0 34 -6.5t36 -17.5q23 -14 44.5 -25t39.5 -11q17 0 32.5 15.5t17.5 43.5h12z" />
    <glyph glyph-name="Adieresis" unicode="&#xc4;" horiz-adv-x="694" 
d="M442 228h-252q-17 -48 -26.5 -83t-9.5 -50q0 -35 29 -59t80 -24h26v-12h-287v12h7q29 0 50.5 11.5t38 31t29.5 46t24 56.5l196 528h38l198 -581q11 -31 20 -49.5t17 -25.5t21 -12t32 -5h18v-12h-313v12h84q19 0 28.5 9t9.5 23q0 15 -5 28zM198 247h237l-114 334zM219 815
q0 22 15 37t36 15q22 0 37 -15t15 -37q0 -21 -15 -36t-37 -15q-21 0 -36 15t-15 36zM411 815q0 22 15 37t36 15t36 -15t15 -37q0 -21 -15 -36t-36 -15t-36 15t-15 36z" />
    <glyph glyph-name="Amacron" unicode="&#x100;" horiz-adv-x="694" 
d="M442 228h-252q-17 -48 -26.5 -83t-9.5 -50q0 -35 29 -59t80 -24h26v-12h-287v12h7q29 0 50.5 11.5t38 31t29.5 46t24 56.5l196 528h38l198 -581q11 -31 20 -49.5t17 -25.5t21 -12t32 -5h18v-12h-313v12h84q19 0 28.5 9t9.5 23q0 15 -5 28zM198 247h237l-114 334zM217 819
h299v-34h-299v34z" />
    <glyph glyph-name="Abreve" unicode="&#x102;" horiz-adv-x="694" 
d="M442 228h-252q-17 -48 -26.5 -83t-9.5 -50q0 -35 29 -59t80 -24h26v-12h-287v12h7q29 0 50.5 11.5t38 31t29.5 46t24 56.5l196 528h38l198 -581q11 -31 20 -49.5t17 -25.5t21 -12t32 -5h18v-12h-313v12h84q19 0 28.5 9t9.5 23q0 15 -5 28zM198 247h237l-114 334zM247 914
q12 -38 43.5 -58.5t75.5 -20.5t75 20.5t45 58.5h13q-7 -67 -42 -108t-91 -41t-90 41.5t-42 107.5h13z" />
    <glyph glyph-name="Aring" unicode="&#xc5;" horiz-adv-x="694" 
d="M442 228h-252q-17 -48 -26.5 -83t-9.5 -50q0 -35 29 -59t80 -24h26v-12h-287v12h7q29 0 50.5 11.5t38 31t29.5 46t24 56.5l196 528h38l198 -581q11 -31 20 -49.5t17 -25.5t21 -12t32 -5h18v-12h-313v12h84q19 0 28.5 9t9.5 23q0 15 -5 28zM198 247h237l-114 334zM274 840
q0 19 7 36t19.5 29.5t29.5 19.5t36 7t35.5 -7t29 -19.5t20 -29.5t7.5 -36t-7.5 -35.5t-20 -29t-29 -19.5t-35.5 -7t-36 7t-29.5 19.5t-19.5 29t-7 35.5zM296 840q0 -29 20.5 -49t49.5 -20t49.5 20t20.5 49t-20.5 49.5t-49.5 20.5t-49.5 -20.5t-20.5 -49.5z" />
    <glyph glyph-name="Aogonek" unicode="&#x104;" horiz-adv-x="694" 
d="M378 0v12h84q19 0 28.5 9t9.5 23q0 15 -5 28l-53 156h-252q-17 -48 -26.5 -83t-9.5 -50q0 -35 29 -59t80 -24h26v-12h-287v12h7q29 0 50.5 11.5t38 31t29.5 46t24 56.5l196 528h38l198 -581q11 -31 20 -49.5t17 -25.5t21 -12t32 -5h18v-12h-100q-28 -22 -49 -40
q-10 -9 -17 -18.5t-11.5 -22.5t-7 -30.5t-2.5 -42.5q0 -31 14 -47.5t36 -16.5q17 0 29.5 9.5t28.5 36.5l11 -6q-18 -32 -40.5 -47t-61.5 -15q-48 0 -76 22.5t-28 63.5q0 30 24 52t61 51q21 16 37.5 28t31.5 23h-193zM198 247h237l-114 334z" />
    <glyph glyph-name="Igrave" unicode="&#xcc;" horiz-adv-x="330" 
d="M12 12h53q50 0 50 57v535q0 58 -50 58h-53v12h305v-12h-52q-50 0 -50 -58v-535q0 -57 50 -57h52v-12h-305v12zM92 842q-21 17 -30.5 28.5t-9.5 25.5q0 15 9 24t23 9q21 0 35.5 -15.5t37.5 -54.5l63 -110h-12z" />
    <glyph glyph-name="Iacute" unicode="&#xcd;" horiz-adv-x="330" 
d="M12 12h53q50 0 50 57v535q0 58 -50 58h-53v12h305v-12h-52q-50 0 -50 -58v-535q0 -57 50 -57h52v-12h-305v12zM122 749h-12l64 110q23 39 37.5 54.5t34.5 15.5q14 0 23 -9t9 -24q0 -14 -9.5 -25.5t-29.5 -28.5z" />
    <glyph glyph-name="Icircumflex" unicode="&#xce;" horiz-adv-x="330" 
d="M12 12h53q50 0 50 57v535q0 58 -50 58h-53v12h305v-12h-52q-50 0 -50 -58v-535q0 -57 50 -57h52v-12h-305v12zM128 912h75l103 -164h-12l-130 105l-128 -105h-12z" />
    <glyph glyph-name="Itilde" unicode="&#x128;" horiz-adv-x="330" 
d="M12 12h53q50 0 50 57v535q0 58 -50 58h-53v12h305v-12h-52q-50 0 -50 -58v-535q0 -57 50 -57h52v-12h-305v12zM315 880q-9 -116 -82 -116q-15 0 -32 5t-37 16q-10 6 -21.5 12.5t-22.5 12.5t-22 10t-20 4q-20 0 -33 -15t-17 -45h-13q7 117 84 117q17 0 34 -6.5t36 -17.5
q23 -14 44.5 -25t39.5 -11q17 0 32.5 15.5t17.5 43.5h12z" />
    <glyph glyph-name="Idieresis" unicode="&#xcf;" horiz-adv-x="330" 
d="M12 12h53q50 0 50 57v535q0 58 -50 58h-53v12h305v-12h-52q-50 0 -50 -58v-535q0 -57 50 -57h52v-12h-305v12zM18 815q0 22 15 37t36 15q22 0 37 -15t15 -37q0 -21 -15 -36t-37 -15q-21 0 -36 15t-15 36zM210 815q0 22 15 37t36 15t36 -15t15 -37q0 -21 -15 -36t-36 -15
t-36 15t-15 36z" />
    <glyph glyph-name="Imacron" unicode="&#x12a;" horiz-adv-x="330" 
d="M12 12h53q50 0 50 57v535q0 58 -50 58h-53v12h305v-12h-52q-50 0 -50 -58v-535q0 -57 50 -57h52v-12h-305v12zM16 819h299v-34h-299v34z" />
    <glyph glyph-name="Ibreve" unicode="&#x12c;" horiz-adv-x="330" 
d="M12 12h53q50 0 50 57v535q0 58 -50 58h-53v12h305v-12h-52q-50 0 -50 -58v-535q0 -57 50 -57h52v-12h-305v12zM46 914q12 -38 43.5 -58.5t75.5 -20.5t75 20.5t45 58.5h13q-7 -67 -42 -108t-91 -41t-90 41.5t-42 107.5h13z" />
    <glyph glyph-name="Idotaccent" unicode="&#x130;" horiz-adv-x="330" 
d="M12 12h53q50 0 50 57v535q0 58 -50 58h-53v12h305v-12h-52q-50 0 -50 -58v-535q0 -57 50 -57h52v-12h-305v12zM109 825q0 23 16.5 39.5t39.5 16.5t39.5 -16.5t16.5 -39.5t-16.5 -40t-39.5 -17t-39.5 17t-16.5 40z" />
    <glyph glyph-name="Iogonek" unicode="&#x12e;" horiz-adv-x="330" 
d="M12 12h53q50 0 50 57v535q0 58 -50 58h-53v12h305v-12h-52q-50 0 -50 -58v-535q0 -57 50 -57h52v-12h-99q-28 -22 -49 -40q-10 -9 -17.5 -18.5t-12 -22.5t-6.5 -30.5t-2 -42.5q0 -31 13.5 -47.5t35.5 -16.5q18 0 30 9.5t28 36.5l11 -6q-18 -32 -40 -47t-61 -15
q-48 0 -76 22.5t-28 63.5q0 30 23.5 52t61.5 51q20 16 36.5 28t32.5 23h-186v12z" />
    <glyph glyph-name="IJ" unicode="&#x132;" horiz-adv-x="832" 
d="M12 12h53q50 0 50 57v535q0 58 -50 58h-53v12h305v-12h-52q-50 0 -50 -58v-535q0 -57 50 -57h52v-12h-305v12zM827 674v-12h-52q-50 0 -50 -58v-391q0 -51 -15 -94t-42.5 -74t-66 -48.5t-85.5 -17.5q-36 0 -69 12t-58 34t-40 52.5t-15 66.5q0 35 17.5 61.5t49.5 26.5
q27 0 44.5 -19.5t17.5 -45.5q0 -27 -12 -41t-26.5 -22.5t-26.5 -14.5t-12 -18q0 -16 11 -30.5t29 -25t41.5 -17t47.5 -6.5q60 0 85 35.5t25 106.5v470q0 58 -50 58h-53v12h305z" />
    <glyph glyph-name="Jcircumflex" unicode="&#x134;" horiz-adv-x="502" 
d="M498 674v-12h-53q-50 0 -50 -58v-391q0 -51 -15 -94t-42 -74t-65.5 -48.5t-85.5 -17.5q-37 0 -70 12t-58 34t-39.5 52.5t-14.5 66.5q0 35 17.5 61.5t49.5 26.5q26 0 43.5 -19.5t17.5 -45.5q0 -27 -12 -41t-26.5 -22.5t-26.5 -14.5t-12 -18q0 -16 11 -30.5t29.5 -25
t41.5 -17t47 -6.5q61 0 85.5 35.5t24.5 106.5v470q0 58 -50 58h-53v12h306zM308 912h75l103 -164h-12l-130 105l-128 -105h-12z" />
    <glyph glyph-name="Kcommaaccent" unicode="&#x136;" horiz-adv-x="763" 
d="M713 674v-12h-20q-61 0 -109 -27.5t-98 -77.5l-116 -117l241 -342q27 -38 60.5 -62t70.5 -24h18v-12h-338v12h76q26 0 26 23q0 14 -11 29l-215 304l-83 -84v-215q0 -57 50 -57h52v-12h-305v12h53q50 0 50 57v535q0 58 -50 58h-53v12h305v-12h-52q-50 0 -50 -58v-302
l229 230q45 45 45 79q0 24 -16.5 37.5t-43.5 13.5h-21v12h305zM334 -229q32 16 47.5 36t15.5 40q0 11 -10 11q-5 0 -9.5 -2t-16.5 -2q-18 0 -31 12t-13 29q0 21 13 35t30 14q29 0 41.5 -19.5t12.5 -54.5q0 -38 -18 -64t-56 -46z" />
    <glyph glyph-name="Lacute" unicode="&#x139;" horiz-adv-x="599" 
d="M12 12h48q26 0 40.5 14t14.5 43v535q0 29 -14.5 43.5t-40.5 14.5h-46v12h296v-12h-45q-50 0 -50 -58v-540q0 -52 42 -52h71q46 0 86 20.5t71.5 55t54 80t33.5 96.5h11l-8 -264h-564v12zM122 749h-12l64 110q23 39 37.5 54.5t34.5 15.5q14 0 23 -9t9 -24q0 -14 -9.5 -25.5
t-29.5 -28.5z" />
    <glyph glyph-name="Lcaron" unicode="&#x13d;" horiz-adv-x="599" 
d="M12 12h48q26 0 40.5 14t14.5 43v535q0 29 -14.5 43.5t-40.5 14.5h-46v12h296v-12h-45q-50 0 -50 -58v-540q0 -52 42 -52h71q46 0 86 20.5t71.5 55t54 80t33.5 96.5h11l-8 -264h-564v12zM323 470h-11l14 119q5 39 16 57t32 18q14 0 23 -9t9 -24q0 -9 -5.5 -22.5
t-19.5 -38.5z" />
    <glyph glyph-name="Lcommaaccent" unicode="&#x13b;" horiz-adv-x="599" 
d="M12 12h48q26 0 40.5 14t14.5 43v535q0 29 -14.5 43.5t-40.5 14.5h-46v12h296v-12h-45q-50 0 -50 -58v-540q0 -52 42 -52h71q46 0 86 20.5t71.5 55t54 80t33.5 96.5h11l-8 -264h-564v12zM262 -229q32 16 47.5 36t15.5 40q0 11 -10 11q-5 0 -9.5 -2t-16.5 -2q-18 0 -31 12
t-13 29q0 21 13 35t30 14q29 0 41.5 -19.5t12.5 -54.5q0 -38 -18 -64t-56 -46z" />
    <glyph glyph-name="Nacute" unicode="&#x143;" horiz-adv-x="701" 
d="M12 674h182l374 -544v325q0 48 -5 86.5t-18.5 65t-37.5 41t-63 14.5h-18v12h270v-12h-20q-36 0 -55.5 -19t-28.5 -49t-10.5 -67t-1.5 -72v-478h-28l-415 604v-366q0 -101 25 -152t95 -51h33v-12h-278v12h20q23 0 40.5 9.5t29 33t17.5 62.5t6 98v298q0 41 -3 69.5t-13 46
t-27.5 25.5t-46.5 8h-23v12zM285 749h-12l64 110q23 39 37.5 54.5t34.5 15.5q14 0 23 -9t9 -24q0 -14 -9.5 -25.5t-29.5 -28.5z" />
    <glyph glyph-name="Ncaron" unicode="&#x147;" horiz-adv-x="701" 
d="M12 674h182l374 -544v325q0 48 -5 86.5t-18.5 65t-37.5 41t-63 14.5h-18v12h270v-12h-20q-36 0 -55.5 -19t-28.5 -49t-10.5 -67t-1.5 -72v-478h-28l-415 604v-366q0 -101 25 -152t95 -51h33v-12h-278v12h20q23 0 40.5 9.5t29 33t17.5 62.5t6 98v298q0 41 -3 69.5t-13 46
t-27.5 25.5t-46.5 8h-23v12zM366 763h-76l-103 164h12l130 -106l128 106h12z" />
    <glyph glyph-name="Ntilde" unicode="&#xd1;" horiz-adv-x="701" 
d="M12 674h182l374 -544v325q0 48 -5 86.5t-18.5 65t-37.5 41t-63 14.5h-18v12h270v-12h-20q-36 0 -55.5 -19t-28.5 -49t-10.5 -67t-1.5 -72v-478h-28l-415 604v-366q0 -101 25 -152t95 -51h33v-12h-278v12h20q23 0 40.5 9.5t29 33t17.5 62.5t6 98v298q0 41 -3 69.5t-13 46
t-27.5 25.5t-46.5 8h-23v12zM478 880q-9 -116 -82 -116q-15 0 -32 5t-37 16q-10 6 -21.5 12.5t-22.5 12.5t-22 10t-20 4q-20 0 -33 -15t-17 -45h-13q7 117 84 117q17 0 34 -6.5t36 -17.5q23 -14 44.5 -25t39.5 -11q17 0 32.5 15.5t17.5 43.5h12z" />
    <glyph glyph-name="Ncommaaccent" unicode="&#x145;" horiz-adv-x="701" 
d="M12 674h182l374 -544v325q0 48 -5 86.5t-18.5 65t-37.5 41t-63 14.5h-18v12h270v-12h-20q-36 0 -55.5 -19t-28.5 -49t-10.5 -67t-1.5 -72v-478h-28l-415 604v-366q0 -101 25 -152t95 -51h33v-12h-278v12h20q23 0 40.5 9.5t29 33t17.5 62.5t6 98v298q0 41 -3 69.5t-13 46
t-27.5 25.5t-46.5 8h-23v12zM321 -229q32 16 47.5 36t15.5 40q0 11 -10 11q-5 0 -9.5 -2t-16.5 -2q-18 0 -31 12t-13 29q0 21 13 35t30 14q29 0 41.5 -19.5t12.5 -54.5q0 -38 -18 -64t-56 -46z" />
    <glyph glyph-name="Ograve" unicode="&#xd2;" horiz-adv-x="698" 
d="M39 330q0 67 23.5 130.5t65.5 113t99 79.5t123 30q67 0 123.5 -30.5t97.5 -80t64.5 -113t23.5 -129.5q0 -67 -23.5 -129.5t-65 -111t-98 -77.5t-122.5 -29q-72 0 -129.5 31.5t-98 82t-62 112t-21.5 121.5zM522 545q-17 61 -61.5 93t-110.5 32t-113 -32t-63 -95
q-7 -31 -10.5 -87t-3.5 -125t3.5 -124t11.5 -86q17 -64 61 -94.5t113 -30.5q71 0 116.5 33t58.5 99q7 33 10.5 89t3.5 124q0 66 -4 120.5t-12 83.5zM276 842q-21 17 -30.5 28.5t-9.5 25.5q0 15 9 24t23 9q21 0 35.5 -15.5t37.5 -54.5l63 -110h-12z" />
    <glyph glyph-name="Oacute" unicode="&#xd3;" horiz-adv-x="698" 
d="M39 330q0 67 23.5 130.5t65.5 113t99 79.5t123 30q67 0 123.5 -30.5t97.5 -80t64.5 -113t23.5 -129.5q0 -67 -23.5 -129.5t-65 -111t-98 -77.5t-122.5 -29q-72 0 -129.5 31.5t-98 82t-62 112t-21.5 121.5zM522 545q-17 61 -61.5 93t-110.5 32t-113 -32t-63 -95
q-7 -31 -10.5 -87t-3.5 -125t3.5 -124t11.5 -86q17 -64 61 -94.5t113 -30.5q71 0 116.5 33t58.5 99q7 33 10.5 89t3.5 124q0 66 -4 120.5t-12 83.5zM307 749h-12l64 110q23 39 37.5 54.5t34.5 15.5q14 0 23 -9t9 -24q0 -14 -9.5 -25.5t-29.5 -28.5z" />
    <glyph glyph-name="Ocircumflex" unicode="&#xd4;" horiz-adv-x="698" 
d="M39 330q0 67 23.5 130.5t65.5 113t99 79.5t123 30q67 0 123.5 -30.5t97.5 -80t64.5 -113t23.5 -129.5q0 -67 -23.5 -129.5t-65 -111t-98 -77.5t-122.5 -29q-72 0 -129.5 31.5t-98 82t-62 112t-21.5 121.5zM522 545q-17 61 -61.5 93t-110.5 32t-113 -32t-63 -95
q-7 -31 -10.5 -87t-3.5 -125t3.5 -124t11.5 -86q17 -64 61 -94.5t113 -30.5q71 0 116.5 33t58.5 99q7 33 10.5 89t3.5 124q0 66 -4 120.5t-12 83.5zM312 912h75l103 -164h-12l-130 105l-128 -105h-12z" />
    <glyph glyph-name="Otilde" unicode="&#xd5;" horiz-adv-x="698" 
d="M39 330q0 67 23.5 130.5t65.5 113t99 79.5t123 30q67 0 123.5 -30.5t97.5 -80t64.5 -113t23.5 -129.5q0 -67 -23.5 -129.5t-65 -111t-98 -77.5t-122.5 -29q-72 0 -129.5 31.5t-98 82t-62 112t-21.5 121.5zM522 545q-17 61 -61.5 93t-110.5 32t-113 -32t-63 -95
q-7 -31 -10.5 -87t-3.5 -125t3.5 -124t11.5 -86q17 -64 61 -94.5t113 -30.5q71 0 116.5 33t58.5 99q7 33 10.5 89t3.5 124q0 66 -4 120.5t-12 83.5zM500 880q-9 -116 -82 -116q-15 0 -32 5t-37 16q-10 6 -21.5 12.5t-22.5 12.5t-22 10t-20 4q-20 0 -33 -15t-17 -45h-13
q7 117 84 117q17 0 34 -6.5t36 -17.5q23 -14 44.5 -25t39.5 -11q17 0 32.5 15.5t17.5 43.5h12z" />
    <glyph glyph-name="Odieresis" unicode="&#xd6;" horiz-adv-x="698" 
d="M39 330q0 67 23.5 130.5t65.5 113t99 79.5t123 30q67 0 123.5 -30.5t97.5 -80t64.5 -113t23.5 -129.5q0 -67 -23.5 -129.5t-65 -111t-98 -77.5t-122.5 -29q-72 0 -129.5 31.5t-98 82t-62 112t-21.5 121.5zM522 545q-17 61 -61.5 93t-110.5 32t-113 -32t-63 -95
q-7 -31 -10.5 -87t-3.5 -125t3.5 -124t11.5 -86q17 -64 61 -94.5t113 -30.5q71 0 116.5 33t58.5 99q7 33 10.5 89t3.5 124q0 66 -4 120.5t-12 83.5zM203 815q0 22 15 37t36 15q22 0 37 -15t15 -37q0 -21 -15 -36t-37 -15q-21 0 -36 15t-15 36zM395 815q0 22 15 37t36 15
t36 -15t15 -37q0 -21 -15 -36t-36 -15t-36 15t-15 36z" />
    <glyph glyph-name="Omacron" unicode="&#x14c;" horiz-adv-x="698" 
d="M39 330q0 67 23.5 130.5t65.5 113t99 79.5t123 30q67 0 123.5 -30.5t97.5 -80t64.5 -113t23.5 -129.5q0 -67 -23.5 -129.5t-65 -111t-98 -77.5t-122.5 -29q-72 0 -129.5 31.5t-98 82t-62 112t-21.5 121.5zM522 545q-17 61 -61.5 93t-110.5 32t-113 -32t-63 -95
q-7 -31 -10.5 -87t-3.5 -125t3.5 -124t11.5 -86q17 -64 61 -94.5t113 -30.5q71 0 116.5 33t58.5 99q7 33 10.5 89t3.5 124q0 66 -4 120.5t-12 83.5zM200 819h299v-34h-299v34z" />
    <glyph glyph-name="Obreve" unicode="&#x14e;" horiz-adv-x="698" 
d="M39 330q0 67 23.5 130.5t65.5 113t99 79.5t123 30q67 0 123.5 -30.5t97.5 -80t64.5 -113t23.5 -129.5q0 -67 -23.5 -129.5t-65 -111t-98 -77.5t-122.5 -29q-72 0 -129.5 31.5t-98 82t-62 112t-21.5 121.5zM522 545q-17 61 -61.5 93t-110.5 32t-113 -32t-63 -95
q-7 -31 -10.5 -87t-3.5 -125t3.5 -124t11.5 -86q17 -64 61 -94.5t113 -30.5q71 0 116.5 33t58.5 99q7 33 10.5 89t3.5 124q0 66 -4 120.5t-12 83.5zM230 914q12 -38 43.5 -58.5t75.5 -20.5t75 20.5t45 58.5h13q-7 -67 -42 -108t-91 -41t-90 41.5t-42 107.5h13z" />
    <glyph glyph-name="Ohungarumlaut" unicode="&#x150;" horiz-adv-x="698" 
d="M39 330q0 67 23.5 130.5t65.5 113t99 79.5t123 30q67 0 123.5 -30.5t97.5 -80t64.5 -113t23.5 -129.5q0 -67 -23.5 -129.5t-65 -111t-98 -77.5t-122.5 -29q-72 0 -129.5 31.5t-98 82t-62 112t-21.5 121.5zM522 545q-17 61 -61.5 93t-110.5 32t-113 -32t-63 -95
q-7 -31 -10.5 -87t-3.5 -125t3.5 -124t11.5 -86q17 -64 61 -94.5t113 -30.5q71 0 116.5 33t58.5 99q7 33 10.5 89t3.5 124q0 66 -4 120.5t-12 83.5zM397 749h-14l63 124q14 29 27.5 44t29.5 15t26 -10t10 -26q0 -11 -9 -23t-26 -29zM260 749h-12l62 124q15 29 28 44t30 15
q15 0 25 -10t10 -26q0 -21 -35 -52z" />
    <glyph glyph-name="Racute" unicode="&#x154;" horiz-adv-x="693" 
d="M12 12h53q50 0 50 57v535q0 58 -50 58h-53v12h316q53 0 100 -11t82.5 -32.5t56 -53t20.5 -71.5q0 -36 -19.5 -64.5t-51 -49.5t-73 -34.5t-84.5 -19.5q50 -11 86.5 -30t61.5 -49.5t38.5 -74.5t18.5 -105q3 -55 40 -55q21 0 36.5 37t15.5 103v54h12v-39q0 -88 -20.5 -136.5
t-75.5 -48.5q-62 0 -90.5 41.5t-32.5 109.5q-3 52 -14.5 88t-34.5 58.5t-59 32.5t-87 10h-39v-265q0 -57 50 -57h52v-12h-305v12zM265 662q-50 0 -50 -58v-257h80q84 0 130.5 40.5t46.5 119.5q0 78 -45.5 116.5t-122.5 38.5h-39zM267 749h-12l64 110q23 39 37.5 54.5
t34.5 15.5q14 0 23 -9t9 -24q0 -14 -9.5 -25.5t-29.5 -28.5z" />
    <glyph glyph-name="Rcaron" unicode="&#x158;" horiz-adv-x="693" 
d="M12 12h53q50 0 50 57v535q0 58 -50 58h-53v12h316q53 0 100 -11t82.5 -32.5t56 -53t20.5 -71.5q0 -36 -19.5 -64.5t-51 -49.5t-73 -34.5t-84.5 -19.5q50 -11 86.5 -30t61.5 -49.5t38.5 -74.5t18.5 -105q3 -55 40 -55q21 0 36.5 37t15.5 103v54h12v-39q0 -88 -20.5 -136.5
t-75.5 -48.5q-62 0 -90.5 41.5t-32.5 109.5q-3 52 -14.5 88t-34.5 58.5t-59 32.5t-87 10h-39v-265q0 -57 50 -57h52v-12h-305v12zM265 662q-50 0 -50 -58v-257h80q84 0 130.5 40.5t46.5 119.5q0 78 -45.5 116.5t-122.5 38.5h-39zM348 763h-76l-103 164h12l130 -106l128 106
h12z" />
    <glyph glyph-name="Rcommaaccent" unicode="&#x156;" horiz-adv-x="693" 
d="M12 12h53q50 0 50 57v535q0 58 -50 58h-53v12h316q53 0 100 -11t82.5 -32.5t56 -53t20.5 -71.5q0 -36 -19.5 -64.5t-51 -49.5t-73 -34.5t-84.5 -19.5q50 -11 86.5 -30t61.5 -49.5t38.5 -74.5t18.5 -105q3 -55 40 -55q21 0 36.5 37t15.5 103v54h12v-39q0 -88 -20.5 -136.5
t-75.5 -48.5q-62 0 -90.5 41.5t-32.5 109.5q-3 52 -14.5 88t-34.5 58.5t-59 32.5t-87 10h-39v-265q0 -57 50 -57h52v-12h-305v12zM265 662q-50 0 -50 -58v-257h80q84 0 130.5 40.5t46.5 119.5q0 78 -45.5 116.5t-122.5 38.5h-39zM343 -229q32 16 47.5 36t15.5 40
q0 11 -10 11q-5 0 -9.5 -2t-16.5 -2q-18 0 -31 12t-13 29q0 21 13 35t30 14q29 0 41.5 -19.5t12.5 -54.5q0 -38 -18 -64t-56 -46z" />
    <glyph glyph-name="Tcaron" unicode="&#x164;" horiz-adv-x="650" 
d="M614 421q-8 53 -21 97t-35 76t-54.5 50t-78.5 18q-27 0 -38 -6.5t-11 -25.5v-561q0 -57 51 -57h69v-12h-354v12h85q49 0 49 57v561q0 16 -10 24t-38 8q-48 0 -81 -19.5t-55.5 -52.5t-35.5 -76.5t-20 -92.5h-12v253h601v-253h-11zM365 763h-76l-103 164h12l130 -106
l128 106h12z" />
    <glyph glyph-name="Tcommaaccent" unicode="&#x162;" horiz-adv-x="650" 
d="M323 0h-181v12h85q49 0 49 57v561q0 16 -10 24t-38 8q-48 0 -81 -19.5t-55.5 -52.5t-35.5 -76.5t-20 -92.5h-12v253h601v-253h-11q-8 53 -21 97t-35 76t-54.5 50t-78.5 18q-27 0 -38 -6.5t-11 -25.5v-561q0 -57 51 -57h69v-12h-157l-32 -42q37 -8 58.5 -28t21.5 -45
q0 -22 -15 -38.5t-39.5 -27.5t-57 -16.5t-67.5 -5.5v12q24 1 45 4.5t36 10.5t24 18.5t9 29.5q0 40 -65 43z" />
    <glyph glyph-name="uni021A" unicode="&#x21a;" horiz-adv-x="650" 
d="M614 421q-8 53 -21 97t-35 76t-54.5 50t-78.5 18q-27 0 -38 -6.5t-11 -25.5v-561q0 -57 51 -57h69v-12h-354v12h85q49 0 49 57v561q0 16 -10 24t-38 8q-48 0 -81 -19.5t-55.5 -52.5t-35.5 -76.5t-20 -92.5h-12v253h601v-253h-11zM294 -229q32 16 47.5 36t15.5 40
q0 11 -10 11q-5 0 -10 -2t-16 -2q-18 0 -31.5 12t-13.5 29q0 21 13 35t31 14q29 0 41.5 -19.5t12.5 -54.5q0 -38 -18 -64t-56 -46z" />
    <glyph glyph-name="Wgrave" unicode="&#x1e80;" horiz-adv-x="1009" 
d="M199 628q0 -4 1 -8t2 -9l144 -490l142 412l-18 61q-11 37 -24 52.5t-38 15.5h-56v12h319v-12h-65q-44 0 -44 -34q0 -4 0.5 -8t1.5 -9l144 -489l120 356q9 28 13 50.5t4 45.5q0 38 -23 63t-70 25h-16v12h270v-12h-13q-25 0 -47 -15t-41 -39.5t-34.5 -56t-26.5 -64.5
l-172 -508h-24l-154 534l-184 -534h-24l-179 624q-8 28 -25 43.5t-41 15.5h-39v12h289v-12h-35q-57 0 -57 -34zM437 842q-21 17 -30.5 28.5t-9.5 25.5q0 15 9 24t23 9q21 0 35.5 -15.5t37.5 -54.5l63 -110h-12z" />
    <glyph glyph-name="Wacute" unicode="&#x1e82;" horiz-adv-x="1009" 
d="M199 628q0 -4 1 -8t2 -9l144 -490l142 412l-18 61q-11 37 -24 52.5t-38 15.5h-56v12h319v-12h-65q-44 0 -44 -34q0 -4 0.5 -8t1.5 -9l144 -489l120 356q9 28 13 50.5t4 45.5q0 38 -23 63t-70 25h-16v12h270v-12h-13q-25 0 -47 -15t-41 -39.5t-34.5 -56t-26.5 -64.5
l-172 -508h-24l-154 534l-184 -534h-24l-179 624q-8 28 -25 43.5t-41 15.5h-39v12h289v-12h-35q-57 0 -57 -34zM468 749h-12l64 110q23 39 37.5 54.5t34.5 15.5q14 0 23 -9t9 -24q0 -14 -9.5 -25.5t-29.5 -28.5z" />
    <glyph glyph-name="Wcircumflex" unicode="&#x174;" horiz-adv-x="1009" 
d="M199 628q0 -4 1 -8t2 -9l144 -490l142 412l-18 61q-11 37 -24 52.5t-38 15.5h-56v12h319v-12h-65q-44 0 -44 -34q0 -4 0.5 -8t1.5 -9l144 -489l120 356q9 28 13 50.5t4 45.5q0 38 -23 63t-70 25h-16v12h270v-12h-13q-25 0 -47 -15t-41 -39.5t-34.5 -56t-26.5 -64.5
l-172 -508h-24l-154 534l-184 -534h-24l-179 624q-8 28 -25 43.5t-41 15.5h-39v12h289v-12h-35q-57 0 -57 -34zM473 912h75l103 -164h-12l-130 105l-128 -105h-12z" />
    <glyph glyph-name="Wdieresis" unicode="&#x1e84;" horiz-adv-x="1009" 
d="M199 628q0 -4 1 -8t2 -9l144 -490l142 412l-18 61q-11 37 -24 52.5t-38 15.5h-56v12h319v-12h-65q-44 0 -44 -34q0 -4 0.5 -8t1.5 -9l144 -489l120 356q9 28 13 50.5t4 45.5q0 38 -23 63t-70 25h-16v12h270v-12h-13q-25 0 -47 -15t-41 -39.5t-34.5 -56t-26.5 -64.5
l-172 -508h-24l-154 534l-184 -534h-24l-179 624q-8 28 -25 43.5t-41 15.5h-39v12h289v-12h-35q-57 0 -57 -34zM363 815q0 22 15 37t36 15q22 0 37 -15t15 -37q0 -21 -15 -36t-37 -15q-21 0 -36 15t-15 36zM555 815q0 22 15 37t36 15t36 -15t15 -37q0 -21 -15 -36t-36 -15
t-36 15t-15 36z" />
    <glyph glyph-name="Ygrave" unicode="&#x1ef2;" horiz-adv-x="723" 
d="M210 638q0 -13 9 -28l183 -337l132 249q10 19 14 38t4 35q0 30 -22 48.5t-60 18.5h-52v12h303v-12h-13q-24 0 -44 -7t-39 -24t-38.5 -45t-41.5 -69l-139 -263v-185q0 -57 51 -57h68v-12h-354v12h85q50 0 50 57v172l-210 384q-11 20 -25 28.5t-37 8.5h-32v12h325v-12h-83
q-17 0 -25.5 -6.5t-8.5 -17.5zM294 842q-21 17 -30.5 28.5t-9.5 25.5q0 15 9 24t23 9q21 0 35.5 -15.5t37.5 -54.5l63 -110h-12z" />
    <glyph glyph-name="Yacute" unicode="&#xdd;" horiz-adv-x="723" 
d="M210 638q0 -13 9 -28l183 -337l132 249q10 19 14 38t4 35q0 30 -22 48.5t-60 18.5h-52v12h303v-12h-13q-24 0 -44 -7t-39 -24t-38.5 -45t-41.5 -69l-139 -263v-185q0 -57 51 -57h68v-12h-354v12h85q50 0 50 57v172l-210 384q-11 20 -25 28.5t-37 8.5h-32v12h325v-12h-83
q-17 0 -25.5 -6.5t-8.5 -17.5zM325 749h-12l64 110q23 39 37.5 54.5t34.5 15.5q14 0 23 -9t9 -24q0 -14 -9.5 -25.5t-29.5 -28.5z" />
    <glyph glyph-name="Ycircumflex" unicode="&#x176;" horiz-adv-x="723" 
d="M210 638q0 -13 9 -28l183 -337l132 249q10 19 14 38t4 35q0 30 -22 48.5t-60 18.5h-52v12h303v-12h-13q-24 0 -44 -7t-39 -24t-38.5 -45t-41.5 -69l-139 -263v-185q0 -57 51 -57h68v-12h-354v12h85q50 0 50 57v172l-210 384q-11 20 -25 28.5t-37 8.5h-32v12h325v-12h-83
q-17 0 -25.5 -6.5t-8.5 -17.5zM331 912h75l103 -164h-12l-130 105l-128 -105h-12z" />
    <glyph glyph-name="Ydieresis" unicode="&#x178;" horiz-adv-x="723" 
d="M210 638q0 -13 9 -28l183 -337l132 249q10 19 14 38t4 35q0 30 -22 48.5t-60 18.5h-52v12h303v-12h-13q-24 0 -44 -7t-39 -24t-38.5 -45t-41.5 -69l-139 -263v-185q0 -57 51 -57h68v-12h-354v12h85q50 0 50 57v172l-210 384q-11 20 -25 28.5t-37 8.5h-32v12h325v-12h-83
q-17 0 -25.5 -6.5t-8.5 -17.5zM221 815q0 22 15 37t36 15q22 0 37 -15t15 -37q0 -21 -15 -36t-37 -15q-21 0 -36 15t-15 36zM413 815q0 22 15 37t36 15t36 -15t15 -37q0 -21 -15 -36t-36 -15t-36 15t-15 36z" />
    <glyph glyph-name="Zacute" unicode="&#x179;" horiz-adv-x="648" 
d="M167 12h187q63 0 129 57q32 29 57 75.5t40 112.5h11l-6 -257h-548l446 662h-179q-80 0 -140 -60q-60 -59 -81 -167h-12l5 239h535zM282 749h-12l64 110q23 39 37.5 54.5t34.5 15.5q14 0 23 -9t9 -24q0 -14 -9.5 -25.5t-29.5 -28.5z" />
    <glyph glyph-name="Zcaron" unicode="&#x17d;" horiz-adv-x="648" 
d="M167 12h187q63 0 129 57q32 29 57 75.5t40 112.5h11l-6 -257h-548l446 662h-179q-80 0 -140 -60q-60 -59 -81 -167h-12l5 239h535zM363 763h-76l-103 164h12l130 -106l128 106h12z" />
    <glyph glyph-name="Zdotaccent" unicode="&#x17b;" horiz-adv-x="648" 
d="M167 12h187q63 0 129 57q32 29 57 75.5t40 112.5h11l-6 -257h-548l446 662h-179q-80 0 -140 -60q-60 -59 -81 -167h-12l5 239h535zM269 825q0 23 16.5 39.5t39.5 16.5t39.5 -16.5t16.5 -39.5t-16.5 -40t-39.5 -17t-39.5 17t-16.5 40z" />
    <glyph glyph-name="Sacute" unicode="&#x15a;" horiz-adv-x="569" 
d="M325 -17q-61 0 -110.5 26t-89.5 86q-20 -26 -32 -51.5t-22 -57.5h-11v309h11q27 -156 90.5 -227.5t163.5 -71.5q66 0 108 31.5t42 88.5q0 35 -15.5 61t-43 47t-64.5 38t-80 33q-42 16 -81 34t-68 42t-46.5 56t-17.5 77q0 37 14.5 70t40 57t59 38t72.5 14q51 0 95.5 -24.5
t79.5 -70.5q39 42 54 89h11v-261h-11q-7 53 -26.5 99t-49.5 80.5t-69 54.5t-84 20q-27 0 -52 -9t-44.5 -24.5t-31.5 -36.5t-12 -45q0 -28 14 -49t39.5 -39t61 -33t77.5 -31q50 -18 91 -38t70.5 -46.5t45.5 -62.5t16 -87q0 -43 -14.5 -77.5t-41 -58.5t-62 -37t-77.5 -13z
M219 749h-12l64 110q23 39 37.5 54.5t34.5 15.5q14 0 23 -9t9 -24q0 -14 -9.5 -25.5t-29.5 -28.5z" />
    <glyph glyph-name="Scaron" unicode="&#x160;" horiz-adv-x="569" 
d="M325 -17q-61 0 -110.5 26t-89.5 86q-20 -26 -32 -51.5t-22 -57.5h-11v309h11q27 -156 90.5 -227.5t163.5 -71.5q66 0 108 31.5t42 88.5q0 35 -15.5 61t-43 47t-64.5 38t-80 33q-42 16 -81 34t-68 42t-46.5 56t-17.5 77q0 37 14.5 70t40 57t59 38t72.5 14q51 0 95.5 -24.5
t79.5 -70.5q39 42 54 89h11v-261h-11q-7 53 -26.5 99t-49.5 80.5t-69 54.5t-84 20q-27 0 -52 -9t-44.5 -24.5t-31.5 -36.5t-12 -45q0 -28 14 -49t39.5 -39t61 -33t77.5 -31q50 -18 91 -38t70.5 -46.5t45.5 -62.5t16 -87q0 -43 -14.5 -77.5t-41 -58.5t-62 -37t-77.5 -13z
M299 763h-76l-103 164h12l130 -106l128 106h12z" />
    <glyph glyph-name="Scircumflex" unicode="&#x15c;" horiz-adv-x="569" 
d="M325 -17q-61 0 -110.5 26t-89.5 86q-20 -26 -32 -51.5t-22 -57.5h-11v309h11q27 -156 90.5 -227.5t163.5 -71.5q66 0 108 31.5t42 88.5q0 35 -15.5 61t-43 47t-64.5 38t-80 33q-42 16 -81 34t-68 42t-46.5 56t-17.5 77q0 37 14.5 70t40 57t59 38t72.5 14q51 0 95.5 -24.5
t79.5 -70.5q39 42 54 89h11v-261h-11q-7 53 -26.5 99t-49.5 80.5t-69 54.5t-84 20q-27 0 -52 -9t-44.5 -24.5t-31.5 -36.5t-12 -45q0 -28 14 -49t39.5 -39t61 -33t77.5 -31q50 -18 91 -38t70.5 -46.5t45.5 -62.5t16 -87q0 -43 -14.5 -77.5t-41 -58.5t-62 -37t-77.5 -13z
M224 912h75l103 -164h-12l-130 105l-128 -105h-12z" />
    <glyph glyph-name="Scedilla" unicode="&#x15e;" horiz-adv-x="569" 
d="M308 -17q-56 4 -101 30t-82 82q-20 -26 -32 -51.5t-22 -57.5h-11v309h11q27 -156 90.5 -227.5t163.5 -71.5q66 0 108 31.5t42 88.5q0 35 -15.5 61t-43 47t-64.5 38t-80 33q-42 16 -81 34t-68 42t-46.5 56t-17.5 77q0 37 14.5 70t40 57t59 38t72.5 14q51 0 95.5 -24.5
t79.5 -70.5q39 42 54 89h11v-261h-11q-7 53 -26.5 99t-49.5 80.5t-69 54.5t-84 20q-27 0 -52 -9t-44.5 -24.5t-31.5 -36.5t-12 -45q0 -28 14 -49t39.5 -39t61 -33t77.5 -31q50 -18 91 -38t70.5 -46.5t45.5 -62.5t16 -87q0 -43 -14.5 -77.5t-41 -58.5t-62 -37t-77.5 -13h-1
l-23 -30q37 -8 58.5 -28t21.5 -45q0 -22 -15 -38.5t-39.5 -27.5t-57 -16.5t-67.5 -5.5v12q24 1 45 4.5t36 10.5t24 18.5t9 29.5q0 40 -65 43z" />
    <glyph glyph-name="Scommaaccent" unicode="&#x218;" horiz-adv-x="569" 
d="M325 -17q-61 0 -110.5 26t-89.5 86q-20 -26 -32 -51.5t-22 -57.5h-11v309h11q27 -156 90.5 -227.5t163.5 -71.5q66 0 108 31.5t42 88.5q0 35 -15.5 61t-43 47t-64.5 38t-80 33q-42 16 -81 34t-68 42t-46.5 56t-17.5 77q0 37 14.5 70t40 57t59 38t72.5 14q51 0 95.5 -24.5
t79.5 -70.5q39 42 54 89h11v-261h-11q-7 53 -26.5 99t-49.5 80.5t-69 54.5t-84 20q-27 0 -52 -9t-44.5 -24.5t-31.5 -36.5t-12 -45q0 -28 14 -49t39.5 -39t61 -33t77.5 -31q50 -18 91 -38t70.5 -46.5t45.5 -62.5t16 -87q0 -43 -14.5 -77.5t-41 -58.5t-62 -37t-77.5 -13z
M288 -234q32 16 47.5 36t15.5 40q0 11 -10 11q-5 0 -9.5 -2t-16.5 -2q-18 0 -31 12t-13 29q0 21 13 35t30 14q29 0 41.5 -19.5t12.5 -54.5q0 -38 -18 -64t-56 -46z" />
    <glyph glyph-name="Ugrave" unicode="&#xd9;" horiz-adv-x="728" 
d="M735 662q-122 -5 -122 -155v-254q0 -60 -17 -110.5t-49 -87t-78.5 -57t-105.5 -20.5q-100 0 -175 60q-73 60 -73 198v368q0 58 -50 58h-53v12h305v-12h-54q-48 0 -48 -62v-385q0 -213 172 -213q51 0 90.5 19.5t67 53t42 79.5t14.5 99v230q0 99 -38 139t-91 40h-25v12h288
v-12zM309 842q-21 17 -30.5 28.5t-9.5 25.5q0 15 9 24t23 9q21 0 35.5 -15.5t37.5 -54.5l63 -110h-12z" />
    <glyph glyph-name="Uacute" unicode="&#xda;" horiz-adv-x="728" 
d="M735 662q-122 -5 -122 -155v-254q0 -60 -17 -110.5t-49 -87t-78.5 -57t-105.5 -20.5q-100 0 -175 60q-73 60 -73 198v368q0 58 -50 58h-53v12h305v-12h-54q-48 0 -48 -62v-385q0 -213 172 -213q51 0 90.5 19.5t67 53t42 79.5t14.5 99v230q0 99 -38 139t-91 40h-25v12h288
v-12zM339 749h-12l64 110q23 39 37.5 54.5t34.5 15.5q14 0 23 -9t9 -24q0 -14 -9.5 -25.5t-29.5 -28.5z" />
    <glyph glyph-name="Ubreve" unicode="&#x16c;" horiz-adv-x="728" 
d="M735 662q-122 -5 -122 -155v-254q0 -60 -17 -110.5t-49 -87t-78.5 -57t-105.5 -20.5q-100 0 -175 60q-73 60 -73 198v368q0 58 -50 58h-53v12h305v-12h-54q-48 0 -48 -62v-385q0 -213 172 -213q51 0 90.5 19.5t67 53t42 79.5t14.5 99v230q0 99 -38 139t-91 40h-25v12h288
v-12zM263 914q12 -38 43.5 -58.5t75.5 -20.5t75 20.5t45 58.5h13q-7 -67 -42 -108t-91 -41t-90 41.5t-42 107.5h13z" />
    <glyph glyph-name="Ucircumflex" unicode="&#xdb;" horiz-adv-x="728" 
d="M735 662q-122 -5 -122 -155v-254q0 -60 -17 -110.5t-49 -87t-78.5 -57t-105.5 -20.5q-100 0 -175 60q-73 60 -73 198v368q0 58 -50 58h-53v12h305v-12h-54q-48 0 -48 -62v-385q0 -213 172 -213q51 0 90.5 19.5t67 53t42 79.5t14.5 99v230q0 99 -38 139t-91 40h-25v12h288
v-12zM345 912h75l103 -164h-12l-130 105l-128 -105h-12z" />
    <glyph glyph-name="Utilde" unicode="&#x168;" horiz-adv-x="728" 
d="M735 662q-122 -5 -122 -155v-254q0 -60 -17 -110.5t-49 -87t-78.5 -57t-105.5 -20.5q-100 0 -175 60q-73 60 -73 198v368q0 58 -50 58h-53v12h305v-12h-54q-48 0 -48 -62v-385q0 -213 172 -213q51 0 90.5 19.5t67 53t42 79.5t14.5 99v230q0 99 -38 139t-91 40h-25v12h288
v-12zM532 880q-9 -116 -82 -116q-15 0 -32 5t-37 16q-10 6 -21.5 12.5t-22.5 12.5t-22 10t-20 4q-20 0 -33 -15t-17 -45h-13q7 117 84 117q17 0 34 -6.5t36 -17.5q23 -14 44.5 -25t39.5 -11q17 0 32.5 15.5t17.5 43.5h12z" />
    <glyph glyph-name="Udieresis" unicode="&#xdc;" horiz-adv-x="728" 
d="M735 662q-122 -5 -122 -155v-254q0 -60 -17 -110.5t-49 -87t-78.5 -57t-105.5 -20.5q-100 0 -175 60q-73 60 -73 198v368q0 58 -50 58h-53v12h305v-12h-54q-48 0 -48 -62v-385q0 -213 172 -213q51 0 90.5 19.5t67 53t42 79.5t14.5 99v230q0 99 -38 139t-91 40h-25v12h288
v-12zM235 815q0 22 15 37t36 15q22 0 37 -15t15 -37q0 -21 -15 -36t-37 -15q-21 0 -36 15t-15 36zM427 815q0 22 15 37t36 15t36 -15t15 -37q0 -21 -15 -36t-36 -15t-36 15t-15 36z" />
    <glyph glyph-name="Umacron" unicode="&#x16a;" horiz-adv-x="728" 
d="M735 662q-122 -5 -122 -155v-254q0 -60 -17 -110.5t-49 -87t-78.5 -57t-105.5 -20.5q-100 0 -175 60q-73 60 -73 198v368q0 58 -50 58h-53v12h305v-12h-54q-48 0 -48 -62v-385q0 -213 172 -213q51 0 90.5 19.5t67 53t42 79.5t14.5 99v230q0 99 -38 139t-91 40h-25v12h288
v-12zM232 819h299v-34h-299v34z" />
    <glyph glyph-name="Uring" unicode="&#x16e;" horiz-adv-x="728" 
d="M735 662q-122 -5 -122 -155v-254q0 -60 -17 -110.5t-49 -87t-78.5 -57t-105.5 -20.5q-100 0 -175 60q-73 60 -73 198v368q0 58 -50 58h-53v12h305v-12h-54q-48 0 -48 -62v-385q0 -213 172 -213q51 0 90.5 19.5t67 53t42 79.5t14.5 99v230q0 99 -38 139t-91 40h-25v12h288
v-12zM289 840q0 19 7 36t19.5 29.5t29.5 19.5t36 7t35.5 -7t29 -19.5t20 -29.5t7.5 -36t-7.5 -35.5t-20 -29t-29 -19.5t-35.5 -7t-36 7t-29.5 19.5t-19.5 29t-7 35.5zM311 840q0 -29 20.5 -49t49.5 -20t49.5 20t20.5 49t-20.5 49.5t-49.5 20.5t-49.5 -20.5t-20.5 -49.5z" />
    <glyph glyph-name="Uhungarumlaut" unicode="&#x170;" horiz-adv-x="728" 
d="M735 662q-122 -5 -122 -155v-254q0 -60 -17 -110.5t-49 -87t-78.5 -57t-105.5 -20.5q-100 0 -175 60q-73 60 -73 198v368q0 58 -50 58h-53v12h305v-12h-54q-48 0 -48 -62v-385q0 -213 172 -213q51 0 90.5 19.5t67 53t42 79.5t14.5 99v230q0 99 -38 139t-91 40h-25v12h288
v-12zM429 749h-14l63 124q14 29 27.5 44t29.5 15t26 -10t10 -26q0 -11 -9 -23t-26 -29zM292 749h-12l62 124q15 29 28 44t30 15q15 0 25 -10t10 -26q0 -21 -35 -52z" />
    <glyph glyph-name="Uogonek" unicode="&#x172;" horiz-adv-x="728" 
d="M735 662q-122 -5 -122 -155v-254q0 -89 -36.5 -155.5t-104.5 -97.5h1q-14 -11 -26 -20.5t-23 -19.5q-10 -9 -17.5 -18.5t-12 -22.5t-6.5 -30.5t-2 -42.5q0 -31 13.5 -47.5t35.5 -16.5q17 0 29.5 9.5t28.5 36.5l11 -6q-18 -32 -40 -47t-61 -15q-48 0 -76 22.5t-28 63.5
q0 30 23.5 52t61.5 51q14 11 26 20t24 17q-35 -8 -71 -8q-100 0 -175 60q-73 60 -73 198v368q0 58 -50 58h-53v12h305v-12h-54q-48 0 -48 -62v-385q0 -213 172 -213q51 0 90.5 19.5t67 53t42 79.5t14.5 99v230q0 99 -38 139t-91 40h-25v12h288v-12z" />
    <glyph glyph-name="egrave" unicode="&#xe8;" horiz-adv-x="491" 
d="M460 160q-8 -39 -26.5 -69.5t-45.5 -52t-61 -33t-72 -11.5q-48 0 -89 16.5t-70.5 45.5t-46.5 68t-17 84t16.5 85.5t45.5 71.5t69 49.5t87 18.5q43 0 79 -16t63 -44t43.5 -65t21.5 -80h-321v-26q0 -97 34.5 -146t94.5 -49q33 0 63 11t54 31t41.5 48t24.5 63h12zM321 240
q17 0 23 8.5t6 34.5q0 28 -7 53t-20.5 44t-32.5 29.5t-42 10.5q-50 0 -81 -47t-31 -133h185zM176 598q-21 17 -30.5 28.5t-9.5 25.5q0 15 9 24t23 9q21 0 35.5 -15.5t37.5 -54.5l63 -110h-12z" />
    <glyph glyph-name="eacute" unicode="&#xe9;" horiz-adv-x="491" 
d="M460 160q-8 -39 -26.5 -69.5t-45.5 -52t-61 -33t-72 -11.5q-48 0 -89 16.5t-70.5 45.5t-46.5 68t-17 84t16.5 85.5t45.5 71.5t69 49.5t87 18.5q43 0 79 -16t63 -44t43.5 -65t21.5 -80h-321v-26q0 -97 34.5 -146t94.5 -49q33 0 63 11t54 31t41.5 48t24.5 63h12zM321 240
q17 0 23 8.5t6 34.5q0 28 -7 53t-20.5 44t-32.5 29.5t-42 10.5q-50 0 -81 -47t-31 -133h185zM206 505h-12l64 110q23 39 37.5 54.5t34.5 15.5q14 0 23 -9t9 -24q0 -14 -9.5 -25.5t-29.5 -28.5z" />
    <glyph glyph-name="ecircumflex" unicode="&#xea;" horiz-adv-x="491" 
d="M460 160q-8 -39 -26.5 -69.5t-45.5 -52t-61 -33t-72 -11.5q-48 0 -89 16.5t-70.5 45.5t-46.5 68t-17 84t16.5 85.5t45.5 71.5t69 49.5t87 18.5q43 0 79 -16t63 -44t43.5 -65t21.5 -80h-321v-26q0 -97 34.5 -146t94.5 -49q33 0 63 11t54 31t41.5 48t24.5 63h12zM321 240
q17 0 23 8.5t6 34.5q0 28 -7 53t-20.5 44t-32.5 29.5t-42 10.5q-50 0 -81 -47t-31 -133h185zM212 668h75l103 -164h-12l-130 105l-128 -105h-12z" />
    <glyph glyph-name="edieresis" unicode="&#xeb;" horiz-adv-x="491" 
d="M460 160q-8 -39 -26.5 -69.5t-45.5 -52t-61 -33t-72 -11.5q-48 0 -89 16.5t-70.5 45.5t-46.5 68t-17 84t16.5 85.5t45.5 71.5t69 49.5t87 18.5q43 0 79 -16t63 -44t43.5 -65t21.5 -80h-321v-26q0 -97 34.5 -146t94.5 -49q33 0 63 11t54 31t41.5 48t24.5 63h12zM321 240
q17 0 23 8.5t6 34.5q0 28 -7 53t-20.5 44t-32.5 29.5t-42 10.5q-50 0 -81 -47t-31 -133h185zM102 571q0 22 15 37t36 15q22 0 37 -15t15 -37q0 -21 -15 -36t-37 -15q-21 0 -36 15t-15 36zM294 571q0 22 15 37t36 15t36 -15t15 -37q0 -21 -15 -36t-36 -15t-36 15t-15 36z" />
    <glyph glyph-name="emacron" unicode="&#x113;" horiz-adv-x="491" 
d="M460 160q-8 -39 -26.5 -69.5t-45.5 -52t-61 -33t-72 -11.5q-48 0 -89 16.5t-70.5 45.5t-46.5 68t-17 84t16.5 85.5t45.5 71.5t69 49.5t87 18.5q43 0 79 -16t63 -44t43.5 -65t21.5 -80h-321v-26q0 -97 34.5 -146t94.5 -49q33 0 63 11t54 31t41.5 48t24.5 63h12zM321 240
q17 0 23 8.5t6 34.5q0 28 -7 53t-20.5 44t-32.5 29.5t-42 10.5q-50 0 -81 -47t-31 -133h185zM100 575h299v-34h-299v34z" />
    <glyph glyph-name="ebreve" unicode="&#x115;" horiz-adv-x="491" 
d="M460 160q-8 -39 -26.5 -69.5t-45.5 -52t-61 -33t-72 -11.5q-48 0 -89 16.5t-70.5 45.5t-46.5 68t-17 84t16.5 85.5t45.5 71.5t69 49.5t87 18.5q43 0 79 -16t63 -44t43.5 -65t21.5 -80h-321v-26q0 -97 34.5 -146t94.5 -49q33 0 63 11t54 31t41.5 48t24.5 63h12zM321 240
q17 0 23 8.5t6 34.5q0 28 -7 53t-20.5 44t-32.5 29.5t-42 10.5q-50 0 -81 -47t-31 -133h185zM130 669q12 -38 43.5 -58.5t75.5 -20.5t75 20.5t45 58.5h13q-7 -67 -42 -108t-91 -41t-90 41.5t-42 107.5h13z" />
    <glyph glyph-name="edotaccent" unicode="&#x117;" horiz-adv-x="491" 
d="M460 160q-8 -39 -26.5 -69.5t-45.5 -52t-61 -33t-72 -11.5q-48 0 -89 16.5t-70.5 45.5t-46.5 68t-17 84t16.5 85.5t45.5 71.5t69 49.5t87 18.5q43 0 79 -16t63 -44t43.5 -65t21.5 -80h-321v-26q0 -97 34.5 -146t94.5 -49q33 0 63 11t54 31t41.5 48t24.5 63h12zM321 240
q17 0 23 8.5t6 34.5q0 28 -7 53t-20.5 44t-32.5 29.5t-42 10.5q-50 0 -81 -47t-31 -133h185zM193 580q0 23 16.5 39.5t39.5 16.5t39.5 -16.5t16.5 -39.5t-16.5 -40t-39.5 -17t-39.5 17t-16.5 40z" />
    <glyph glyph-name="ecaron" unicode="&#x11b;" horiz-adv-x="491" 
d="M460 160q-8 -39 -26.5 -69.5t-45.5 -52t-61 -33t-72 -11.5q-48 0 -89 16.5t-70.5 45.5t-46.5 68t-17 84t16.5 85.5t45.5 71.5t69 49.5t87 18.5q43 0 79 -16t63 -44t43.5 -65t21.5 -80h-321v-26q0 -97 34.5 -146t94.5 -49q33 0 63 11t54 31t41.5 48t24.5 63h12zM321 240
q17 0 23 8.5t6 34.5q0 28 -7 53t-20.5 44t-32.5 29.5t-42 10.5q-50 0 -81 -47t-31 -133h185zM287 519h-76l-103 164h12l130 -106l128 106h12z" />
    <glyph glyph-name="eogonek" unicode="&#x119;" horiz-adv-x="491" 
d="M460 160q-8 -44 -30.5 -77t-54.5 -55q-13 -9 -23.5 -18t-20.5 -18t-17.5 -18.5t-12 -22.5t-6.5 -30.5t-2 -42.5q0 -31 13.5 -47.5t35.5 -16.5q18 0 30 9.5t28 36.5l11 -6q-18 -32 -40 -47t-61 -15q-48 0 -76 22.5t-28 63.5q0 30 23.5 52t61.5 51q8 6 15 11t13 10
q-32 -8 -64 -8q-48 0 -89 16.5t-70.5 45.5t-46.5 68t-17 84t16.5 85.5t45.5 71.5t69 49.5t87 18.5q43 0 79 -16t63 -44t43.5 -65t21.5 -80h-321v-26q0 -97 34.5 -146t94.5 -49q33 0 63 11t54 31t41.5 48t24.5 63h12zM321 240q17 0 23 8.5t6 34.5q0 28 -7 53t-20.5 44
t-32.5 29.5t-42 10.5q-50 0 -81 -47t-31 -133h185z" />
    <glyph glyph-name="afii61289" unicode="&#x2113;" horiz-adv-x="360" 
d="M289 84q-74 -93 -165 -93q-58 0 -76 37q-10 20 -8.5 51t16.5 87l24 91l-69 -46l-7 17l83 59l32 118q17 64 30.5 108t27 74t28 50.5t34.5 37.5q40 37 75 37q18 0 29.5 -10t16 -27t3.5 -39t-8 -47q-12 -45 -34 -85.5t-51 -77.5t-62.5 -69.5t-67.5 -61.5l-27 -102
q-13 -49 -15 -80.5t4.5 -50t20.5 -25.5t34 -7q33 0 63 19t57 48zM150 331q29 28 56 60t49.5 65.5t39 67t24.5 65.5q11 42 6.5 69.5t-27.5 27.5q-29 0 -55 -52t-57 -169z" />
    <glyph glyph-name="uni2126" unicode="&#x2126;" horiz-adv-x="667" 
d="M538 0h-208v15q23 28 56 65t66 82t61.5 96.5t43.5 108.5q21 78 17.5 133t-23 89.5t-51 50t-68.5 15.5q-40 0 -81 -16.5t-78 -52t-68 -91t-52 -133.5q-15 -55 -15 -104t8.5 -92t21 -80.5t23.5 -69.5l-11 -16h-203l12 119l17 2q1 -25 4 -40t8.5 -23.5t14.5 -11t22 -2.5h103
q-15 20 -33 50.5t-31 71t-15.5 91.5t13.5 111q19 72 55.5 129.5t83 98t100.5 62t109 21.5q57 0 99 -20.5t66.5 -59.5t29 -95.5t-14.5 -127.5q-14 -54 -42.5 -102.5t-62.5 -90.5t-70.5 -77t-66.5 -62h103q15 0 25.5 2t20 10t19.5 23.5t25 41.5l19 -2z" />
    <glyph glyph-name="estimated" unicode="&#x212e;" horiz-adv-x="942" 
d="M285 326q-5 0 -5 -4v-189q0 -11 8 -21q46 -48 106.5 -75.5t129.5 -27.5q75 0 139 31t109 84h56q-52 -61 -131.5 -97.5t-173.5 -36.5q-80 0 -149.5 27t-122 74t-82.5 109.5t-30 134.5t30 135t82.5 110t122 74t149.5 27t150 -27t122.5 -74t83 -110t30.5 -135v-9h-624z
M767 540q0 12 -9 23q-46 45 -105.5 71.5t-128.5 26.5t-129 -27.5t-106 -74.5q-9 -9 -9 -23v-186q0 -2 1.5 -4t3.5 -2h478q2 0 3 2t1 4v190z" />
    <glyph glyph-name="partialdiff" unicode="&#x2202;" horiz-adv-x="475" 
d="M274 415q34 0 67 -17.5t47 -56.5q8 24 16 48.5t16 52.5q11 38 15.5 78t0.5 79q-2 19 -9.5 39t-20.5 36t-31.5 26.5t-42.5 10.5q-35 0 -69 -14t-64 -34q-11 -2 -15 13.5t5 29.5q28 17 63 28.5t73 11.5q63 0 96.5 -36t47.5 -100q6 -27 6 -57.5t-3 -60t-8.5 -56t-11.5 -47.5
q-7 -26 -17.5 -57t-24 -64.5t-30.5 -66.5t-37 -61q-46 -66 -100 -107.5t-117 -41.5q-74 0 -104 51.5t-7 143.5q14 50 40 89.5t55 67.5q32 30 76 51t87 21h1zM278 383q-67 0 -128 -58q-30 -33 -51.5 -75.5t-34.5 -89.5q-8 -27 -7.5 -53t8.5 -46.5t24.5 -32.5t41.5 -12
q21 0 41.5 8.5t39 23t34.5 32.5t30 38q16 22 29 43.5t24 43.5t21.5 46t21.5 53q-2 11 -8.5 24.5t-18.5 25.5t-28.5 20.5t-37.5 8.5h-1z" />
    <glyph glyph-name="uni2206" unicode="&#x2206;" horiz-adv-x="572" 
d="M-43 0l5 16l412 654l26 8l66 -662l-4 -16h-505zM352 587l-345 -552h398z" />
    <glyph glyph-name="product" unicode="&#x220f;" horiz-adv-x="713" 
d="M686 648q-30 -2 -46.5 -4.5t-25 -8t-10 -14.5t-1.5 -25v-598q0 -19 2 -31t10 -18.5t24 -9.5t44 -5v-19h-212v19q28 2 44 4.5t24.5 8.5t10.5 18t2 33v616q0 19 -6 23.5t-26 4.5h-226q-20 0 -25.5 -4t-5.5 -21v-619q0 -19 1 -30.5t8 -18t22.5 -9.5t43.5 -6v-19h-205v19
q27 2 42.5 5t24 9t10.5 18t2 32v598q0 16 -2 25t-10.5 14.5t-25 8t-45.5 4.5v20h557v-20z" />
    <glyph glyph-name="summation" unicode="&#x2211;" horiz-adv-x="603" 
d="M543 -85h-413v17l213 354l-207 365v17h408q0 -7 1.5 -22t3 -34.5t3 -42t3.5 -43.5l-21 -4q-5 35 -12 57t-15 36q-4 7 -9.5 12.5t-16 8.5t-27 4.5t-43.5 1.5h-205l186 -324l-209 -355h252q29 0 47 2.5t31 13.5t23 34.5t24 64.5l21 -6z" />
    <glyph glyph-name="radical" unicode="&#x221a;" horiz-adv-x="608" 
d="M440 -131l-13 -9l-205 535l-80 -40l-9 26l126 61l169 -453h2l128 888l29 -9z" />
    <glyph glyph-name="infinity" unicode="&#x221e;" horiz-adv-x="734" 
d="M689 278q0 -32 -11.5 -58t-30 -44t-43 -28t-51.5 -10q-44 0 -81.5 27t-85.5 81q-18 -20 -36.5 -39.5t-39.5 -34.5t-44.5 -24.5t-51.5 -9.5q-27 0 -51.5 10.5t-42.5 29t-28.5 43.5t-10.5 54q0 30 10.5 55.5t29 44.5t44 29.5t55.5 10.5q26 0 49 -9.5t43.5 -24.5t39.5 -35
t37 -41q18 21 36.5 40.5t39 35t43.5 25t52 9.5q59 0 94 -38t35 -98v-1zM220 175q22 0 42.5 10t38.5 24.5t34 32t30 32.5q-15 18 -31.5 37t-35 34t-39.5 24.5t-46 9.5q-22 0 -39 -8.5t-29 -23t-18 -33.5t-6 -40q0 -42 27 -70.5t71 -28.5h1zM554 379q-23 0 -44 -11.5
t-39.5 -27.5t-34 -33.5t-27.5 -29.5q23 -25 42 -44t36 -32t33.5 -19.5t35.5 -6.5q22 0 39.5 8.5t29.5 23t18 32.5t6 36q0 51 -26.5 77.5t-67.5 26.5h-1z" />
    <glyph glyph-name="integral" unicode="&#x222b;" horiz-adv-x="435" 
d="M239 437q-5 118 3.5 193t26 117t43 57.5t54.5 15.5q15 0 30.5 -9t15.5 -27q0 -15 -8.5 -22.5t-21.5 -7.5q-10 0 -15 5t-9.5 11t-9 11t-12.5 5t-17.5 -7.5t-17.5 -26.5t-12.5 -52.5t-2.5 -85.5l17 -381q6 -135 -2.5 -216.5t-27 -125t-43.5 -57t-52 -13.5q-22 0 -34.5 11.5
t-12.5 25.5q-1 14 9 23.5t27 9.5q9 0 14 -5t9 -11.5t8.5 -11.5t12.5 -5q23 0 36.5 46.5t9.5 124.5z" />
    <glyph glyph-name="approxequal" unicode="&#x2248;" horiz-adv-x="534" 
d="M492 230q-17 -35 -44.5 -60t-69.5 -25q-28 0 -50.5 10t-54.5 28q-21 12 -41.5 21.5t-42.5 9.5q-32 0 -53 -20.5t-37 -48.5l-27 20q20 41 52 63.5t70 22.5q34 0 58.5 -13.5t43.5 -23.5q22 -13 41 -22.5t44 -9.5q28 0 47 17t39 52zM492 379q-17 -35 -44.5 -60t-69.5 -25
q-27 0 -50 10t-55 28q-21 12 -41.5 21.5t-43.5 9.5q-31 0 -51.5 -20t-37.5 -49l-27 20q20 41 52 63.5t70 22.5q33 0 58 -14t44 -24q23 -13 41.5 -22t43.5 -9q27 0 46.5 17t39.5 52z" />
    <glyph glyph-name="notequal" unicode="&#x2260;" horiz-adv-x="555" 
d="M366 377h143v-39h-159l-62 -133h221v-39h-237l-48 -105l-31 14l42 91h-136v39h153l60 133h-213v39h229l48 104l31 -14z" />
    <glyph glyph-name="lessequal" unicode="&#x2264;" horiz-adv-x="574" 
d="M123 306v39l403 206v-47l-360 -177v-2l360 -179v-47zM118 21v40h410v-40h-410z" />
    <glyph glyph-name="greaterequal" unicode="&#x2265;" horiz-adv-x="574" 
d="M526 345v-39l-402 -207v47l359 178v2l-359 178v47zM119 21v40h409v-40h-409z" />
    <glyph glyph-name="lozenge" unicode="&#x25ca;" horiz-adv-x="614" 
d="M383 -64h-44l-185 388l186 391h43l185 -391zM363 669h-3l-162 -343l163 -346h2l161 344z" />
    <glyph glyph-name="uni2215" unicode="&#x2215;" horiz-adv-x="51" 
d="M255 682h40l-499 -716h-40z" />
    <glyph glyph-name="uni2219" unicode="&#x2219;" horiz-adv-x="281" 
d="M193 276q0 -22 -15.5 -37.5t-36.5 -15.5q-23 0 -38 15.5t-15 37.5t15 37.5t38 15.5q21 0 36.5 -15.5t15.5 -37.5z" />
    <glyph glyph-name="Omega" unicode="&#x3a9;" horiz-adv-x="667" 
d="M538 0h-208v15q23 28 56 65t66 82t61.5 96.5t43.5 108.5q21 78 17.5 133t-23 89.5t-51 50t-68.5 15.5q-40 0 -81 -16.5t-78 -52t-68 -91t-52 -133.5q-15 -55 -15 -104t8.5 -92t21 -80.5t23.5 -69.5l-11 -16h-203l12 119l17 2q1 -25 4 -40t8.5 -23.5t14.5 -11t22 -2.5h103
q-15 20 -33 50.5t-31 71t-15.5 91.5t13.5 111q19 72 55.5 129.5t83 98t100.5 62t109 21.5q57 0 99 -20.5t66.5 -59.5t29 -95.5t-14.5 -127.5q-14 -54 -42.5 -102.5t-62.5 -90.5t-70.5 -77t-66.5 -62h103q15 0 25.5 2t20 10t19.5 23.5t25 41.5l19 -2z" />
    <glyph glyph-name="mu" unicode="&#x3bc;" horiz-adv-x="500" 
d="M140 430h74l-78 -273q-5 -17 -7.5 -26.5t-4 -15t-2 -8.5t-0.5 -6q0 -8 1 -19t5.5 -22t14.5 -18.5t29 -7.5q23 0 48 15.5t48 44.5q15 19 24 32t16 28t13.5 36t16.5 55l54 185h74l-82 -282l-10 -32q-6 -18 -6 -39q0 -41 27 -41q25 0 39.5 21t27.5 48h18q-6 -20 -12 -34
t-12.5 -25t-14.5 -19t-19 -16q-14 -11 -32 -17t-33 -6q-29 0 -46.5 20.5t-17.5 53.5q0 5 0.5 15.5t2.5 21.5q-39 -57 -81 -84t-79 -27q-19 0 -32 5.5t-22 13.5t-14 17t-9 17q-8 -26 -12.5 -44t-7.5 -36t-5 -40l-5 -55q-7 -81 -54 -81q-16 0 -25.5 11t-9.5 28q0 6 1 11
t4.5 14t11 24l20.5 41q31 59 56 149z" />
    <glyph glyph-name="pi" unicode="&#x3c0;" horiz-adv-x="513" 
d="M527 445q-14 -26 -26 -40.5t-23 -26.5q-12 -2 -30 -2.5t-39 -0.5q-8 -21 -17.5 -53.5t-19 -68t-18.5 -70.5t-16 -61q-11 -42 -8.5 -66.5t28.5 -24.5q15 0 28.5 8.5t30.5 25.5l8 -15q-27 -35 -53.5 -48t-49.5 -13q-17 0 -29 5t-18 18.5t-5 36.5t11 59q18 67 40.5 137.5
t42.5 131.5q-45 2 -89.5 2h-73.5l-7 -23q-22 -83 -47 -146t-47 -107t-39 -68.5t-23 -29.5q-10 -5 -25.5 -10t-26.5 -6l-1 13q35 32 64.5 80.5t53.5 101.5t41.5 105t28.5 91q-26 0 -45 -4t-34.5 -10.5t-28.5 -15t-27 -18.5l-8 16q12 10 28 23.5t36.5 25.5t46.5 20t60 8
q25 0 53 -0.5t59 -1.5t64 -1.5t68 -0.5q21 0 34 6t31 27z" />
    <glyph glyph-name="uni02C9" unicode="&#x2c9;" 
d="M9 575h299v-34h-299v34z" />
    <glyph glyph-name="uni00B5" unicode="&#xb5;" horiz-adv-x="500" 
d="M140 430h74l-78 -273q-5 -17 -7.5 -26.5t-4 -15t-2 -8.5t-0.5 -6q0 -8 1 -19t5.5 -22t14.5 -18.5t29 -7.5q23 0 48 15.5t48 44.5q15 19 24 32t16 28t13.5 36t16.5 55l54 185h74l-82 -282l-10 -32q-6 -18 -6 -39q0 -41 27 -41q25 0 39.5 21t27.5 48h18q-6 -20 -12 -34
t-12.5 -25t-14.5 -19t-19 -16q-14 -11 -32 -17t-33 -6q-29 0 -46.5 20.5t-17.5 53.5q0 5 0.5 15.5t2.5 21.5q-39 -57 -81 -84t-79 -27q-19 0 -32 5.5t-22 13.5t-14 17t-9 17q-8 -26 -12.5 -44t-7.5 -36t-5 -40l-5 -55q-7 -81 -54 -81q-16 0 -25.5 11t-9.5 28q0 6 1 11
t4.5 14t11 24l20.5 41q31 59 56 149z" />
    <glyph glyph-name="i.locl" horiz-adv-x="264" 
d="M179 61q0 -27 8.5 -38t31.5 -11h32v-12h-238v12h35q23 0 31.5 11.5t8.5 37.5v303q0 23 -12.5 33t-34.5 10h-31v12h38q31 0 63.5 2.5t67.5 8.5v-369zM76 573q0 23 16.5 39.5t39.5 16.5t39.5 -16.5t16.5 -39.5t-16.5 -39.5t-39.5 -16.5t-39.5 16.5t-16.5 39.5z" />
    <glyph glyph-name="period" unicode="." horiz-adv-x="203" 
d="M154 39q0 -22 -15.5 -37.5t-36.5 -15.5q-23 0 -38 15.5t-15 37.5t15 37.5t38 15.5q21 0 36.5 -15.5t15.5 -37.5z" />
    <glyph glyph-name="exclam" unicode="!" horiz-adv-x="252" 
d="M120 157v29q0 57 -6 117t-13 113.5t-13 95.5t-6 65q0 41 12 64.5t32 23.5t32 -23.5t12 -64.5q0 -23 -6 -65t-13 -95.5t-13 -113.5t-6 -117v-29h-12zM179 39q0 -22 -15.5 -37.5t-37.5 -15.5t-37.5 15.5t-15.5 37.5t15.5 37.5t37.5 15.5t37.5 -15.5t15.5 -37.5z" />
    </font>
</defs>
</svg>
