<?xml version="1.0" standalone="no"?>
<!DOCTYPE svg PUBLIC "-//W3C//DTD SVG 1.1//EN" "http://www.w3.org/Graphics/SVG/1.1/DTD/svg11.dtd" >
<svg>
<metadata>
Created by FontForge 20110222 at Sun Aug 17 17:59:36 2014
 By Orthosie Webhosting
Copyright 2012 Monotype Imaging Inc. All rights reserved.
</metadata>
<defs>
<font id="ModernNAP-TextItalic" horiz-adv-x="333" >
  <font-face 
    font-family="ModernNAP-TextItalic"
    font-weight="400"
    font-style="italic"
    font-stretch="normal"
    units-per-em="1000"
    panose-1="2 2 5 5 5 5 5 9 3 3"
    ascent="725"
    descent="-275"
    x-height="486"
    cap-height="708"
    bbox="-284 -246 1182 977"
    underline-thickness="50"
    underline-position="-50"
    unicode-range="U+0020-FB04"
  />
<missing-glyph horiz-adv-x="607" 
d="M107 700h500v-700h-500v700zM527 650h-340l170 -255zM557 95v510l-170 -255zM527 50l-170 255l-170 -255h340zM157 95l170 255l-170 255v-510z" />
    <glyph glyph-name="uniFB01" unicode="fi" horiz-adv-x="631" 
d="M609 171q-16 -47 -37 -81.5t-44 -57t-47.5 -33t-48.5 -10.5q-35 0 -55 21t-20 67q0 43 18 103l58 206q4 13 4 29t-13.5 24t-56.5 8h-135l-68 -285q-32 -132 -63 -211.5t-62.5 -121.5t-63 -55.5t-64.5 -13.5q-45 0 -75 27.5t-30 69.5q0 26 16.5 45.5t39.5 19.5
q20 0 31.5 -11.5t11.5 -30.5q0 -10 -4.5 -19.5t-15.5 -17.5q-9 -7 -12 -11.5t-3 -9.5q0 -11 11 -20t34 -9t42 11.5t35 39.5t31 76t31 120l90 407h-90l9 33h88q28 125 101.5 183.5t187.5 58.5q63 0 100.5 -24.5t37.5 -64.5q0 -24 -15.5 -40t-39.5 -16q-26 0 -41.5 14.5
t-15.5 38.5q0 16 7 24q6 7 6 14q0 9 -11 14.5t-29 5.5q-76 0 -123.5 -42.5t-69.5 -139.5l-6 -26h158q28 0 69 3t83 8l-106 -373q-10 -34 -10 -56q0 -33 21 -33q26 0 61 36.5t58 105.5h35v0z" />
    <glyph glyph-name="uniFB02" unicode="fl" horiz-adv-x="632" 
d="M151 480q19 62 43.5 107.5t57 75.5t74 44.5t94.5 14.5q39 0 72 -14q26 2 58.5 4t64.5 7l-171 -601q-10 -34 -10 -56q0 -33 21 -33q26 0 61 36.5t58 105.5h35q-16 -47 -37 -81.5t-44 -57t-47.5 -33t-48.5 -10.5q-35 0 -55 21t-20 67q0 43 18 103l75 267h-218l-68 -285
q-32 -132 -63 -211.5t-62.5 -121.5t-63 -55.5t-64.5 -13.5q-45 0 -75 27.5t-30 69.5q0 26 16.5 45.5t39.5 19.5q20 0 31.5 -11.5t11.5 -30.5q0 -10 -4.5 -19.5t-15.5 -17.5q-9 -7 -12 -11.5t-3 -9.5q0 -11 11 -20t34 -9t42 11.5t35 39.5t31 76t31 120l90 407h-90l9 33h88z
M240 480h219l23 80q-13 11 -13 29q0 11 4 19t12 17q7 7 7 18q0 20 -20 32.5t-53 12.5q-68 0 -109.5 -43t-63.5 -139z" />
    <glyph glyph-name="uniFB00" unicode="ff" horiz-adv-x="631" 
d="M151 480q34 124 93 183t157 59q47 0 80 -19t47 -52q23 32 53 51.5t69 19.5q48 0 76 -26t28 -68q0 -24 -14 -40t-36 -16q-18 0 -29.5 10.5t-11.5 28.5q0 10 3.5 17t12.5 18q7 8 7 17q0 11 -10 18t-27 7q-26 0 -47.5 -22t-36.5 -88l-23 -98h97l-10 -33h-94l-69 -285
q-32 -132 -60.5 -211t-57 -121.5t-57 -56t-58.5 -13.5q-42 0 -71 26.5t-29 66.5q0 25 16.5 44.5t39.5 19.5q20 0 31.5 -11.5t11.5 -30.5q0 -10 -3.5 -18.5t-14.5 -15.5q-13 -9 -13 -22q0 -9 8.5 -17.5t27.5 -8.5q20 0 35.5 11.5t29 40t26.5 76t29 119.5l89 407h-214
l-68 -285q-32 -132 -63 -211.5t-62.5 -121.5t-63 -55.5t-64.5 -13.5q-45 0 -75 27.5t-30 69.5q0 26 16.5 45.5t39.5 19.5q20 0 31.5 -11.5t11.5 -30.5q0 -10 -4.5 -19.5t-15.5 -17.5q-9 -7 -12 -11.5t-3 -9.5q0 -11 11 -20t34 -9t42 11.5t35 39.5t31 76t31 120l90 407h-90
l9 33h88zM240 480h214q5 18 10.5 35.5t12.5 34.5q-15 3 -23.5 13.5t-8.5 25.5q0 11 4 19t12 17q6 7 6 18q0 20 -18 32.5t-49 12.5q-61 0 -97 -43t-57 -139z" />
    <glyph glyph-name="uniFB03" unicode="ffi" horiz-adv-x="934" 
d="M151 480q29 118 96.5 180t172.5 62q47 0 80.5 -17.5t48.5 -46.5q74 64 194 64q63 0 100.5 -24.5t37.5 -64.5q0 -24 -15.5 -40t-39.5 -16q-26 0 -41.5 14.5t-15.5 38.5q0 16 7 24q5 6 5 14q0 9 -10.5 14.5t-28.5 5.5q-76 0 -123.5 -42.5t-70.5 -139.5l-6 -26h159
q27 0 68.5 3t83.5 8l-106 -373q-11 -38 -11 -56q0 -33 22 -33q13 0 29 9t32 27t31 44.5t26 61.5h36q-16 -47 -37 -81.5t-44 -57t-47.5 -33t-48.5 -10.5q-35 0 -55 21t-20 67q0 41 17 103l58 206q5 17 5 29q0 16 -13.5 24t-56.5 8h-135l-69 -285q-32 -132 -60.5 -211
t-57 -121.5t-57 -56t-58.5 -13.5q-42 0 -71 26.5t-29 66.5q0 25 16.5 44.5t39.5 19.5q20 0 31.5 -11.5t11.5 -30.5q0 -10 -3.5 -18.5t-14.5 -15.5q-13 -9 -13 -22q0 -9 8.5 -17.5t27.5 -8.5q20 0 35.5 11.5t29 40t26.5 76t29 119.5l89 407h-214l-68 -285
q-32 -132 -63 -211.5t-62.5 -121.5t-63 -55.5t-64.5 -13.5q-45 0 -75 27.5t-30 69.5q0 26 16.5 45.5t39.5 19.5q20 0 31.5 -11.5t11.5 -30.5q0 -10 -4.5 -19.5t-15.5 -17.5q-9 -7 -12 -11.5t-3 -9.5q0 -11 11 -20t34 -9t42 11.5t35 39.5t31 76t31 120l90 407h-90l9 33h88z
M454 480q9 43 26 81q-11 11 -11 28q0 11 4 19t12 17q7 7 7 18q0 20 -20 32.5t-53 12.5q-69 0 -111 -45.5t-62 -136.5l-6 -26h214z" />
    <glyph glyph-name="uniFB04" unicode="ffl" horiz-adv-x="935" 
d="M912 171q-16 -47 -37 -81.5t-44 -57t-47.5 -33t-48.5 -10.5q-35 0 -55 21t-20 67q0 41 17 103l75 267h-217l-69 -285q-32 -132 -60.5 -211t-57 -121.5t-57 -56t-58.5 -13.5q-42 0 -71 26.5t-29 66.5q0 25 16.5 44.5t39.5 19.5q20 0 31.5 -11.5t11.5 -30.5
q0 -10 -3.5 -18.5t-14.5 -15.5q-13 -9 -13 -22q0 -9 8.5 -17.5t27.5 -8.5q20 0 35.5 11.5t29 40t26.5 76t29 119.5l89 407h-214l-68 -285q-32 -132 -63 -211.5t-62.5 -121.5t-63 -55.5t-64.5 -13.5q-45 0 -75 27.5t-30 69.5q0 26 16.5 45.5t39.5 19.5q20 0 31.5 -11.5
t11.5 -30.5q0 -10 -4.5 -19.5t-15.5 -17.5q-9 -7 -12 -11.5t-3 -9.5q0 -11 11 -20t34 -9t42 11.5t35 39.5t31 76t31 120l90 407h-90l9 33h88q29 118 96.5 180t172.5 62q47 0 80 -17.5t49 -46.5q65 64 174 64q40 0 71 -14q26 2 58.5 4t64.5 7l-170 -601q-11 -38 -11 -56
q0 -33 22 -33q13 0 29 9t32 27t31 44.5t26 61.5h36zM762 480l22 80q-12 10 -12 29q0 11 4 19t12 17q6 7 6 18q0 20 -19.5 32.5t-52.5 12.5q-68 0 -110 -43t-64 -139l-6 -26h220zM454 480q6 22 13.5 41.5t15.5 37.5q-14 11 -14 30q0 11 4 19t12 17q7 7 7 18q0 20 -20 32.5
t-53 12.5q-69 0 -111 -45.5t-62 -136.5l-6 -26h214z" />
    <glyph glyph-name="f_b.liga" unicode="fb" horiz-adv-x="862" 
d="M151 480q19 62 43.5 107.5t57 75.5t74 44.5t94.5 14.5q40 0 73 -14q24 0 56.5 3t65.5 8l-82 -286q32 29 66 45.5t73 16.5q32 0 59.5 -16t48 -44t32 -66.5t11.5 -82.5q0 -53 -26 -106t-67.5 -95t-93.5 -68.5t-104 -26.5q-70 0 -111.5 44.5t-41.5 120.5q0 13 1.5 26.5
t5 30.5t9.5 39.5t15 55.5l39 140h-217l-68 -285q-32 -132 -63 -211.5t-62.5 -121.5t-63 -55.5t-64.5 -13.5q-45 0 -75 27.5t-30 69.5q0 26 16.5 45.5t39.5 19.5q20 0 31.5 -11.5t11.5 -30.5q0 -10 -4.5 -19.5t-15.5 -17.5q-9 -7 -12 -11.5t-3 -9.5q0 -11 11 -20t34 -9
t42 11.5t35 39.5t31 76t31 120l90 407h-90l9 33h88zM668 461q-45 0 -87 -34.5t-75 -108.5q-12 -27 -21.5 -56.5t-15.5 -57t-9.5 -50.5t-3.5 -36q0 -45 19 -70t57 -25q40 0 77 29.5t61 77.5q14 27 26.5 60.5t22.5 67.5t15.5 63.5t5.5 49.5q0 44 -17.5 67t-54.5 23zM240 480
h219l22 80q-12 10 -12 29q0 11 4 19t12 17q7 7 7 18q0 20 -20 32.5t-53 12.5q-68 0 -109.5 -43t-63.5 -139z" />
    <glyph glyph-name="f_h.liga" unicode="fh" horiz-adv-x="901" 
d="M323 0l126 447h-217l-68 -285q-32 -132 -63 -211.5t-62.5 -121.5t-63 -55.5t-64.5 -13.5q-45 0 -75 27.5t-30 69.5q0 26 16.5 45.5t39.5 19.5q20 0 31.5 -11.5t11.5 -30.5q0 -10 -4.5 -19.5t-15.5 -17.5q-9 -7 -12 -11.5t-3 -9.5q0 -11 11 -20t34 -9t42 11.5t35 39.5
t31 76t31 120l90 407h-90l9 33h88q19 62 43.5 107.5t57 75.5t74 44.5t94.5 14.5q40 0 73 -14q24 0 56.5 3t65.5 8l-109 -383q51 86 98 121.5t86 35.5q48 0 76 -34t28 -93q0 -44 -14.5 -86.5t-32 -81.5t-32 -73.5t-14.5 -62.5q0 -30 29 -30q31 0 62 37t53 102h34
q-24 -86 -69 -131.5t-94 -45.5q-42 0 -66 24t-24 68q0 47 16 92.5t35 86.5t35 76.5t16 63.5q0 26 -12 38.5t-32 12.5q-17 0 -42.5 -14t-56 -50t-64 -97.5t-66.5 -157.5l-49 -137h-83zM240 480h219l22 80q-12 10 -12 29q0 11 4 19t12 17q7 7 7 18q0 20 -20 32.5t-53 12.5
q-68 0 -109.5 -43t-63.5 -139z" />
    <glyph glyph-name="f_k.liga" unicode="fk" horiz-adv-x="838" 
d="M323 0l126 447h-217l-68 -285q-32 -132 -63 -211.5t-62.5 -121.5t-63 -55.5t-64.5 -13.5q-45 0 -75 27.5t-30 69.5q0 26 16.5 45.5t39.5 19.5q20 0 31.5 -11.5t11.5 -30.5q0 -10 -4.5 -19.5t-15.5 -17.5q-9 -7 -12 -11.5t-3 -9.5q0 -11 11 -20t34 -9t42 11.5t35 39.5
t31 76t31 120l90 407h-90l9 33h88q19 62 43.5 107.5t57 75.5t74 44.5t94.5 14.5q40 0 73 -14q24 0 56.5 3t65.5 8l-127 -446h29q22 0 38.5 9t30 23.5t24 33.5t20.5 40q28 55 55 85t65 30q39 0 62 -22.5t23 -60.5q0 -27 -15.5 -45t-39.5 -18q-17 0 -27.5 10.5t-10.5 26.5
q0 20 8 35t8 24q0 14 -14 14q-18 0 -38 -21t-45 -72q-14 -28 -25.5 -47t-23 -32t-25 -21.5t-31.5 -15.5q39 -19 56.5 -56.5t18.5 -88.5q1 -32 6.5 -49.5t23.5 -17.5q27 0 58 35.5t54 95.5h35q-15 -39 -33 -71t-40 -55.5t-49.5 -36t-60.5 -12.5q-43 0 -68 23t-25 63
q0 15 3.5 28.5t7.5 25.5t7.5 24t3.5 25q0 27 -11.5 42.5t-34.5 15.5h-29l-68 -240h-88zM240 480h219l22 80q-12 10 -12 29q0 11 4 19t12 17q7 7 7 18q0 20 -20 32.5t-53 12.5q-68 0 -109.5 -43t-63.5 -139z" />
    <glyph glyph-name="f_f_b.liga" unicode="ffb" horiz-adv-x="1165" 
d="M466 162q-32 -132 -60.5 -211t-57 -121.5t-57 -56t-58.5 -13.5q-42 0 -71 26.5t-29 66.5q0 25 16.5 44.5t39.5 19.5q20 0 31.5 -11.5t11.5 -30.5q0 -10 -3.5 -18.5t-14.5 -15.5q-13 -9 -13 -22q0 -9 8.5 -17.5t27.5 -8.5q20 0 35.5 11.5t29 40t26.5 76t29 119.5l89 407
h-214l-68 -285q-32 -132 -63 -211.5t-62.5 -121.5t-63 -55.5t-64.5 -13.5q-45 0 -75 27.5t-30 69.5q0 26 16.5 45.5t39.5 19.5q20 0 31.5 -11.5t11.5 -30.5q0 -10 -4.5 -19.5t-15.5 -17.5q-9 -7 -12 -11.5t-3 -9.5q0 -11 11 -20t34 -9t42 11.5t35 39.5t31 76t31 120l90 407
h-90l9 33h88q34 124 93 183t157 59q51 0 85 -22.5t45 -60.5q35 42 82 62.5t110 20.5q41 0 72 -14q24 0 57 3t65 8l-81 -286q32 29 66 45.5t73 16.5q32 0 59.5 -16t47.5 -44t31.5 -66.5t11.5 -82.5q0 -53 -26 -106t-67 -95t-93 -68.5t-104 -26.5q-70 0 -111.5 44.5
t-41.5 120.5q0 13 1.5 26.5t5 30.5t9.5 39.5t15 55.5l39 140h-217zM971 461q-45 0 -87 -34.5t-75 -108.5q-12 -27 -21.5 -56.5t-16 -57t-10 -50.5t-3.5 -36q0 -45 19.5 -70t56.5 -25q41 0 77.5 29.5t61.5 77.5q13 27 26 60.5t22.5 67.5t15.5 63.5t6 49.5q0 44 -17.5 67
t-54.5 23zM542 480h220l22 80q-12 10 -12 29q0 11 4 19t12 17q6 7 6 18q0 20 -19.5 32.5t-52.5 12.5q-68 0 -110 -43t-64 -139zM240 480h214q5 19 11.5 36.5t13.5 33.5q-34 5 -34 39q0 11 4 19t12 17q6 7 6 18q0 20 -18 32.5t-49 12.5q-61 0 -97 -43t-57 -139z" />
    <glyph glyph-name="f_f_h.liga" unicode="ffh" horiz-adv-x="1204" 
d="M466 162q-32 -132 -60.5 -211t-57 -121.5t-57 -56t-58.5 -13.5q-42 0 -71 26.5t-29 66.5q0 25 16.5 44.5t39.5 19.5q20 0 31.5 -11.5t11.5 -30.5q0 -10 -3.5 -18.5t-14.5 -15.5q-13 -9 -13 -22q0 -9 8.5 -17.5t27.5 -8.5q20 0 35.5 11.5t29 40t26.5 76t29 119.5l89 407
h-214l-68 -285q-32 -132 -63 -211.5t-62.5 -121.5t-63 -55.5t-64.5 -13.5q-45 0 -75 27.5t-30 69.5q0 26 16.5 45.5t39.5 19.5q20 0 31.5 -11.5t11.5 -30.5q0 -10 -4.5 -19.5t-15.5 -17.5q-9 -7 -12 -11.5t-3 -9.5q0 -11 11 -20t34 -9t42 11.5t35 39.5t31 76t31 120l90 407
h-90l9 33h88q34 124 93 183t157 59q51 0 85 -22.5t45 -60.5q35 42 82 62.5t110 20.5q41 0 72 -14q24 0 57 3t65 8l-108 -383q51 86 98 121.5t86 35.5q48 0 76 -34t28 -93q0 -44 -14.5 -86.5t-32.5 -81.5t-32.5 -73.5t-14.5 -62.5q0 -15 8 -22.5t22 -7.5q30 0 61.5 37
t52.5 102h35q-24 -86 -69.5 -131.5t-93.5 -45.5q-42 0 -66 24t-24 68q0 47 16 92.5t34.5 86.5t34.5 76.5t16 63.5q0 51 -44 51q-17 0 -42 -14t-55.5 -50t-64 -97.5t-67.5 -157.5l-48 -137h-83l126 447h-217zM542 480h220l22 80q-12 10 -12 29q0 11 4 19t12 17q6 7 6 18
q0 20 -19.5 32.5t-52.5 12.5q-68 0 -110 -43t-64 -139zM240 480h214q5 19 11.5 36.5t13.5 33.5q-34 5 -34 39q0 11 4 19t12 17q6 7 6 18q0 20 -18 32.5t-49 12.5q-61 0 -97 -43t-57 -139z" />
    <glyph glyph-name="f_f_k.liga" unicode="ffk" horiz-adv-x="1141" 
d="M466 162q-32 -132 -60.5 -211t-57 -121.5t-57 -56t-58.5 -13.5q-42 0 -71 26.5t-29 66.5q0 25 16.5 44.5t39.5 19.5q20 0 31.5 -11.5t11.5 -30.5q0 -10 -3.5 -18.5t-14.5 -15.5q-13 -9 -13 -22q0 -9 8.5 -17.5t27.5 -8.5q20 0 35.5 11.5t29 40t26.5 76t29 119.5l89 407
h-214l-68 -285q-32 -132 -63 -211.5t-62.5 -121.5t-63 -55.5t-64.5 -13.5q-45 0 -75 27.5t-30 69.5q0 26 16.5 45.5t39.5 19.5q20 0 31.5 -11.5t11.5 -30.5q0 -10 -4.5 -19.5t-15.5 -17.5q-9 -7 -12 -11.5t-3 -9.5q0 -11 11 -20t34 -9t42 11.5t35 39.5t31 76t31 120l90 407
h-90l9 33h88q34 124 93 183t157 59q51 0 85 -22.5t45 -60.5q35 42 82 62.5t110 20.5q41 0 72 -14q24 0 57 3t65 8l-126 -446h28q22 0 38.5 9t30 23.5t24 33.5t21.5 40q28 55 55 85t65 30t61.5 -22.5t23.5 -60.5q0 -27 -15.5 -45t-39.5 -18q-17 0 -28 10.5t-11 26.5
q0 20 8.5 35t8.5 24q0 14 -14 14q-19 0 -38.5 -21t-44.5 -72q-14 -28 -25 -47t-23 -32t-26 -21.5t-32 -15.5q40 -19 57.5 -56.5t18.5 -88.5q1 -32 6.5 -49.5t22.5 -17.5q28 0 59 35.5t54 95.5h35q-15 -39 -33 -71t-40.5 -55.5t-49.5 -36t-61 -12.5q-42 0 -67.5 23t-25.5 63
q0 15 3.5 28.5t7.5 25.5t7.5 24t3.5 25q0 27 -11.5 42.5t-33.5 15.5h-29l-68 -240h-88l126 447h-217zM542 480h220l22 80q-12 10 -12 29q0 11 4 19t12 17q6 7 6 18q0 20 -19.5 32.5t-52.5 12.5q-68 0 -110 -43t-64 -139zM240 480h214q5 19 11.5 36.5t13.5 33.5q-34 5 -34 39
q0 11 4 19t12 17q6 7 6 18q0 20 -18 32.5t-49 12.5q-61 0 -97 -43t-57 -139z" />
    <glyph glyph-name=".notdef" horiz-adv-x="607" 
d="M107 700h500v-700h-500v700zM527 650h-340l170 -255zM557 95v510l-170 -255zM527 50l-170 255l-170 -255h340zM157 95l170 255l-170 255v-510z" />
    <glyph glyph-name="glyph1" horiz-adv-x="0" 
 />
    <glyph glyph-name="glyph2" horiz-adv-x="279" 
 />
    <glyph glyph-name="space" unicode=" " horiz-adv-x="279" 
 />
    <glyph glyph-name="numbersign" unicode="#" horiz-adv-x="676" 
d="M223 490l45 211h43l-45 -211h208l44 211h43l-44 -211h105l-9 -44h-105l-45 -216h105l-9 -43h-105l-44 -210h-43l44 210h-208l-44 -210h-43l44 210h-106l9 43h106l45 216h-107l10 44h106zM212 230h208l45 216h-208z" />
    <glyph glyph-name="dollar" unicode="$" horiz-adv-x="568" 
d="M142 6q-45 17 -75 47t-30 69q0 26 13.5 43t34.5 17q20 0 31.5 -13t11.5 -33q0 -17 -5 -25t-11.5 -11.5t-11.5 -6.5t-5 -10q0 -8 13 -22t42 -25l70 298q-45 35 -64 74.5t-19 77.5q0 36 13.5 65.5t36 51.5t51.5 36.5t60 20.5l13 55h34l-12 -51q5 1 15 1q29 0 59 -8l14 58
h34l-17 -68q42 -18 69 -49t27 -68q0 -24 -14 -41.5t-34 -17.5q-17 0 -28.5 13.5t-11.5 31.5q0 13 4.5 20.5t10 13t10 9.5t4.5 11q0 11 -12 23t-32 21l-62 -259q45 -35 67 -75t22 -94q0 -36 -13 -68t-36 -57.5t-55 -42.5t-71 -24l-22 -96h-34l21 91h-12q-16 0 -31.5 2
t-30.5 5l-23 -98h-34zM250 313l-68 -286q12 -2 25 -3.5t29 -1.5h10t10 1l58 241zM275 422q16 -11 32.5 -22t33.5 -23l59 248q-12 3 -25 5t-27 2q-6 0 -12 -0.5t-11 -1.5zM393 152q0 50 -50 91l-51 -214q48 13 74.5 45.5t26.5 77.5zM208 518q0 -14 9 -34.5t29 -39.5l43 178
q-38 -14 -59.5 -42.5t-21.5 -61.5z" />
    <glyph glyph-name="percent" unicode="%" horiz-adv-x="940" 
d="M836 721h78l-795 -747h-78zM237 333q-21 0 -39.5 10t-32 27t-21.5 40t-8 49q0 46 19 92.5t49 83.5t67 60.5t74 23.5q42 0 69.5 -36.5t27.5 -93.5q0 -44 -18 -89.5t-47 -82.5t-66 -60.5t-74 -23.5zM241 365q26 0 46 18.5t37 60.5q11 27 21.5 56.5t18.5 57t12.5 50
t4.5 34.5q0 45 -46 45q-22 0 -42.5 -18t-36.5 -54q-12 -27 -22.5 -56.5t-19 -58t-13 -52t-4.5 -38.5q0 -24 10.5 -34.5t33.5 -10.5zM614 -24q-21 0 -39.5 10t-32 27t-21.5 40.5t-8 49.5q0 46 19 92t49 83.5t67 61t74 23.5q21 0 39 -10t30.5 -27t20 -41t7.5 -52
q0 -44 -18 -90t-47 -83t-66 -60.5t-74 -23.5zM618 8q49 0 83 79q11 27 21.5 56.5t18.5 57t12.5 50t4.5 35.5q0 21 -11.5 33t-34.5 12q-22 0 -42.5 -18t-36.5 -55q-12 -27 -22.5 -56.5t-19 -57.5t-13 -52t-4.5 -38q0 -46 44 -46z" />
    <glyph glyph-name="ampersand" unicode="&#x26;" horiz-adv-x="847" 
d="M714 139q-30 -68 -80.5 -109.5t-132.5 -41.5q-85 0 -127 58q-39 -26 -82 -41t-80 -15q-34 0 -63.5 11.5t-51.5 31t-35 46t-13 56.5q0 43 20.5 81.5t58 71t90 57.5t115.5 42q17 122 64.5 188t108.5 66q32 0 52 -22.5t20 -57.5q0 -28 -11 -56t-32 -53.5t-51.5 -46
t-70.5 -32.5q0 -85 5 -145t15 -101q32 31 60 72t60 97q21 38 39.5 64t36.5 42.5t35.5 24t37.5 7.5q41 0 64 -25.5t23 -65.5q0 -26 -15 -44t-38 -18q-20 0 -32 12t-12 31q0 12 3.5 20.5t7 15t7 12t3.5 12.5q0 8 -4.5 13.5t-12.5 5.5q-23 0 -50.5 -29.5t-66.5 -98.5
q-35 -60 -66.5 -103.5t-68.5 -80.5q15 -35 37 -50t52 -15q49 0 85 31t59 82h37zM326 272q0 41 3 79q-29 -8 -60.5 -21t-58 -37t-44 -61.5t-17.5 -92.5q0 -53 24 -82t69 -29q22 0 50 10t66 36q-32 68 -32 198zM504 603q-19 0 -35 -9t-28 -31t-19.5 -59.5t-8.5 -95.5
q63 22 96.5 65t33.5 88q0 17 -10.5 29.5t-28.5 12.5z" />
    <glyph glyph-name="quoteright" unicode="&#x2019;" horiz-adv-x="334" 
d="M151 488q57 21 86 51.5t29 62.5q0 8 -9 8q-6 0 -13.5 -5t-15.5 -5q-23 0 -38 15.5t-15 37.5q0 23 16.5 39t41.5 16q32 0 51 -23t19 -64q0 -54 -37.5 -98t-104.5 -66z" />
    <glyph glyph-name="parenleft" unicode="(" horiz-adv-x="559" 
d="M232 -196q-9 19 -21.5 48.5t-24 69.5t-19.5 90.5t-8 112.5q0 34 5.5 80.5t19.5 99.5t38 110t62 112.5t90.5 106.5t124.5 93l32 -9q-21 -15 -36 -27t-27 -24t-23.5 -25t-24.5 -30q-30 -39 -56 -89.5t-47.5 -106.5t-38 -115t-27.5 -114.5t-17 -104t-6 -84.5
q0 -66 13 -112.5t27 -81.5h-36z" />
    <glyph glyph-name="parenright" unicode=")" horiz-adv-x="559" 
d="M335 727q9 -19 21.5 -48.5t24.5 -69.5t20 -90.5t8 -112.5q0 -34 -5.5 -80.5t-19.5 -99.5t-38 -110t-62 -112.5t-91 -107t-124 -92.5l-32 9q21 15 36 27t27 24t23 25t25 30q30 39 56 89.5t47.5 107t38 115t27.5 114t17 104t6 84.5q0 67 -13 113t-27 81h35z" />
    <glyph glyph-name="asterisk" unicode="*" horiz-adv-x="521" 
d="M356 480q15 -9 34 -14t38.5 -9t36.5 -8t28 -10q15 -9 24 -22t9 -28q0 -17 -12 -30t-32 -13q-17 0 -37 11q-11 6 -22.5 19t-25 27.5t-27.5 28.5t-29 23l-5 -3q0 -17 5 -36.5t11.5 -38t11.5 -35.5t5 -29q0 -24 -12 -42t-35 -18t-35.5 18t-12.5 42q0 12 5 29t11.5 35.5
t11.5 38t5 36.5l-5 3q-15 -9 -29 -23t-27 -28.5t-25 -27.5t-23 -19q-19 -11 -36 -11q-20 0 -32.5 13t-12.5 30q0 31 34 50q11 6 28 10t36.5 8t38.5 9t34 14v6q-15 9 -34 14t-38.5 9t-36.5 8t-28 10q-34 19 -34 50q0 17 12.5 30t32.5 13q17 0 36 -11q11 -6 23 -19t25 -27.5
t27 -28.5t29 -23l5 3q0 17 -5 36.5t-11.5 38t-11.5 35.5t-5 29q0 24 12.5 41.5t35.5 17.5t35 -17.5t12 -41.5q0 -12 -5 -29t-11.5 -35.5t-11.5 -38t-5 -36.5l5 -3q15 9 29 23t27.5 28.5t25 27.5t22.5 19q20 11 37 11q20 0 32 -13t12 -30q0 -15 -9 -28t-24 -22
q-11 -6 -28 -10t-36.5 -8t-38.5 -9t-34 -14v-6v0z" />
    <glyph glyph-name="plus" unicode="+" horiz-adv-x="667" 
d="M71 368h228v229h67v-229h230v-68h-230v-226h-67v226h-228v68z" />
    <glyph glyph-name="comma" unicode="," horiz-adv-x="323" 
d="M10 -120q57 21 86 51.5t29 62.5q0 8 -9 8q-6 0 -13.5 -5t-15.5 -5q-23 0 -38 15.5t-15 37.5q0 23 16.5 39t41.5 16q32 0 51 -23t19 -64q0 -54 -37.5 -98t-104.5 -66z" />
    <glyph glyph-name="hyphen" unicode="-" horiz-adv-x="351" 
d="M65 310h227l-16 -59h-227z" />
    <glyph glyph-name="period" unicode="." horiz-adv-x="317" 
d="M166 42q0 -23 -16.5 -39.5t-39.5 -16.5t-39.5 16.5t-16.5 39.5t16.5 40t39.5 17t39.5 -17t16.5 -40z" />
    <glyph glyph-name="slash" unicode="/" horiz-adv-x="366" 
d="M-63 -246h-51l487 964h50z" />
    <glyph glyph-name="zero" unicode="0" horiz-adv-x="632" 
d="M411 683q81 0 129 -63.5t48 -178.5q0 -80 -29.5 -160.5t-77.5 -145.5t-107.5 -105.5t-119.5 -40.5q-41 0 -74.5 18t-57.5 50t-37.5 77.5t-13.5 99.5t16 108.5t42.5 104.5t61.5 93t72.5 75t75.5 50t72 18zM410 650q-32 0 -68 -26t-65 -83q-10 -19 -23 -51t-27.5 -70.5
t-28.5 -80t-24.5 -80t-17.5 -70.5t-7 -52q0 -58 28 -86.5t78 -28.5q30 0 55.5 16t48 50t44.5 85t45 122q19 57 29.5 94t16 63t7 44t1.5 36q0 61 -21.5 89.5t-70.5 28.5z" />
    <glyph glyph-name="one" unicode="1" horiz-adv-x="416" 
d="M137 606q18 0 42 2t52 9.5t59 22t61 39.5h36l-169 -596q-3 -9 -3 -20q0 -30 51 -30h68l-9 -33h-354l9 33h65q18 0 30.5 3.5t22.5 13.5t17 27t15 43l116 411q2 8 2 13q0 29 -53 29h-94l9 33h27z" />
    <glyph glyph-name="two" unicode="2" horiz-adv-x="539" 
d="M330 290q-90 -49 -148.5 -92t-87.5 -78q13 3 24.5 4t26.5 1q23 0 45 -4t43 -8.5t40.5 -8.5t38.5 -4q54 0 81.5 27t44.5 78h33q-14 -48 -34 -87.5t-44 -68t-51.5 -44t-54.5 -15.5q-33 0 -56 15t-42 33.5t-37.5 33.5t-42.5 15q-17 0 -26.5 -8t-9.5 -20q0 -11 6 -19t6 -24
q0 -26 -27 -26q-32 0 -32 42q0 18 3.5 36t13.5 37t28 40t46 47q58 47 116.5 91t96.5 87q41 47 57.5 96t16.5 84q0 45 -23.5 69t-66.5 24q-30 0 -60 -14t-53 -34t-37.5 -42.5t-14.5 -38.5q0 -14 14 -14q23 0 37 -16t14 -40t-18 -41t-45 -17t-43 17.5t-16 49.5q0 41 21 82
t55 73.5t76.5 53t84.5 20.5q39 0 73 -12t58.5 -32t38.5 -47.5t14 -58.5q0 -44 -16 -80.5t-42.5 -66.5t-59 -53.5t-65.5 -41.5z" />
    <glyph glyph-name="three" unicode="3" horiz-adv-x="521" 
d="M299 377q11 -2 19 -4t17 -6q61 -25 91 -73t30 -100q0 -39 -22.5 -76t-59 -65.5t-84.5 -45.5t-99 -17q-38 0 -70 11t-55 31t-36 47t-13 59q0 42 21.5 69.5t54.5 27.5q20 0 33.5 -13t13.5 -32q0 -20 -15.5 -37.5t-34.5 -17.5q-5 0 -11.5 1.5t-11.5 1.5q-13 0 -13 -22
q0 -17 10 -33t27 -29.5t38.5 -21.5t45.5 -8q34 0 61 13t55 44q13 14 25 37.5t21 50t14.5 52.5t5.5 46q0 38 -21 59t-60 21q-20 0 -33.5 -6t-23 -13t-17.5 -13t-16 -6q-10 0 -15 6t-5 14q0 11 10.5 20t35.5 20q29 13 52 26t46 33q16 13 30 30t24.5 35.5t16.5 37t6 33.5
q0 40 -22.5 61.5t-63.5 21.5q-17 0 -31.5 -4t-26 -10.5t-18 -14t-6.5 -14.5q0 -4 2.5 -6t5 -5.5t5 -9.5t2.5 -17q0 -20 -16 -36t-36 -16q-17 0 -27 12t-10 32q0 24 14.5 46t38.5 39.5t54.5 28t63.5 10.5q38 0 69 -9.5t53.5 -27t35 -42t12.5 -53.5q0 -22 -9.5 -41.5
t-30.5 -39t-54.5 -40t-81.5 -45.5z" />
    <glyph glyph-name="four" unicode="4" horiz-adv-x="590" 
d="M209 33q32 0 48 13t27 51l20 73h-257l-27 27l427 482h100l-131 -465h132l-13 -44h-132l-24 -87q-3 -11 -3 -21q0 -29 51 -29h75l-9 -33h-363l10 33h69zM317 214l112 395l-350 -395h238z" />
    <glyph glyph-name="five" unicode="5" horiz-adv-x="515" 
d="M339 555q-14 0 -26 1t-25 3t-29 6.5t-38 11.5l-62 -168q46 30 100 30q39 0 73.5 -15.5t60.5 -42t41.5 -62t15.5 -74.5q0 -51 -22 -97t-58.5 -81t-85 -56t-101.5 -21q-39 0 -71 10.5t-55 30t-35.5 46.5t-12.5 59q0 22 6.5 42t17 35t24.5 24t29 9q23 0 37.5 -12.5
t14.5 -32.5q0 -25 -15 -44t-35 -19q-9 0 -15 3.5t-13 3.5q-16 0 -16 -22q0 -19 9.5 -36.5t26 -30.5t38.5 -21t46 -8q62 0 108 49q15 16 29 42.5t24.5 58t17 65t6.5 62.5q0 48 -25 74.5t-70 26.5q-36 0 -66.5 -16.5t-57.5 -47.5h-30l126 346q50 -22 84.5 -31.5t71.5 -9.5
q33 0 58.5 9t49.5 27q-6 -57 -48 -92t-103 -35z" />
    <glyph glyph-name="six" unicode="6" horiz-adv-x="534" 
d="M183 376q38 28 66 38t62 10q37 0 68.5 -15t54.5 -41.5t36.5 -62t13.5 -76.5q0 -45 -21.5 -88t-56.5 -76.5t-80 -54.5t-91 -21q-42 0 -76.5 16.5t-59 46t-38 71t-13.5 91.5q0 55 14 110.5t38.5 107.5t58 97.5t71.5 79.5t79 53.5t81 19.5q28 0 51.5 -8.5t41 -24t27 -37
t9.5 -46.5q0 -32 -17.5 -53.5t-42.5 -21.5q-20 0 -33.5 14t-13.5 34q0 46 32 57q14 6 14 17q0 12 -19 24t-49 12q-36 0 -63 -16t-50 -47.5t-43 -78t-42 -107.5zM227 23q35 0 66.5 26.5t53.5 77.5q19 45 30 92.5t11 79.5q0 42 -22.5 67t-60.5 25q-34 0 -60 -14.5t-45.5 -37.5
t-33.5 -52.5t-22.5 -59.5t-12.5 -57.5t-4 -46.5q0 -48 26.5 -74t73.5 -26z" />
    <glyph glyph-name="seven" unicode="7" horiz-adv-x="497" 
d="M154 592q36 44 63 59.5t54 15.5q34 0 50.5 -14t28 -31t25 -31t40.5 -14q22 0 41.5 12t19.5 32q0 6 -1 13t-1 12q0 16 7 25.5t19 9.5q26 0 26 -35q0 -12 -2.5 -26.5t-10 -33t-20.5 -41.5t-34 -53l-20 -29q-27 -40 -48 -73.5t-37.5 -66.5t-29.5 -67.5t-24 -76.5l-14 -53
q-21 -77 -44 -107.5t-51 -30.5q-45 0 -45 53q0 22 6 48.5t20 58.5t38.5 70t60.5 84l73 92q43 54 69.5 90.5t41.5 64.5q-52 -32 -95 -32q-36 0 -54.5 11.5t-30 25t-22 25t-31.5 11.5q-16 0 -38 -16t-43 -51q-28 -45 -41 -84h-36l86 244h36z" />
    <glyph glyph-name="eight" unicode="8" horiz-adv-x="510" 
d="M488 546q0 -30 -11 -54.5t-31 -46.5t-47.5 -41.5t-60.5 -39.5q20 -21 38 -41.5t31.5 -42.5t21 -45.5t7.5 -51.5q0 -41 -17 -76t-47 -61t-71 -41t-89 -15q-39 0 -74.5 13t-62 35.5t-42.5 51.5t-16 62q0 29 12.5 53t36.5 47t59 46t80 50q-19 23 -32.5 41.5t-22 36.5
t-12.5 36t-4 39q0 37 16.5 69.5t44.5 57t65.5 39t78.5 14.5q31 0 58 -10.5t47.5 -29t32 -43t11.5 -52.5zM351 143q0 24 -11.5 48t-29.5 47.5t-39.5 45t-41.5 40.5q-75 -41 -108 -84.5t-33 -99.5q0 -54 37 -85.5t97 -31.5q28 0 51.5 9t40.5 25t27 38t10 48zM216 542
q0 -21 8.5 -41.5t22 -40t31 -38t35.5 -35.5q21 12 41.5 28t36.5 35.5t25.5 43.5t9.5 53q0 47 -25.5 74t-70.5 27q-24 0 -45 -8t-36 -22.5t-24 -34t-9 -41.5z" />
    <glyph glyph-name="nine" unicode="9" horiz-adv-x="534" 
d="M173 23q39 0 67 18.5t51 54.5t42 88t40 118q-34 -25 -62.5 -34.5t-60.5 -9.5q-37 0 -68.5 14t-55 38.5t-36.5 57.5t-13 72q0 45 22 88.5t57.5 78t80.5 55.5t92 21q83 0 132 -58t49 -158q0 -85 -30 -170t-78 -153.5t-107.5 -111t-119.5 -42.5q-29 0 -54 8t-43 22.5
t-28.5 34t-10.5 42.5q0 37 18 60.5t47 23.5q20 0 34 -14t14 -34q0 -23 -13 -39t-33 -16q-2 0 -4 0.5t-4 0.5q-13 0 -13 -10q0 -17 25 -31.5t63 -14.5zM253 291q32 0 55 9.5t40 26.5q39 40 60.5 97t21.5 119q0 51 -24.5 79t-72.5 28q-47 0 -82 -42q-20 -22 -34 -55.5t-23 -68
t-13.5 -64.5t-4.5 -44q0 -85 77 -85z" />
    <glyph glyph-name="colon" unicode=":" 
d="M172 42q0 -23 -16.5 -39.5t-39.5 -16.5t-39.5 16.5t-16.5 39.5t16.5 40t39.5 17t39.5 -17t16.5 -40zM269 381q0 -23 -16.5 -39.5t-39.5 -16.5t-39.5 16.5t-16.5 39.5t16.5 40t39.5 17t39.5 -17t16.5 -40z" />
    <glyph glyph-name="semicolon" unicode=";" 
d="M16 -120q57 21 86 51.5t29 62.5q0 8 -9 8q-6 0 -13.5 -5t-15.5 -5q-23 0 -38 15.5t-15 37.5q0 23 16.5 39t41.5 16q32 0 51 -23t19 -64q0 -54 -37.5 -98t-104.5 -66zM264 381q0 -23 -16.5 -39.5t-39.5 -16.5t-39.5 16.5t-16.5 39.5t16.5 40t39.5 17t39.5 -17t16.5 -40z
" />
    <glyph glyph-name="less" unicode="&#x3c;" horiz-adv-x="667" 
d="M594 68l-523 222v91l523 221v-73l-466 -194l466 -194v-73z" />
    <glyph glyph-name="equal" unicode="=" horiz-adv-x="667" 
d="M72 496h523v-68h-523v68zM72 245h523v-67h-523v67z" />
    <glyph glyph-name="greater" unicode="&#x3e;" horiz-adv-x="667" 
d="M72 602l523 -222v-91l-523 -221v73l466 193l-466 195v73z" />
    <glyph glyph-name="question" unicode="?" horiz-adv-x="464" 
d="M138 488q1 42 16 80t39.5 67.5t56 46.5t66.5 17q54 0 87.5 -33.5t33.5 -90.5q0 -43 -18 -76.5t-44.5 -61.5t-57.5 -51.5t-57.5 -46t-44.5 -46t-18 -50.5q0 -20 12 -34t31 -14q45 0 64 63l31 -10q-26 -87 -95 -87q-34 0 -55.5 25t-21.5 63q0 36 16 67.5t40.5 60.5t52.5 56
t52.5 54t40.5 55t16 59q0 29 -17.5 46.5t-47.5 17.5t-56.5 -15t-46 -40t-30.5 -56.5t-12 -65.5h-33zM236 42q0 -23 -16.5 -39.5t-39.5 -16.5t-39.5 16.5t-16.5 39.5t16.5 40t39.5 17t39.5 -17t16.5 -40z" />
    <glyph glyph-name="at" unicode="@" horiz-adv-x="1038" 
d="M994 84q-29 -69 -75 -125.5t-106.5 -97t-134 -63t-156.5 -22.5q-101 0 -185.5 33.5t-146.5 94t-96.5 145t-34.5 185.5q0 105 38 194t105 154.5t159 102t199 36.5q89 0 161.5 -26t123.5 -74t79 -116t28 -152q0 -60 -22 -121t-61 -110.5t-93 -80.5t-118 -31q-44 0 -70 23.5
t-26 65.5v9.5t1 12.5q-45 -61 -89 -85t-82 -24q-29 0 -54.5 14.5t-44.5 40t-29.5 59.5t-10.5 74q0 72 29.5 130.5t73 99t92.5 62.5t88 22q40 0 69.5 -24.5t40.5 -75.5l27 87h80l-107 -380q-5 -18 -5 -29q0 -19 10.5 -30t29.5 -11q51 0 94.5 29t75.5 73.5t50 98t18 101.5
q0 77 -25.5 138.5t-72 105t-112 67t-146.5 23.5q-100 0 -183.5 -37.5t-143.5 -101.5t-93.5 -148.5t-33.5 -178.5q0 -90 30.5 -165t85.5 -130t131 -85.5t167 -30.5q79 0 146 20.5t122 57.5t96.5 87t70.5 109h36zM532 481q-26 0 -46 -9t-38 -29q-25 -29 -46.5 -77t-37 -97.5
t-24.5 -91.5t-9 -59q0 -34 17.5 -53.5t49.5 -19.5q31 0 59 17.5t52.5 45.5t44 63t34 71t22 68.5t7.5 56.5q0 54 -24 84t-61 30z" />
    <glyph glyph-name="A" unicode="A" horiz-adv-x="772" 
d="M222 216q-19 -27 -31 -45.5t-18.5 -32t-9 -24t-2.5 -20.5q0 -28 19 -44.5t51 -16.5h38l-10 -33h-313l9 33h10q28 0 52 8.5t47.5 28.5t49 52t57.5 79l361 519h51v-623q0 -35 13.5 -49.5t39.5 -14.5h47l-10 -33h-308l10 33h58q29 0 41 12t12 42v164h-240zM486 284v310
l-217 -310h217z" />
    <glyph glyph-name="B" unicode="B" horiz-adv-x="683" 
d="M156 708h300q46 0 83.5 -11.5t64.5 -33t42 -51t15 -65.5q0 -43 -19 -74t-51.5 -51.5t-75.5 -31.5t-92 -13q37 -8 70 -21.5t58 -34.5t39.5 -50t14.5 -68q0 -61 -30 -100t-73 -62t-89.5 -32t-79.5 -9h-377l9 33h61q18 0 34 14.5t22 35.5l152 537q2 7 3 13.5t1 11.5
q0 30 -47 30h-44zM263 366l-84 -299q-3 -8 -3 -14q0 -20 27 -20h96q42 0 76.5 10.5t55.5 30.5q14 13 26 32t20.5 41t13.5 44t5 42q0 66 -41.5 99.5t-120.5 33.5h-71zM272 398h112q79 0 124 43q25 25 39.5 61.5t14.5 71.5q0 38 -13.5 58.5t-36.5 30t-53.5 11t-63.5 1.5
q-15 0 -24 -1t-14.5 -5t-9 -10.5t-6.5 -18.5z" />
    <glyph glyph-name="C" unicode="C" horiz-adv-x="699" 
d="M615 242q-18 -53 -48 -99.5t-69 -81.5t-85.5 -55.5t-96.5 -20.5q-54 0 -101 22t-81.5 60.5t-54.5 90.5t-20 111q0 50 17 103.5t45.5 104t67.5 95t82.5 78t90 53t91.5 19.5q42 0 77.5 -19t60.5 -54q7 -10 13 -13.5t14 -3.5q13 0 29.5 25t29.5 60h31l-62 -322l-31 -1v54
q0 58 -12 100t-31 71q-21 32 -52 50.5t-73 18.5q-35 0 -65.5 -17t-59.5 -46q-21 -21 -41.5 -54t-39 -72t-35 -82.5t-28 -86.5t-18.5 -83t-7 -72q0 -72 45 -114.5t123 -42.5q43 0 83 17.5t73.5 48t59.5 71t43 87.5h35z" />
    <glyph glyph-name="D" unicode="D" horiz-adv-x="752" 
d="M156 708h279q59 0 110 -22.5t89 -62t60 -93.5t22 -117q0 -75 -32 -144t-89 -127q-71 -74 -152.5 -108t-191.5 -34h-295l9 33h61q18 0 34 14.5t22 35.5l152 537q2 6 3 13t1 12q0 30 -47 30h-44zM183 82q-3 -11 -4.5 -18.5t-1.5 -13.5q0 -9 12 -13t42 -4q53 0 88.5 3.5
t62.5 11.5q44 13 78.5 44.5t61 73t45 88.5t30 92.5t17 85t5.5 65.5q0 89 -48.5 133.5t-151.5 44.5h-15q-31 0 -43.5 -4t-17.5 -23z" />
    <glyph glyph-name="E" unicode="E" horiz-adv-x="686" 
d="M267 381h31q22 0 47.5 7.5t44.5 20.5q37 26 57 65.5t33 83.5h32l-118 -417h-32q8 32 14.5 64t6.5 49q0 44 -21.5 69t-82.5 25h-21l-80 -283q-2 -8 -2 -14q0 -7 5.5 -12.5t19.5 -5.5h119q13 0 37.5 5.5t55 20.5t62.5 42.5t60 72.5q18 28 28.5 50.5t23.5 54.5h32l-79 -279
h-584l9 33h61q18 0 34 14.5t22 35.5l151 537q2 6 3 13t1 12q0 30 -46 30h-45l10 33h545l-64 -271h-32q6 37 8 56t2 40q0 53 -16.5 81.5t-42 42t-57 16t-62.5 2.5h-41q-16 0 -25.5 -1t-15 -5t-9 -12t-7.5 -21z" />
    <glyph glyph-name="F" unicode="F" horiz-adv-x="634" 
d="M156 708h531l-69 -291h-33q4 16 6 27.5t3.5 21.5t2 19.5t0.5 20.5q0 63 -17 97.5t-41 50t-51 18.5t-47 3h-45q-16 0 -25.5 -1.5t-15.5 -7t-10.5 -16.5t-9.5 -29l-70 -248h23q46 0 76.5 18t50 43.5t30.5 53.5t18 48h33l-111 -391h-32q8 32 11.5 49.5t3.5 35.5
q0 110 -88 110h-25l-68 -243q-3 -11 -4 -18t-1 -14q0 -16 12 -24t49 -8h67l-10 -33h-344l9 33h61q18 0 34 14.5t22 35.5l152 537q2 7 3 13.5t1 11.5q0 30 -47 30h-44z" />
    <glyph glyph-name="G" unicode="G" horiz-adv-x="713" 
d="M478 -10q2 14 3 22.5t1 17.5q0 46 -16 46q-6 0 -12 -3.5t-17 -14.5q-74 -68 -155 -68q-47 0 -87.5 22t-70.5 59.5t-47.5 88.5t-17.5 109q0 50 16.5 103.5t45.5 104t67.5 95t82 78t89.5 53t90 19.5q42 0 71 -18t49 -44q10 -12 18.5 -16t18.5 -4q14 0 32.5 21.5t32.5 59.5
h33l-86 -342h-33q4 24 6 44t2 40q0 50 -11 91.5t-30.5 71t-47 46t-61.5 16.5t-63.5 -17.5t-58.5 -46.5q-31 -32 -61.5 -88t-54.5 -120.5t-38.5 -128.5t-14.5 -112q0 -70 35.5 -111t98.5 -41q19 0 39 5.5t39 17.5q33 23 63.5 59t45.5 85l3 12q4 13 5 21t1 13q0 16 -10.5 22.5
t-36.5 6.5h-73l9 32h326l-9 -32h-52q-28 0 -42.5 -13t-24.5 -45l-61 -217h-31v0z" />
    <glyph glyph-name="H" unicode="H" horiz-adv-x="755" 
d="M542 708h306l-10 -33h-34q-38 0 -55.5 -9.5t-25.5 -35.5l-154 -546q-3 -9 -3 -19q0 -32 46 -32h45l-10 -33h-306l10 33h60q18 0 34 14.5t22 35.5l75 266h-284l-74 -265q-3 -9 -3 -19q0 -32 46 -32h44l-9 -33h-306l9 33h61q18 0 34 14.5t22 35.5l152 537q2 7 3 13.5
t1 11.5q0 30 -47 30h-44l9 33h306l-9 -33h-34q-38 0 -55.5 -9.5t-25.5 -35.5l-71 -249h284l68 239q4 12 4 25q0 30 -46 30h-45z" />
    <glyph glyph-name="I" unicode="I" horiz-adv-x="370" 
d="M156 708h306l-9 -33h-34q-38 0 -55.5 -9.5t-25.5 -35.5l-154 -546q-3 -9 -3 -19q0 -32 46 -32h44l-9 -33h-306l9 33h61q18 0 34 14.5t22 35.5l152 537q2 7 3 13.5t1 11.5q0 30 -47 30h-44z" />
    <glyph glyph-name="J" unicode="J" horiz-adv-x="520" 
d="M287 708h332l-9 -33h-50q-53 0 -67 -52l-122 -429q-13 -45 -37 -83t-55.5 -65t-69 -42.5t-76.5 -15.5q-32 0 -59 9.5t-47 26.5t-31.5 40.5t-11.5 51.5q0 52 25.5 82.5t63.5 30.5q25 0 41 -17t16 -43q0 -24 -18 -41t-50 -22q-33 -4 -33 -20q0 -23 27 -43t68 -20
q36 0 60.5 17.5t42 46t29 63t21.5 69.5l106 376q11 35 11 49q0 31 -39 31h-78z" />
    <glyph glyph-name="K" unicode="K" horiz-adv-x="780" 
d="M834 708l-9 -33h-26q-40 0 -77 -19t-72 -50l-207 -184l127 -324q8 -21 15.5 -34t17.5 -19.5t24.5 -9t35.5 -2.5h25l-9 -33h-318l10 33h57q20 0 32 9t12 25q0 10 -3 18l-104 267l-141 -125l-40 -143q-3 -9 -3 -19q0 -32 46 -32h44l-9 -33h-306l9 33h61q18 0 34 14.5
t22 35.5l152 537q2 7 3 13.5t1 11.5q0 30 -47 30h-44l9 33h306l-9 -33h-34q-38 0 -55.5 -9.5t-25.5 -35.5l-97 -345l293 262q25 23 36 41.5t11 38.5q0 22 -19 35t-52 13h-12l9 33h327z" />
    <glyph glyph-name="L" unicode="L" horiz-adv-x="655" 
d="M156 708h306l-9 -33h-34q-38 0 -55.5 -9.5t-25.5 -35.5l-154 -546q-5 -14 -6 -20t-1 -14q0 -17 31 -17h75q28 0 59 10t60.5 27t56 41t47.5 53q19 26 34.5 52.5t36.5 66.5h30l-85 -283h-566l9 33h61q18 0 34 14.5t22 35.5l152 537q2 7 3 13.5t1 11.5q0 30 -47 30h-44z" />
    <glyph glyph-name="M" unicode="M" horiz-adv-x="958" 
d="M384 708l59 -578l379 578h228l-9 -33h-43q-18 0 -30.5 -3t-21.5 -11t-15.5 -22.5t-12.5 -36.5l-141 -498q-7 -24 -7 -43q0 -21 21.5 -24.5t63.5 -3.5h4l-9 -33h-324l9 33h62q32 0 49.5 15t28.5 54l160 566l-439 -671h-37l-68 665l-131 -460q-5 -16 -8.5 -38t-3.5 -42
q0 -47 21 -68t69 -21h25l-10 -33h-297l9 33h5q39 0 64.5 14.5t43 38.5t28 54t19.5 62l112 393q3 11 4 20.5t1 19.5q0 40 -55 40h-40l9 33h228z" />
    <glyph glyph-name="N" unicode="N" horiz-adv-x="782" 
d="M341 708l221 -560l101 353q10 37 10 70q0 49 -27 76.5t-75 27.5h-18l9 33h308l-9 -33h-20q-30 0 -50 -11q-35 -18 -53.5 -52.5t-29.5 -72.5l-155 -546h-34l-244 616l-110 -390q-14 -48 -14 -80q0 -49 30.5 -77.5t84.5 -28.5h30l-9 -33h-331l9 33h6q45 0 83 33
q20 17 37 46t29 70l118 416q2 8 2 17q0 29 -18 44.5t-53 15.5h-22l10 33h184z" />
    <glyph glyph-name="O" unicode="O" horiz-adv-x="740" 
d="M285 -15q-48 0 -89.5 21.5t-72 59.5t-47.5 89.5t-17 111.5q0 54 16.5 109t46 105.5t68.5 94.5t84.5 76.5t94.5 51t98 18.5q51 0 92.5 -21t71 -59t45.5 -90.5t16 -116.5q0 -54 -16.5 -108t-45.5 -104t-68.5 -93.5t-84.5 -75.5t-94 -50.5t-98 -18.5zM289 18q26 0 54 9.5
t56 30.5t54 54.5t49 81.5q9 19 25.5 60.5t33 91t28.5 99.5t12 86q0 75 -37 116t-103 41q-41 0 -76.5 -18t-65.5 -50q-29 -30 -52 -70.5t-42 -85.5t-32.5 -90.5t-22.5 -85.5t-13.5 -71.5t-4.5 -46.5q0 -30 8 -57.5t25 -48.5t43 -33.5t61 -12.5z" />
    <glyph glyph-name="P" unicode="P" horiz-adv-x="658" 
d="M255 337l-68 -241q-2 -10 -4 -18t-2 -14q0 -31 39 -31h81l-9 -33h-336l9 33h61q18 0 34 14.5t22 35.5l152 537q2 6 3 13t1 12q0 30 -47 30h-44l9 33h307q48 0 87.5 -12t68 -34t44 -52.5t15.5 -67.5q0 -31 -13 -59t-36 -54q-43 -48 -107.5 -70t-161.5 -22h-105zM264 370
h107q90 0 142 50q26 26 41 67t15 86q0 24 -8.5 44.5t-28.5 34.5q-18 13 -38.5 18t-60.5 5h-20q-21 0 -33.5 -0.5t-19.5 -3t-10.5 -7t-5.5 -12.5z" />
    <glyph glyph-name="Q" unicode="Q" horiz-adv-x="740" 
d="M285 -15q-48 0 -89.5 21.5t-72 59.5t-47.5 89.5t-17 111.5q0 54 16.5 109t46 105.5t68.5 94.5t84.5 76.5t94.5 51t98 18.5q51 0 92.5 -21t71 -59t45.5 -90.5t16 -116.5q0 -68 -26 -136t-69.5 -126.5t-100 -103.5t-117.5 -67l3 -49q3 -44 7.5 -73t12.5 -46t20.5 -24.5
t30.5 -7.5q36 0 76 43t72 121h31q-17 -44 -38 -82t-47 -65.5t-58 -43t-70 -15.5q-57 0 -90.5 29.5t-33.5 80.5q0 39 4.5 65.5t9.5 50.5q-6 -1 -12 -1h-12zM277 172q36 0 62.5 -28t35.5 -102q34 20 66.5 56.5t60.5 95.5q9 19 25.5 60.5t33 91t28.5 99.5t12 86q0 75 -37 116
t-103 41q-41 0 -76.5 -18t-65.5 -50q-29 -30 -52 -70.5t-42 -85.5t-32.5 -90.5t-22.5 -85.5t-13.5 -71.5t-4.5 -46.5q0 -30 7.5 -57.5t24.5 -47.5v8q0 21 7 39t20 31.5t29.5 21t36.5 7.5zM289 18q6 0 12.5 0.5t13.5 1.5q4 23 4 57q0 57 -47 57q-23 0 -39.5 -17.5
t-16.5 -43.5q0 -25 10 -42q26 -13 63 -13z" />
    <glyph glyph-name="R" unicode="R" horiz-adv-x="701" 
d="M156 708h280q62 0 102.5 -14.5t69.5 -43.5q46 -46 46 -107q0 -44 -25.5 -79.5t-73.5 -57.5q-37 -17 -79 -26.5t-85 -14.5q29 -8 52 -20.5t39.5 -32t25.5 -49t9 -72.5q0 -18 -3 -37t-6 -36.5t-6 -32.5t-3 -27q0 -27 26 -27q30 0 54 32.5t37 85.5h33q-8 -31 -19.5 -59
t-29.5 -49t-43.5 -33.5t-59.5 -12.5q-45 0 -72.5 25.5t-27.5 66.5q0 21 5.5 43.5t12 45.5t12 45.5t5.5 42.5q0 42 -27 65.5t-75 23.5h-70l-76 -269q-3 -9 -3 -19q0 -32 46 -32h44l-9 -33h-306l9 33h61q18 0 34 14.5t22 35.5l151 537q2 6 3 13t1 12q0 30 -46 30h-45zM269 386
h70q54 0 92.5 12t64.5 35t41.5 64.5t15.5 85.5q0 34 -13 53t-33 27.5t-43 10t-42 1.5h-25q-32 0 -41 -6.5t-14 -25.5z" />
    <glyph glyph-name="S" unicode="S" horiz-adv-x="632" 
d="M117 325q-4 -26 -5.5 -42t-1.5 -31q0 -52 14.5 -95t40.5 -74t62.5 -48t80.5 -17q30 0 56 9.5t45.5 25.5t30.5 37.5t11 46.5q0 28 -8 50t-25 42t-44.5 40.5t-66.5 46.5q-41 27 -70 51.5t-47 50t-26.5 53.5t-8.5 62q0 37 16.5 71t44 59.5t64 40.5t76.5 15q43 0 72.5 -10
t57.5 -33q15 -12 26.5 -18t26.5 -6q16 0 29 15t27 51h30l-72 -309h-31q5 29 7 45.5t2 35.5q0 44 -12.5 80.5t-35.5 62t-55.5 39.5t-72.5 14q-30 0 -55 -9.5t-43 -25.5t-28 -36.5t-10 -42.5q0 -45 33.5 -77.5t98.5 -73.5q39 -24 70 -49t53.5 -52.5t34.5 -60t12 -72.5
q0 -44 -17.5 -81t-46.5 -64t-68 -42t-81 -15q-50 0 -89.5 17.5t-71.5 49.5q-12 12 -21 19t-22 7q-19 0 -40.5 -24.5t-42.5 -68.5l-31 -1l96 341h31z" />
    <glyph glyph-name="T" unicode="T" horiz-adv-x="747" 
d="M168 708h650l-67 -258h-31q2 19 3.5 38t1.5 35q0 81 -35 116.5t-114 35.5q-15 0 -24 -1.5t-14.5 -7t-9 -17t-9.5 -31.5l-147 -518q-2 -8 -4 -19t-2 -19q0 -29 37 -29h87l-10 -33h-375l10 33h80q32 0 48 14t27 52l152 537q4 12 4 22q0 17 -34 17q-61 0 -114 -29t-101 -95
q-35 -45 -55 -101h-32z" />
    <glyph glyph-name="U" unicode="U" horiz-adv-x="771" 
d="M152 708h306l-9 -33h-48q-16 0 -27.5 -4t-20.5 -14t-16.5 -26.5t-14.5 -40.5l-113 -401q-7 -25 -7 -50q0 -53 38 -84.5t101 -31.5q88 0 153 60.5t96 169.5l75 262q5 19 7.5 37t2.5 32q0 45 -23.5 68t-68.5 23h-35l9 33h312l-10 -33h-26q-24 0 -40 -5.5t-33 -22.5t-32 -50
t-25 -69l-81 -286q-35 -121 -110.5 -188.5t-179.5 -67.5q-48 0 -89 13.5t-70.5 37.5t-46.5 56.5t-17 70.5q0 17 2.5 33.5t7.5 33.5l107 378q6 21 6 41q0 25 -35 25h-54z" />
    <glyph glyph-name="V" unicode="V" horiz-adv-x="709" 
d="M314 104l260 424q32 52 32 86q0 28 -19 44.5t-52 16.5h-27l9 33h293l-10 -33h-29q-18 0 -34 -5t-32.5 -18.5t-35 -37t-41.5 -61.5l-359 -585h-53v667q0 40 -37 40h-45l10 33h292l-9 -33h-45q-22 0 -35 -2.5t-20.5 -10.5t-10 -22t-2.5 -36v-500z" />
    <glyph glyph-name="W" unicode="W" horiz-adv-x="1006" 
d="M314 113l244 456v61q0 45 -33 45h-46l9 33h261l-9 -33h-21q-38 0 -50.5 -9.5t-12.5 -38.5v-510l227 426q10 18 16.5 40.5t6.5 39.5q0 25 -15 38.5t-41 13.5h-30l9 33h277l-9 -33h-23q-27 0 -47 -7t-37 -23.5t-34 -43t-38 -64.5l-303 -569h-57v531l-285 -532h-57v661
q0 47 -32 47h-50l10 33h266l-9 -33h-37q-28 0 -39 -12t-11 -43v-507z" />
    <glyph glyph-name="X" unicode="X" horiz-adv-x="821" 
d="M478 675h-46q-12 0 -20.5 -7t-8.5 -18q0 -10 3 -17l73 -206l117 123q17 18 24.5 36t7.5 37q0 22 -16.5 37t-39.5 15h-38l9 33h322l-10 -33h-25q-37 0 -78.5 -26.5t-85.5 -72.5l-174 -184l110 -309q8 -23 27 -36.5t43 -13.5h51l-9 -33h-315l9 33h44q48 0 48 30
q0 8 -0.5 14.5t-3.5 14.5l-87 239l-126 -134q-28 -29 -38 -51.5t-10 -45.5q0 -19 5.5 -31.5t19 -20.5t36 -11.5t56.5 -3.5l-9 -33h-387l9 33h19q28 0 52 5.5t50 21t56.5 43t71.5 70.5l182 192l-96 266q-16 44 -62 44h-53l9 33h293z" />
    <glyph glyph-name="Y" unicode="Y" horiz-adv-x="710" 
d="M330 650q0 -7 1 -14.5t3 -15.5l75 -259l144 183q37 48 37 82q0 49 -72 49h-11l10 33h296l-9 -33h-29q-18 0 -35 -5t-37 -17q-44 -28 -104 -104l-179 -226l-65 -230q-4 -13 -4 -29q0 -31 37 -31h68l-9 -33h-338l9 33h66q53 0 67 52l67 236l-84 294q-9 33 -25.5 46.5
t-47.5 13.5h-32l10 33h303l-9 -33h-49q-54 0 -54 -25z" />
    <glyph glyph-name="Z" unicode="Z" horiz-adv-x="697" 
d="M30 21l520 654h-129q-32 0 -69.5 -13.5t-69.5 -35.5q-55 -36 -93 -92t-66 -122h-31l91 296h503l-9 -29l-512 -646h136q121 0 203.5 75t131.5 205h31l-90 -313h-553z" />
    <glyph glyph-name="bracketleft" unicode="[" horiz-adv-x="469" 
d="M239 -192h-197l254 900h198l-10 -33h-53q-35 0 -54.5 -12.5t-27.5 -41.5l-205 -725q-2 -5 -2.5 -10.5t-0.5 -10.5q0 -18 13.5 -26.5t43.5 -8.5h50z" />
    <glyph glyph-name="backslash" unicode="\" horiz-adv-x="366" 
d="M144 718h51l43 -964h-51z" />
    <glyph glyph-name="bracketright" unicode="]" horiz-adv-x="444" 
d="M230 708h198l-255 -900h-197l9 32h53q35 0 54.5 13t27.5 42l205 724q3 10 3 22q0 18 -13.5 26t-43.5 8h-50z" />
    <glyph glyph-name="asciicircum" unicode="^" horiz-adv-x="469" 
d="M234 654l-160 -269h-71l209 349h44l209 -349h-70z" />
    <glyph glyph-name="underscore" unicode="_" horiz-adv-x="500" 
d="M509 -228h-517v65h517v-65z" />
    <glyph glyph-name="quoteleft" unicode="&#x2018;" horiz-adv-x="339" 
d="M307 676q-57 -21 -86.5 -51.5t-29.5 -62.5q0 -8 10 -8q6 0 13.5 4.5t15.5 4.5q23 0 38 -15t15 -37q0 -23 -16.5 -39t-41.5 -16q-32 0 -51 23t-19 63q0 54 37.5 98t104.5 67z" />
    <glyph glyph-name="a" unicode="a" horiz-adv-x="617" 
d="M315 493q40 0 69.5 -24.5t40.5 -75.5l28 87h79l-110 -390q-5 -18 -5 -29q0 -14 7.5 -23t20.5 -9q26 0 56 36.5t59 105.5h35q-37 -96 -80 -139t-93 -43q-36 0 -58 23.5t-22 64.5v23q-44 -61 -88.5 -85.5t-82.5 -24.5q-29 0 -54.5 14.5t-44 40t-29 59.5t-10.5 74
q0 73 29.5 131t72.5 99t92 63t88 22zM311 459q-26 0 -46 -8.5t-37 -29.5q-26 -29 -47.5 -76.5t-37 -97t-24.5 -91.5t-9 -60q0 -34 17.5 -53.5t49.5 -19.5q31 0 59.5 17.5t52.5 45.5t44 63t34 71t21.5 69t7.5 56q0 54 -24 84t-61 30z" />
    <glyph glyph-name="b" unicode="b" horiz-adv-x="537" 
d="M112 708h45q24 0 60 3t73 8l-82 -286q32 29 66 45.5t73 16.5q32 0 59.5 -16t48 -44t32 -66.5t11.5 -82.5q0 -53 -26 -106t-67.5 -95t-93.5 -68.5t-104 -26.5q-70 0 -111.5 44.5t-41.5 120.5q0 13 1.5 26.5t5 30.5t9.5 39.5t15 55.5l87 307q4 13 4 29t-8 24t-37 8h-28z
M343 461q-45 0 -87 -34.5t-75 -108.5q-12 -27 -21.5 -56.5t-16 -57t-10 -50.5t-3.5 -36q0 -45 19.5 -70t57.5 -25q40 0 76.5 29.5t61.5 77.5q13 27 26 60.5t22.5 67.5t15.5 63.5t6 49.5q0 44 -17.5 67t-54.5 23z" />
    <glyph glyph-name="c" unicode="c" horiz-adv-x="446" 
d="M418 180q-11 -38 -34 -72.5t-53 -60.5t-65 -41.5t-71 -15.5q-35 0 -64.5 15t-51.5 40.5t-34 60.5t-12 76q0 37 11.5 74.5t31 72.5t46.5 65.5t57.5 53t63.5 35.5t66 13q51 0 81.5 -28.5t30.5 -76.5q0 -28 -16.5 -46.5t-41.5 -18.5q-21 0 -34.5 12.5t-13.5 32.5q0 19 21 40
q15 13 15 23q0 14 -12 21t-32 7q-34 0 -61 -21.5t-48 -55.5t-36 -75t-24.5 -80t-14 -71t-4.5 -48q0 -42 20.5 -65t58.5 -23q30 0 58.5 13t53.5 35t44 50.5t29 58.5h35z" />
    <glyph glyph-name="d" unicode="d" horiz-adv-x="617" 
d="M315 493q38 0 66 -21.5t42 -67.5l59 210q5 17 5 29q0 16 -8.5 24t-37.5 8h-28l9 33h45q25 0 61 3t72 8l-178 -629q-5 -18 -5 -29q0 -14 7.5 -23t20.5 -9q26 0 56 36.5t59 105.5h35q-37 -96 -80 -139t-93 -43q-36 0 -58 23.5t-22 64.5v23q-44 -61 -88.5 -85.5t-82.5 -24.5
q-29 0 -54.5 14.5t-44 40t-29 59.5t-10.5 74q0 73 29.5 131t72.5 99t92 63t88 22zM311 459q-26 0 -46 -8.5t-37 -29.5q-26 -29 -47.5 -76.5t-37 -97t-24.5 -91.5t-9 -60q0 -34 17.5 -53.5t49.5 -19.5q31 0 59.5 17.5t52.5 45.5t44 63t34 71t21.5 69t7.5 56q0 54 -24 84
t-61 30z" />
    <glyph glyph-name="e" unicode="e" horiz-adv-x="463" 
d="M426 390q0 -44 -24.5 -76.5t-65 -55.5t-94 -38t-111.5 -24q-11 -46 -11 -76q0 -44 26.5 -70.5t71.5 -26.5q63 0 109 36t68 91h36q-26 -71 -82.5 -115.5t-136.5 -44.5q-39 0 -72 13.5t-57 38t-37 58t-13 74.5q0 55 25 112t64 103t87.5 75t95.5 29q57 0 89 -27.5t32 -75.5z
M196 379q-15 -26 -30.5 -66.5t-26.5 -83.5q56 10 94 26t73 44q30 24 44 49.5t14 51.5q0 27 -16.5 44t-43.5 17t-56.5 -22t-51.5 -60z" />
    <glyph glyph-name="f" unicode="f" horiz-adv-x="329" 
d="M151 480q14 49 32 93t41.5 77t53.5 52.5t69 19.5q48 0 76 -26t28 -68q0 -24 -14 -40t-36 -16q-18 0 -29.5 10.5t-11.5 28.5q0 10 3.5 17t12.5 18q7 8 7 17q0 25 -37 25q-26 0 -47.5 -22t-36.5 -88l-22 -98h96l-9 -33h-95l-68 -285q-32 -132 -63 -211.5t-62.5 -121.5
t-63 -55.5t-64.5 -13.5q-45 0 -75 27.5t-30 69.5q0 26 16.5 45.5t39.5 19.5q20 0 31.5 -11.5t11.5 -30.5q0 -10 -4.5 -19.5t-15.5 -17.5q-9 -7 -12 -11.5t-3 -9.5q0 -11 11 -20t34 -9t42 11.5t35 39.5t31 76t31 120l90 407h-90l9 33h88z" />
    <glyph glyph-name="g" unicode="g" horiz-adv-x="553" 
d="M239 -176q25 26 45 87.5t47 171.5q-44 -51 -82.5 -72t-76.5 -21q-28 0 -53.5 13.5t-44.5 38t-30 58.5t-11 76q0 67 25 124.5t65 100.5t89.5 67.5t99.5 24.5q45 0 73 -21.5t39 -61.5l20 70h88l-145 -511q-9 -32 -19 -55.5t-21 -42t-24 -33.5t-29 -30q-54 -48 -122 -48
q-28 0 -52 8t-41.5 22t-27.5 34t-10 43q0 26 16 44.5t39 18.5q19 0 32 -12t13 -29q0 -28 -22 -39q-14 -8 -18 -13t-4 -10q0 -13 20 -23t49 -10q20 0 39.5 7.5t33.5 22.5zM178 23q33 0 62.5 19t54 49t44 67.5t33 75t20.5 71t7 56.5q0 44 -24 71t-64 27q-24 0 -44 -8t-38 -29
q-20 -22 -40 -60t-36 -82.5t-26 -89.5t-10 -81q0 -38 14 -62t47 -24z" />
    <glyph glyph-name="h" unicode="h" horiz-adv-x="592" 
d="M15 0l173 614q5 17 5 29q0 16 -8.5 24t-37.5 8h-28l9 33h45q25 0 61 3t72 8l-109 -383q51 86 98 121.5t87 35.5q47 0 75.5 -34t28.5 -93q0 -44 -14.5 -86.5t-32.5 -81.5t-32.5 -73.5t-14.5 -62.5q0 -30 29 -30q31 0 62 37t53 102h34q-23 -86 -68.5 -131.5t-93.5 -45.5
q-42 0 -66 24t-24 68q0 47 16 92.5t34.5 86.5t34.5 76.5t16 63.5q0 51 -44 51q-17 0 -42.5 -14t-55.5 -50t-64 -97.5t-67 -157.5l-48 -137h-83z" />
    <glyph glyph-name="i" unicode="i" horiz-adv-x="355" 
d="M5 312q64 180 159 180q42 0 67 -26.5t25 -74.5q0 -42 -15.5 -88.5t-34.5 -91.5t-34.5 -84.5t-15.5 -66.5q0 -14 6 -22.5t17 -8.5q29 0 63 36t56 104h35q-27 -87 -72 -133t-99 -46q-38 0 -59 24.5t-21 68.5q0 46 16 95t35.5 94t36 83.5t16.5 62.5q0 19 -9.5 27.5
t-23.5 8.5q-26 0 -57 -35.5t-56 -106.5h-35zM201 644q0 24 17 40.5t40 16.5q24 0 40.5 -16.5t16.5 -40.5t-16.5 -40.5t-40.5 -16.5q-23 0 -40 16.5t-17 40.5z" />
    <glyph glyph-name="j" unicode="j" horiz-adv-x="297" 
d="M5 327q23 82 63 131t85 49q44 0 69 -39t25 -111q0 -48 -9.5 -106.5t-26 -120t-38.5 -121t-47 -107.5q-36 -73 -80.5 -107.5t-101.5 -34.5q-48 0 -79 29.5t-31 75.5q0 25 15.5 41.5t38.5 16.5q20 0 33 -13.5t13 -31.5q0 -13 -4 -21.5t-14 -18.5q-12 -11 -12 -22
q0 -24 41 -24q28 0 51.5 20.5t46.5 80.5q5 11 17 47.5t27 86.5t31 108t29.5 112.5t22.5 99.5t9 70q0 53 -33 53q-15 0 -30.5 -11.5t-29.5 -31t-26 -45.5t-20 -55h-35zM167 644q0 24 17 40.5t41 16.5q23 0 40 -16.5t17 -40.5t-17 -40.5t-40 -16.5q-24 0 -41 16.5t-17 40.5z
" />
    <glyph glyph-name="k" unicode="k" horiz-adv-x="529" 
d="M15 0l173 614q5 17 5 29q0 16 -8.5 24t-37.5 8h-28l9 33h45q25 0 61 3t72 8l-126 -446h28q22 0 38.5 9t30 23.5t24 33.5t21.5 40q27 55 54 85t65 30q39 0 62.5 -22.5t23.5 -60.5q0 -27 -15.5 -45t-40.5 -18q-17 0 -27.5 10.5t-10.5 26.5q0 20 8 35t8 24q0 14 -13 14
q-19 0 -38.5 -21t-44.5 -72q-14 -27 -25.5 -46t-23.5 -32t-25.5 -22t-31.5 -16q40 -19 57.5 -56.5t18.5 -88.5q0 -32 6 -49.5t23 -17.5q27 0 58 35.5t54 95.5h36q-15 -39 -33.5 -71t-40.5 -55.5t-49.5 -36t-60.5 -12.5q-42 0 -67.5 23t-25.5 63q0 15 3.5 28.5t7.5 25.5
t7.5 24t3.5 25q0 27 -11.5 42.5t-34.5 15.5h-28l-68 -240h-88z" />
    <glyph glyph-name="l" unicode="l" horiz-adv-x="323" 
d="M300 171q-16 -47 -37 -81.5t-44 -57t-47.5 -33t-48.5 -10.5q-35 0 -55 21t-20 67q0 41 17 103l123 434q4 13 4 29t-8 24t-37 8h-28l9 33h45q25 0 60.5 3t72.5 8l-171 -601q-10 -34 -10 -56q0 -33 21 -33q26 0 61 36.5t58 105.5h35v0z" />
    <glyph glyph-name="m" unicode="m" horiz-adv-x="927" 
d="M529 376q0 -9 -1.5 -20.5t-3.5 -25.5q50 91 93.5 127.5t84.5 36.5q50 0 80 -32.5t30 -89.5q0 -45 -14.5 -88t-32.5 -82.5t-32.5 -74.5t-14.5 -63q0 -32 29 -32q34 0 67.5 37.5t56.5 101.5h34q-12 -43 -31 -76t-41.5 -55.5t-48.5 -34t-51 -11.5q-41 0 -64 24t-23 68
q0 49 15.5 95.5t34.5 89t34.5 79t15.5 65.5q0 46 -47 46q-16 0 -39 -14t-50.5 -48.5t-58.5 -94.5t-64 -151l-54 -153h-82l95 338q11 39 14 54t3 25q0 44 -38 44q-17 0 -40 -13.5t-51.5 -48t-60.5 -94t-65 -152.5l-54 -153h-82l95 337q11 42 14.5 58.5t3.5 27.5q0 34 -24 34
q-14 0 -30 -11t-31.5 -30.5t-30.5 -46t-25 -58.5h-35q12 40 30.5 74t40 58.5t44.5 38t45 13.5q25 0 41 -9.5t25.5 -25t13 -36t3.5 -42.5q0 -21 -6 -54q52 91 96.5 128.5t85.5 37.5q49 0 75 -31t26 -87z" />
    <glyph glyph-name="n" unicode="n" horiz-adv-x="649" 
d="M254 387q0 -12 -1.5 -28t-5.5 -36q52 93 101 131.5t90 38.5q48 0 76 -34t28 -93q0 -44 -14.5 -86.5t-32 -81.5t-32 -73.5t-14.5 -62.5q0 -30 29 -30q31 0 62 37t53 102h34q-24 -86 -69 -131.5t-94 -45.5q-42 0 -65.5 24t-23.5 68q0 47 16 92.5t34.5 86.5t34.5 76.5
t16 63.5q0 26 -12 38.5t-32 12.5q-17 0 -42.5 -14t-56 -50t-64 -97.5t-66.5 -157.5l-49 -137h-83l100 352q11 35 13.5 49t2.5 23q0 31 -27 31q-31 0 -63.5 -36t-52.5 -94h-35q11 38 29 69t40 53.5t46.5 34.5t49.5 12q24 0 39.5 -9t24.5 -23.5t12.5 -34t3.5 -40.5z" />
    <glyph glyph-name="o" unicode="o" horiz-adv-x="538" 
d="M210 -10q-41 0 -73.5 19t-55.5 51t-35.5 73.5t-12.5 85.5q0 51 24 100.5t63 88t89 62t102 23.5q40 0 74 -16.5t59 -45.5t38.5 -69t13.5 -88q0 -56 -27 -107.5t-69 -90.5t-92.5 -62.5t-97.5 -23.5zM210 23q33 0 60.5 17.5t49.5 45.5t38.5 63t27.5 70.5t16.5 67.5t5.5 55
q0 56 -25.5 87t-73.5 31q-32 0 -59 -17.5t-48.5 -46t-37.5 -64t-27 -71t-16.5 -68t-5.5 -53.5q0 -30 8 -52t21.5 -36.5t30.5 -21.5t35 -7z" />
    <glyph glyph-name="p" unicode="p" horiz-adv-x="613" 
d="M299 -10q-43 0 -72.5 22t-43.5 72l-59 -214q-4 -11 -5.5 -21.5t-1.5 -16.5q0 -33 39 -33h61l-9 -33h-294l9 33h38q55 0 71 59l140 495q5 17 7.5 34t2.5 30q0 36 -21 36q-14 0 -29.5 -9.5t-31.5 -26.5t-30.5 -40.5t-25.5 -50.5h-35q13 37 31.5 68t40.5 53.5t46 35t47 12.5
q40 0 58.5 -28t18.5 -79v-12q39 62 78.5 89t86.5 27q35 0 64 -15.5t49.5 -43t31.5 -66.5t11 -85q0 -54 -23.5 -106.5t-62 -94t-87.5 -66.5t-100 -25zM410 460q-28 0 -53.5 -16.5t-47.5 -43.5t-40.5 -61.5t-31.5 -70.5t-20 -70.5t-7 -61.5q0 -53 25.5 -83t63.5 -30
q40 0 73 27.5t59 86.5q13 30 24 63t18.5 64.5t11.5 58.5t4 46q0 14 -3.5 30t-12 29.5t-24 22.5t-39.5 9z" />
    <glyph glyph-name="q" unicode="q" horiz-adv-x="553" 
d="M322 493q40 0 67.5 -21t41.5 -69q22 22 39.5 46t34.5 56h34l-183 -647q-2 -7 -3 -13t-1 -12q0 -34 42 -34h50l-9 -33h-302l10 33h55q54 0 71 59l58 207q-37 -38 -73 -56.5t-69 -18.5q-32 0 -60 15t-48.5 42t-32 63t-11.5 78q0 47 15 88.5t39 75t55 60t63 44.5t62.5 27.5
t54.5 9.5zM367 208q9 30 15 53t9.5 42t5 35t1.5 32q0 42 -21 65.5t-61 23.5q-23 0 -42 -11.5t-38 -30.5q-22 -21 -44.5 -63t-41 -88.5t-30 -90t-11.5 -68.5q0 -39 20.5 -61.5t60.5 -22.5q25 0 50.5 14.5t49.5 39.5t44 58.5t33 72.5z" />
    <glyph glyph-name="r" unicode="r" horiz-adv-x="485" 
d="M72 0l99 352q11 37 13.5 51.5t2.5 24.5q0 29 -28 29q-13 0 -28.5 -10t-31.5 -27.5t-30.5 -41.5t-24.5 -52h-35q13 37 30.5 68t38.5 53.5t44.5 35t48.5 12.5t41 -9t25.5 -24t13 -34.5t3.5 -40.5q0 -16 -3 -38q23 45 48 77q29 38 54 53.5t55 15.5q39 0 63 -22.5t24 -59.5
q0 -29 -16 -45t-40 -16q-18 0 -30.5 11.5t-12.5 25.5q0 15 13 31q6 7 8 12t2 9q0 18 -21 18q-38 0 -89 -73.5t-97 -212.5l-57 -173h-83z" />
    <glyph glyph-name="s" unicode="s" horiz-adv-x="453" 
d="M116 166q0 -40 -43 -51q-16 -4 -16 -17q0 -12 8.5 -25t24.5 -24.5t38.5 -18.5t49.5 -7q28 0 52 8t42 21.5t28 32t10 40.5q0 30 -24.5 49t-78.5 45q-51 24 -75.5 52.5t-24.5 66.5q0 34 13.5 62.5t36.5 49.5t53.5 33t64.5 12q29 0 54.5 -8.5t44 -24.5t29.5 -37.5t11 -48.5
q0 -26 -15 -41t-38 -15q-19 0 -31.5 11.5t-12.5 28.5q0 24 29 41q8 5 10 8.5t2 7.5q0 16 -23 30.5t-62 14.5q-23 0 -42.5 -7t-33.5 -18t-22.5 -26t-8.5 -31q0 -25 17 -41.5t63 -36.5q19 -8 41 -19.5t41 -27.5t31.5 -38t12.5 -51q0 -39 -15 -71t-41.5 -55.5t-62.5 -36.5
t-77 -13q-36 0 -66.5 10t-52.5 29t-34.5 45t-12.5 59q0 36 18.5 55t45.5 19q19 0 30.5 -11.5t11.5 -29.5z" />
    <glyph glyph-name="t" unicode="t" horiz-adv-x="346" 
d="M324 171q-34 -94 -83 -138t-108 -44q-39 0 -61.5 21t-22.5 67q0 21 4 47t12 56l76 267h-79l9 33h79l39 140h88l-39 -140h99l-9 -33h-99l-96 -339q-5 -16 -7 -28t-2 -21q0 -16 7.5 -25.5t22.5 -9.5q14 0 32 9.5t37 28.5t36 46t30 63h35z" />
    <glyph glyph-name="u" unicode="u" horiz-adv-x="646" 
d="M394 107q0 21 3 50q-42 -79 -87 -123.5t-100 -44.5q-51 0 -82 39.5t-31 99.5q0 42 14.5 83t32 79t32 71.5t14.5 59.5q0 17 -7 26.5t-23 9.5q-33 0 -65.5 -40t-54.5 -107h-35q26 84 69 133.5t94 49.5q42 0 66.5 -28t24.5 -71q0 -46 -15.5 -91.5t-33.5 -87t-33.5 -77.5
t-15.5 -62t15 -40t41 -14q24 0 49.5 17t52.5 54.5t55 97t57 145.5l48 144h83l-97 -342q-8 -29 -11.5 -46t-3.5 -30q0 -14 7 -23.5t19 -9.5q28 0 56 34.5t51 100.5h36q-29 -85 -67.5 -129t-82.5 -44q-36 0 -55.5 28t-19.5 88z" />
    <glyph glyph-name="v" unicode="v" horiz-adv-x="532" 
d="M5 316q28 85 68 129.5t92 44.5q37 0 60 -28t23 -73q0 -50 -15 -93.5t-33 -81.5t-33 -70.5t-15 -60.5q0 -58 58 -58q30 0 59 17t55.5 45t48.5 63.5t38.5 71.5t25.5 69.5t9 58.5q0 18 -7.5 27t-29.5 14q-33 6 -33 48q0 23 14.5 37.5t37.5 14.5q27 0 45 -25.5t18 -63.5
q0 -44 -11 -91.5t-31 -93t-47 -87t-59 -72.5t-67 -49.5t-71 -18.5q-56 0 -87.5 35t-31.5 95q0 44 15 86.5t33.5 81t33.5 71.5t15 58q0 16 -7.5 26.5t-21.5 10.5q-31 0 -61 -36t-53 -102h-35v0z" />
    <glyph glyph-name="w" unicode="w" horiz-adv-x="800" 
d="M5 310q26 92 68 137.5t93 45.5q38 0 61.5 -30t23.5 -76q0 -44 -14.5 -86.5t-32 -81.5t-32 -73t-14.5 -59q0 -29 14 -46t39 -17q23 0 46 17t47.5 54.5t50.5 97t55 143.5l48 144h84l-89 -311q-10 -35 -13.5 -53.5t-3.5 -32.5q0 -58 50 -58q27 0 55 16t53.5 43t47.5 60.5
t38 69.5t25.5 70t9.5 61q0 15 -6.5 22.5t-23.5 10.5q-20 5 -31 18.5t-11 35.5q0 27 14 42.5t38 15.5q28 0 46 -26t18 -65q0 -47 -11.5 -95.5t-31 -94t-46.5 -85.5t-58 -70t-65 -47t-67 -17q-107 0 -107 125v24q-39 -71 -80.5 -110.5t-88.5 -39.5q-53 0 -85 36.5t-32 92.5
q0 43 15.5 85.5t33.5 82t33.5 74t15.5 61.5q0 17 -7 26.5t-21 9.5q-32 0 -63.5 -36.5t-53.5 -110.5h-35z" />
    <glyph glyph-name="x" unicode="x" horiz-adv-x="599" 
d="M230 486q51 0 81.5 -33.5t31.5 -92.5q37 67 73.5 96t78.5 29t65.5 -24.5t23.5 -62.5q0 -26 -17.5 -44.5t-41.5 -18.5q-19 0 -29.5 10.5t-10.5 27.5q0 19 13 35q7 8 8.5 11.5t1.5 8.5q0 20 -30 20q-29 0 -62 -41t-68 -129q-20 -50 -32 -100t-12 -86q0 -65 54 -65
q21 0 42 11t40.5 30t36 44.5t28.5 54.5h36q-14 -38 -35 -70t-46.5 -56t-55 -37.5t-60.5 -13.5q-48 0 -75.5 27t-36.5 91q-36 -63 -75.5 -91t-77.5 -28q-40 0 -63 23t-23 64q0 28 16.5 49t42.5 21q19 0 30 -12.5t11 -29.5q0 -20 -23 -40q-8 -6 -10 -10t-2 -9q0 -9 8.5 -15
t23.5 -6t32 9.5t33.5 26.5t32 41.5t26.5 53.5q12 31 22 64t17.5 63t12 55t4.5 39q0 38 -14.5 56t-39.5 18q-37 0 -76.5 -38.5t-68.5 -106.5h-36q39 94 89 137.5t106 43.5z" />
    <glyph glyph-name="y" unicode="y" horiz-adv-x="583" 
d="M562 480l-117 -413q-26 -89 -58.5 -148t-72.5 -95q-32 -29 -72 -46.5t-75 -17.5q-57 0 -93 30.5t-36 78.5q0 26 15.5 43.5t38.5 17.5q20 0 34 -13t14 -31q0 -16 -6 -27t-20 -19q-8 -4 -10 -6.5t-2 -8.5q0 -11 18 -21t44 -10q43 0 74.5 23.5t54 62.5t39 90t30.5 106l9 36
q-37 -59 -76.5 -91t-84.5 -32q-51 0 -82 39.5t-31 99.5q0 42 14.5 83t32 79t32 71.5t14.5 59.5q0 17 -7 26.5t-23 9.5q-33 0 -65.5 -40t-54.5 -107h-35q26 84 69 133.5t94 49.5q42 0 66.5 -28t24.5 -71q0 -46 -15.5 -91.5t-33.5 -87t-33.5 -77.5t-15.5 -62t15 -40t41 -14
q24 0 49.5 17t52.5 54.5t55 97t57 145.5l48 144h83z" />
    <glyph glyph-name="z" unicode="z" horiz-adv-x="461" 
d="M207 218q-44 -33 -72 -56.5t-46 -42.5q4 1 7.5 1.5t8.5 0.5q12 0 27 -5.5t32 -11.5t36 -11.5t39 -5.5q48 0 77.5 21t44.5 63h35q-32 -93 -77.5 -137t-85.5 -44q-27 0 -45.5 15t-34 33.5t-31 33.5t-36.5 15q-17 0 -26.5 -9t-9.5 -23q0 -8 6 -16.5t6 -18.5q0 -14 -9 -22
t-23 -8t-22 9.5t-8 23.5q0 22 7 42t27 44.5t56.5 56.5t96.5 77q63 48 99.5 78t56.5 52q-3 -1 -6.5 -1h-6.5q-14 0 -29.5 5t-33 11t-36 11t-36.5 5q-37 0 -61 -16t-41 -57h-35q12 35 30.5 65t40.5 51.5t46 34t48 12.5q23 0 38.5 -14t28.5 -30.5t25.5 -30t29.5 -13.5
q15 0 24.5 8t9.5 23q0 9 -3.5 16t-3.5 16q0 11 7.5 18.5t18.5 7.5q15 0 23.5 -9.5t8.5 -26.5q0 -20 -7.5 -39.5t-30.5 -45.5t-67.5 -63.5t-117.5 -92.5z" />
    <glyph glyph-name="braceleft" unicode="{" horiz-adv-x="355" 
d="M321 -209q-41 6 -74.5 23t-57.5 43t-37.5 59.5t-13.5 74.5q0 19 3.5 38.5t7.5 39t7.5 38.5t3.5 37q0 20 -9 38t-24 32t-35.5 23.5t-42.5 12.5v32q55 9 83 40t28 69q0 21 -3.5 39.5t-7.5 36.5t-7.5 37.5t-3.5 42.5q0 39 14 72.5t39 58.5t58 41.5t72 22.5v-33
q-110 -30 -110 -113q0 -40 11 -80t11 -80q0 -58 -31 -99t-94 -70q125 -59 125 -171q0 -19 -3.5 -39.5t-7.5 -40.5t-7.5 -40t-3.5 -39q0 -84 110 -114v-32z" />
    <glyph glyph-name="bar" unicode="|" horiz-adv-x="216" 
d="M131 708v-889h-46v889h46z" />
    <glyph glyph-name="braceright" unicode="}" horiz-adv-x="355" 
d="M34 742q41 -6 75 -23t58 -43t37 -60t13 -74q0 -19 -3.5 -38.5t-7.5 -39t-7.5 -38.5t-3.5 -37q0 -21 9 -38.5t24.5 -31.5t35.5 -23.5t43 -12.5v-33q-55 -9 -83.5 -39.5t-28.5 -68.5q0 -21 3.5 -39.5t8 -37t8 -37.5t3.5 -42q0 -39 -14.5 -72.5t-39 -58.5t-58 -41.5
t-72.5 -22.5v32q111 31 111 114q0 20 -3.5 40t-7.5 40t-7.5 40t-3.5 40q0 112 124 169q-62 29 -93 71t-31 100q0 19 3.5 39t7.5 40.5t7.5 40.5t3.5 39q0 83 -111 113v33z" />
    <glyph glyph-name="asciitilde" unicode="~" horiz-adv-x="686" 
d="M489 278q-27 0 -66.5 14t-81 31.5t-81 31.5t-66.5 14q-36 0 -59.5 -22.5t-30.5 -67.5h-31q0 32 9 60t25.5 49t39.5 33t50 12t66.5 -14t81 -31.5t81 -31.5t66.5 -14q36 0 60.5 22t29.5 67h31q0 -32 -9 -60t-25.5 -48.5t-39.5 -32.5t-50 -12z" />
    <glyph glyph-name="exclamdown" unicode="&#xa1;" horiz-adv-x="365" 
d="M194 285q-56 -193 -88 -391q-11 -68 -33 -100.5t-50 -32.5q-17 0 -27.5 14t-10.5 37t12.5 59.5t43.5 101.5q36 77 66 158.5t55 162.5zM161 427q0 23 16.5 39.5t39.5 16.5t39.5 -16.5t16.5 -39.5t-16.5 -39.5t-39.5 -16.5t-39.5 16.5t-16.5 39.5z" />
    <glyph glyph-name="cent" unicode="&#xa2;" horiz-adv-x="393" 
d="M418 180q-11 -38 -34 -72.5t-53 -60.5t-65 -41.5t-71 -15.5h-4l-55 -233h-34l57 238q-28 7 -51 23.5t-39.5 41.5t-26 56t-9.5 66q0 51 21 102.5t55.5 95t78.5 74t90 39.5l40 167h34l-40 -164q49 -2 79 -30t30 -75q0 -28 -16.5 -46.5t-41.5 -18.5q-21 0 -34.5 12.5
t-13.5 32.5q0 19 21 40q15 13 15 23q0 14 -12 21t-32 7h-3l-105 -439q30 0 58.5 13.5t53 35t43.5 50t29 58.5h35zM119 111q0 -66 48 -83l101 426q-27 -12 -48.5 -38t-38 -59.5t-28.5 -70.5t-19.5 -71.5t-11 -62t-3.5 -41.5z" />
    <glyph glyph-name="sterling" unicode="&#xa3;" horiz-adv-x="579" 
d="M209 329q5 38 14.5 74.5t23.5 74.5q75 205 192 205q50 0 79 -30.5t29 -81.5q0 -34 -20.5 -55.5t-48.5 -21.5q-23 0 -36.5 12t-13.5 33q0 17 10 29t27 12q9 0 14.5 -2t10.5 -2q16 0 16 21q0 20 -16 36t-51 16q-24 0 -43.5 -9.5t-35 -32t-26 -59t-16.5 -91.5
q-4 -32 -8.5 -64t-11.5 -64h123l-9 -33h-121q-10 -45 -22.5 -87t-28.5 -80q29 -17 58.5 -31t63.5 -14q43 0 66 20t40 70h32q-11 -40 -28 -72.5t-37.5 -56t-44.5 -36.5t-48 -13q-21 0 -38 8t-31 20.5t-27.5 28t-26.5 29.5q-26 -48 -52.5 -67t-52.5 -19q-35 0 -57.5 21.5
t-22.5 56.5q0 42 27.5 68t75.5 26q14 0 28.5 -4t28.5 -11q2 12 2.5 25t1.5 28q1 44 6 90h-118l10 33h113zM187 107q0 2 1 4q-13 9 -26.5 14.5t-30.5 5.5q-30 0 -46.5 -15.5t-16.5 -41.5q0 -20 12.5 -32t33.5 -12q23 0 43 16.5t30 60.5z" />
    <glyph glyph-name="fraction" unicode="&#x2044;" horiz-adv-x="104" 
d="M371 716h65l-655 -750h-65z" />
    <glyph glyph-name="yen" unicode="&#xa5;" horiz-adv-x="662" 
d="M395 322l-36 -127h236l-10 -32h-235l-19 -70q-4 -13 -4 -29q0 -31 37 -31h68l-10 -33h-338l10 33h65q53 0 68 52l22 78h-203l10 32h202l36 128l-1 1v-2h-219l9 32h202l-66 229q-10 32 -26 46t-47 14h-32l9 32h269l-10 -32h-13q-55 0 -55 -26q0 -12 5 -30l65 -225l118 149
q19 23 28.5 44.5t9.5 37.5q0 50 -58 50h-10l9 32h282l-10 -32h-28q-35 0 -72 -23q-23 -14 -48 -39.5t-56 -63.5l-129 -163h202l-9 -32h-218z" />
    <glyph glyph-name="florin" unicode="&#x192;" horiz-adv-x="526" 
d="M100 -201q15 0 28 10.5t26 41.5t27 87t31 147l55 299h-87l7 33q50 3 61 7q14 4 25 21t25 60q18 52 35 87t35 56t38.5 30t45.5 9q40 0 64.5 -22.5t24.5 -57.5q0 -20 -12.5 -33.5t-30.5 -13.5q-14 0 -25 10.5t-11 22.5q0 6 3 11t7 9t7 7.5t3 7.5q0 26 -30 26q-35 0 -52 -25
t-26 -82l-21 -130h86l-8 -33h-85l-51 -244q-25 -119 -49 -192.5t-48.5 -114t-48.5 -54t-49 -13.5q-42 0 -66.5 23.5t-24.5 61.5q0 19 13 31t30 12q14 0 25 -11t11 -24q0 -14 -8 -22.5t-8 -16.5q0 -21 28 -21z" />
    <glyph glyph-name="section" unicode="&#xa7;" horiz-adv-x="664" 
d="M510 216q0 -52 -28.5 -98t-88.5 -94q12 -29 12 -65t-16 -68.5t-43.5 -57t-63.5 -38.5t-76 -14q-29 0 -54 9t-43.5 24.5t-29 37t-10.5 46.5q0 16 5 31.5t14 26.5t20.5 18t24.5 7q34 0 34 -37q0 -20 -11.5 -34.5t-30.5 -19.5q-16 -5 -16 -15q0 -11 8 -22t21 -19.5t30.5 -14
t37.5 -5.5q30 0 56 9t45.5 25t31 37t11.5 45q0 37 -23.5 67.5t-65.5 56.5q-27 18 -48.5 36t-36 38t-22.5 44.5t-8 54.5q0 55 29 103.5t78 95.5q-7 21 -7 52q0 36 17 68.5t44.5 57t62.5 39t70 14.5q30 0 56 -9t44.5 -24.5t29 -37.5t10.5 -47q0 -38 -19 -63t-47 -25
q-17 0 -28 11t-11 28t11.5 29t31.5 15q13 2 17.5 7.5t4.5 16.5t-6.5 23t-19.5 21.5t-31.5 15.5t-42.5 6q-28 0 -52.5 -8.5t-42.5 -23t-28.5 -34t-10.5 -41.5q0 -21 4 -38t13 -32t25 -28t40 -27q26 -15 48.5 -32.5t39 -38.5t25.5 -47t9 -58zM372 311q-38 23 -63 42.5
t-40 40.5q-42 -41 -58.5 -71.5t-16.5 -64.5q0 -43 25.5 -74t70.5 -58q29 -18 50 -35.5t36 -37.5q87 66 87 134q0 35 -19.5 64t-71.5 60z" />
    <glyph glyph-name="currency" unicode="&#xa4;" horiz-adv-x="678" 
d="M364 509q-34 0 -63.5 -13.5t-51.5 -36t-34.5 -52.5t-12.5 -62q0 -33 12.5 -63t34.5 -53t51.5 -36.5t63.5 -13.5t64 13.5t52.5 36.5t35 53t12.5 63q0 32 -12.5 62t-35 52.5t-52.5 36t-64 13.5zM95 118l98 98q-20 25 -31.5 58t-11.5 71t12 72t31 57l-98 96l44 44l96 -98
q25 20 58 31.5t71 11.5q39 0 73 -12t56 -31l98 98l42 -44l-96 -96q19 -23 31 -57t12 -72q0 -39 -12 -72.5t-31 -56.5l96 -98l-42 -42l-98 96q-23 -19 -56.5 -31t-72.5 -12t-72.5 12t-56.5 31l-96 -96z" />
    <glyph glyph-name="quotesingle" unicode="'" horiz-adv-x="318" 
d="M156 426l25 203q2 14 6 29q15 53 56 53t41 -43q0 -11 -3.5 -23t-11.5 -30l-82 -189h-31z" />
    <glyph glyph-name="quotedblleft" unicode="&#x201c;" horiz-adv-x="536" 
d="M307 676q-57 -21 -86.5 -51.5t-29.5 -62.5q0 -8 10 -8q6 0 13.5 4.5t15.5 4.5q23 0 38 -15t15 -37q0 -23 -16.5 -39t-41.5 -16q-32 0 -51 23t-19 63q0 54 37.5 98t104.5 67zM504 676q-57 -21 -86.5 -51.5t-29.5 -62.5q0 -8 10 -8q6 0 13.5 4.5t15.5 4.5q23 0 38 -15
t15 -37q0 -23 -16.5 -39t-41.5 -16q-32 0 -51 23t-19 63q0 54 37.5 98t104.5 67z" />
    <glyph glyph-name="guillemotleft" unicode="&#xab;" horiz-adv-x="450" 
d="M320 71h-30l-95 179l167 174h34l-128 -176zM215 44h-30l-124 206l190 201h36l-147 -204z" />
    <glyph glyph-name="guilsinglleft" unicode="&#x2039;" horiz-adv-x="340" 
d="M215 44h-30l-124 206l190 201h36l-147 -204z" />
    <glyph glyph-name="guilsinglright" unicode="&#x203a;" horiz-adv-x="354" 
d="M133 451h30l124 -205l-190 -202h-35l146 204z" />
    <glyph glyph-name="endash" unicode="&#x2013;" horiz-adv-x="543" 
d="M29 303h485v-44h-485v44z" />
    <glyph glyph-name="dagger" unicode="&#x2020;" horiz-adv-x="652" 
d="M241 300q24 23 43.5 48.5t33.5 54.5q-25 0 -43 -5t-33 -10.5t-28.5 -10.5t-29.5 -5q-26 0 -43 15t-17 38q0 22 16 36t42 14q16 0 31.5 -5.5t33 -12.5t36.5 -12.5t43 -5.5h6q8 27 8 55q0 6 -0.5 17.5t-1.5 24t-1.5 23.5t-0.5 16q0 48 18.5 75.5t48.5 27.5q26 0 40.5 -15
t14.5 -41q0 -25 -10.5 -46.5t-25 -42.5t-29.5 -44t-25 -50q22 1 39 6.5t31.5 12t28.5 12t31 5.5q26 0 43.5 -15t17.5 -35q0 -23 -17 -38t-44 -15q-11 0 -22 3t-32 11q-15 6 -25.5 9t-19.5 5t-18.5 2.5t-21.5 0.5q-1 -6 -1 -12.5v-12.5q0 -23 4.5 -40.5t15.5 -36.5
q-27 -46 -47.5 -86t-40 -87.5t-41 -109.5t-50.5 -151l-26 -80l-39 -1q23 75 43 143t34.5 131.5t22.5 123t7 116.5z" />
    <glyph glyph-name="daggerdbl" unicode="&#x2021;" horiz-adv-x="634" 
d="M182 74q42 54 73.5 115t31.5 129q0 16 -2 29.5t-8 36.5q42 38 66 85q-22 0 -37.5 -4.5t-28 -9t-23.5 -8.5t-25 -4q-26 0 -42.5 12t-16.5 31t18 31.5t41 12.5q16 0 29.5 -4t27.5 -9t31 -9t40 -4q6 19 6 40q0 3 -0.5 13t-0.5 21t-0.5 21t-0.5 14q0 28 16 46.5t42 18.5
q17 0 27.5 -12.5t10.5 -32.5q0 -16 -7.5 -30t-18 -29t-21.5 -32t-18 -38q17 0 32 4.5t28.5 9t27.5 8.5t29 4q23 0 37.5 -12t14.5 -32q0 -18 -14.5 -30.5t-35.5 -12.5q-13 0 -24.5 4t-25.5 8.5t-32 9t-44 4.5v-12q0 -33 12 -73q-18 -23 -31 -40.5t-22 -34t-16 -34.5t-14 -42
q-8 -29 -11.5 -53.5t-3.5 -49.5q0 -13 1 -25t3 -33q-19 -17 -36.5 -38t-30.5 -45q19 2 34 6t28.5 8t26.5 7t27 3q25 0 40.5 -12t15.5 -32t-14.5 -32t-38.5 -12q-14 0 -28 4t-30 9t-34 9t-40 5q-6 -21 -6 -44v-14t0.5 -21.5t0.5 -21v-13.5q0 -26 -16.5 -44t-41.5 -18
q-17 0 -27 13t-10 34q0 15 7.5 30t17.5 31t20.5 32.5t17.5 34.5q-18 -2 -32.5 -6.5t-28 -9t-27 -8t-28.5 -3.5q-21 0 -36 12t-15 31q0 20 15.5 32.5t38.5 12.5q15 0 27.5 -4t24.5 -8.5t24 -8.5t26 -4h18v2q0 22 -2.5 38t-8.5 47z" />
    <glyph glyph-name="periodcentered" unicode="&#xb7;" horiz-adv-x="293" 
d="M212 301q0 -23 -16.5 -39.5t-39.5 -16.5t-39.5 16.5t-16.5 39.5t16.5 40t39.5 17t39.5 -17t16.5 -40z" />
    <glyph glyph-name="paragraph" unicode="&#xb6;" horiz-adv-x="539" 
d="M529 708v-33h-20q-39 0 -49 -18t-10 -84v-807h-51v900h-109v-900h-52v560q-144 4 -194 60q-48 54 -48 132q0 86 58 138q61 52 169 52h306z" />
    <glyph glyph-name="bullet" unicode="&#x2022;" horiz-adv-x="354" 
d="M55 365q0 25 9.5 47.5t26 39t38.5 26t48 9.5q25 0 47.5 -9.5t39.5 -26t26.5 -39t9.5 -47.5q0 -26 -9.5 -48t-26.5 -39t-39.5 -26.5t-47.5 -9.5q-26 0 -48 9.5t-38.5 26.5t-26 39t-9.5 48z" />
    <glyph glyph-name="quotesinglbase" unicode="&#x201a;" horiz-adv-x="327" 
d="M10 -120q57 21 86 51.5t29 62.5q0 8 -9 8q-6 0 -13.5 -5t-15.5 -5q-23 0 -38 15.5t-15 37.5q0 23 16.5 39t41.5 16q32 0 51 -23t19 -64q0 -54 -37.5 -98t-104.5 -66z" />
    <glyph glyph-name="quotedblbase" unicode="&#x201e;" horiz-adv-x="524" 
d="M10 -120q57 21 86 51.5t29 62.5q0 8 -9 8q-6 0 -13.5 -5t-15.5 -5q-23 0 -38 15.5t-15 37.5q0 23 16.5 39t41.5 16q32 0 51 -23t19 -64q0 -54 -37.5 -98t-104.5 -66zM207 -120q57 21 86 51.5t29 62.5q0 8 -9 8q-6 0 -13.5 -5t-15.5 -5q-23 0 -38 15.5t-15 37.5
q0 23 16.5 39t41.5 16q32 0 51 -23t19 -64q0 -54 -37.5 -98t-104.5 -66z" />
    <glyph glyph-name="quotedblright" unicode="&#x201d;" horiz-adv-x="532" 
d="M151 488q57 21 86 51.5t29 62.5q0 8 -9 8q-6 0 -13.5 -5t-15.5 -5q-23 0 -38 15.5t-15 37.5q0 23 16.5 39t41.5 16q32 0 51 -23t19 -64q0 -54 -37.5 -98t-104.5 -66zM348 488q57 21 86 51.5t29 62.5q0 8 -9 8q-6 0 -13.5 -5t-15.5 -5q-23 0 -38 15.5t-15 37.5
q0 23 16.5 39t41.5 16q32 0 51 -23t19 -64q0 -54 -37.5 -98t-104.5 -66z" />
    <glyph glyph-name="guillemotright" unicode="&#xbb;" horiz-adv-x="464" 
d="M139 424h29l95 -178l-167 -175h-34l128 176zM244 451h29l124 -205l-189 -202h-36l146 204z" />
    <glyph glyph-name="ellipsis" unicode="&#x2026;" horiz-adv-x="1025" 
d="M222 42q0 -23 -16.5 -39.5t-39.5 -16.5t-39.5 16.5t-16.5 39.5t16.5 40t39.5 17t39.5 -17t16.5 -40zM564 42q0 -23 -16.5 -39.5t-39.5 -16.5t-39.5 16.5t-16.5 39.5t16.5 40t39.5 17t39.5 -17t16.5 -40zM906 42q0 -23 -16.5 -39.5t-39.5 -16.5t-39.5 16.5t-16.5 39.5
t16.5 40t39.5 17t39.5 -17t16.5 -40z" />
    <glyph glyph-name="perthousand" unicode="&#x2030;" horiz-adv-x="1248" 
d="M836 721h78l-795 -747h-78zM237 333q-21 0 -39.5 10t-32 27t-21.5 40t-8 49q0 46 19 92.5t49 83.5t67 60.5t74 23.5q42 0 69.5 -36.5t27.5 -93.5q0 -44 -18 -89.5t-47 -82.5t-66 -60.5t-74 -23.5zM241 365q26 0 46 18.5t37 60.5q11 27 21.5 56.5t18.5 57t12.5 50
t4.5 34.5q0 45 -46 45q-22 0 -42.5 -18t-36.5 -54q-12 -27 -22.5 -56.5t-19 -58t-13 -52t-4.5 -38.5q0 -24 10.5 -34.5t33.5 -10.5zM614 -24q-21 0 -39.5 10t-32 27t-21.5 40.5t-8 49.5q0 46 19 92t49 83.5t67 61t74 23.5q21 0 39 -10t30.5 -27t20 -41t7.5 -52
q0 -44 -18 -90t-47 -83t-66 -60.5t-74 -23.5zM618 8q49 0 83 79q11 27 21.5 56.5t18.5 57t12.5 50t4.5 35.5q0 21 -11.5 33t-34.5 12q-22 0 -42.5 -18t-36.5 -55q-12 -27 -22.5 -56.5t-19 -57.5t-13 -52t-4.5 -38q0 -46 44 -46zM961 -24q-22 0 -40.5 10t-32 27t-21.5 40.5
t-8 49.5q0 46 19 92t49 83.5t67.5 61t73.5 23.5q43 0 70.5 -36.5t27.5 -93.5q0 -44 -18 -90t-47 -83t-66 -60.5t-74 -23.5zM964 8q26 0 46 19t38 60q11 27 21.5 56.5t18.5 57t12.5 50t4.5 35.5q0 21 -11.5 33t-34.5 12q-47 0 -80 -73q-12 -27 -22.5 -56.5t-18.5 -57.5
t-13 -52t-5 -38q0 -46 44 -46z" />
    <glyph glyph-name="questiondown" unicode="&#xbf;" horiz-adv-x="425" 
d="M278 -17q-1 -42 -16 -80t-39.5 -67.5t-56.5 -46.5t-66 -17q-55 0 -88 33.5t-33 90.5q0 43 18 76.5t44.5 61.5t57.5 51.5t57.5 46.5t44.5 46t18 51q0 20 -12 33.5t-31 13.5q-24 0 -39 -15.5t-25 -47.5l-31 10q24 87 95 87q34 0 55 -25t21 -63q0 -36 -16 -67.5t-40.5 -60.5
t-52.5 -56t-52.5 -53.5t-40.5 -54.5t-16 -59q0 -30 18 -47.5t48 -17.5t56 15t45.5 39.5t31 56.5t12.5 66h33zM180 429q0 23 16.5 39.5t39.5 16.5t39.5 -16.5t16.5 -39.5t-16.5 -39.5t-39.5 -16.5t-39.5 16.5t-16.5 39.5z" />
    <glyph glyph-name="grave" unicode="`" 
d="M154 659q-17 14 -23.5 25.5t-6.5 25.5q0 16 9.5 25.5t25.5 9.5q23 0 39.5 -14.5t39.5 -55.5l64 -109h-32z" />
    <glyph glyph-name="acute" unicode="&#xb4;" 
d="M259 566h-31l68 109q24 39 38.5 54.5t36.5 15.5q15 0 24.5 -9.5t9.5 -25.5q0 -14 -8 -25t-26 -26z" />
    <glyph glyph-name="circumflex" unicode="&#x2c6;" 
d="M304 663l-153 -99h-40l180 165h62l44 -165h-31z" />
    <glyph glyph-name="tilde" unicode="&#x2dc;" 
d="M403 697q-11 -117 -97 -117q-15 0 -32 5t-37 17q-20 11 -44 24.5t-42 13.5q-36 0 -45 -60h-32q9 117 98 117q17 0 34 -6.5t36 -17.5q23 -14 44.5 -24.5t39.5 -10.5q14 0 28 15t16 44h33z" />
    <glyph glyph-name="macron" unicode="&#xaf;" 
d="M121 650h285l-13 -48h-286z" />
    <glyph glyph-name="breve" unicode="&#x2d8;" 
d="M429 730q-31 -72 -76 -111t-96 -39q-52 0 -81.5 40t-29.5 110h32q0 -36 24.5 -58t62.5 -22t73 21.5t58 58.5h33z" />
    <glyph glyph-name="dotaccent" unicode="&#x2d9;" 
d="M216 640q0 23 16.5 39.5t39.5 16.5t40 -16.5t17 -39.5t-17 -39.5t-40 -16.5t-39.5 16.5t-16.5 39.5z" />
    <glyph glyph-name="dieresis" unicode="&#xa8;" 
d="M113 632q0 21 15 36t37 15q21 0 36 -15t15 -36t-15 -36t-36 -15q-22 0 -37 15t-15 36zM305 632q0 21 15 36t36 15t36 -15t15 -36t-15 -36t-36 -15t-36 15t-15 36z" />
    <glyph glyph-name="ring" unicode="&#x2da;" 
d="M165 657q0 43 29.5 72.5t72.5 29.5q21 0 40 -8t33 -21.5t22 -32.5t8 -40t-8 -40t-22 -32.5t-33 -21.5t-40 -8q-43 0 -72.5 29.5t-29.5 72.5zM198 657q0 -29 20 -49.5t49 -20.5t49.5 20.5t20.5 49.5t-20.5 49.5t-49.5 20.5t-49 -20.5t-20 -49.5z" />
    <glyph glyph-name="cedilla" unicode="&#xb8;" 
d="M58 -42q38 -10 54.5 -29t16.5 -45q0 -22 -12.5 -41.5t-33.5 -33.5t-49.5 -22.5t-60.5 -8.5q-16 0 -34 2.5t-32 5.5l11 31q10 -2 19.5 -3.5t23.5 -1.5q46 0 74.5 17t28.5 43q0 15 -11.5 29t-43.5 14h-10t-10 -1l65 86h36z" />
    <glyph glyph-name="hungarumlaut" unicode="&#x2dd;" 
d="M336 565h-33l68 124q16 29 29.5 44.5t29.5 15.5q17 0 28 -11t11 -28q0 -11 -7 -23t-24 -27zM181 565h-33l68 124q16 30 29 45t30 15t27.5 -11t10.5 -28q0 -11 -6.5 -23t-22.5 -27z" />
    <glyph glyph-name="ogonek" unicode="&#x2db;" horiz-adv-x="316" 
d="M221 0q-16 -11 -30.5 -21.5t-33.5 -24.5q-30 -23 -48 -56t-18 -65q0 -17 9 -26t23 -9q17 0 31 7.5t33 31.5l27 -20q-23 -29 -47.5 -43t-62.5 -14q-47 0 -74 18.5t-27 52.5t21 62t70 61l71 46h56z" />
    <glyph glyph-name="caron" unicode="&#x2c7;" 
d="M181 729l62 -99l153 99h40l-179 -165h-62l-45 165h31z" />
    <glyph glyph-name="emdash" unicode="&#x2014;" horiz-adv-x="1049" 
d="M29 303h991v-44h-991v44z" />
    <glyph glyph-name="AE" unicode="&#xc6;" horiz-adv-x="1027" 
d="M609 381h30q22 0 47.5 7.5t44.5 20.5q38 26 57.5 65.5t32.5 83.5h32l-118 -417h-31q8 32 14.5 64t6.5 49q0 44 -21.5 69t-82.5 25h-21l-80 -283q-2 -3 -2.5 -7.5t-0.5 -6.5q0 -7 5.5 -12.5t19.5 -5.5h119q13 0 38 5.5t55 20.5t62.5 42.5t59.5 72.5q18 28 29 50.5t23 54.5
h32l-79 -279h-584l10 33h60q18 0 34 14.5t22 35.5l56 201h-195l-18 -25q-28 -38 -46.5 -63t-29 -43.5t-14.5 -32t-4 -27.5q0 -28 18 -44t50 -16h25l-10 -33h-314l10 33h12q51 0 98 35t96 100l322 431q9 11 13.5 22.5t4.5 20.5q0 16 -11 24.5t-31 8.5h-73l10 33h650l-63 -271
h-32q6 37 8 56t2 40q0 53 -16.5 81.5t-42.5 42t-57.5 16t-62.5 2.5h-41q-16 0 -25.5 -1t-15 -5t-8.5 -12t-7 -21zM308 316h180l98 345q4 14 -3 14q-5 0 -11 -7z" />
    <glyph glyph-name="ordfeminine" unicode="&#xaa;" horiz-adv-x="452" 
d="M294 679q-16 0 -28 -6t-23 -17q-18 -17 -34.5 -47t-30 -62t-21.5 -62.5t-8 -48.5q0 -25 13.5 -40t36.5 -15q31 0 57.5 25t46 60t30 72.5t10.5 62.5q0 34 -13.5 56t-35.5 22zM491 473q-26 -61 -56 -92.5t-64 -31.5q-30 0 -47 15.5t-17 44.5v7t1 8q-25 -35 -52.5 -55
t-60.5 -20q-46 0 -76.5 32t-30.5 88q0 44 18.5 87.5t48.5 78t67.5 55.5t76.5 21q56 0 68 -67l22 60h62l-77 -272q-2 -8 -3 -14t-1 -11q0 -21 15 -21q17 0 36.5 22.5t37.5 64.5h32z" />
    <glyph glyph-name="Lslash" unicode="&#x141;" horiz-adv-x="655" 
d="M156 708h306l-9 -33h-34q-38 0 -55.5 -9.5t-25.5 -35.5l-67 -237l217 96l-12 -41l-217 -97l-75 -267q-5 -14 -6 -20t-1 -14q0 -17 31 -17h75q28 0 59 10t60.5 27t56 41t47.5 53q19 26 34.5 52.5t36.5 66.5h30l-85 -283h-566l9 33h61q18 0 34 14.5t22 35.5l61 217
l-117 -52l12 42l117 52l79 278q2 7 3 13.5t1 11.5q0 30 -47 30h-44z" />
    <glyph glyph-name="Oslash" unicode="&#xd8;" horiz-adv-x="740" 
d="M285 -15q-46 0 -85.5 19t-69.5 54l-84 -96l-25 22l88 101q-24 36 -37 82t-13 100t16.5 109t46 105.5t68.5 94.5t84.5 76.5t94.5 51t98 18.5q44 0 81 -16t66 -45l67 76l25 -22l-70 -81q27 -38 41.5 -88.5t14.5 -110.5q0 -54 -16.5 -108t-45.5 -104t-68.5 -93.5
t-84.5 -75.5t-94 -50.5t-98 -18.5zM289 18q26 0 54 9.5t56 30.5t54 54.5t49 81.5q9 19 25.5 60.5t33 91t28.5 99.5t12 86q0 32 -7 56l-429 -489q14 -35 44.5 -57.5t79.5 -22.5zM152 170q0 -9 0.5 -17.5t1.5 -16.5l426 486q-17 32 -47 49t-72 17q-41 0 -76.5 -18t-65.5 -50
q-29 -30 -52 -70.5t-42 -85.5t-32.5 -90.5t-22.5 -85.5t-13.5 -71.5t-4.5 -46.5z" />
    <glyph glyph-name="OE" unicode="&#x152;" horiz-adv-x="1022" 
d="M604 381h30q23 0 48 7.5t45 20.5q37 26 56.5 65.5t32.5 83.5h32l-118 -417h-31q8 32 14.5 64t6.5 49q0 44 -21.5 69t-82.5 25h-21l-80 -283q-2 -3 -2.5 -7.5t-0.5 -6.5q0 -7 5.5 -12.5t19.5 -5.5h119q13 0 38 5.5t55 20.5t62.5 42.5t60.5 72.5q17 28 28 50.5t23 54.5h32
l-79 -279h-506q-26 0 -48.5 -2.5t-45.5 -2.5q-47 0 -86.5 21.5t-68.5 60t-45.5 91t-16.5 114.5q0 67 20 125.5t53 106.5t75.5 85t87.5 63t88 39t78 13q45 0 89 -3t92 -3h395l-63 -271h-32q6 37 8 56t2 40q0 53 -16.5 81.5t-42.5 42t-57.5 16t-62.5 2.5h-41q-16 0 -25.5 -1
t-15 -5t-8.5 -12t-7 -21zM273 30q66 0 114.5 59t83.5 183l65 228q13 48 13 78q0 19 -5 37.5t-16 33t-29 23t-44 8.5q-37 0 -68 -16t-60 -43q-38 -37 -70.5 -93t-56 -118t-36.5 -124.5t-13 -111.5q0 -41 12.5 -69t31 -44.5t39.5 -23.5t39 -7z" />
    <glyph glyph-name="ordmasculine" unicode="&#xba;" horiz-adv-x="385" 
d="M216 349q-27 0 -50 11.5t-39.5 32.5t-26 49.5t-9.5 61.5q0 39 17.5 76t46.5 66t66 47t75 18q27 0 50.5 -11.5t40.5 -32.5t26.5 -49.5t9.5 -62.5q0 -38 -17.5 -74.5t-46.5 -66t-66 -47.5t-77 -18zM222 379q25 0 44.5 13.5t34.5 34.5t26 46t18 48.5t10 42.5t3 28
q0 42 -18.5 65.5t-50.5 23.5q-24 0 -43.5 -13.5t-34.5 -34.5t-26 -47t-17.5 -50.5t-10 -45t-3.5 -31.5q0 -16 3 -30.5t11 -25.5t21 -17.5t33 -6.5z" />
    <glyph glyph-name="ae" unicode="&#xe6;" horiz-adv-x="786" 
d="M315 493q40 0 69.5 -24.5t40.5 -75.5l28 87h79l-11 -39q23 23 52 37.5t61 14.5q52 0 83.5 -27.5t31.5 -75.5q0 -45 -24.5 -77t-65.5 -55t-95 -38t-112 -24q-5 -22 -7.5 -42t-2.5 -34q0 -44 27 -70.5t72 -26.5q63 0 108.5 36t68.5 91h35q-26 -71 -82 -115.5t-136 -44.5
q-67 0 -114 37t-61 100q-24 -38 -48.5 -64.5t-49 -42.5t-47.5 -23t-44 -7q-29 0 -54.5 14.5t-44 40t-29 59.5t-10.5 74q0 73 29.5 131t72.5 99t92 63t88 22zM311 459q-26 0 -46 -8.5t-37 -29.5q-26 -29 -47.5 -76.5t-37 -97t-24.5 -91.5t-9 -60q0 -34 17.5 -53.5t49.5 -19.5
q31 0 59.5 17.5t52.5 45.5t44 63t34 71t21.5 69t7.5 56q0 54 -24 84t-61 30zM519 379q-15 -26 -31 -66.5t-27 -83.5q57 11 95 26.5t73 43.5q58 48 58 101q0 27 -16.5 44t-43.5 17q-29 0 -56 -19t-52 -63z" />
    <glyph glyph-name="lslash" unicode="&#x142;" horiz-adv-x="323" 
d="M300 171q-16 -47 -37 -81.5t-44 -57t-47.5 -33t-48.5 -10.5q-35 0 -55 21t-20 67q0 41 17 103l34 122l-61 -48l15 54l62 48l73 258q4 13 4 29t-8 24t-37 8h-28l9 33h45q25 0 60.5 3t72.5 8l-78 -274l83 65l-16 -54l-82 -65l-78 -273q-10 -34 -10 -56q0 -33 21 -33
q26 0 61 36.5t58 105.5h35v0z" />
    <glyph glyph-name="oslash" unicode="&#xf8;" horiz-adv-x="538" 
d="M210 -10q-60 0 -104 41l-59 -68l-26 22l62 71q-24 32 -37 74.5t-13 88.5q0 51 24 100.5t63 88t89 62t102 23.5q34 0 63 -11.5t52 -32.5l65 74l25 -22l-67 -77q23 -29 35 -67t12 -83q0 -56 -27 -107.5t-69 -90.5t-92.5 -62.5t-97.5 -23.5zM115 140q0 -12 1.5 -22t3.5 -20
l273 313q-25 49 -84 49q-32 0 -59 -17.5t-48.5 -46t-37.5 -64t-27 -71t-16.5 -68t-5.5 -53.5zM210 23q33 0 60.5 17.5t49.5 45.5t38.5 63t27.5 70.5t16.5 67.5t5.5 55q0 17 -3 32l-270 -310q14 -21 33.5 -31t41.5 -10z" />
    <glyph glyph-name="oe" unicode="&#x153;" horiz-adv-x="806" 
d="M206 -10q-40 0 -72 19t-54.5 51t-34.5 73.5t-12 85.5q0 51 23.5 100.5t62 88t87.5 62t100 23.5q54 0 94 -28.5t63 -77.5q39 47 87.5 76.5t96.5 29.5q57 0 89.5 -27.5t32.5 -75.5q0 -44 -24.5 -76.5t-65 -55.5t-94.5 -38t-112 -24q-11 -46 -11 -76q0 -44 27 -70.5
t72 -26.5q63 0 108.5 36t68.5 91h35q-26 -71 -82 -115.5t-136 -44.5q-54 0 -95 24t-63 66q-42 -42 -92.5 -66t-98.5 -24zM206 23q32 0 58.5 17.5t48 45.5t37.5 63t26.5 70.5t16 67.5t5.5 55q0 56 -24 87t-70 31q-31 0 -57 -17.5t-47 -46t-37 -64t-26.5 -71t-16 -68
t-5.5 -53.5q0 -30 7.5 -52t20.5 -36.5t29.5 -21.5t33.5 -7zM482 234q0 -4 -1 -5q57 11 95 26.5t73 43.5q58 48 58 101q0 27 -16.5 44t-43.5 17q-28 0 -57 -22t-51 -60q-15 -25 -30 -64t-27 -81z" />
    <glyph glyph-name="germandbls" unicode="&#xdf;" horiz-adv-x="567" 
d="M448 423q-17 -8 -34.5 -16t-39.5 -15q57 -29 93.5 -79.5t36.5 -119.5q0 -40 -18.5 -77t-48.5 -65.5t-69 -46t-81 -17.5q-45 0 -69 24.5t-24 69.5q0 31 15 51.5t38 20.5q18 0 30 -13t12 -31q0 -12 -5 -20.5t-11 -15t-11 -13t-5 -13.5q0 -12 8 -19.5t20 -7.5q34 0 58.5 24
t41 58.5t24.5 72.5t8 67q0 137 -131 137l9 32q36 0 61.5 8t42.5 22q27 23 45.5 67t18.5 89q0 42 -19 66.5t-56 24.5q-26 0 -48 -11t-40 -34.5t-33.5 -61.5t-28.5 -92l-111 -441q-36 -146 -94.5 -217t-131.5 -71q-47 0 -76.5 30t-29.5 76q0 26 13 42t33 16q21 0 33 -12
t12 -34q0 -13 -5.5 -20.5t-11.5 -13t-11.5 -9.5t-5.5 -10q0 -13 14.5 -22.5t38.5 -9.5q16 0 31 6t29 25.5t28.5 56t30.5 98.5q12 49 25.5 103t26.5 106.5t25.5 101.5t23.5 90q15 55 30 103t33 87.5t40.5 69t52.5 49.5q25 16 53.5 24t56.5 8q33 0 61.5 -12.5t49.5 -34
t33 -50.5t12 -63q0 -43 -26 -78t-73 -60z" />
    <glyph glyph-name="logicalnot" unicode="&#xac;" horiz-adv-x="667" 
d="M71 476h524v-281h-67v215h-457v66z" />
    <glyph glyph-name="trademark" unicode="&#x2122;" horiz-adv-x="1109" 
d="M668 708l123 -301l123 301h159v-33h-32q-23 0 -31 -13.5t-8 -42.5v-215q0 -29 8 -42.5t31 -13.5h31v-33h-206v33h36q23 0 31 13.5t8 42.5v271h-5l-146 -360h-28l-147 360h-5v-252q0 -39 11.5 -57t46.5 -18h19v-33h-180v33h13q35 0 46.5 18t11.5 57v193q0 23 -10 41
t-37 18h-24v33h161zM337 675q-22 0 -22 -22v-249q0 -29 8 -42.5t31 -13.5h45v-33h-229v33h45q23 0 31 13.5t8 42.5v249q0 22 -22 22h-15q-13 0 -20 -1.5t-15 -9.5t-16 -21.5t-15.5 -30t-13.5 -34.5t-10 -36h-29v166h373v-166h-30q-4 18 -9.5 36t-13 34.5t-15.5 30t-16 21.5
q-9 8 -15.5 9.5t-19.5 1.5h-15z" />
    <glyph glyph-name="plusminus" unicode="&#xb1;" horiz-adv-x="667" 
d="M71 432h228v229h67v-229h230v-68h-230v-228h-67v228h-228v68zM71 38h525v-68h-525v68z" />
    <glyph glyph-name="Thorn" unicode="&#xde;" horiz-adv-x="629" 
d="M208 169l-24 -85q-3 -9 -3 -19q0 -32 46 -32h44l-9 -33h-306l9 33h61q18 0 34 14.5t22 35.5l152 537q2 7 3 13.5t1 11.5q0 30 -47 30h-44l9 33h306l-9 -33h-34q-38 0 -56 -9.5t-25 -35.5l-25 -90h88q48 0 87.5 -12t68 -34t44.5 -52.5t16 -66.5q0 -32 -13 -60t-36 -54
q-44 -48 -108 -70t-162 -22h-90zM217 202h92q90 0 142 50q26 26 41.5 67t15.5 86q0 24 -9 44.5t-29 34.5q-17 13 -37.5 18t-60.5 5h-69z" />
    <glyph glyph-name="divide" unicode="&#xf7;" horiz-adv-x="667" 
d="M71 368h525v-67h-525v67zM279 557q0 23 15.5 38.5t38.5 15.5t38 -16t15 -38q0 -23 -15 -38.5t-38 -15.5t-38.5 15.5t-15.5 38.5zM279 112q0 23 15.5 38.5t38.5 15.5t38 -15.5t15 -38.5t-15 -38.5t-38 -15.5t-38.5 15.5t-15.5 38.5z" />
    <glyph glyph-name="brokenbar" unicode="&#xa6;" horiz-adv-x="216" 
d="M131 117v-298h-46v298h46zM131 368h-46v340h46v-340z" />
    <glyph glyph-name="degree" unicode="&#xb0;" horiz-adv-x="438" 
d="M125 556q0 33 12 62t33.5 50t50.5 33.5t62 12.5t62 -12.5t50 -33.5t33.5 -50t12.5 -62t-12.5 -62t-33.5 -50.5t-50 -34t-62 -12.5t-62 12.5t-50.5 34t-33.5 50.5t-12 62zM162 556q0 -25 9.5 -47t26 -38.5t38.5 -26t47 -9.5t47 9.5t38.5 26t26 38.5t9.5 47t-9.5 47
t-26 38.5t-38.5 26t-47 9.5t-47 -9.5t-38.5 -26t-26 -38.5t-9.5 -47z" />
    <glyph glyph-name="thorn" unicode="&#xfe;" horiz-adv-x="557" 
d="M219 414q33 42 67 60t72 18q35 0 64 -15.5t49.5 -43t31.5 -66.5t11 -85q0 -54 -23.5 -106.5t-62 -94t-87 -66.5t-99.5 -25q-44 0 -73 21.5t-43 70.5l-60 -212q-3 -11 -5 -21.5t-2 -16.5q0 -33 39 -33h61l-9 -33h-294l9 33h38q55 0 72 59l213 756q4 13 4 29t-8 24t-37 8
h-28l9 33h45q25 0 60.5 3t72.5 8zM352 460q-28 0 -53 -16.5t-47.5 -43.5t-40.5 -61.5t-31 -70.5t-20 -70.5t-7 -61.5q0 -53 25 -83t64 -30t72 27.5t59 86.5q13 30 24 63t18.5 64.5t11.5 58.5t4 46q0 14 -3 30t-12 29.5t-24.5 22.5t-39.5 9z" />
    <glyph glyph-name="registered" unicode="&#xae;" horiz-adv-x="820" 
d="M49 354q0 75 28.5 140.5t77.5 114.5t114.5 77.5t140.5 28.5t140.5 -28.5t114.5 -77.5t77.5 -114.5t28.5 -140.5t-28.5 -140.5t-77.5 -114.5t-114.5 -77.5t-140.5 -28.5t-140.5 28.5t-114.5 77.5t-77.5 114.5t-28.5 140.5zM87 354q0 -67 25.5 -125.5t69.5 -102.5
t102.5 -69.5t125.5 -25.5t125.5 25.5t102.5 69.5t69.5 102.5t25.5 125.5t-25.5 125.5t-69.5 102.5t-102.5 69.5t-125.5 25.5t-125.5 -25.5t-102.5 -69.5t-69.5 -102.5t-25.5 -125.5zM202 580h223q41 0 71.5 -8.5t50.5 -23.5t30 -34.5t10 -41.5q0 -33 -32.5 -63.5
t-103.5 -39.5q45 -10 64 -38.5t27 -63.5q9 -35 18 -60t29 -25q11 0 18.5 15t7.5 46v22h32v-22q0 -20 -3.5 -39t-12.5 -33.5t-25 -23.5t-41 -9q-35 0 -58.5 27t-23.5 91q0 21 -3 39t-12.5 31.5t-27.5 21t-49 7.5h-38v-118q0 -29 7.5 -42.5t30.5 -13.5h47v-33h-236v33h38
q23 0 31 13.5t8 42.5v254q0 29 -8 42.5t-31 13.5h-38v33zM391 547q-23 0 -30.5 -13.5t-7.5 -42.5v-103h46q54 0 82.5 18.5t28.5 68.5q0 38 -21.5 55t-72.5 17h-25z" />
    <glyph glyph-name="minus" unicode="&#x2212;" horiz-adv-x="667" 
d="M71 368h525v-68h-525v68z" />
    <glyph glyph-name="eth" unicode="&#xf0;" horiz-adv-x="542" 
d="M246 611l102 41q-8 12 -17.5 24.5t-20.5 26.5l23 22q14 -15 26 -30t23 -30l80 33l13 -32l-73 -29q54 -81 76.5 -158.5t22.5 -140.5q0 -91 -28.5 -156.5t-71 -108t-92 -63t-91.5 -20.5q-39 0 -73 17.5t-59 48t-39 71.5t-14 89q0 53 23.5 103.5t62.5 89.5t89.5 62.5
t103.5 23.5q29 0 52.5 -8t42.5 -27q-4 53 -13.5 91t-27.5 71l-108 -42zM407 349q0 29 -8.5 50.5t-22 35t-30.5 20t-34 6.5q-32 0 -59.5 -17.5t-49 -45t-38 -63t-28 -71.5t-17 -70t-5.5 -58q0 -54 27 -83t76 -29q41 0 76 33.5t60 83t39 106t14 102.5z" />
    <glyph glyph-name="multiply" unicode="&#xd7;" horiz-adv-x="667" 
d="M333 382l200 199l47 -47l-200 -199l198 -198l-47 -47l-198 198l-199 -198l-47 47l199 198l-199 199l47 47z" />
    <glyph glyph-name="copyright" unicode="&#xa9;" horiz-adv-x="820" 
d="M591 298q-4 -37 -19.5 -68.5t-40 -54.5t-58.5 -36t-75 -13q-46 0 -84 21.5t-65.5 54.5t-43 72.5t-15.5 75.5q0 40 16.5 80.5t43.5 73.5t63 53.5t75 20.5q41 0 71.5 -15.5t53.5 -38.5q6 -6 12 -6q12 0 28 61h31l6 -198h-31q-11 34 -27.5 64t-38 52t-47.5 35t-56 13
q-63 0 -90 -45.5t-27 -131.5q0 -112 31 -160t92 -48q28 0 55 8t49 24.5t37.5 43t20.5 62.5h33zM49 354q0 75 28.5 140.5t77.5 114.5t114.5 77.5t140.5 28.5t140.5 -28.5t114.5 -77.5t77.5 -114.5t28.5 -140.5t-28.5 -140.5t-77.5 -114.5t-114.5 -77.5t-140.5 -28.5
t-140.5 28.5t-114.5 77.5t-77.5 114.5t-28.5 140.5zM87 354q0 -67 25.5 -125.5t69.5 -102.5t102.5 -69.5t125.5 -25.5t125.5 25.5t102.5 69.5t69.5 102.5t25.5 125.5t-25.5 125.5t-69.5 102.5t-102.5 69.5t-125.5 25.5t-125.5 -25.5t-102.5 -69.5t-69.5 -102.5t-25.5 -125.5
z" />
    <glyph glyph-name="uni2206" unicode="&#x2206;" horiz-adv-x="572" 
d="M-43 0l5 16l412 654l26 8l66 -662l-4 -16h-505zM352 587l-345 -552h398z" />
    <glyph glyph-name="uni2126" unicode="&#x2126;" horiz-adv-x="667" 
d="M538 0h-208v15q23 28 56 65t66 82t61.5 96.5t43.5 108.5q21 78 17.5 133t-23 89.5t-51 50t-68.5 15.5q-40 0 -81 -16.5t-78 -52t-68 -91t-52 -133.5q-15 -55 -15 -104t8.5 -92t21 -80.5t23.5 -69.5l-11 -16h-203l12 119l17 2q1 -25 4 -40t8.5 -23.5t14.5 -11t22 -2.5h103
q-15 20 -33 50.5t-31 71t-15.5 91.5t13.5 111q19 72 55.5 129.5t83 98t100.5 62t109 21.5q57 0 99 -20.5t66.5 -59.5t29 -95.5t-14.5 -127.5q-14 -54 -42.5 -102.5t-62.5 -90.5t-70.5 -77t-66.5 -62h103q15 0 25.5 2t20 10t19.5 23.5t25 41.5l19 -2z" />
    <glyph glyph-name="mu" unicode="&#x3bc;" horiz-adv-x="500" 
d="M140 430h74l-78 -273q-5 -17 -7.5 -26.5t-4 -15t-2 -8.5t-0.5 -6q0 -8 1 -19t5.5 -22t14.5 -18.5t29 -7.5q23 0 48 15.5t48 44.5q15 19 24 32t16 28t13.5 36t16.5 55l54 185h74l-82 -282l-10 -32q-6 -18 -6 -39q0 -41 27 -41q25 0 39.5 21t27.5 48h18q-6 -20 -12 -34
t-12.5 -25t-14.5 -19t-19 -16q-14 -11 -32 -17t-33 -6q-29 0 -46.5 20.5t-17.5 53.5q0 5 0.5 15.5t2.5 21.5q-39 -57 -81 -84t-79 -27q-19 0 -32 5.5t-22 13.5t-14 17t-9 17q-8 -26 -12.5 -44t-7.5 -36t-5 -40l-5 -55q-7 -81 -54 -81q-16 0 -25.5 11t-9.5 28q0 6 1 11
t4.5 14t11 24l20.5 41q31 59 56 149z" />
    <glyph glyph-name="pi" unicode="&#x3c0;" horiz-adv-x="513" 
d="M527 445q-14 -26 -26 -40.5t-23 -26.5q-12 -2 -30 -2.5t-39 -0.5q-8 -21 -17.5 -53.5t-19 -68t-18.5 -70.5t-16 -61q-11 -42 -8.5 -66.5t28.5 -24.5q15 0 28.5 8.5t30.5 25.5l8 -15q-27 -35 -53.5 -48t-49.5 -13q-17 0 -29 5t-18 18.5t-5 36.5t11 59q18 67 40.5 137.5
t42.5 131.5q-45 2 -89.5 2h-73.5l-7 -23q-22 -83 -47 -146t-47 -107t-39 -68.5t-23 -29.5q-10 -5 -25.5 -10t-26.5 -6l-1 13q35 32 64.5 80.5t53.5 101.5t41.5 105t28.5 91q-26 0 -45 -4t-34.5 -10.5t-28.5 -15t-27 -18.5l-8 16q12 10 28 23.5t36.5 25.5t46.5 20t60 8
q25 0 53 -0.5t59 -1.5t64 -1.5t68 -0.5q21 0 34 6t31 27z" />
    <glyph glyph-name="afii61289" unicode="&#x2113;" horiz-adv-x="360" 
d="M289 84q-74 -93 -165 -93q-58 0 -76 37q-10 20 -8.5 51t16.5 87l24 91l-69 -46l-7 17l83 59l32 118q17 64 30.5 108t27 74t28 50.5t34.5 37.5q40 37 75 37q18 0 29.5 -10t16 -27t3.5 -39t-8 -47q-12 -45 -34 -85.5t-51 -77.5t-62.5 -69.5t-67.5 -61.5l-27 -102
q-13 -49 -15 -80.5t4.5 -50t20.5 -25.5t34 -7q33 0 63 19t57 48zM150 331q29 28 56 60t49.5 65.5t39 67t24.5 65.5q11 42 6.5 69.5t-27.5 27.5q-29 0 -55 -52t-57 -169z" />
    <glyph glyph-name="estimated" unicode="&#x212e;" horiz-adv-x="942" 
d="M285 326q-5 0 -5 -4v-189q0 -11 8 -21q46 -48 106.5 -75.5t129.5 -27.5q75 0 139 31t109 84h56q-52 -61 -131.5 -97.5t-173.5 -36.5q-80 0 -149.5 27t-122 74t-82.5 109.5t-30 134.5t30 135t82.5 110t122 74t149.5 27t150 -27t122.5 -74t83 -110t30.5 -135v-9h-624z
M767 540q0 5 -2 11.5t-7 11.5q-46 45 -105.5 71.5t-128.5 26.5t-129 -27.5t-106 -74.5q-9 -9 -9 -23v-186q0 -2 1.5 -4t3.5 -2h478q2 0 3 2t1 4v190z" />
    <glyph glyph-name="partialdiff" unicode="&#x2202;" horiz-adv-x="475" 
d="M274 415q34 0 67 -17.5t47 -56.5q8 24 16 48.5t16 52.5q11 38 15.5 78t0.5 79q-2 19 -9.5 39t-20.5 36t-31.5 26.5t-42.5 10.5q-35 0 -69 -14t-64 -34q-11 -2 -15 13.5t5 29.5q28 17 63 28.5t73 11.5q63 0 96.5 -36t47.5 -100q6 -27 6 -57.5t-3 -60t-8.5 -56t-11.5 -47.5
q-7 -26 -17.5 -57t-24 -64.5t-30.5 -66.5t-37 -61q-46 -66 -100 -107.5t-117 -41.5q-74 0 -104 51.5t-7 143.5q14 50 40 89.5t55 67.5q32 30 76 51t87 21h1zM278 383q-67 0 -128 -58q-30 -33 -51.5 -75.5t-34.5 -89.5q-8 -27 -7.5 -53t8.5 -46.5t24.5 -32.5t41.5 -12
q21 0 41.5 8.5t39 23t34.5 32.5t30 38q16 22 29 43.5t24 43.5t21.5 46t21.5 53q-2 11 -8.5 24.5t-18.5 25.5t-28.5 20.5t-37.5 8.5h-1z" />
    <glyph glyph-name="product" unicode="&#x220f;" horiz-adv-x="713" 
d="M686 648q-30 -2 -46.5 -4.5t-25 -8t-10 -14.5t-1.5 -25v-598q0 -19 2 -31t10 -18.5t24 -9.5t44 -5v-19h-212v19q28 2 44 4.5t24.5 8.5t10.5 18t2 33v616q0 19 -6 23.5t-26 4.5h-226q-20 0 -25.5 -4t-5.5 -21v-619q0 -19 1 -30.5t8 -18t22.5 -9.5t43.5 -6v-19h-205v19
q27 2 42.5 5t24 9t10.5 18t2 32v598q0 16 -2 25t-10.5 14.5t-25 8t-45.5 4.5v20h557v-20z" />
    <glyph glyph-name="summation" unicode="&#x2211;" horiz-adv-x="603" 
d="M543 -85h-413v17l213 354l-207 365v17h408l11 -142l-21 -4q-5 35 -12 57t-15 36q-4 7 -9.5 12.5t-16 8.5t-27 4.5t-43.5 1.5h-205l186 -324l-209 -355h252q29 0 47 2.5t31 13.5t23 34.5t24 64.5l21 -6z" />
    <glyph glyph-name="radical" unicode="&#x221a;" horiz-adv-x="608" 
d="M440 -131l-13 -9l-205 535l-80 -40l-9 26l126 61l169 -453h2l128 888l29 -9z" />
    <glyph glyph-name="infinity" unicode="&#x221e;" horiz-adv-x="734" 
d="M689 278q0 -32 -11.5 -58t-30 -44t-43 -28t-51.5 -10q-44 0 -81.5 27t-85.5 81q-18 -20 -36.5 -39.5t-39.5 -34.5t-44.5 -24.5t-51.5 -9.5q-27 0 -51.5 10.5t-42.5 29t-28.5 43.5t-10.5 54q0 30 10.5 55.5t29 44.5t44 29.5t55.5 10.5q26 0 49 -9.5t43.5 -24.5t39.5 -35
t37 -41q18 21 36.5 40.5t39 35t43.5 25t52 9.5q59 0 94 -38t35 -98v-1zM220 175q22 0 42.5 10t38.5 24.5t34 32t30 32.5q-15 18 -31.5 37t-35 34t-39.5 24.5t-46 9.5q-22 0 -39 -8.5t-29 -23t-18 -33.5t-6 -40q0 -42 27 -70.5t71 -28.5h1zM554 379q-23 0 -44 -11.5
t-39.5 -27.5t-34 -33.5t-27.5 -29.5q23 -25 42 -44t36 -32t33.5 -19.5t35.5 -6.5q22 0 39.5 8.5t29.5 23t18 32.5t6 36q0 51 -26.5 77.5t-67.5 26.5h-1z" />
    <glyph glyph-name="integral" unicode="&#x222b;" horiz-adv-x="435" 
d="M239 437q-5 118 3.5 193t26 117t43 57.5t54.5 15.5q15 0 30.5 -9t15.5 -27q0 -15 -8.5 -22.5t-21.5 -7.5q-10 0 -15 5t-9.5 11t-9 11t-12.5 5t-17.5 -7.5t-17.5 -26.5t-12.5 -52.5t-2.5 -85.5l17 -381q6 -135 -2.5 -216.5t-27 -125t-43.5 -57t-52 -13.5q-22 0 -34.5 11.5
t-12.5 25.5q-1 14 9 23.5t27 9.5q9 0 14 -5t9 -11.5t8.5 -11.5t12.5 -5q23 0 36.5 46.5t9.5 124.5z" />
    <glyph glyph-name="approxequal" unicode="&#x2248;" horiz-adv-x="534" 
d="M492 379q-17 -35 -44.5 -60t-69.5 -25q-27 0 -50 10t-55 28q-21 12 -41.5 21.5t-43.5 9.5q-31 0 -51.5 -20t-37.5 -49l-27 20q20 41 52 63.5t70 22.5q33 0 58 -14t44 -24q23 -13 41.5 -22t43.5 -9q27 0 46.5 17t39.5 52zM492 230q-17 -35 -44.5 -60t-69.5 -25
q-28 0 -50.5 10t-54.5 28q-21 12 -41.5 21.5t-42.5 9.5q-32 0 -53 -20.5t-37 -48.5l-27 20q20 41 52 63.5t70 22.5q34 0 58.5 -13.5t43.5 -23.5q22 -13 41 -22.5t44 -9.5q28 0 47 17t39 52z" />
    <glyph glyph-name="notequal" unicode="&#x2260;" horiz-adv-x="555" 
d="M366 377h143v-39h-159l-62 -133h221v-39h-237l-48 -105l-31 14l42 91h-136v39h153l60 133h-213v39h229l48 104l31 -14z" />
    <glyph glyph-name="lessequal" unicode="&#x2264;" horiz-adv-x="574" 
d="M123 306v39l403 206v-47l-360 -177v-2l360 -179v-47zM118 21v40h410v-40h-410z" />
    <glyph glyph-name="greaterequal" unicode="&#x2265;" horiz-adv-x="574" 
d="M526 345v-39l-402 -207v47l359 178v2l-359 178v47zM119 21v40h409v-40h-409z" />
    <glyph glyph-name="lozenge" unicode="&#x25ca;" horiz-adv-x="614" 
d="M383 -64h-44l-185 388l186 391h43l185 -391zM363 669h-3l-162 -343l163 -346h2l161 344z" />
    <glyph glyph-name="uni00A0" unicode="&#xa0;" horiz-adv-x="279" 
 />
    <glyph glyph-name="uni02C9" unicode="&#x2c9;" 
d="M93 550h285l-13 -45h-285z" />
    <glyph glyph-name="Omega" unicode="&#x3a9;" horiz-adv-x="667" 
d="M538 0h-208v15q23 28 56 65t66 82t61.5 96.5t43.5 108.5q21 78 17.5 133t-23 89.5t-51 50t-68.5 15.5q-40 0 -81 -16.5t-78 -52t-68 -91t-52 -133.5q-15 -55 -15 -104t8.5 -92t21 -80.5t23.5 -69.5l-11 -16h-203l12 119l17 2q1 -25 4 -40t8.5 -23.5t14.5 -11t22 -2.5h103
q-15 20 -33 50.5t-31 71t-15.5 91.5t13.5 111q19 72 55.5 129.5t83 98t100.5 62t109 21.5q57 0 99 -20.5t66.5 -59.5t29 -95.5t-14.5 -127.5q-14 -54 -42.5 -102.5t-62.5 -90.5t-70.5 -77t-66.5 -62h103q15 0 25.5 2t20 10t19.5 23.5t25 41.5l19 -2z" />
    <glyph glyph-name="uni00AD" unicode="&#xad;" horiz-adv-x="351" 
d="M65 310h227l-16 -59h-227z" />
    <glyph glyph-name="uni00B9" unicode="&#xb9;" horiz-adv-x="343" 
d="M176 685q31 0 61 6.5t55 24.5h16l-88 -310q-2 -8 -2 -13q0 -25 32 -25h35l-10 -33h-215l9 33h38q38 0 48 33l60 214q3 9 3 20q0 17 -31 17h-53l10 33h32z" />
    <glyph glyph-name="uni00B2" unicode="&#xb2;" horiz-adv-x="343" 
d="M213 490q-45 -28 -73.5 -48t-43.5 -36q27 8 50 8q21 0 41.5 -4.5t41.5 -4.5q17 0 30 9t27 34h33q-26 -54 -56 -82.5t-59 -28.5q-15 0 -29.5 6.5t-28.5 15t-27 15t-26 6.5q-15 0 -15 -15q0 -1 1 -4.5t1 -5.5q0 -18 -18 -18q-20 0 -20 25q0 17 7.5 32.5t20.5 29.5
t28.5 26.5t32.5 23.5q61 40 100 82.5t39 82.5q0 21 -13.5 32.5t-37.5 11.5q-12 0 -25.5 -4t-24 -10t-17.5 -12.5t-7 -11.5q0 -8 8 -10q9 -3 13 -8.5t4 -18.5q0 -18 -12.5 -30.5t-32.5 -12.5q-17 0 -28 12t-11 30q0 21 13.5 41t35.5 35.5t51 24.5t59 9q45 0 73 -21t28 -54
q0 -23 -10.5 -43.5t-29 -39.5t-42.5 -36t-51 -33z" />
    <glyph glyph-name="uni00B3" unicode="&#xb3;" horiz-adv-x="343" 
d="M341 636q0 -25 -21 -43.5t-72 -43.5q44 -13 63 -40t19 -65q0 -24 -11.5 -44t-31.5 -34.5t-47.5 -22.5t-59.5 -8q-53 0 -82 22t-29 63q0 21 11 34t31 13q13 0 20.5 -8.5t7.5 -21.5q0 -14 -7 -24t-18 -11q-7 -1 -7 -6q0 -11 20 -20t49 -9q17 0 30 5t24 19q13 17 23.5 44
t10.5 48q0 18 -12.5 29t-33.5 11q-15 0 -25 -6.5t-17 -6.5q-8 0 -12 5t-4 11q0 13 22 20q98 34 98 92q0 20 -14.5 31.5t-37.5 11.5q-14 0 -26 -5.5t-12 -11.5q0 -5 5 -8t5 -15q0 -14 -9 -21.5t-24 -7.5q-16 0 -25.5 8t-9.5 22q0 31 32.5 51t81.5 20q42 0 68.5 -21t26.5 -56z
" />
    <glyph glyph-name="uni2084" unicode="&#x2084;" horiz-adv-x="343" 
d="M185 143h65l-9 -34h-65l-9 -32q-1 -5 -1.5 -8.5t-0.5 -7.5q0 -28 32 -28h26l-9 -33h-197l9 33h40q13 0 23 6.5t13 16.5l15 53h-137l-8 34l209 226h69zM126 143l49 171l-159 -171h110z" />
    <glyph glyph-name="uni2082" unicode="&#x2082;" horiz-adv-x="343" 
d="M145 145q-45 -27 -73.5 -47.5t-44.5 -36.5q27 8 51 8q21 0 41.5 -4.5t41.5 -4.5q17 0 29.5 9t26.5 35h33q-26 -55 -55.5 -83.5t-58.5 -28.5q-16 0 -30.5 6.5t-28 15t-26.5 15t-26 6.5q-15 0 -15 -14q0 -2 0.5 -5.5t0.5 -5.5q0 -18 -17 -18q-21 0 -21 25q0 17 8 32.5
t20.5 29.5t28.5 26.5t33 23.5q61 41 99.5 83.5t38.5 81.5q0 44 -50 44q-13 0 -26 -4t-24 -10t-18 -12.5t-7 -11.5q0 -7 8 -10q18 -4 18 -26q0 -19 -12.5 -31.5t-32.5 -12.5q-17 0 -28 12t-11 30q0 21 13.5 41t35.5 35.5t50.5 25t58.5 9.5q45 0 73 -21.5t28 -54.5
q0 -23 -10.5 -43.5t-28.5 -39.5t-42 -36t-51 -33z" />
    <glyph glyph-name="onequarter" unicode="&#xbc;" horiz-adv-x="789" 
d="M631 143h65l-9 -34h-65l-9 -32q-1 -5 -1.5 -8.5t-0.5 -7.5q0 -28 32 -28h26l-9 -33h-197l9 33h40q13 0 23 6.5t13 16.5l15 53h-137l-8 34l209 226h69zM714 716h65l-655 -750h-65zM176 685q31 0 61 6.5t55 24.5h16l-88 -310q-2 -8 -2 -13q0 -25 32 -25h35l-10 -33h-215
l9 33h38q38 0 48 33l60 214q3 9 3 20q0 17 -31 17h-53l10 33h32zM572 143l49 171l-159 -171h110z" />
    <glyph glyph-name="onehalf" unicode="&#xbd;" horiz-adv-x="789" 
d="M714 716h65l-655 -750h-65zM591 145q-45 -27 -73.5 -47.5t-44.5 -36.5q27 8 51 8q21 0 41.5 -4.5t41.5 -4.5q17 0 29.5 9t26.5 35h33q-26 -55 -55.5 -83.5t-58.5 -28.5q-16 0 -30.5 6.5t-28 15t-26.5 15t-26 6.5q-15 0 -15 -14q0 -2 0.5 -5.5t0.5 -5.5q0 -18 -17 -18
q-21 0 -21 25q0 17 8 32.5t20.5 29.5t28.5 26.5t33 23.5q61 41 99.5 83.5t38.5 81.5q0 44 -50 44q-13 0 -26 -4t-24 -10t-18 -12.5t-7 -11.5q0 -7 8 -10q18 -4 18 -26q0 -19 -12.5 -31.5t-32.5 -12.5q-17 0 -28 12t-11 30q0 21 13.5 41t35.5 35.5t50.5 25t58.5 9.5
q45 0 73 -21.5t28 -54.5q0 -23 -10.5 -43.5t-28.5 -39.5t-42 -36t-51 -33zM176 685q31 0 61 6.5t55 24.5h16l-88 -310q-2 -8 -2 -13q0 -25 32 -25h35l-10 -33h-215l9 33h38q38 0 48 33l60 214q3 9 3 20q0 17 -31 17h-53l10 33h32z" />
    <glyph glyph-name="threequarters" unicode="&#xbe;" horiz-adv-x="789" 
d="M631 143h65l-9 -34h-65l-9 -32q-1 -5 -1.5 -8.5t-0.5 -7.5q0 -28 32 -28h26l-9 -33h-197l9 33h40q13 0 23 6.5t13 16.5l15 53h-137l-8 34l209 226h69zM714 716h65l-655 -750h-65zM341 636q0 -25 -21 -43.5t-72 -43.5q44 -13 63 -40t19 -65q0 -24 -11.5 -44t-31.5 -34.5
t-47.5 -22.5t-59.5 -8q-53 0 -82 22t-29 63q0 21 11 34t31 13q13 0 20.5 -8.5t7.5 -21.5q0 -14 -7 -24t-18 -11q-7 -1 -7 -6q0 -11 20 -20t49 -9q17 0 30 5t24 19q13 17 23.5 44t10.5 48q0 18 -12.5 29t-33.5 11q-15 0 -25 -6.5t-17 -6.5q-8 0 -12 5t-4 11q0 13 22 20
q98 34 98 92q0 20 -14.5 31.5t-37.5 11.5q-14 0 -26 -5.5t-12 -11.5q0 -5 5 -8t5 -15q0 -14 -9 -21.5t-24 -7.5q-16 0 -25.5 8t-9.5 22q0 31 32.5 51t81.5 20q42 0 68.5 -21t26.5 -56zM572 143l49 171l-159 -171h110z" />
    <glyph glyph-name="Agrave" unicode="&#xc0;" horiz-adv-x="772" 
d="M222 216q-19 -27 -31 -45.5t-18.5 -32t-9 -24t-2.5 -20.5q0 -28 19 -44.5t51 -16.5h38l-10 -33h-313l9 33h10q28 0 52 8.5t47.5 28.5t49 52t57.5 79l361 519h51v-623q0 -35 13.5 -49.5t39.5 -14.5h47l-10 -33h-308l10 33h58q29 0 41 12t12 42v164h-240zM486 284v310
l-217 -310h217zM476 877q-17 14 -23.5 25.5t-6.5 25.5q0 16 9.5 25.5t25.5 9.5q23 0 39.5 -14.5t39.5 -55.5l64 -109h-32z" />
    <glyph glyph-name="Acircumflex" unicode="&#xc2;" horiz-adv-x="772" 
d="M222 216q-19 -27 -31 -45.5t-18.5 -32t-9 -24t-2.5 -20.5q0 -28 19 -44.5t51 -16.5h38l-10 -33h-313l9 33h10q28 0 52 8.5t47.5 28.5t49 52t57.5 79l361 519h51v-623q0 -35 13.5 -49.5t39.5 -14.5h47l-10 -33h-308l10 33h58q29 0 41 12t12 42v164h-240zM486 284v310
l-217 -310h217zM624 881l-153 -99h-40l180 165h62l44 -165h-31z" />
    <glyph glyph-name="Atilde" unicode="&#xc3;" horiz-adv-x="772" 
d="M222 216q-19 -27 -31 -45.5t-18.5 -32t-9 -24t-2.5 -20.5q0 -28 19 -44.5t51 -16.5h38l-10 -33h-313l9 33h10q28 0 52 8.5t47.5 28.5t49 52t57.5 79l361 519h51v-623q0 -35 13.5 -49.5t39.5 -14.5h47l-10 -33h-308l10 33h58q29 0 41 12t12 42v164h-240zM486 284v310
l-217 -310h217zM760 915q-11 -117 -97 -117q-15 0 -32 5t-37 17q-20 11 -44 24.5t-42 13.5q-36 0 -45 -60h-32q9 117 98 117q17 0 34 -6.5t36 -17.5q23 -14 44.5 -24.5t39.5 -10.5q14 0 28 15t16 44h33z" />
    <glyph glyph-name="Adieresis" unicode="&#xc4;" horiz-adv-x="772" 
d="M222 216q-19 -27 -31 -45.5t-18.5 -32t-9 -24t-2.5 -20.5q0 -28 19 -44.5t51 -16.5h38l-10 -33h-313l9 33h10q28 0 52 8.5t47.5 28.5t49 52t57.5 79l361 519h51v-623q0 -35 13.5 -49.5t39.5 -14.5h47l-10 -33h-308l10 33h58q29 0 41 12t12 42v164h-240zM486 284v310
l-217 -310h217zM446 850q0 21 15 36t37 15q21 0 36 -15t15 -36t-15 -36t-36 -15q-22 0 -37 15t-15 36zM638 850q0 21 15 36t36 15t36 -15t15 -36t-15 -36t-36 -15t-36 15t-15 36z" />
    <glyph glyph-name="Amacron" unicode="&#x100;" horiz-adv-x="772" 
d="M222 216q-19 -27 -31 -45.5t-18.5 -32t-9 -24t-2.5 -20.5q0 -28 19 -44.5t51 -16.5h38l-10 -33h-313l9 33h10q28 0 52 8.5t47.5 28.5t49 52t57.5 79l361 519h51v-623q0 -35 13.5 -49.5t39.5 -14.5h47l-10 -33h-308l10 33h58q29 0 41 12t12 42v164h-240zM486 284v310
l-217 -310h217zM456 868h285l-13 -48h-286z" />
    <glyph glyph-name="Abreve" unicode="&#x102;" horiz-adv-x="772" 
d="M222 216q-19 -27 -31 -45.5t-18.5 -32t-9 -24t-2.5 -20.5q0 -28 19 -44.5t51 -16.5h38l-10 -33h-313l9 33h10q28 0 52 8.5t47.5 28.5t49 52t57.5 79l361 519h51v-623q0 -35 13.5 -49.5t39.5 -14.5h47l-10 -33h-308l10 33h58q29 0 41 12t12 42v164h-240zM486 284v310
l-217 -310h217zM763 948q-31 -72 -76 -111t-96 -39q-52 0 -81.5 40t-29.5 110h32q0 -36 24.5 -58t62.5 -22t73 21.5t58 58.5h33z" />
    <glyph glyph-name="Aring" unicode="&#xc5;" horiz-adv-x="772" 
d="M222 216q-19 -27 -31 -45.5t-18.5 -32t-9 -24t-2.5 -20.5q0 -28 19 -44.5t51 -16.5h38l-10 -33h-313l9 33h10q28 0 52 8.5t47.5 28.5t49 52t57.5 79l361 519h51v-623q0 -35 13.5 -49.5t39.5 -14.5h47l-10 -33h-308l10 33h58q29 0 41 12t12 42v164h-240zM486 284v310
l-217 -310h217zM486 875q0 43 29.5 72.5t72.5 29.5q21 0 40 -8t33 -21.5t22 -32.5t8 -40t-8 -40t-22 -32.5t-33 -21.5t-40 -8q-43 0 -72.5 29.5t-29.5 72.5zM519 875q0 -29 20 -49.5t49 -20.5t49.5 20.5t20.5 49.5t-20.5 49.5t-49.5 20.5t-49 -20.5t-20 -49.5z" />
    <glyph glyph-name="Dcaron" unicode="&#x10e;" horiz-adv-x="752" 
d="M156 708h279q59 0 110 -22.5t89 -62t60 -93.5t22 -117q0 -75 -32 -144t-89 -127q-71 -74 -152.5 -108t-191.5 -34h-295l9 33h61q18 0 34 14.5t22 35.5l152 537q2 6 3 13t1 12q0 30 -47 30h-44zM183 82q-3 -11 -4.5 -18.5t-1.5 -13.5q0 -9 12 -13t42 -4q53 0 88.5 3.5
t62.5 11.5q44 13 78.5 44.5t61 73t45 88.5t30 92.5t17 85t5.5 65.5q0 89 -48.5 133.5t-151.5 44.5h-15q-31 0 -43.5 -4t-17.5 -23zM409 947l62 -99l153 99h40l-179 -165h-62l-45 165h31z" />
    <glyph glyph-name="Igrave" unicode="&#xcc;" horiz-adv-x="370" 
d="M156 708h306l-9 -33h-34q-38 0 -55.5 -9.5t-25.5 -35.5l-154 -546q-3 -9 -3 -19q0 -32 46 -32h44l-9 -33h-306l9 33h61q18 0 34 14.5t22 35.5l152 537q2 7 3 13.5t1 11.5q0 30 -47 30h-44zM202 877q-17 14 -23.5 25.5t-6.5 25.5q0 16 9.5 25.5t25.5 9.5q23 0 39.5 -14.5
t39.5 -55.5l64 -109h-32z" />
    <glyph glyph-name="Icircumflex" unicode="&#xce;" horiz-adv-x="370" 
d="M156 708h306l-9 -33h-34q-38 0 -55.5 -9.5t-25.5 -35.5l-154 -546q-3 -9 -3 -19q0 -32 46 -32h44l-9 -33h-306l9 33h61q18 0 34 14.5t22 35.5l152 537q2 7 3 13.5t1 11.5q0 30 -47 30h-44zM350 881l-153 -99h-40l180 165h62l44 -165h-31z" />
    <glyph glyph-name="Itilde" unicode="&#x128;" horiz-adv-x="370" 
d="M156 708h306l-9 -33h-34q-38 0 -55.5 -9.5t-25.5 -35.5l-154 -546q-3 -9 -3 -19q0 -32 46 -32h44l-9 -33h-306l9 33h61q18 0 34 14.5t22 35.5l152 537q2 7 3 13.5t1 11.5q0 30 -47 30h-44zM486 915q-11 -117 -97 -117q-15 0 -32 5t-37 17q-20 11 -44 24.5t-42 13.5
q-36 0 -45 -60h-32q9 117 98 117q17 0 34 -6.5t36 -17.5q23 -14 44.5 -24.5t39.5 -10.5q14 0 28 15t16 44h33z" />
    <glyph glyph-name="Idieresis" unicode="&#xcf;" horiz-adv-x="370" 
d="M156 708h306l-9 -33h-34q-38 0 -55.5 -9.5t-25.5 -35.5l-154 -546q-3 -9 -3 -19q0 -32 46 -32h44l-9 -33h-306l9 33h61q18 0 34 14.5t22 35.5l152 537q2 7 3 13.5t1 11.5q0 30 -47 30h-44zM172 850q0 21 15 36t37 15q21 0 36 -15t15 -36t-15 -36t-36 -15q-22 0 -37 15
t-15 36zM364 850q0 21 15 36t36 15t36 -15t15 -36t-15 -36t-36 -15t-36 15t-15 36z" />
    <glyph glyph-name="Imacron" unicode="&#x12a;" horiz-adv-x="370" 
d="M156 708h306l-9 -33h-34q-38 0 -55.5 -9.5t-25.5 -35.5l-154 -546q-3 -9 -3 -19q0 -32 46 -32h44l-9 -33h-306l9 33h61q18 0 34 14.5t22 35.5l152 537q2 7 3 13.5t1 11.5q0 30 -47 30h-44zM183 868h285l-13 -48h-286z" />
    <glyph glyph-name="Ibreve" unicode="&#x12c;" horiz-adv-x="370" 
d="M156 708h306l-9 -33h-34q-38 0 -55.5 -9.5t-25.5 -35.5l-154 -546q-3 -9 -3 -19q0 -32 46 -32h44l-9 -33h-306l9 33h61q18 0 34 14.5t22 35.5l152 537q2 7 3 13.5t1 11.5q0 30 -47 30h-44zM490 948q-31 -72 -76 -111t-96 -39q-52 0 -81.5 40t-29.5 110h32q0 -36 24.5 -58
t62.5 -22t73 21.5t58 58.5h33z" />
    <glyph glyph-name="Idotaccent" unicode="&#x130;" horiz-adv-x="370" 
d="M156 708h306l-9 -33h-34q-38 0 -55.5 -9.5t-25.5 -35.5l-154 -546q-3 -9 -3 -19q0 -32 46 -32h44l-9 -33h-306l9 33h61q18 0 34 14.5t22 35.5l152 537q2 7 3 13.5t1 11.5q0 30 -47 30h-44zM265 858q0 23 16.5 39.5t39.5 16.5t40 -16.5t17 -39.5t-17 -39.5t-40 -16.5
t-39.5 16.5t-16.5 39.5z" />
    <glyph glyph-name="Aacute" unicode="&#xc1;" horiz-adv-x="772" 
d="M222 216q-19 -27 -31 -45.5t-18.5 -32t-9 -24t-2.5 -20.5q0 -28 19 -44.5t51 -16.5h38l-10 -33h-313l9 33h10q28 0 52 8.5t47.5 28.5t49 52t57.5 79l361 519h51v-623q0 -35 13.5 -49.5t39.5 -14.5h47l-10 -33h-308l10 33h58q29 0 41 12t12 42v164h-240zM486 284v310
l-217 -310h217zM558 784h-31l68 109q24 39 38.5 54.5t36.5 15.5q15 0 24.5 -9.5t9.5 -25.5q0 -14 -8 -25t-26 -26z" />
    <glyph glyph-name="Iacute" unicode="&#xcd;" horiz-adv-x="370" 
d="M156 708h306l-9 -33h-34q-38 0 -55.5 -9.5t-25.5 -35.5l-154 -546q-3 -9 -3 -19q0 -32 46 -32h44l-9 -33h-306l9 33h61q18 0 34 14.5t22 35.5l152 537q2 7 3 13.5t1 11.5q0 30 -47 30h-44zM284 784h-31l68 109q24 39 38.5 54.5t36.5 15.5q15 0 24.5 -9.5t9.5 -25.5
q0 -14 -8 -25t-26 -26z" />
    <glyph glyph-name="Jcircumflex" unicode="&#x134;" horiz-adv-x="520" 
d="M287 708h332l-9 -33h-50q-53 0 -67 -52l-122 -429q-13 -45 -37 -83t-55.5 -65t-69 -42.5t-76.5 -15.5q-32 0 -59 9.5t-47 26.5t-31.5 40.5t-11.5 51.5q0 52 25.5 82.5t63.5 30.5q25 0 41 -17t16 -43q0 -24 -18 -41t-50 -22q-33 -4 -33 -20q0 -23 27 -43t68 -20
q36 0 60.5 17.5t42 46t29 63t21.5 69.5l106 376q11 35 11 49q0 31 -39 31h-78zM536 881l-153 -99h-40l180 165h62l44 -165h-31z" />
    <glyph glyph-name="Aogonek" unicode="&#x104;" horiz-adv-x="772" 
d="M365 0l10 33h58q29 0 41 12t12 42v164h-240l-24 -35q-19 -27 -31 -45.5t-18.5 -32t-9 -24t-2.5 -20.5q0 -28 19 -44.5t51 -16.5h38l-10 -33h-313l9 33h10q28 0 52 8.5t47.5 28.5t49 52t57.5 79l361 519h51v-623q0 -35 13.5 -49.5t39.5 -14.5h47l-10 -33h-110
q-16 -11 -30.5 -21.5t-33.5 -24.5q-30 -23 -48 -56t-18 -65q0 -17 9 -26t23 -9q17 0 31 7.5t33 31.5l27 -20q-23 -29 -47.5 -43t-62.5 -14q-47 0 -74 18.5t-27 52.5t21 62t70 61l71 46h-142zM486 284v310l-217 -310h217z" />
    <glyph glyph-name="Iogonek" unicode="&#x12e;" horiz-adv-x="370" 
d="M-44 0l9 33h61q18 0 34 14.5t22 35.5l152 537q2 7 3 13.5t1 11.5q0 30 -47 30h-44l9 33h306l-9 -33h-34q-38 0 -55.5 -9.5t-25.5 -35.5l-154 -546q-3 -9 -3 -19q0 -32 46 -32h44l-9 -33h-125q-16 -11 -30.5 -21.5t-33.5 -24.5q-30 -23 -48 -56t-18 -65q0 -17 9 -26t23 -9
q17 0 31 7.5t33 31.5l27 -20q-23 -29 -47.5 -43t-62.5 -14q-47 0 -74 18.5t-27 52.5t21 62t70 61l71 46h-125z" />
    <glyph glyph-name="Gcircumflex" unicode="&#x11c;" horiz-adv-x="713" 
d="M478 -10q2 14 3 22.5t1 17.5q0 46 -16 46q-6 0 -12 -3.5t-17 -14.5q-74 -68 -155 -68q-47 0 -87.5 22t-70.5 59.5t-47.5 88.5t-17.5 109q0 50 16.5 103.5t45.5 104t67.5 95t82 78t89.5 53t90 19.5q42 0 71 -18t49 -44q10 -12 18.5 -16t18.5 -4q14 0 32.5 21.5t32.5 59.5
h33l-86 -342h-33q4 24 6 44t2 40q0 50 -11 91.5t-30.5 71t-47 46t-61.5 16.5t-63.5 -17.5t-58.5 -46.5q-31 -32 -61.5 -88t-54.5 -120.5t-38.5 -128.5t-14.5 -112q0 -70 35.5 -111t98.5 -41q19 0 39 5.5t39 17.5q33 23 63.5 59t45.5 85l3 12q4 13 5 21t1 13q0 16 -10.5 22.5
t-36.5 6.5h-73l9 32h326l-9 -32h-52q-28 0 -42.5 -13t-24.5 -45l-61 -217h-31v0zM504 881l-153 -99h-40l180 165h62l44 -165h-31z" />
    <glyph glyph-name="Gbreve" unicode="&#x11e;" horiz-adv-x="713" 
d="M478 -10q2 14 3 22.5t1 17.5q0 46 -16 46q-6 0 -12 -3.5t-17 -14.5q-74 -68 -155 -68q-47 0 -87.5 22t-70.5 59.5t-47.5 88.5t-17.5 109q0 50 16.5 103.5t45.5 104t67.5 95t82 78t89.5 53t90 19.5q42 0 71 -18t49 -44q10 -12 18.5 -16t18.5 -4q14 0 32.5 21.5t32.5 59.5
h33l-86 -342h-33q4 24 6 44t2 40q0 50 -11 91.5t-30.5 71t-47 46t-61.5 16.5t-63.5 -17.5t-58.5 -46.5q-31 -32 -61.5 -88t-54.5 -120.5t-38.5 -128.5t-14.5 -112q0 -70 35.5 -111t98.5 -41q19 0 39 5.5t39 17.5q33 23 63.5 59t45.5 85l3 12q4 13 5 21t1 13q0 16 -10.5 22.5
t-36.5 6.5h-73l9 32h326l-9 -32h-52q-28 0 -42.5 -13t-24.5 -45l-61 -217h-31v0zM643 948q-31 -72 -76 -111t-96 -39q-52 0 -81.5 40t-29.5 110h32q0 -36 24.5 -58t62.5 -22t73 21.5t58 58.5h33z" />
    <glyph glyph-name="Gdotaccent" unicode="&#x120;" horiz-adv-x="713" 
d="M478 -10q2 14 3 22.5t1 17.5q0 46 -16 46q-6 0 -12 -3.5t-17 -14.5q-74 -68 -155 -68q-47 0 -87.5 22t-70.5 59.5t-47.5 88.5t-17.5 109q0 50 16.5 103.5t45.5 104t67.5 95t82 78t89.5 53t90 19.5q42 0 71 -18t49 -44q10 -12 18.5 -16t18.5 -4q14 0 32.5 21.5t32.5 59.5
h33l-86 -342h-33q4 24 6 44t2 40q0 50 -11 91.5t-30.5 71t-47 46t-61.5 16.5t-63.5 -17.5t-58.5 -46.5q-31 -32 -61.5 -88t-54.5 -120.5t-38.5 -128.5t-14.5 -112q0 -70 35.5 -111t98.5 -41q19 0 39 5.5t39 17.5q33 23 63.5 59t45.5 85l3 12q4 13 5 21t1 13q0 16 -10.5 22.5
t-36.5 6.5h-73l9 32h326l-9 -32h-52q-28 0 -42.5 -13t-24.5 -45l-61 -217h-31v0zM419 858q0 23 16.5 39.5t39.5 16.5t40 -16.5t17 -39.5t-17 -39.5t-40 -16.5t-39.5 16.5t-16.5 39.5z" />
    <glyph glyph-name="Hcircumflex" unicode="&#x124;" horiz-adv-x="755" 
d="M542 708h306l-10 -33h-34q-38 0 -55.5 -9.5t-25.5 -35.5l-154 -546q-3 -9 -3 -19q0 -32 46 -32h45l-10 -33h-306l10 33h60q18 0 34 14.5t22 35.5l75 266h-284l-74 -265q-3 -9 -3 -19q0 -32 46 -32h44l-9 -33h-306l9 33h61q18 0 34 14.5t22 35.5l152 537q2 7 3 13.5
t1 11.5q0 30 -47 30h-44l9 33h306l-9 -33h-34q-38 0 -55.5 -9.5t-25.5 -35.5l-71 -249h284l68 239q4 12 4 25q0 30 -46 30h-45zM558 881l-153 -99h-40l180 165h62l44 -165h-31z" />
    <glyph glyph-name="Lacute" unicode="&#x139;" horiz-adv-x="655" 
d="M156 708h306l-9 -33h-34q-38 0 -55.5 -9.5t-25.5 -35.5l-154 -546q-5 -14 -6 -20t-1 -14q0 -17 31 -17h75q28 0 59 10t60.5 27t56 41t47.5 53q19 26 34.5 52.5t36.5 66.5h30l-85 -283h-566l9 33h61q18 0 34 14.5t22 35.5l152 537q2 7 3 13.5t1 11.5q0 30 -47 30h-44z
M299 784h-31l68 109q24 39 38.5 54.5t36.5 15.5q15 0 24.5 -9.5t9.5 -25.5q0 -14 -8 -25t-26 -26z" />
    <glyph glyph-name="Nacute" unicode="&#x143;" horiz-adv-x="782" 
d="M341 708l221 -560l101 353q10 37 10 70q0 49 -27 76.5t-75 27.5h-18l9 33h308l-9 -33h-20q-30 0 -50 -11q-35 -18 -53.5 -52.5t-29.5 -72.5l-155 -546h-34l-244 616l-110 -390q-14 -48 -14 -80q0 -49 30.5 -77.5t84.5 -28.5h30l-9 -33h-331l9 33h6q45 0 83 33
q20 17 37 46t29 70l118 416q2 8 2 17q0 29 -18 44.5t-53 15.5h-22l10 33h184zM467 784h-31l68 109q24 39 38.5 54.5t36.5 15.5q15 0 24.5 -9.5t9.5 -25.5q0 -14 -8 -25t-26 -26z" />
    <glyph glyph-name="Ncaron" unicode="&#x147;" horiz-adv-x="782" 
d="M341 708l221 -560l101 353q10 37 10 70q0 49 -27 76.5t-75 27.5h-18l9 33h308l-9 -33h-20q-30 0 -50 -11q-35 -18 -53.5 -52.5t-29.5 -72.5l-155 -546h-34l-244 616l-110 -390q-14 -48 -14 -80q0 -49 30.5 -77.5t84.5 -28.5h30l-9 -33h-331l9 33h6q45 0 83 33
q20 17 37 46t29 70l118 416q2 8 2 17q0 29 -18 44.5t-53 15.5h-22l10 33h184zM441 947l62 -99l153 99h40l-179 -165h-62l-45 165h31z" />
    <glyph glyph-name="Ntilde" unicode="&#xd1;" horiz-adv-x="782" 
d="M341 708l221 -560l101 353q10 37 10 70q0 49 -27 76.5t-75 27.5h-18l9 33h308l-9 -33h-20q-30 0 -50 -11q-35 -18 -53.5 -52.5t-29.5 -72.5l-155 -546h-34l-244 616l-110 -390q-14 -48 -14 -80q0 -49 30.5 -77.5t84.5 -28.5h30l-9 -33h-331l9 33h6q45 0 83 33
q20 17 37 46t29 70l118 416q2 8 2 17q0 29 -18 44.5t-53 15.5h-22l10 33h184zM670 915q-11 -117 -97 -117q-15 0 -32 5t-37 17q-20 11 -44 24.5t-42 13.5q-36 0 -45 -60h-32q9 117 98 117q17 0 34 -6.5t36 -17.5q23 -14 44.5 -24.5t39.5 -10.5q14 0 28 15t16 44h33z" />
    <glyph glyph-name="Ograve" unicode="&#xd2;" horiz-adv-x="740" 
d="M285 -15q-48 0 -89.5 21.5t-72 59.5t-47.5 89.5t-17 111.5q0 54 16.5 109t46 105.5t68.5 94.5t84.5 76.5t94.5 51t98 18.5q51 0 92.5 -21t71 -59t45.5 -90.5t16 -116.5q0 -54 -16.5 -108t-45.5 -104t-68.5 -93.5t-84.5 -75.5t-94 -50.5t-98 -18.5zM289 18q26 0 54 9.5
t56 30.5t54 54.5t49 81.5q9 19 25.5 60.5t33 91t28.5 99.5t12 86q0 75 -37 116t-103 41q-41 0 -76.5 -18t-65.5 -50q-29 -30 -52 -70.5t-42 -85.5t-32.5 -90.5t-22.5 -85.5t-13.5 -71.5t-4.5 -46.5q0 -30 8 -57.5t25 -48.5t43 -33.5t61 -12.5zM365 877q-17 14 -23.5 25.5
t-6.5 25.5q0 16 9.5 25.5t25.5 9.5q23 0 39.5 -14.5t39.5 -55.5l64 -109h-32z" />
    <glyph glyph-name="Oacute" unicode="&#xd3;" horiz-adv-x="740" 
d="M285 -15q-48 0 -89.5 21.5t-72 59.5t-47.5 89.5t-17 111.5q0 54 16.5 109t46 105.5t68.5 94.5t84.5 76.5t94.5 51t98 18.5q51 0 92.5 -21t71 -59t45.5 -90.5t16 -116.5q0 -54 -16.5 -108t-45.5 -104t-68.5 -93.5t-84.5 -75.5t-94 -50.5t-98 -18.5zM289 18q26 0 54 9.5
t56 30.5t54 54.5t49 81.5q9 19 25.5 60.5t33 91t28.5 99.5t12 86q0 75 -37 116t-103 41q-41 0 -76.5 -18t-65.5 -50q-29 -30 -52 -70.5t-42 -85.5t-32.5 -90.5t-22.5 -85.5t-13.5 -71.5t-4.5 -46.5q0 -30 8 -57.5t25 -48.5t43 -33.5t61 -12.5zM447 784h-31l68 109
q24 39 38.5 54.5t36.5 15.5q15 0 24.5 -9.5t9.5 -25.5q0 -14 -8 -25t-26 -26z" />
    <glyph glyph-name="Ocircumflex" unicode="&#xd4;" horiz-adv-x="740" 
d="M285 -15q-48 0 -89.5 21.5t-72 59.5t-47.5 89.5t-17 111.5q0 54 16.5 109t46 105.5t68.5 94.5t84.5 76.5t94.5 51t98 18.5q51 0 92.5 -21t71 -59t45.5 -90.5t16 -116.5q0 -54 -16.5 -108t-45.5 -104t-68.5 -93.5t-84.5 -75.5t-94 -50.5t-98 -18.5zM289 18q26 0 54 9.5
t56 30.5t54 54.5t49 81.5q9 19 25.5 60.5t33 91t28.5 99.5t12 86q0 75 -37 116t-103 41q-41 0 -76.5 -18t-65.5 -50q-29 -30 -52 -70.5t-42 -85.5t-32.5 -90.5t-22.5 -85.5t-13.5 -71.5t-4.5 -46.5q0 -30 8 -57.5t25 -48.5t43 -33.5t61 -12.5zM513 881l-153 -99h-40l180 165
h62l44 -165h-31z" />
    <glyph glyph-name="Otilde" unicode="&#xd5;" horiz-adv-x="740" 
d="M285 -15q-48 0 -89.5 21.5t-72 59.5t-47.5 89.5t-17 111.5q0 54 16.5 109t46 105.5t68.5 94.5t84.5 76.5t94.5 51t98 18.5q51 0 92.5 -21t71 -59t45.5 -90.5t16 -116.5q0 -54 -16.5 -108t-45.5 -104t-68.5 -93.5t-84.5 -75.5t-94 -50.5t-98 -18.5zM289 18q26 0 54 9.5
t56 30.5t54 54.5t49 81.5q9 19 25.5 60.5t33 91t28.5 99.5t12 86q0 75 -37 116t-103 41q-41 0 -76.5 -18t-65.5 -50q-29 -30 -52 -70.5t-42 -85.5t-32.5 -90.5t-22.5 -85.5t-13.5 -71.5t-4.5 -46.5q0 -30 8 -57.5t25 -48.5t43 -33.5t61 -12.5zM650 915q-11 -117 -97 -117
q-15 0 -32 5t-37 17q-20 11 -44 24.5t-42 13.5q-36 0 -45 -60h-32q9 117 98 117q17 0 34 -6.5t36 -17.5q23 -14 44.5 -24.5t39.5 -10.5q14 0 28 15t16 44h33z" />
    <glyph glyph-name="Odieresis" unicode="&#xd6;" horiz-adv-x="740" 
d="M285 -15q-48 0 -89.5 21.5t-72 59.5t-47.5 89.5t-17 111.5q0 54 16.5 109t46 105.5t68.5 94.5t84.5 76.5t94.5 51t98 18.5q51 0 92.5 -21t71 -59t45.5 -90.5t16 -116.5q0 -54 -16.5 -108t-45.5 -104t-68.5 -93.5t-84.5 -75.5t-94 -50.5t-98 -18.5zM289 18q26 0 54 9.5
t56 30.5t54 54.5t49 81.5q9 19 25.5 60.5t33 91t28.5 99.5t12 86q0 75 -37 116t-103 41q-41 0 -76.5 -18t-65.5 -50q-29 -30 -52 -70.5t-42 -85.5t-32.5 -90.5t-22.5 -85.5t-13.5 -71.5t-4.5 -46.5q0 -30 8 -57.5t25 -48.5t43 -33.5t61 -12.5zM335 850q0 21 15 36t37 15
q21 0 36 -15t15 -36t-15 -36t-36 -15q-22 0 -37 15t-15 36zM527 850q0 21 15 36t36 15t36 -15t15 -36t-15 -36t-36 -15t-36 15t-15 36z" />
    <glyph glyph-name="Omacron" unicode="&#x14c;" horiz-adv-x="740" 
d="M285 -15q-48 0 -89.5 21.5t-72 59.5t-47.5 89.5t-17 111.5q0 54 16.5 109t46 105.5t68.5 94.5t84.5 76.5t94.5 51t98 18.5q51 0 92.5 -21t71 -59t45.5 -90.5t16 -116.5q0 -54 -16.5 -108t-45.5 -104t-68.5 -93.5t-84.5 -75.5t-94 -50.5t-98 -18.5zM289 18q26 0 54 9.5
t56 30.5t54 54.5t49 81.5q9 19 25.5 60.5t33 91t28.5 99.5t12 86q0 75 -37 116t-103 41q-41 0 -76.5 -18t-65.5 -50q-29 -30 -52 -70.5t-42 -85.5t-32.5 -90.5t-22.5 -85.5t-13.5 -71.5t-4.5 -46.5q0 -30 8 -57.5t25 -48.5t43 -33.5t61 -12.5zM346 868h285l-13 -48h-286z
" />
    <glyph glyph-name="Obreve" unicode="&#x14e;" horiz-adv-x="740" 
d="M285 -15q-48 0 -89.5 21.5t-72 59.5t-47.5 89.5t-17 111.5q0 54 16.5 109t46 105.5t68.5 94.5t84.5 76.5t94.5 51t98 18.5q51 0 92.5 -21t71 -59t45.5 -90.5t16 -116.5q0 -54 -16.5 -108t-45.5 -104t-68.5 -93.5t-84.5 -75.5t-94 -50.5t-98 -18.5zM289 18q26 0 54 9.5
t56 30.5t54 54.5t49 81.5q9 19 25.5 60.5t33 91t28.5 99.5t12 86q0 75 -37 116t-103 41q-41 0 -76.5 -18t-65.5 -50q-29 -30 -52 -70.5t-42 -85.5t-32.5 -90.5t-22.5 -85.5t-13.5 -71.5t-4.5 -46.5q0 -30 8 -57.5t25 -48.5t43 -33.5t61 -12.5zM653 948q-31 -72 -76 -111
t-96 -39q-52 0 -81.5 40t-29.5 110h32q0 -36 24.5 -58t62.5 -22t73 21.5t58 58.5h33z" />
    <glyph glyph-name="Ohungarumlaut" unicode="&#x150;" horiz-adv-x="740" 
d="M285 -15q-48 0 -89.5 21.5t-72 59.5t-47.5 89.5t-17 111.5q0 54 16.5 109t46 105.5t68.5 94.5t84.5 76.5t94.5 51t98 18.5q51 0 92.5 -21t71 -59t45.5 -90.5t16 -116.5q0 -54 -16.5 -108t-45.5 -104t-68.5 -93.5t-84.5 -75.5t-94 -50.5t-98 -18.5zM289 18q26 0 54 9.5
t56 30.5t54 54.5t49 81.5q9 19 25.5 60.5t33 91t28.5 99.5t12 86q0 75 -37 116t-103 41q-41 0 -76.5 -18t-65.5 -50q-29 -30 -52 -70.5t-42 -85.5t-32.5 -90.5t-22.5 -85.5t-13.5 -71.5t-4.5 -46.5q0 -30 8 -57.5t25 -48.5t43 -33.5t61 -12.5zM561 783h-33l68 124
q16 29 29.5 44.5t29.5 15.5q17 0 28 -11t11 -28q0 -11 -7 -23t-24 -27zM406 783h-33l68 124q16 30 29 45t30 15t27.5 -11t10.5 -28q0 -11 -6.5 -23t-22.5 -27z" />
    <glyph glyph-name="Racute" unicode="&#x154;" horiz-adv-x="701" 
d="M156 708h280q62 0 102.5 -14.5t69.5 -43.5q46 -46 46 -107q0 -44 -25.5 -79.5t-73.5 -57.5q-37 -17 -79 -26.5t-85 -14.5q29 -8 52 -20.5t39.5 -32t25.5 -49t9 -72.5q0 -18 -3 -37t-6 -36.5t-6 -32.5t-3 -27q0 -27 26 -27q30 0 54 32.5t37 85.5h33q-8 -31 -19.5 -59
t-29.5 -49t-43.5 -33.5t-59.5 -12.5q-45 0 -72.5 25.5t-27.5 66.5q0 21 5.5 43.5t12 45.5t12 45.5t5.5 42.5q0 42 -27 65.5t-75 23.5h-70l-76 -269q-3 -9 -3 -19q0 -32 46 -32h44l-9 -33h-306l9 33h61q18 0 34 14.5t22 35.5l151 537q2 6 3 13t1 12q0 30 -46 30h-45zM269 386
h70q54 0 92.5 12t64.5 35t41.5 64.5t15.5 85.5q0 34 -13 53t-33 27.5t-43 10t-42 1.5h-25q-32 0 -41 -6.5t-14 -25.5zM418 784h-31l68 109q24 39 38.5 54.5t36.5 15.5q15 0 24.5 -9.5t9.5 -25.5q0 -14 -8 -25t-26 -26z" />
    <glyph glyph-name="Rcaron" unicode="&#x158;" horiz-adv-x="701" 
d="M156 708h280q62 0 102.5 -14.5t69.5 -43.5q46 -46 46 -107q0 -44 -25.5 -79.5t-73.5 -57.5q-37 -17 -79 -26.5t-85 -14.5q29 -8 52 -20.5t39.5 -32t25.5 -49t9 -72.5q0 -18 -3 -37t-6 -36.5t-6 -32.5t-3 -27q0 -27 26 -27q30 0 54 32.5t37 85.5h33q-8 -31 -19.5 -59
t-29.5 -49t-43.5 -33.5t-59.5 -12.5q-45 0 -72.5 25.5t-27.5 66.5q0 21 5.5 43.5t12 45.5t12 45.5t5.5 42.5q0 42 -27 65.5t-75 23.5h-70l-76 -269q-3 -9 -3 -19q0 -32 46 -32h44l-9 -33h-306l9 33h61q18 0 34 14.5t22 35.5l151 537q2 6 3 13t1 12q0 30 -46 30h-45zM269 386
h70q54 0 92.5 12t64.5 35t41.5 64.5t15.5 85.5q0 34 -13 53t-33 27.5t-43 10t-42 1.5h-25q-32 0 -41 -6.5t-14 -25.5zM391 947l62 -99l153 99h40l-179 -165h-62l-45 165h31z" />
    <glyph glyph-name="Ugrave" unicode="&#xd9;" horiz-adv-x="771" 
d="M152 708h306l-9 -33h-48q-16 0 -27.5 -4t-20.5 -14t-16.5 -26.5t-14.5 -40.5l-113 -401q-7 -25 -7 -50q0 -53 38 -84.5t101 -31.5q88 0 153 60.5t96 169.5l75 262q5 19 7.5 37t2.5 32q0 45 -23.5 68t-68.5 23h-35l9 33h312l-10 -33h-26q-24 0 -40 -5.5t-33 -22.5t-32 -50
t-25 -69l-81 -286q-35 -121 -110.5 -188.5t-179.5 -67.5q-48 0 -89 13.5t-70.5 37.5t-46.5 56.5t-17 70.5q0 17 2.5 33.5t7.5 33.5l107 378q6 21 6 41q0 25 -35 25h-54zM400 877q-17 14 -23.5 25.5t-6.5 25.5q0 16 9.5 25.5t25.5 9.5q23 0 39.5 -14.5t39.5 -55.5l64 -109
h-32z" />
    <glyph glyph-name="Uacute" unicode="&#xda;" horiz-adv-x="771" 
d="M152 708h306l-9 -33h-48q-16 0 -27.5 -4t-20.5 -14t-16.5 -26.5t-14.5 -40.5l-113 -401q-7 -25 -7 -50q0 -53 38 -84.5t101 -31.5q88 0 153 60.5t96 169.5l75 262q5 19 7.5 37t2.5 32q0 45 -23.5 68t-68.5 23h-35l9 33h312l-10 -33h-26q-24 0 -40 -5.5t-33 -22.5t-32 -50
t-25 -69l-81 -286q-35 -121 -110.5 -188.5t-179.5 -67.5q-48 0 -89 13.5t-70.5 37.5t-46.5 56.5t-17 70.5q0 17 2.5 33.5t7.5 33.5l107 378q6 21 6 41q0 25 -35 25h-54zM482 784h-31l68 109q24 39 38.5 54.5t36.5 15.5q15 0 24.5 -9.5t9.5 -25.5q0 -14 -8 -25t-26 -26z" />
    <glyph glyph-name="Ubreve" unicode="&#x16c;" horiz-adv-x="771" 
d="M152 708h306l-9 -33h-48q-16 0 -27.5 -4t-20.5 -14t-16.5 -26.5t-14.5 -40.5l-113 -401q-7 -25 -7 -50q0 -53 38 -84.5t101 -31.5q88 0 153 60.5t96 169.5l75 262q5 19 7.5 37t2.5 32q0 45 -23.5 68t-68.5 23h-35l9 33h312l-10 -33h-26q-24 0 -40 -5.5t-33 -22.5t-32 -50
t-25 -69l-81 -286q-35 -121 -110.5 -188.5t-179.5 -67.5q-48 0 -89 13.5t-70.5 37.5t-46.5 56.5t-17 70.5q0 17 2.5 33.5t7.5 33.5l107 378q6 21 6 41q0 25 -35 25h-54zM687 948q-31 -72 -76 -111t-96 -39q-52 0 -81.5 40t-29.5 110h32q0 -36 24.5 -58t62.5 -22t73 21.5
t58 58.5h33z" />
    <glyph glyph-name="Ucircumflex" unicode="&#xdb;" horiz-adv-x="771" 
d="M152 708h306l-9 -33h-48q-16 0 -27.5 -4t-20.5 -14t-16.5 -26.5t-14.5 -40.5l-113 -401q-7 -25 -7 -50q0 -53 38 -84.5t101 -31.5q88 0 153 60.5t96 169.5l75 262q5 19 7.5 37t2.5 32q0 45 -23.5 68t-68.5 23h-35l9 33h312l-10 -33h-26q-24 0 -40 -5.5t-33 -22.5t-32 -50
t-25 -69l-81 -286q-35 -121 -110.5 -188.5t-179.5 -67.5q-48 0 -89 13.5t-70.5 37.5t-46.5 56.5t-17 70.5q0 17 2.5 33.5t7.5 33.5l107 378q6 21 6 41q0 25 -35 25h-54zM548 881l-153 -99h-40l180 165h62l44 -165h-31z" />
    <glyph glyph-name="Utilde" unicode="&#x168;" horiz-adv-x="771" 
d="M152 708h306l-9 -33h-48q-16 0 -27.5 -4t-20.5 -14t-16.5 -26.5t-14.5 -40.5l-113 -401q-7 -25 -7 -50q0 -53 38 -84.5t101 -31.5q88 0 153 60.5t96 169.5l75 262q5 19 7.5 37t2.5 32q0 45 -23.5 68t-68.5 23h-35l9 33h312l-10 -33h-26q-24 0 -40 -5.5t-33 -22.5t-32 -50
t-25 -69l-81 -286q-35 -121 -110.5 -188.5t-179.5 -67.5q-48 0 -89 13.5t-70.5 37.5t-46.5 56.5t-17 70.5q0 17 2.5 33.5t7.5 33.5l107 378q6 21 6 41q0 25 -35 25h-54zM684 915q-11 -117 -97 -117q-15 0 -32 5t-37 17q-20 11 -44 24.5t-42 13.5q-36 0 -45 -60h-32
q9 117 98 117q17 0 34 -6.5t36 -17.5q23 -14 44.5 -24.5t39.5 -10.5q14 0 28 15t16 44h33z" />
    <glyph glyph-name="Udieresis" unicode="&#xdc;" horiz-adv-x="771" 
d="M152 708h306l-9 -33h-48q-16 0 -27.5 -4t-20.5 -14t-16.5 -26.5t-14.5 -40.5l-113 -401q-7 -25 -7 -50q0 -53 38 -84.5t101 -31.5q88 0 153 60.5t96 169.5l75 262q5 19 7.5 37t2.5 32q0 45 -23.5 68t-68.5 23h-35l9 33h312l-10 -33h-26q-24 0 -40 -5.5t-33 -22.5t-32 -50
t-25 -69l-81 -286q-35 -121 -110.5 -188.5t-179.5 -67.5q-48 0 -89 13.5t-70.5 37.5t-46.5 56.5t-17 70.5q0 17 2.5 33.5t7.5 33.5l107 378q6 21 6 41q0 25 -35 25h-54zM370 850q0 21 15 36t37 15q21 0 36 -15t15 -36t-15 -36t-36 -15q-22 0 -37 15t-15 36zM562 850
q0 21 15 36t36 15t36 -15t15 -36t-15 -36t-36 -15t-36 15t-15 36z" />
    <glyph glyph-name="Umacron" unicode="&#x16a;" horiz-adv-x="771" 
d="M152 708h306l-9 -33h-48q-16 0 -27.5 -4t-20.5 -14t-16.5 -26.5t-14.5 -40.5l-113 -401q-7 -25 -7 -50q0 -53 38 -84.5t101 -31.5q88 0 153 60.5t96 169.5l75 262q5 19 7.5 37t2.5 32q0 45 -23.5 68t-68.5 23h-35l9 33h312l-10 -33h-26q-24 0 -40 -5.5t-33 -22.5t-32 -50
t-25 -69l-81 -286q-35 -121 -110.5 -188.5t-179.5 -67.5q-48 0 -89 13.5t-70.5 37.5t-46.5 56.5t-17 70.5q0 17 2.5 33.5t7.5 33.5l107 378q6 21 6 41q0 25 -35 25h-54zM380 868h285l-13 -48h-286z" />
    <glyph glyph-name="Uring" unicode="&#x16e;" horiz-adv-x="771" 
d="M152 708h306l-9 -33h-48q-16 0 -27.5 -4t-20.5 -14t-16.5 -26.5t-14.5 -40.5l-113 -401q-7 -25 -7 -50q0 -53 38 -84.5t101 -31.5q88 0 153 60.5t96 169.5l75 262q5 19 7.5 37t2.5 32q0 45 -23.5 68t-68.5 23h-35l9 33h312l-10 -33h-26q-24 0 -40 -5.5t-33 -22.5t-32 -50
t-25 -69l-81 -286q-35 -121 -110.5 -188.5t-179.5 -67.5q-48 0 -89 13.5t-70.5 37.5t-46.5 56.5t-17 70.5q0 17 2.5 33.5t7.5 33.5l107 378q6 21 6 41q0 25 -35 25h-54zM423 875q0 43 29.5 72.5t72.5 29.5q21 0 40 -8t33 -21.5t22 -32.5t8 -40t-8 -40t-22 -32.5t-33 -21.5
t-40 -8q-43 0 -72.5 29.5t-29.5 72.5zM456 875q0 -29 20 -49.5t49 -20.5t49.5 20.5t20.5 49.5t-20.5 49.5t-49.5 20.5t-49 -20.5t-20 -49.5z" />
    <glyph glyph-name="Uhungarumlaut" unicode="&#x170;" horiz-adv-x="771" 
d="M152 708h306l-9 -33h-48q-16 0 -27.5 -4t-20.5 -14t-16.5 -26.5t-14.5 -40.5l-113 -401q-7 -25 -7 -50q0 -53 38 -84.5t101 -31.5q88 0 153 60.5t96 169.5l75 262q5 19 7.5 37t2.5 32q0 45 -23.5 68t-68.5 23h-35l9 33h312l-10 -33h-26q-24 0 -40 -5.5t-33 -22.5t-32 -50
t-25 -69l-81 -286q-35 -121 -110.5 -188.5t-179.5 -67.5q-48 0 -89 13.5t-70.5 37.5t-46.5 56.5t-17 70.5q0 17 2.5 33.5t7.5 33.5l107 378q6 21 6 41q0 25 -35 25h-54zM595 783h-33l68 124q16 29 29.5 44.5t29.5 15.5q17 0 28 -11t11 -28q0 -11 -7 -23t-24 -27zM440 783
h-33l68 124q16 30 29 45t30 15t27.5 -11t10.5 -28q0 -11 -6.5 -23t-22.5 -27z" />
    <glyph glyph-name="Wgrave" unicode="&#x1e80;" horiz-adv-x="1006" 
d="M314 113l244 456v61q0 45 -33 45h-46l9 33h261l-9 -33h-21q-38 0 -50.5 -9.5t-12.5 -38.5v-510l227 426q10 18 16.5 40.5t6.5 39.5q0 25 -15 38.5t-41 13.5h-30l9 33h277l-9 -33h-23q-27 0 -47 -7t-37 -23.5t-34 -43t-38 -64.5l-303 -569h-57v531l-285 -532h-57v661
q0 47 -32 47h-50l10 33h266l-9 -33h-37q-28 0 -39 -12t-11 -43v-507zM518 877q-17 14 -23.5 25.5t-6.5 25.5q0 16 9.5 25.5t25.5 9.5q23 0 39.5 -14.5t39.5 -55.5l64 -109h-32z" />
    <glyph glyph-name="Wacute" unicode="&#x1e82;" horiz-adv-x="1006" 
d="M314 113l244 456v61q0 45 -33 45h-46l9 33h261l-9 -33h-21q-38 0 -50.5 -9.5t-12.5 -38.5v-510l227 426q10 18 16.5 40.5t6.5 39.5q0 25 -15 38.5t-41 13.5h-30l9 33h277l-9 -33h-23q-27 0 -47 -7t-37 -23.5t-34 -43t-38 -64.5l-303 -569h-57v531l-285 -532h-57v661
q0 47 -32 47h-50l10 33h266l-9 -33h-37q-28 0 -39 -12t-11 -43v-507zM600 784h-31l68 109q24 39 38.5 54.5t36.5 15.5q15 0 24.5 -9.5t9.5 -25.5q0 -14 -8 -25t-26 -26z" />
    <glyph glyph-name="Wcircumflex" unicode="&#x174;" horiz-adv-x="1006" 
d="M314 113l244 456v61q0 45 -33 45h-46l9 33h261l-9 -33h-21q-38 0 -50.5 -9.5t-12.5 -38.5v-510l227 426q10 18 16.5 40.5t6.5 39.5q0 25 -15 38.5t-41 13.5h-30l9 33h277l-9 -33h-23q-27 0 -47 -7t-37 -23.5t-34 -43t-38 -64.5l-303 -569h-57v531l-285 -532h-57v661
q0 47 -32 47h-50l10 33h266l-9 -33h-37q-28 0 -39 -12t-11 -43v-507zM666 881l-153 -99h-40l180 165h62l44 -165h-31z" />
    <glyph glyph-name="Wdieresis" unicode="&#x1e84;" horiz-adv-x="1006" 
d="M314 113l244 456v61q0 45 -33 45h-46l9 33h261l-9 -33h-21q-38 0 -50.5 -9.5t-12.5 -38.5v-510l227 426q10 18 16.5 40.5t6.5 39.5q0 25 -15 38.5t-41 13.5h-30l9 33h277l-9 -33h-23q-27 0 -47 -7t-37 -23.5t-34 -43t-38 -64.5l-303 -569h-57v531l-285 -532h-57v661
q0 47 -32 47h-50l10 33h266l-9 -33h-37q-28 0 -39 -12t-11 -43v-507zM488 850q0 21 15 36t37 15q21 0 36 -15t15 -36t-15 -36t-36 -15q-22 0 -37 15t-15 36zM680 850q0 21 15 36t36 15t36 -15t15 -36t-15 -36t-36 -15t-36 15t-15 36z" />
    <glyph glyph-name="Ygrave" unicode="&#x1ef2;" horiz-adv-x="710" 
d="M330 650q0 -7 1 -14.5t3 -15.5l75 -259l144 183q37 48 37 82q0 49 -72 49h-11l10 33h296l-9 -33h-29q-18 0 -35 -5t-37 -17q-44 -28 -104 -104l-179 -226l-65 -230q-4 -13 -4 -29q0 -31 37 -31h68l-9 -33h-338l9 33h66q53 0 67 52l67 236l-84 294q-9 33 -25.5 46.5
t-47.5 13.5h-32l10 33h303l-9 -33h-49q-54 0 -54 -25zM378 877q-17 14 -23.5 25.5t-6.5 25.5q0 16 9.5 25.5t25.5 9.5q23 0 39.5 -14.5t39.5 -55.5l64 -109h-32z" />
    <glyph glyph-name="Yacute" unicode="&#xdd;" horiz-adv-x="710" 
d="M330 650q0 -7 1 -14.5t3 -15.5l75 -259l144 183q37 48 37 82q0 49 -72 49h-11l10 33h296l-9 -33h-29q-18 0 -35 -5t-37 -17q-44 -28 -104 -104l-179 -226l-65 -230q-4 -13 -4 -29q0 -31 37 -31h68l-9 -33h-338l9 33h66q53 0 67 52l67 236l-84 294q-9 33 -25.5 46.5
t-47.5 13.5h-32l10 33h303l-9 -33h-49q-54 0 -54 -25zM459 784h-31l68 109q24 39 38.5 54.5t36.5 15.5q15 0 24.5 -9.5t9.5 -25.5q0 -14 -8 -25t-26 -26z" />
    <glyph glyph-name="Ycircumflex" unicode="&#x176;" horiz-adv-x="710" 
d="M330 650q0 -7 1 -14.5t3 -15.5l75 -259l144 183q37 48 37 82q0 49 -72 49h-11l10 33h296l-9 -33h-29q-18 0 -35 -5t-37 -17q-44 -28 -104 -104l-179 -226l-65 -230q-4 -13 -4 -29q0 -31 37 -31h68l-9 -33h-338l9 33h66q53 0 67 52l67 236l-84 294q-9 33 -25.5 46.5
t-47.5 13.5h-32l10 33h303l-9 -33h-49q-54 0 -54 -25zM526 881l-153 -99h-40l180 165h62l44 -165h-31z" />
    <glyph glyph-name="Ydieresis" unicode="&#x178;" horiz-adv-x="710" 
d="M330 650q0 -7 1 -14.5t3 -15.5l75 -259l144 183q37 48 37 82q0 49 -72 49h-11l10 33h296l-9 -33h-29q-18 0 -35 -5t-37 -17q-44 -28 -104 -104l-179 -226l-65 -230q-4 -13 -4 -29q0 -31 37 -31h68l-9 -33h-338l9 33h66q53 0 67 52l67 236l-84 294q-9 33 -25.5 46.5
t-47.5 13.5h-32l10 33h303l-9 -33h-49q-54 0 -54 -25zM347 850q0 21 15 36t37 15q21 0 36 -15t15 -36t-15 -36t-36 -15q-22 0 -37 15t-15 36zM539 850q0 21 15 36t36 15t36 -15t15 -36t-15 -36t-36 -15t-36 15t-15 36z" />
    <glyph glyph-name="Zacute" unicode="&#x179;" horiz-adv-x="697" 
d="M30 21l520 654h-129q-32 0 -69.5 -13.5t-69.5 -35.5q-55 -36 -93 -92t-66 -122h-31l91 296h503l-9 -29l-512 -646h136q121 0 203.5 75t131.5 205h31l-90 -313h-553zM401 784h-31l68 109q24 39 38.5 54.5t36.5 15.5q15 0 24.5 -9.5t9.5 -25.5q0 -14 -8 -25t-26 -26z" />
    <glyph glyph-name="Zcaron" unicode="&#x17d;" horiz-adv-x="697" 
d="M30 21l520 654h-129q-32 0 -69.5 -13.5t-69.5 -35.5q-55 -36 -93 -92t-66 -122h-31l91 296h503l-9 -29l-512 -646h136q121 0 203.5 75t131.5 205h31l-90 -313h-553zM374 947l62 -99l153 99h40l-179 -165h-62l-45 165h31z" />
    <glyph glyph-name="Zdotaccent" unicode="&#x17b;" horiz-adv-x="697" 
d="M30 21l520 654h-129q-32 0 -69.5 -13.5t-69.5 -35.5q-55 -36 -93 -92t-66 -122h-31l91 296h503l-9 -29l-512 -646h136q121 0 203.5 75t131.5 205h31l-90 -313h-553zM382 858q0 23 16.5 39.5t39.5 16.5t40 -16.5t17 -39.5t-17 -39.5t-40 -16.5t-39.5 16.5t-16.5 39.5z" />
    <glyph glyph-name="Eng" unicode="&#x14a;" horiz-adv-x="782" 
d="M433 -107q5 14 12 34.5t14.5 44t15 48.5t14.5 48l-214 541l-110 -390q-14 -48 -14 -80q0 -49 30.5 -77.5t84.5 -28.5h30l-9 -33h-331l9 33h6q45 0 83 33q20 17 37 46t29 70l118 416q2 8 2 17q0 29 -18 44.5t-53 15.5h-22l10 33h184l222 -560l100 353q10 37 10 70
q0 49 -27 76.5t-75 27.5h-18l9 33h308l-9 -33h-20q-30 0 -50 -11q-35 -18 -53.5 -52.5t-29.5 -72.5l-155 -546q-5 -20 -15 -45t-21 -46q-38 -73 -82 -107.5t-101 -34.5q-48 0 -79 29.5t-31 75.5q0 25 15.5 41.5t38.5 16.5q20 0 33 -13.5t13 -31.5q0 -13 -4 -21.5t-14 -18.5
q-13 -10 -13 -22q0 -11 11 -17.5t30 -6.5q29 0 52.5 20.5t46.5 80.5z" />
    <glyph glyph-name="glyph248" horiz-adv-x="316" 
d="M135 520h-31l60 122q16 32 30 44t31 12q30 0 30 -31q0 -11 -9 -25t-25 -31z" />
    <glyph glyph-name="Eth" unicode="&#xd0;" horiz-adv-x="752" 
d="M62 371h101l71 249q2 6 3 13t1 12q0 30 -47 30h-44l9 33h279q59 0 110 -22.5t89 -62t60 -93.5t22 -117q0 -75 -32 -144t-89 -127q-71 -74 -152.5 -108t-191.5 -34h-295l9 33h61q18 0 34 14.5t22 35.5l72 254h-102zM264 371h168l-10 -34h-167l-72 -255q-3 -11 -4.5 -18.5
t-1.5 -13.5q0 -9 12 -13t42 -4q53 0 88.5 3.5t62.5 11.5q44 13 78.5 44.5t61 73t45 88.5t30 92.5t17 85t5.5 65.5q0 89 -48.5 133.5t-151.5 44.5h-15q-31 0 -43.5 -4t-17.5 -23z" />
    <glyph glyph-name="Dcroat" unicode="&#x110;" horiz-adv-x="752" 
d="M62 371h101l71 249q2 6 3 13t1 12q0 30 -47 30h-44l9 33h279q59 0 110 -22.5t89 -62t60 -93.5t22 -117q0 -75 -32 -144t-89 -127q-71 -74 -152.5 -108t-191.5 -34h-295l9 33h61q18 0 34 14.5t22 35.5l72 254h-102zM264 371h168l-10 -34h-167l-72 -255q-3 -11 -4.5 -18.5
t-1.5 -13.5q0 -9 12 -13t42 -4q53 0 88.5 3.5t62.5 11.5q44 13 78.5 44.5t61 73t45 88.5t30 92.5t17 85t5.5 65.5q0 89 -48.5 133.5t-151.5 44.5h-15q-31 0 -43.5 -4t-17.5 -23z" />
    <glyph glyph-name="dotlessi" unicode="&#x131;" horiz-adv-x="355" 
d="M5 312q64 180 159 180q42 0 67 -26.5t25 -74.5q0 -42 -15.5 -88.5t-34.5 -91.5t-34.5 -84.5t-15.5 -66.5q0 -14 6 -22.5t17 -8.5q29 0 63 36t56 104h35q-27 -87 -72 -133t-99 -46q-38 0 -59 24.5t-21 68.5q0 46 16 95t35.5 94t36 83.5t16.5 62.5q0 19 -9.5 27.5
t-23.5 8.5q-26 0 -57 -35.5t-56 -106.5h-35z" />
    <glyph glyph-name="uni0237" unicode="&#x237;" horiz-adv-x="297" 
d="M5 327q23 82 63 131t85 49q44 0 69 -39t25 -111q0 -48 -9.5 -106.5t-26 -120t-38.5 -121t-47 -107.5q-36 -73 -80.5 -107.5t-101.5 -34.5q-48 0 -79 29.5t-31 75.5q0 25 15.5 41.5t38.5 16.5q20 0 33 -13.5t13 -31.5q0 -13 -4 -21.5t-14 -18.5q-12 -11 -12 -22
q0 -24 41 -24q28 0 51.5 20.5t46.5 80.5q5 11 17 47.5t27 86.5t31 108t29.5 112.5t22.5 99.5t9 70q0 53 -33 53q-15 0 -30.5 -11.5t-29.5 -31t-26 -45.5t-20 -55h-35z" />
    <glyph glyph-name="jcircumflex" unicode="&#x135;" horiz-adv-x="297" 
d="M5 327q23 82 63 131t85 49q44 0 69 -39t25 -111q0 -48 -9.5 -106.5t-26 -120t-38.5 -121t-47 -107.5q-36 -73 -80.5 -107.5t-101.5 -34.5q-48 0 -79 29.5t-31 75.5q0 25 15.5 41.5t38.5 16.5q20 0 33 -13.5t13 -31.5q0 -13 -4 -21.5t-14 -18.5q-12 -11 -12 -22
q0 -24 41 -24q28 0 51.5 20.5t46.5 80.5q5 11 17 47.5t27 86.5t31 108t29.5 112.5t22.5 99.5t9 70q0 53 -33 53q-15 0 -30.5 -11.5t-29.5 -31t-26 -45.5t-20 -55h-35zM229 663l-153 -99h-40l180 165h62l44 -165h-31z" />
    <glyph glyph-name="hcircumflex" unicode="&#x125;" horiz-adv-x="577" 
d="M0 0l173 614q5 17 5 29q0 16 -8.5 24t-37.5 8h-28l9 33h45q25 0 61 3t72 8l-109 -383q51 86 98 121.5t87 35.5q47 0 75.5 -34t28.5 -93q0 -44 -14.5 -86.5t-32.5 -81.5t-32.5 -73.5t-14.5 -62.5q0 -30 29 -30q31 0 62 37t53 102h34q-23 -86 -68.5 -131.5t-93.5 -45.5
q-42 0 -66 24t-24 68q0 47 16 92.5t34.5 86.5t34.5 76.5t16 63.5q0 51 -44 51q-17 0 -42.5 -14t-55.5 -50t-64 -97.5t-67 -157.5l-48 -137h-83zM417 881l-153 -99h-40l180 165h62l44 -165h-31z" />
    <glyph glyph-name="kgreenlandic" unicode="&#x138;" horiz-adv-x="586" 
d="M254 387q0 -25 -3.5 -52t-14.5 -62h29q22 0 38.5 9t30 23.5t24 33.5t20.5 40q28 55 55 85t65 30q39 0 62 -22.5t23 -60.5q0 -27 -15 -45t-40 -18q-17 0 -27.5 10.5t-10.5 26.5q0 20 8 35t8 24q0 14 -14 14q-18 0 -38 -21t-45 -72q-14 -27 -25 -46t-23 -32t-25.5 -22
t-31.5 -16q40 -19 57 -56.5t18 -88.5q1 -32 6.5 -49.5t23.5 -17.5q27 0 58 35.5t54 95.5h35q-15 -39 -33 -71t-40 -55.5t-49.5 -36t-60.5 -12.5q-43 0 -68 23t-25 63q0 15 3.5 28.5t7.5 25.5t7.5 24t3.5 25q0 27 -11.5 42.5t-34.5 15.5h-29l-68 -240h-88l100 352
q11 35 13.5 49t2.5 23q0 31 -27 31q-31 0 -63.5 -36t-52.5 -94h-35q11 38 29 69t40 53.5t46.5 34.5t49.5 12q24 0 39.5 -9t24.5 -23.5t12.5 -34t3.5 -40.5z" />
    <glyph glyph-name="ij" unicode="&#x133;" horiz-adv-x="652" 
d="M5 312q64 180 159 180q42 0 67 -26.5t25 -74.5q0 -42 -15.5 -88.5t-34.5 -91.5t-34.5 -84.5t-15.5 -66.5q0 -14 6 -22.5t17 -8.5q29 0 63 36t56 104h35q-27 -87 -72 -133t-99 -46q-38 0 -59 24.5t-21 68.5q0 46 16 95t35.5 94t36 83.5t16.5 62.5q0 19 -9.5 27.5
t-23.5 8.5q-26 0 -57 -35.5t-56 -106.5h-35zM201 644q0 24 17 40.5t40 16.5q24 0 40.5 -16.5t16.5 -40.5t-16.5 -40.5t-40.5 -16.5q-23 0 -40 16.5t-17 40.5zM360 327q23 82 63 131t85 49q44 0 69 -39t25 -111q0 -48 -9.5 -106.5t-26 -120t-38.5 -121t-47 -107.5
q-36 -73 -80.5 -107.5t-101.5 -34.5q-48 0 -79 29.5t-31 75.5q0 25 15.5 41.5t38.5 16.5q20 0 33 -13.5t13 -31.5q0 -13 -4 -21.5t-14 -18.5q-12 -11 -12 -22q0 -24 41 -24q28 0 51.5 20.5t46.5 80.5q5 11 17 47.5t27 86.5t31 108t29.5 112.5t22.5 99.5t9 70q0 53 -33 53
q-15 0 -30.5 -11.5t-29.5 -31t-26 -45.5t-20 -55h-35zM522 644q0 24 17 40.5t41 16.5q23 0 40 -16.5t17 -40.5t-17 -40.5t-40 -16.5q-24 0 -41 16.5t-17 40.5z" />
    <glyph glyph-name="nacute" unicode="&#x144;" horiz-adv-x="649" 
d="M254 387q0 -12 -1.5 -28t-5.5 -36q52 93 101 131.5t90 38.5q48 0 76 -34t28 -93q0 -44 -14.5 -86.5t-32 -81.5t-32 -73.5t-14.5 -62.5q0 -30 29 -30q31 0 62 37t53 102h34q-24 -86 -69 -131.5t-94 -45.5q-42 0 -65.5 24t-23.5 68q0 47 16 92.5t34.5 86.5t34.5 76.5
t16 63.5q0 26 -12 38.5t-32 12.5q-17 0 -42.5 -14t-56 -50t-64 -97.5t-66.5 -157.5l-49 -137h-83l100 352q11 35 13.5 49t2.5 23q0 31 -27 31q-31 0 -63.5 -36t-52.5 -94h-35q11 38 29 69t40 53.5t46.5 34.5t49.5 12q24 0 39.5 -9t24.5 -23.5t12.5 -34t3.5 -40.5zM321 566
h-31l68 109q24 39 38.5 54.5t36.5 15.5q15 0 24.5 -9.5t9.5 -25.5q0 -14 -8 -25t-26 -26z" />
    <glyph glyph-name="ncaron" unicode="&#x148;" horiz-adv-x="649" 
d="M254 387q0 -12 -1.5 -28t-5.5 -36q52 93 101 131.5t90 38.5q48 0 76 -34t28 -93q0 -44 -14.5 -86.5t-32 -81.5t-32 -73.5t-14.5 -62.5q0 -30 29 -30q31 0 62 37t53 102h34q-24 -86 -69 -131.5t-94 -45.5q-42 0 -65.5 24t-23.5 68q0 47 16 92.5t34.5 86.5t34.5 76.5
t16 63.5q0 26 -12 38.5t-32 12.5q-17 0 -42.5 -14t-56 -50t-64 -97.5t-66.5 -157.5l-49 -137h-83l100 352q11 35 13.5 49t2.5 23q0 31 -27 31q-31 0 -63.5 -36t-52.5 -94h-35q11 38 29 69t40 53.5t46.5 34.5t49.5 12q24 0 39.5 -9t24.5 -23.5t12.5 -34t3.5 -40.5zM295 729
l62 -99l153 99h40l-179 -165h-62l-45 165h31z" />
    <glyph glyph-name="ntilde" unicode="&#xf1;" horiz-adv-x="649" 
d="M254 387q0 -12 -1.5 -28t-5.5 -36q52 93 101 131.5t90 38.5q48 0 76 -34t28 -93q0 -44 -14.5 -86.5t-32 -81.5t-32 -73.5t-14.5 -62.5q0 -30 29 -30q31 0 62 37t53 102h34q-24 -86 -69 -131.5t-94 -45.5q-42 0 -65.5 24t-23.5 68q0 47 16 92.5t34.5 86.5t34.5 76.5
t16 63.5q0 26 -12 38.5t-32 12.5q-17 0 -42.5 -14t-56 -50t-64 -97.5t-66.5 -157.5l-49 -137h-83l100 352q11 35 13.5 49t2.5 23q0 31 -27 31q-31 0 -63.5 -36t-52.5 -94h-35q11 38 29 69t40 53.5t46.5 34.5t49.5 12q24 0 39.5 -9t24.5 -23.5t12.5 -34t3.5 -40.5zM524 697
q-11 -117 -97 -117q-15 0 -32 5t-37 17q-20 11 -44 24.5t-42 13.5q-36 0 -45 -60h-32q9 117 98 117q17 0 34 -6.5t36 -17.5q23 -14 44.5 -24.5t39.5 -10.5q14 0 28 15t16 44h33z" />
    <glyph glyph-name="racute" unicode="&#x155;" horiz-adv-x="485" 
d="M72 0l99 352q11 37 13.5 51.5t2.5 24.5q0 29 -28 29q-13 0 -28.5 -10t-31.5 -27.5t-30.5 -41.5t-24.5 -52h-35q13 37 30.5 68t38.5 53.5t44.5 35t48.5 12.5t41 -9t25.5 -24t13 -34.5t3.5 -40.5q0 -16 -3 -38q23 45 48 77q29 38 54 53.5t55 15.5q39 0 63 -22.5t24 -59.5
q0 -29 -16 -45t-40 -16q-18 0 -30.5 11.5t-12.5 25.5q0 15 13 31q6 7 8 12t2 9q0 18 -21 18q-38 0 -89 -73.5t-97 -212.5l-57 -173h-83zM293 566h-31l68 109q24 39 38.5 54.5t36.5 15.5q15 0 24.5 -9.5t9.5 -25.5q0 -14 -8 -25t-26 -26z" />
    <glyph glyph-name="rcaron" unicode="&#x159;" horiz-adv-x="485" 
d="M72 0l99 352q11 37 13.5 51.5t2.5 24.5q0 29 -28 29q-13 0 -28.5 -10t-31.5 -27.5t-30.5 -41.5t-24.5 -52h-35q13 37 30.5 68t38.5 53.5t44.5 35t48.5 12.5t41 -9t25.5 -24t13 -34.5t3.5 -40.5q0 -16 -3 -38q23 45 48 77q29 38 54 53.5t55 15.5q39 0 63 -22.5t24 -59.5
q0 -29 -16 -45t-40 -16q-18 0 -30.5 11.5t-12.5 25.5q0 15 13 31q6 7 8 12t2 9q0 18 -21 18q-38 0 -89 -73.5t-97 -212.5l-57 -173h-83zM266 729l62 -99l153 99h40l-179 -165h-62l-45 165h31z" />
    <glyph glyph-name="sacute" unicode="&#x15b;" horiz-adv-x="453" 
d="M116 166q0 -40 -43 -51q-16 -4 -16 -17q0 -12 8.5 -25t24.5 -24.5t38.5 -18.5t49.5 -7q28 0 52 8t42 21.5t28 32t10 40.5q0 30 -24.5 49t-78.5 45q-51 24 -75.5 52.5t-24.5 66.5q0 34 13.5 62.5t36.5 49.5t53.5 33t64.5 12q29 0 54.5 -8.5t44 -24.5t29.5 -37.5t11 -48.5
q0 -26 -15 -41t-38 -15q-19 0 -31.5 11.5t-12.5 28.5q0 24 29 41q8 5 10 8.5t2 7.5q0 16 -23 30.5t-62 14.5q-23 0 -42.5 -7t-33.5 -18t-22.5 -26t-8.5 -31q0 -25 17 -41.5t63 -36.5q19 -8 41 -19.5t41 -27.5t31.5 -38t12.5 -51q0 -39 -15 -71t-41.5 -55.5t-62.5 -36.5
t-77 -13q-36 0 -66.5 10t-52.5 29t-34.5 45t-12.5 59q0 36 18.5 55t45.5 19q19 0 30.5 -11.5t11.5 -29.5zM278 566h-31l68 109q24 39 38.5 54.5t36.5 15.5q15 0 24.5 -9.5t9.5 -25.5q0 -14 -8 -25t-26 -26z" />
    <glyph glyph-name="scaron" unicode="&#x161;" horiz-adv-x="453" 
d="M116 166q0 -40 -43 -51q-16 -4 -16 -17q0 -12 8.5 -25t24.5 -24.5t38.5 -18.5t49.5 -7q28 0 52 8t42 21.5t28 32t10 40.5q0 30 -24.5 49t-78.5 45q-51 24 -75.5 52.5t-24.5 66.5q0 34 13.5 62.5t36.5 49.5t53.5 33t64.5 12q29 0 54.5 -8.5t44 -24.5t29.5 -37.5t11 -48.5
q0 -26 -15 -41t-38 -15q-19 0 -31.5 11.5t-12.5 28.5q0 24 29 41q8 5 10 8.5t2 7.5q0 16 -23 30.5t-62 14.5q-23 0 -42.5 -7t-33.5 -18t-22.5 -26t-8.5 -31q0 -25 17 -41.5t63 -36.5q19 -8 41 -19.5t41 -27.5t31.5 -38t12.5 -51q0 -39 -15 -71t-41.5 -55.5t-62.5 -36.5
t-77 -13q-36 0 -66.5 10t-52.5 29t-34.5 45t-12.5 59q0 36 18.5 55t45.5 19q19 0 30.5 -11.5t11.5 -29.5zM251 729l62 -99l153 99h40l-179 -165h-62l-45 165h31z" />
    <glyph glyph-name="scircumflex" unicode="&#x15d;" horiz-adv-x="453" 
d="M116 166q0 -40 -43 -51q-16 -4 -16 -17q0 -12 8.5 -25t24.5 -24.5t38.5 -18.5t49.5 -7q28 0 52 8t42 21.5t28 32t10 40.5q0 30 -24.5 49t-78.5 45q-51 24 -75.5 52.5t-24.5 66.5q0 34 13.5 62.5t36.5 49.5t53.5 33t64.5 12q29 0 54.5 -8.5t44 -24.5t29.5 -37.5t11 -48.5
q0 -26 -15 -41t-38 -15q-19 0 -31.5 11.5t-12.5 28.5q0 24 29 41q8 5 10 8.5t2 7.5q0 16 -23 30.5t-62 14.5q-23 0 -42.5 -7t-33.5 -18t-22.5 -26t-8.5 -31q0 -25 17 -41.5t63 -36.5q19 -8 41 -19.5t41 -27.5t31.5 -38t12.5 -51q0 -39 -15 -71t-41.5 -55.5t-62.5 -36.5
t-77 -13q-36 0 -66.5 10t-52.5 29t-34.5 45t-12.5 59q0 36 18.5 55t45.5 19q19 0 30.5 -11.5t11.5 -29.5zM344 663l-153 -99h-40l180 165h62l44 -165h-31z" />
    <glyph glyph-name="scedilla" unicode="&#x15f;" horiz-adv-x="453" 
d="M116 166q0 -40 -43 -51q-16 -4 -16 -17q0 -12 8.5 -25t24.5 -24.5t38.5 -18.5t49.5 -7q28 0 52 8t42 21.5t28 32t10 40.5q0 30 -24.5 49t-78.5 45q-51 24 -75.5 52.5t-24.5 66.5q0 34 13.5 62.5t36.5 49.5t53.5 33t64.5 12q29 0 54.5 -8.5t44 -24.5t29.5 -37.5t11 -48.5
q0 -26 -15 -41t-38 -15q-19 0 -31.5 11.5t-12.5 28.5q0 24 29 41q8 5 10 8.5t2 7.5q0 16 -23 30.5t-62 14.5q-23 0 -42.5 -7t-33.5 -18t-22.5 -26t-8.5 -31q0 -25 17 -41.5t63 -36.5q19 -8 41 -19.5t41 -27.5t31.5 -38t12.5 -51q0 -37 -14 -68.5t-38.5 -54.5t-58 -36.5
t-72.5 -15.5l-24 -33q38 -10 54.5 -29t16.5 -45q0 -22 -12.5 -41.5t-33.5 -33.5t-49.5 -22.5t-60.5 -8.5q-16 0 -34 2.5t-32 5.5l11 31q10 -2 19.5 -3.5t23.5 -1.5q46 0 74.5 17t28.5 43q0 15 -11.5 29t-43.5 14h-10t-10 -1l58 77q-64 6 -104 44t-40 98q0 36 18.5 55
t45.5 19q19 0 30.5 -11.5t11.5 -29.5z" />
    <glyph glyph-name="wgrave" unicode="&#x1e81;" horiz-adv-x="800" 
d="M5 310q26 92 68 137.5t93 45.5q38 0 61.5 -30t23.5 -76q0 -44 -14.5 -86.5t-32 -81.5t-32 -73t-14.5 -59q0 -29 14 -46t39 -17q23 0 46 17t47.5 54.5t50.5 97t55 143.5l48 144h84l-89 -311q-10 -35 -13.5 -53.5t-3.5 -32.5q0 -58 50 -58q27 0 55 16t53.5 43t47.5 60.5
t38 69.5t25.5 70t9.5 61q0 15 -6.5 22.5t-23.5 10.5q-20 5 -31 18.5t-11 35.5q0 27 14 42.5t38 15.5q28 0 46 -26t18 -65q0 -47 -11.5 -95.5t-31 -94t-46.5 -85.5t-58 -70t-65 -47t-67 -17q-107 0 -107 125v24q-39 -71 -80.5 -110.5t-88.5 -39.5q-53 0 -85 36.5t-32 92.5
q0 43 15.5 85.5t33.5 82t33.5 74t15.5 61.5q0 17 -7 26.5t-21 9.5q-32 0 -63.5 -36.5t-53.5 -110.5h-35zM406 659q-17 14 -23.5 25.5t-6.5 25.5q0 16 9.5 25.5t25.5 9.5q23 0 39.5 -14.5t39.5 -55.5l64 -109h-32z" />
    <glyph glyph-name="wacute" unicode="&#x1e83;" horiz-adv-x="800" 
d="M5 310q26 92 68 137.5t93 45.5q38 0 61.5 -30t23.5 -76q0 -44 -14.5 -86.5t-32 -81.5t-32 -73t-14.5 -59q0 -29 14 -46t39 -17q23 0 46 17t47.5 54.5t50.5 97t55 143.5l48 144h84l-89 -311q-10 -35 -13.5 -53.5t-3.5 -32.5q0 -58 50 -58q27 0 55 16t53.5 43t47.5 60.5
t38 69.5t25.5 70t9.5 61q0 15 -6.5 22.5t-23.5 10.5q-20 5 -31 18.5t-11 35.5q0 27 14 42.5t38 15.5q28 0 46 -26t18 -65q0 -47 -11.5 -95.5t-31 -94t-46.5 -85.5t-58 -70t-65 -47t-67 -17q-107 0 -107 125v24q-39 -71 -80.5 -110.5t-88.5 -39.5q-53 0 -85 36.5t-32 92.5
q0 43 15.5 85.5t33.5 82t33.5 74t15.5 61.5q0 17 -7 26.5t-21 9.5q-32 0 -63.5 -36.5t-53.5 -110.5h-35zM488 566h-31l68 109q24 39 38.5 54.5t36.5 15.5q15 0 24.5 -9.5t9.5 -25.5q0 -14 -8 -25t-26 -26z" />
    <glyph glyph-name="wcircumflex" unicode="&#x175;" horiz-adv-x="800" 
d="M5 310q26 92 68 137.5t93 45.5q38 0 61.5 -30t23.5 -76q0 -44 -14.5 -86.5t-32 -81.5t-32 -73t-14.5 -59q0 -29 14 -46t39 -17q23 0 46 17t47.5 54.5t50.5 97t55 143.5l48 144h84l-89 -311q-10 -35 -13.5 -53.5t-3.5 -32.5q0 -58 50 -58q27 0 55 16t53.5 43t47.5 60.5
t38 69.5t25.5 70t9.5 61q0 15 -6.5 22.5t-23.5 10.5q-20 5 -31 18.5t-11 35.5q0 27 14 42.5t38 15.5q28 0 46 -26t18 -65q0 -47 -11.5 -95.5t-31 -94t-46.5 -85.5t-58 -70t-65 -47t-67 -17q-107 0 -107 125v24q-39 -71 -80.5 -110.5t-88.5 -39.5q-53 0 -85 36.5t-32 92.5
q0 43 15.5 85.5t33.5 82t33.5 74t15.5 61.5q0 17 -7 26.5t-21 9.5q-32 0 -63.5 -36.5t-53.5 -110.5h-35zM554 663l-153 -99h-40l180 165h62l44 -165h-31z" />
    <glyph glyph-name="wdieresis" unicode="&#x1e85;" horiz-adv-x="800" 
d="M5 310q26 92 68 137.5t93 45.5q38 0 61.5 -30t23.5 -76q0 -44 -14.5 -86.5t-32 -81.5t-32 -73t-14.5 -59q0 -29 14 -46t39 -17q23 0 46 17t47.5 54.5t50.5 97t55 143.5l48 144h84l-89 -311q-10 -35 -13.5 -53.5t-3.5 -32.5q0 -58 50 -58q27 0 55 16t53.5 43t47.5 60.5
t38 69.5t25.5 70t9.5 61q0 15 -6.5 22.5t-23.5 10.5q-20 5 -31 18.5t-11 35.5q0 27 14 42.5t38 15.5q28 0 46 -26t18 -65q0 -47 -11.5 -95.5t-31 -94t-46.5 -85.5t-58 -70t-65 -47t-67 -17q-107 0 -107 125v24q-39 -71 -80.5 -110.5t-88.5 -39.5q-53 0 -85 36.5t-32 92.5
q0 43 15.5 85.5t33.5 82t33.5 74t15.5 61.5q0 17 -7 26.5t-21 9.5q-32 0 -63.5 -36.5t-53.5 -110.5h-35zM376 632q0 21 15 36t37 15q21 0 36 -15t15 -36t-15 -36t-36 -15q-22 0 -37 15t-15 36zM568 632q0 21 15 36t36 15t36 -15t15 -36t-15 -36t-36 -15t-36 15t-15 36z" />
    <glyph glyph-name="ugrave" unicode="&#xf9;" horiz-adv-x="646" 
d="M394 107q0 21 3 50q-42 -79 -87 -123.5t-100 -44.5q-51 0 -82 39.5t-31 99.5q0 42 14.5 83t32 79t32 71.5t14.5 59.5q0 17 -7 26.5t-23 9.5q-33 0 -65.5 -40t-54.5 -107h-35q26 84 69 133.5t94 49.5q42 0 66.5 -28t24.5 -71q0 -46 -15.5 -91.5t-33.5 -87t-33.5 -77.5
t-15.5 -62t15 -40t41 -14q24 0 49.5 17t52.5 54.5t55 97t57 145.5l48 144h83l-97 -342q-8 -29 -11.5 -46t-3.5 -30q0 -14 7 -23.5t19 -9.5q28 0 56 34.5t51 100.5h36q-29 -85 -67.5 -129t-82.5 -44q-36 0 -55.5 28t-19.5 88zM266 659q-17 14 -23.5 25.5t-6.5 25.5
q0 16 9.5 25.5t25.5 9.5q23 0 39.5 -14.5t39.5 -55.5l64 -109h-32z" />
    <glyph glyph-name="uacute" unicode="&#xfa;" horiz-adv-x="646" 
d="M394 107q0 21 3 50q-42 -79 -87 -123.5t-100 -44.5q-51 0 -82 39.5t-31 99.5q0 42 14.5 83t32 79t32 71.5t14.5 59.5q0 17 -7 26.5t-23 9.5q-33 0 -65.5 -40t-54.5 -107h-35q26 84 69 133.5t94 49.5q42 0 66.5 -28t24.5 -71q0 -46 -15.5 -91.5t-33.5 -87t-33.5 -77.5
t-15.5 -62t15 -40t41 -14q24 0 49.5 17t52.5 54.5t55 97t57 145.5l48 144h83l-97 -342q-8 -29 -11.5 -46t-3.5 -30q0 -14 7 -23.5t19 -9.5q28 0 56 34.5t51 100.5h36q-29 -85 -67.5 -129t-82.5 -44q-36 0 -55.5 28t-19.5 88zM348 566h-31l68 109q24 39 38.5 54.5t36.5 15.5
q15 0 24.5 -9.5t9.5 -25.5q0 -14 -8 -25t-26 -26z" />
    <glyph glyph-name="ubreve" unicode="&#x16d;" horiz-adv-x="646" 
d="M394 107q0 21 3 50q-42 -79 -87 -123.5t-100 -44.5q-51 0 -82 39.5t-31 99.5q0 42 14.5 83t32 79t32 71.5t14.5 59.5q0 17 -7 26.5t-23 9.5q-33 0 -65.5 -40t-54.5 -107h-35q26 84 69 133.5t94 49.5q42 0 66.5 -28t24.5 -71q0 -46 -15.5 -91.5t-33.5 -87t-33.5 -77.5
t-15.5 -62t15 -40t41 -14q24 0 49.5 17t52.5 54.5t55 97t57 145.5l48 144h83l-97 -342q-8 -29 -11.5 -46t-3.5 -30q0 -14 7 -23.5t19 -9.5q28 0 56 34.5t51 100.5h36q-29 -85 -67.5 -129t-82.5 -44q-36 0 -55.5 28t-19.5 88zM554 730q-31 -72 -76 -111t-96 -39
q-52 0 -81.5 40t-29.5 110h32q0 -36 24.5 -58t62.5 -22t73 21.5t58 58.5h33z" />
    <glyph glyph-name="ucircumflex" unicode="&#xfb;" horiz-adv-x="646" 
d="M394 107q0 21 3 50q-42 -79 -87 -123.5t-100 -44.5q-51 0 -82 39.5t-31 99.5q0 42 14.5 83t32 79t32 71.5t14.5 59.5q0 17 -7 26.5t-23 9.5q-33 0 -65.5 -40t-54.5 -107h-35q26 84 69 133.5t94 49.5q42 0 66.5 -28t24.5 -71q0 -46 -15.5 -91.5t-33.5 -87t-33.5 -77.5
t-15.5 -62t15 -40t41 -14q24 0 49.5 17t52.5 54.5t55 97t57 145.5l48 144h83l-97 -342q-8 -29 -11.5 -46t-3.5 -30q0 -14 7 -23.5t19 -9.5q28 0 56 34.5t51 100.5h36q-29 -85 -67.5 -129t-82.5 -44q-36 0 -55.5 28t-19.5 88zM414 663l-153 -99h-40l180 165h62l44 -165h-31z
" />
    <glyph glyph-name="utilde" unicode="&#x169;" horiz-adv-x="646" 
d="M394 107q0 21 3 50q-42 -79 -87 -123.5t-100 -44.5q-51 0 -82 39.5t-31 99.5q0 42 14.5 83t32 79t32 71.5t14.5 59.5q0 17 -7 26.5t-23 9.5q-33 0 -65.5 -40t-54.5 -107h-35q26 84 69 133.5t94 49.5q42 0 66.5 -28t24.5 -71q0 -46 -15.5 -91.5t-33.5 -87t-33.5 -77.5
t-15.5 -62t15 -40t41 -14q24 0 49.5 17t52.5 54.5t55 97t57 145.5l48 144h83l-97 -342q-8 -29 -11.5 -46t-3.5 -30q0 -14 7 -23.5t19 -9.5q28 0 56 34.5t51 100.5h36q-29 -85 -67.5 -129t-82.5 -44q-36 0 -55.5 28t-19.5 88zM550 697q-11 -117 -97 -117q-15 0 -32 5t-37 17
q-20 11 -44 24.5t-42 13.5q-36 0 -45 -60h-32q9 117 98 117q17 0 34 -6.5t36 -17.5q23 -14 44.5 -24.5t39.5 -10.5q14 0 28 15t16 44h33z" />
    <glyph glyph-name="udieresis" unicode="&#xfc;" horiz-adv-x="646" 
d="M394 107q0 21 3 50q-42 -79 -87 -123.5t-100 -44.5q-51 0 -82 39.5t-31 99.5q0 42 14.5 83t32 79t32 71.5t14.5 59.5q0 17 -7 26.5t-23 9.5q-33 0 -65.5 -40t-54.5 -107h-35q26 84 69 133.5t94 49.5q42 0 66.5 -28t24.5 -71q0 -46 -15.5 -91.5t-33.5 -87t-33.5 -77.5
t-15.5 -62t15 -40t41 -14q24 0 49.5 17t52.5 54.5t55 97t57 145.5l48 144h83l-97 -342q-8 -29 -11.5 -46t-3.5 -30q0 -14 7 -23.5t19 -9.5q28 0 56 34.5t51 100.5h36q-29 -85 -67.5 -129t-82.5 -44q-36 0 -55.5 28t-19.5 88zM236 632q0 21 15 36t37 15q21 0 36 -15t15 -36
t-15 -36t-36 -15q-22 0 -37 15t-15 36zM428 632q0 21 15 36t36 15t36 -15t15 -36t-15 -36t-36 -15t-36 15t-15 36z" />
    <glyph glyph-name="umacron" unicode="&#x16b;" horiz-adv-x="646" 
d="M394 107q0 21 3 50q-42 -79 -87 -123.5t-100 -44.5q-51 0 -82 39.5t-31 99.5q0 42 14.5 83t32 79t32 71.5t14.5 59.5q0 17 -7 26.5t-23 9.5q-33 0 -65.5 -40t-54.5 -107h-35q26 84 69 133.5t94 49.5q42 0 66.5 -28t24.5 -71q0 -46 -15.5 -91.5t-33.5 -87t-33.5 -77.5
t-15.5 -62t15 -40t41 -14q24 0 49.5 17t52.5 54.5t55 97t57 145.5l48 144h83l-97 -342q-8 -29 -11.5 -46t-3.5 -30q0 -14 7 -23.5t19 -9.5q28 0 56 34.5t51 100.5h36q-29 -85 -67.5 -129t-82.5 -44q-36 0 -55.5 28t-19.5 88zM246 650h285l-13 -48h-286z" />
    <glyph glyph-name="uring" unicode="&#x16f;" horiz-adv-x="646" 
d="M394 107q0 21 3 50q-42 -79 -87 -123.5t-100 -44.5q-51 0 -82 39.5t-31 99.5q0 42 14.5 83t32 79t32 71.5t14.5 59.5q0 17 -7 26.5t-23 9.5q-33 0 -65.5 -40t-54.5 -107h-35q26 84 69 133.5t94 49.5q42 0 66.5 -28t24.5 -71q0 -46 -15.5 -91.5t-33.5 -87t-33.5 -77.5
t-15.5 -62t15 -40t41 -14q24 0 49.5 17t52.5 54.5t55 97t57 145.5l48 144h83l-97 -342q-8 -29 -11.5 -46t-3.5 -30q0 -14 7 -23.5t19 -9.5q28 0 56 34.5t51 100.5h36q-29 -85 -67.5 -129t-82.5 -44q-36 0 -55.5 28t-19.5 88zM289 657q0 43 29.5 72.5t72.5 29.5q21 0 40 -8
t33 -21.5t22 -32.5t8 -40t-8 -40t-22 -32.5t-33 -21.5t-40 -8q-43 0 -72.5 29.5t-29.5 72.5zM322 657q0 -29 20 -49.5t49 -20.5t49.5 20.5t20.5 49.5t-20.5 49.5t-49.5 20.5t-49 -20.5t-20 -49.5z" />
    <glyph glyph-name="uhungarumlaut" unicode="&#x171;" horiz-adv-x="646" 
d="M394 107q0 21 3 50q-42 -79 -87 -123.5t-100 -44.5q-51 0 -82 39.5t-31 99.5q0 42 14.5 83t32 79t32 71.5t14.5 59.5q0 17 -7 26.5t-23 9.5q-33 0 -65.5 -40t-54.5 -107h-35q26 84 69 133.5t94 49.5q42 0 66.5 -28t24.5 -71q0 -46 -15.5 -91.5t-33.5 -87t-33.5 -77.5
t-15.5 -62t15 -40t41 -14q24 0 49.5 17t52.5 54.5t55 97t57 145.5l48 144h83l-97 -342q-8 -29 -11.5 -46t-3.5 -30q0 -14 7 -23.5t19 -9.5q28 0 56 34.5t51 100.5h36q-29 -85 -67.5 -129t-82.5 -44q-36 0 -55.5 28t-19.5 88zM461 565h-33l68 124q16 29 29.5 44.5t29.5 15.5
q17 0 28 -11t11 -28q0 -11 -7 -23t-24 -27zM306 565h-33l68 124q16 30 29 45t30 15t27.5 -11t10.5 -28q0 -11 -6.5 -23t-22.5 -27z" />
    <glyph glyph-name="ygrave" unicode="&#x1ef3;" horiz-adv-x="583" 
d="M562 480l-117 -413q-26 -89 -58.5 -148t-72.5 -95q-32 -29 -72 -46.5t-75 -17.5q-57 0 -93 30.5t-36 78.5q0 26 15.5 43.5t38.5 17.5q20 0 34 -13t14 -31q0 -16 -6 -27t-20 -19q-8 -4 -10 -6.5t-2 -8.5q0 -11 18 -21t44 -10q43 0 74.5 23.5t54 62.5t39 90t30.5 106l9 36
q-37 -59 -76.5 -91t-84.5 -32q-51 0 -82 39.5t-31 99.5q0 42 14.5 83t32 79t32 71.5t14.5 59.5q0 17 -7 26.5t-23 9.5q-33 0 -65.5 -40t-54.5 -107h-35q26 84 69 133.5t94 49.5q42 0 66.5 -28t24.5 -71q0 -46 -15.5 -91.5t-33.5 -87t-33.5 -77.5t-15.5 -62t15 -40t41 -14
q24 0 49.5 17t52.5 54.5t55 97t57 145.5l48 144h83zM266 659q-17 14 -23.5 25.5t-6.5 25.5q0 16 9.5 25.5t25.5 9.5q23 0 39.5 -14.5t39.5 -55.5l64 -109h-32z" />
    <glyph glyph-name="yacute" unicode="&#xfd;" horiz-adv-x="583" 
d="M562 480l-117 -413q-26 -89 -58.5 -148t-72.5 -95q-32 -29 -72 -46.5t-75 -17.5q-57 0 -93 30.5t-36 78.5q0 26 15.5 43.5t38.5 17.5q20 0 34 -13t14 -31q0 -16 -6 -27t-20 -19q-8 -4 -10 -6.5t-2 -8.5q0 -11 18 -21t44 -10q43 0 74.5 23.5t54 62.5t39 90t30.5 106l9 36
q-37 -59 -76.5 -91t-84.5 -32q-51 0 -82 39.5t-31 99.5q0 42 14.5 83t32 79t32 71.5t14.5 59.5q0 17 -7 26.5t-23 9.5q-33 0 -65.5 -40t-54.5 -107h-35q26 84 69 133.5t94 49.5q42 0 66.5 -28t24.5 -71q0 -46 -15.5 -91.5t-33.5 -87t-33.5 -77.5t-15.5 -62t15 -40t41 -14
q24 0 49.5 17t52.5 54.5t55 97t57 145.5l48 144h83zM348 566h-31l68 109q24 39 38.5 54.5t36.5 15.5q15 0 24.5 -9.5t9.5 -25.5q0 -14 -8 -25t-26 -26z" />
    <glyph glyph-name="ycircumflex" unicode="&#x177;" horiz-adv-x="583" 
d="M562 480l-117 -413q-26 -89 -58.5 -148t-72.5 -95q-32 -29 -72 -46.5t-75 -17.5q-57 0 -93 30.5t-36 78.5q0 26 15.5 43.5t38.5 17.5q20 0 34 -13t14 -31q0 -16 -6 -27t-20 -19q-8 -4 -10 -6.5t-2 -8.5q0 -11 18 -21t44 -10q43 0 74.5 23.5t54 62.5t39 90t30.5 106l9 36
q-37 -59 -76.5 -91t-84.5 -32q-51 0 -82 39.5t-31 99.5q0 42 14.5 83t32 79t32 71.5t14.5 59.5q0 17 -7 26.5t-23 9.5q-33 0 -65.5 -40t-54.5 -107h-35q26 84 69 133.5t94 49.5q42 0 66.5 -28t24.5 -71q0 -46 -15.5 -91.5t-33.5 -87t-33.5 -77.5t-15.5 -62t15 -40t41 -14
q24 0 49.5 17t52.5 54.5t55 97t57 145.5l48 144h83zM414 663l-153 -99h-40l180 165h62l44 -165h-31z" />
    <glyph glyph-name="ydieresis" unicode="&#xff;" horiz-adv-x="583" 
d="M562 480l-117 -413q-26 -89 -58.5 -148t-72.5 -95q-32 -29 -72 -46.5t-75 -17.5q-57 0 -93 30.5t-36 78.5q0 26 15.5 43.5t38.5 17.5q20 0 34 -13t14 -31q0 -16 -6 -27t-20 -19q-8 -4 -10 -6.5t-2 -8.5q0 -11 18 -21t44 -10q43 0 74.5 23.5t54 62.5t39 90t30.5 106l9 36
q-37 -59 -76.5 -91t-84.5 -32q-51 0 -82 39.5t-31 99.5q0 42 14.5 83t32 79t32 71.5t14.5 59.5q0 17 -7 26.5t-23 9.5q-33 0 -65.5 -40t-54.5 -107h-35q26 84 69 133.5t94 49.5q42 0 66.5 -28t24.5 -71q0 -46 -15.5 -91.5t-33.5 -87t-33.5 -77.5t-15.5 -62t15 -40t41 -14
q24 0 49.5 17t52.5 54.5t55 97t57 145.5l48 144h83zM236 632q0 21 15 36t37 15q21 0 36 -15t15 -36t-15 -36t-36 -15q-22 0 -37 15t-15 36zM428 632q0 21 15 36t36 15t36 -15t15 -36t-15 -36t-36 -15t-36 15t-15 36z" />
    <glyph glyph-name="zacute" unicode="&#x17a;" horiz-adv-x="461" 
d="M207 218q-44 -33 -72 -56.5t-46 -42.5q4 1 7.5 1.5t8.5 0.5q12 0 27 -5.5t32 -11.5t36 -11.5t39 -5.5q48 0 77.5 21t44.5 63h35q-32 -93 -77.5 -137t-85.5 -44q-27 0 -45.5 15t-34 33.5t-31 33.5t-36.5 15q-17 0 -26.5 -9t-9.5 -23q0 -8 6 -16.5t6 -18.5q0 -14 -9 -22
t-23 -8t-22 9.5t-8 23.5q0 22 7 42t27 44.5t56.5 56.5t96.5 77q63 48 99.5 78t56.5 52q-3 -1 -6.5 -1h-6.5q-14 0 -29.5 5t-33 11t-36 11t-36.5 5q-37 0 -61 -16t-41 -57h-35q12 35 30.5 65t40.5 51.5t46 34t48 12.5q23 0 38.5 -14t28.5 -30.5t25.5 -30t29.5 -13.5
q15 0 24.5 8t9.5 23q0 9 -3.5 16t-3.5 16q0 11 7.5 18.5t18.5 7.5q15 0 23.5 -9.5t8.5 -26.5q0 -20 -7.5 -39.5t-30.5 -45.5t-67.5 -63.5t-117.5 -92.5zM263 566h-31l68 109q24 39 38.5 54.5t36.5 15.5q15 0 24.5 -9.5t9.5 -25.5q0 -14 -8 -25t-26 -26z" />
    <glyph glyph-name="zcaron" unicode="&#x17e;" horiz-adv-x="461" 
d="M207 218q-44 -33 -72 -56.5t-46 -42.5q4 1 7.5 1.5t8.5 0.5q12 0 27 -5.5t32 -11.5t36 -11.5t39 -5.5q48 0 77.5 21t44.5 63h35q-32 -93 -77.5 -137t-85.5 -44q-27 0 -45.5 15t-34 33.5t-31 33.5t-36.5 15q-17 0 -26.5 -9t-9.5 -23q0 -8 6 -16.5t6 -18.5q0 -14 -9 -22
t-23 -8t-22 9.5t-8 23.5q0 22 7 42t27 44.5t56.5 56.5t96.5 77q63 48 99.5 78t56.5 52q-3 -1 -6.5 -1h-6.5q-14 0 -29.5 5t-33 11t-36 11t-36.5 5q-37 0 -61 -16t-41 -57h-35q12 35 30.5 65t40.5 51.5t46 34t48 12.5q23 0 38.5 -14t28.5 -30.5t25.5 -30t29.5 -13.5
q15 0 24.5 8t9.5 23q0 9 -3.5 16t-3.5 16q0 11 7.5 18.5t18.5 7.5q15 0 23.5 -9.5t8.5 -26.5q0 -20 -7.5 -39.5t-30.5 -45.5t-67.5 -63.5t-117.5 -92.5zM236 729l62 -99l153 99h40l-179 -165h-62l-45 165h31z" />
    <glyph glyph-name="zdotaccent" unicode="&#x17c;" horiz-adv-x="461" 
d="M207 218q-44 -33 -72 -56.5t-46 -42.5q4 1 7.5 1.5t8.5 0.5q12 0 27 -5.5t32 -11.5t36 -11.5t39 -5.5q48 0 77.5 21t44.5 63h35q-32 -93 -77.5 -137t-85.5 -44q-27 0 -45.5 15t-34 33.5t-31 33.5t-36.5 15q-17 0 -26.5 -9t-9.5 -23q0 -8 6 -16.5t6 -18.5q0 -14 -9 -22
t-23 -8t-22 9.5t-8 23.5q0 22 7 42t27 44.5t56.5 56.5t96.5 77q63 48 99.5 78t56.5 52q-3 -1 -6.5 -1h-6.5q-14 0 -29.5 5t-33 11t-36 11t-36.5 5q-37 0 -61 -16t-41 -57h-35q12 35 30.5 65t40.5 51.5t46 34t48 12.5q23 0 38.5 -14t28.5 -30.5t25.5 -30t29.5 -13.5
q15 0 24.5 8t9.5 23q0 9 -3.5 16t-3.5 16q0 11 7.5 18.5t18.5 7.5q15 0 23.5 -9.5t8.5 -26.5q0 -20 -7.5 -39.5t-30.5 -45.5t-67.5 -63.5t-117.5 -92.5zM244 640q0 23 16.5 39.5t39.5 16.5t40 -16.5t17 -39.5t-17 -39.5t-40 -16.5t-39.5 16.5t-16.5 39.5z" />
    <glyph glyph-name="Hbar" unicode="&#x126;" horiz-adv-x="755" 
d="M542 708h306l-10 -33h-34q-38 0 -55.5 -9.5t-25.5 -35.5l-21 -72h69l-9 -33h-69l-124 -441q-3 -9 -3 -19q0 -32 46 -32h45l-10 -33h-306l10 33h60q18 0 34 14.5t22 35.5l75 266h-284l-74 -265q-3 -9 -3 -19q0 -32 46 -32h44l-9 -33h-306l9 33h61q18 0 34 14.5t22 35.5
l125 442h-68l9 33h68l18 62q2 7 3 13.5t1 11.5q0 30 -47 30h-44l9 33h306l-9 -33h-34q-38 0 -55.5 -9.5t-25.5 -35.5l-21 -72h284l18 62q4 12 4 25q0 30 -46 30h-45zM267 381h284l41 144h-284z" />
    <glyph glyph-name="IJ" unicode="&#x132;" horiz-adv-x="846" 
d="M156 708h306l-9 -33h-34q-38 0 -55.5 -9.5t-25.5 -35.5l-154 -546q-3 -9 -3 -19q0 -32 46 -32h44l-9 -33h-306l9 33h61q18 0 34 14.5t22 35.5l152 537q2 7 3 13.5t1 11.5q0 30 -47 30h-44zM613 708h332l-9 -33h-50q-53 0 -67 -52l-122 -429q-13 -45 -37 -83t-55.5 -65
t-69 -42.5t-76.5 -15.5q-32 0 -59 9.5t-47 26.5t-31.5 40.5t-11.5 51.5q0 52 25.5 82.5t63.5 30.5q25 0 41 -17t16 -43q0 -24 -18 -41t-50 -22q-33 -4 -33 -20q0 -23 27 -43t68 -20q36 0 60.5 17.5t42 46t29 63t21.5 69.5l106 376q11 35 11 49q0 31 -39 31h-78z" />
    <glyph glyph-name="Uogonek" unicode="&#x172;" horiz-adv-x="771" 
d="M152 708h306l-9 -33h-48q-16 0 -27.5 -4t-20.5 -14t-16.5 -26.5t-14.5 -40.5l-113 -401q-7 -25 -7 -50q0 -53 38 -84.5t101 -31.5q88 0 153 60.5t96 169.5l75 262q5 19 7.5 37t2.5 32q0 45 -23.5 68t-68.5 23h-35l9 33h312l-10 -33h-26q-24 0 -40 -5.5t-33 -22.5t-32 -50
t-25 -69l-81 -286q-21 -72 -56.5 -126t-84.5 -86q-8 -5 -22 -15t-29.5 -21t-30.5 -22t-24 -18q-30 -23 -48 -56t-18 -65q0 -17 9 -26t23 -9q18 0 31.5 7.5t33.5 31.5l26 -20q-23 -29 -47.5 -43t-62.5 -14q-47 0 -73.5 18.5t-26.5 52.5t20.5 62t69.5 61l53 34
q-8 -1 -16.5 -1.5t-16.5 -0.5q-48 0 -89 13.5t-70.5 37.5t-46.5 56.5t-17 70.5q0 17 2.5 33.5t7.5 33.5l107 378q6 21 6 41q0 25 -35 25h-54z" />
    <glyph glyph-name="tcaron" unicode="&#x165;" horiz-adv-x="346" 
d="M324 171q-34 -94 -83 -138t-108 -44q-39 0 -61.5 21t-22.5 67q0 21 4 47t12 56l76 267h-79l9 33h79l39 140h88l-39 -140h99l-9 -33h-99l-96 -339q-5 -16 -7 -28t-2 -21q0 -16 7.5 -25.5t22.5 -9.5q14 0 32 9.5t37 28.5t36 46t30 63h35zM344 520h-31l60 122q16 32 30 44
t31 12q30 0 30 -31q0 -11 -9 -25t-25 -31z" />
    <glyph glyph-name="dcroat" unicode="&#x111;" horiz-adv-x="617" 
d="M345 596h132l5 18q5 17 5 29q0 16 -8.5 24t-37.5 8h-28l9 33h45q25 0 61 3t72 8l-35 -123h68l-9 -34h-69l-133 -472q-5 -18 -5 -29q0 -14 7.5 -23t20.5 -9q26 0 56 36.5t59 105.5h35q-37 -96 -80 -139t-93 -43q-36 0 -58 23.5t-22 64.5v23q-44 -61 -88.5 -85.5
t-82.5 -24.5q-29 0 -54.5 14.5t-44 40t-29 59.5t-10.5 74q0 73 29.5 131t72.5 99t92 63t88 22q38 0 66 -21.5t42 -67.5l44 158h-131zM311 459q-26 0 -46 -8.5t-37 -29.5q-26 -29 -47.5 -76.5t-37 -97t-24.5 -91.5t-9 -60q0 -34 17.5 -53.5t49.5 -19.5q31 0 59.5 17.5
t52.5 45.5t44 63t34 71t21.5 69t7.5 56q0 54 -24 84t-61 30z" />
    <glyph glyph-name="hbar" unicode="&#x127;" horiz-adv-x="592" 
d="M105 596h78l5 18q5 17 5 29q0 16 -8.5 24t-37.5 8h-28l9 33h45q25 0 61 3t72 8l-35 -123h122l-9 -34h-123l-64 -226q51 86 98 121.5t87 35.5q47 0 75.5 -34t28.5 -93q0 -44 -14.5 -86.5t-32.5 -81.5t-32.5 -73.5t-14.5 -62.5q0 -30 29 -30q31 0 62 37t53 102h34
q-23 -86 -68.5 -131.5t-93.5 -45.5q-42 0 -66 24t-24 68q0 47 16 92.5t34.5 86.5t34.5 76.5t16 63.5q0 51 -44 51q-17 0 -42.5 -14t-55.5 -50t-64 -97.5t-67 -157.5l-48 -137h-83l158 562h-77z" />
    <glyph glyph-name="napostrophe" unicode="&#x149;" horiz-adv-x="935" 
d="M540 387q0 -12 -1.5 -28t-5.5 -36q52 93 101 131.5t90 38.5q48 0 76 -34t28 -93q0 -44 -14.5 -86.5t-32 -81.5t-32 -73.5t-14.5 -62.5q0 -30 29 -30q31 0 62 37t53 102h34q-24 -86 -69 -131.5t-94 -45.5q-42 0 -65.5 24t-23.5 68q0 47 16 92.5t34.5 86.5t34.5 76.5
t16 63.5q0 26 -12 38.5t-32 12.5q-17 0 -42.5 -14t-56 -50t-64 -97.5t-66.5 -157.5l-49 -137h-83l100 352q11 35 13.5 49t2.5 23q0 31 -27 31q-31 0 -63.5 -36t-52.5 -94h-35q11 38 29 69t40 53.5t46.5 34.5t49.5 12q24 0 39.5 -9t24.5 -23.5t12.5 -34t3.5 -40.5zM190 488
q57 21 86 51.5t29 62.5q0 8 -9 8q-6 0 -13.5 -5t-15.5 -5q-23 0 -38 15.5t-15 37.5q0 23 16.5 39t41.5 16q32 0 51 -23t19 -64q0 -54 -37.5 -98t-104.5 -66z" />
    <glyph glyph-name="uniF6C3" unicode="&#xf6c3;" horiz-adv-x="250" 
d="M15 -203q27 8 44 21.5t17 26.5q0 8 -6 8.5t-11 1.5q-16 5 -25 16.5t-9 26.5q0 17 12.5 31.5t32.5 14.5q26 0 40 -17.5t14 -41.5q0 -42 -26.5 -73.5t-71.5 -44.5z" />
    <glyph glyph-name="Kcommaaccent" unicode="&#x136;" horiz-adv-x="780" 
d="M834 708l-9 -33h-26q-40 0 -77 -19t-72 -50l-207 -184l127 -324q8 -21 15.5 -34t17.5 -19.5t24.5 -9t35.5 -2.5h25l-9 -33h-318l10 33h57q20 0 32 9t12 25q0 10 -3 18l-104 267l-141 -125l-40 -143q-3 -9 -3 -19q0 -32 46 -32h44l-9 -33h-306l9 33h61q18 0 34 14.5
t22 35.5l152 537q2 7 3 13.5t1 11.5q0 30 -47 30h-44l9 33h306l-9 -33h-34q-38 0 -55.5 -9.5t-25.5 -35.5l-97 -345l293 262q25 23 36 41.5t11 38.5q0 22 -19 35t-52 13h-12l9 33h327zM207 -203q27 8 44 21.5t17 26.5q0 8 -6 8.5t-11 1.5q-16 5 -25 16.5t-9 26.5
q0 17 12.5 31.5t32.5 14.5q26 0 40 -17.5t14 -41.5q0 -42 -26.5 -73.5t-71.5 -44.5z" />
    <glyph glyph-name="Rcommaaccent" unicode="&#x156;" horiz-adv-x="701" 
d="M156 708h280q62 0 102.5 -14.5t69.5 -43.5q46 -46 46 -107q0 -44 -25.5 -79.5t-73.5 -57.5q-37 -17 -79 -26.5t-85 -14.5q29 -8 52 -20.5t39.5 -32t25.5 -49t9 -72.5q0 -18 -3 -37t-6 -36.5t-6 -32.5t-3 -27q0 -27 26 -27q30 0 54 32.5t37 85.5h33q-8 -31 -19.5 -59
t-29.5 -49t-43.5 -33.5t-59.5 -12.5q-45 0 -72.5 25.5t-27.5 66.5q0 21 5.5 43.5t12 45.5t12 45.5t5.5 42.5q0 42 -27 65.5t-75 23.5h-70l-76 -269q-3 -9 -3 -19q0 -32 46 -32h44l-9 -33h-306l9 33h61q18 0 34 14.5t22 35.5l151 537q2 6 3 13t1 12q0 30 -46 30h-45zM269 386
h70q54 0 92.5 12t64.5 35t41.5 64.5t15.5 85.5q0 34 -13 53t-33 27.5t-43 10t-42 1.5h-25q-32 0 -41 -6.5t-14 -25.5zM244 -203q27 8 44 21.5t17 26.5q0 8 -6 8.5t-11 1.5q-16 5 -25 16.5t-9 26.5q0 17 12.5 31.5t32.5 14.5q26 0 40 -17.5t14 -41.5q0 -42 -26.5 -73.5
t-71.5 -44.5z" />
    <glyph glyph-name="Gcommaaccent" unicode="&#x122;" horiz-adv-x="713" 
d="M478 -10q2 14 3 22.5t1 17.5q0 46 -16 46q-6 0 -12 -3.5t-17 -14.5q-74 -68 -155 -68q-47 0 -87.5 22t-70.5 59.5t-47.5 88.5t-17.5 109q0 50 16.5 103.5t45.5 104t67.5 95t82 78t89.5 53t90 19.5q42 0 71 -18t49 -44q10 -12 18.5 -16t18.5 -4q14 0 32.5 21.5t32.5 59.5
h33l-86 -342h-33q4 24 6 44t2 40q0 50 -11 91.5t-30.5 71t-47 46t-61.5 16.5t-63.5 -17.5t-58.5 -46.5q-31 -32 -61.5 -88t-54.5 -120.5t-38.5 -128.5t-14.5 -112q0 -70 35.5 -111t98.5 -41q19 0 39 5.5t39 17.5q33 23 63.5 59t45.5 85l3 12q4 13 5 21t1 13q0 16 -10.5 22.5
t-36.5 6.5h-73l9 32h326l-9 -32h-52q-28 0 -42.5 -13t-24.5 -45l-61 -217h-31v0zM183 -203q27 8 44 21.5t17 26.5q0 8 -6 8.5t-11 1.5q-16 5 -25 16.5t-9 26.5q0 17 12.5 31.5t32.5 14.5q26 0 40 -17.5t14 -41.5q0 -42 -26.5 -73.5t-71.5 -44.5z" />
    <glyph glyph-name="Ncommaaccent" unicode="&#x145;" horiz-adv-x="782" 
d="M341 708l221 -560l101 353q10 37 10 70q0 49 -27 76.5t-75 27.5h-18l9 33h308l-9 -33h-20q-30 0 -50 -11q-35 -18 -53.5 -52.5t-29.5 -72.5l-155 -546h-34l-244 616l-110 -390q-14 -48 -14 -80q0 -49 30.5 -77.5t84.5 -28.5h30l-9 -33h-331l9 33h6q45 0 83 33
q20 17 37 46t29 70l118 416q2 8 2 17q0 29 -18 44.5t-53 15.5h-22l10 33h184zM214 -203q27 8 44 21.5t17 26.5q0 8 -6 8.5t-11 1.5q-16 5 -25 16.5t-9 26.5q0 17 12.5 31.5t32.5 14.5q26 0 40 -17.5t14 -41.5q0 -42 -26.5 -73.5t-71.5 -44.5z" />
    <glyph glyph-name="Lcommaaccent" unicode="&#x13b;" horiz-adv-x="655" 
d="M156 708h306l-9 -33h-34q-38 0 -55.5 -9.5t-25.5 -35.5l-154 -546q-5 -14 -6 -20t-1 -14q0 -17 31 -17h75q28 0 59 10t60.5 27t56 41t47.5 53q19 26 34.5 52.5t36.5 66.5h30l-85 -283h-566l9 33h61q18 0 34 14.5t22 35.5l152 537q2 7 3 13.5t1 11.5q0 30 -47 30h-44z
M170 -203q27 8 44 21.5t17 26.5q0 8 -6 8.5t-11 1.5q-16 5 -25 16.5t-9 26.5q0 17 12.5 31.5t32.5 14.5q26 0 40 -17.5t14 -41.5q0 -42 -26.5 -73.5t-71.5 -44.5z" />
    <glyph glyph-name="Lcaron" unicode="&#x13d;" horiz-adv-x="655" 
d="M156 708h306l-9 -33h-34q-38 0 -55.5 -9.5t-25.5 -35.5l-154 -546q-5 -14 -6 -20t-1 -14q0 -17 31 -17h75q28 0 59 10t60.5 27t56 41t47.5 53q19 26 34.5 52.5t36.5 66.5h30l-85 -283h-566l9 33h61q18 0 34 14.5t22 35.5l152 537q2 7 3 13.5t1 11.5q0 30 -47 30h-44z
M437 520h-31l60 122q16 32 30 44t31 12q30 0 30 -31q0 -11 -9 -25t-25 -31z" />
    <glyph glyph-name="glyph300" horiz-adv-x="250" 
d="M333 731q-27 -7 -44 -20.5t-17 -27.5q0 -8 6 -8t12 -2q15 -5 24 -16.5t9 -26.5q0 -17 -12.5 -31.5t-32.5 -14.5q-26 0 -40 17.5t-14 42.5q0 42 26.5 73.5t71.5 43.5z" />
    <glyph glyph-name="kcommaaccent" unicode="&#x137;" horiz-adv-x="529" 
d="M15 0l173 614q5 17 5 29q0 16 -8.5 24t-37.5 8h-28l9 33h45q25 0 61 3t72 8l-126 -446h28q22 0 38.5 9t30 23.5t24 33.5t21.5 40q27 55 54 85t65 30q39 0 62.5 -22.5t23.5 -60.5q0 -27 -15.5 -45t-40.5 -18q-17 0 -27.5 10.5t-10.5 26.5q0 20 8 35t8 24q0 14 -13 14
q-19 0 -38.5 -21t-44.5 -72q-14 -27 -25.5 -46t-23.5 -32t-25.5 -22t-31.5 -16q40 -19 57.5 -56.5t18.5 -88.5q0 -32 6 -49.5t23 -17.5q27 0 58 35.5t54 95.5h36q-15 -39 -33.5 -71t-40.5 -55.5t-49.5 -36t-60.5 -12.5q-42 0 -67.5 23t-25.5 63q0 15 3.5 28.5t7.5 25.5
t7.5 24t3.5 25q0 27 -11.5 42.5t-34.5 15.5h-28l-68 -240h-88zM125 -203q27 8 44 21.5t17 26.5q0 8 -6 8.5t-11 1.5q-16 5 -25 16.5t-9 26.5q0 17 12.5 31.5t32.5 14.5q26 0 40 -17.5t14 -41.5q0 -42 -26.5 -73.5t-71.5 -44.5z" />
    <glyph glyph-name="ncommaaccent" unicode="&#x146;" horiz-adv-x="649" 
d="M254 387q0 -12 -1.5 -28t-5.5 -36q52 93 101 131.5t90 38.5q48 0 76 -34t28 -93q0 -44 -14.5 -86.5t-32 -81.5t-32 -73.5t-14.5 -62.5q0 -30 29 -30q31 0 62 37t53 102h34q-24 -86 -69 -131.5t-94 -45.5q-42 0 -65.5 24t-23.5 68q0 47 16 92.5t34.5 86.5t34.5 76.5
t16 63.5q0 26 -12 38.5t-32 12.5q-17 0 -42.5 -14t-56 -50t-64 -97.5t-66.5 -157.5l-49 -137h-83l100 352q11 35 13.5 49t2.5 23q0 31 -27 31q-31 0 -63.5 -36t-52.5 -94h-35q11 38 29 69t40 53.5t46.5 34.5t49.5 12q24 0 39.5 -9t24.5 -23.5t12.5 -34t3.5 -40.5zM200 -203
q27 8 44 21.5t17 26.5q0 8 -6 8.5t-11 1.5q-16 5 -25 16.5t-9 26.5q0 17 12.5 31.5t32.5 14.5q26 0 40 -17.5t14 -41.5q0 -42 -26.5 -73.5t-71.5 -44.5z" />
    <glyph glyph-name="rcommaaccent" unicode="&#x157;" horiz-adv-x="485" 
d="M72 0l99 352q11 37 13.5 51.5t2.5 24.5q0 29 -28 29q-13 0 -28.5 -10t-31.5 -27.5t-30.5 -41.5t-24.5 -52h-35q13 37 30.5 68t38.5 53.5t44.5 35t48.5 12.5t41 -9t25.5 -24t13 -34.5t3.5 -40.5q0 -16 -3 -38q23 45 48 77q29 38 54 53.5t55 15.5q39 0 63 -22.5t24 -59.5
q0 -29 -16 -45t-40 -16q-18 0 -30.5 11.5t-12.5 25.5q0 15 13 31q6 7 8 12t2 9q0 18 -21 18q-38 0 -89 -73.5t-97 -212.5l-57 -173h-83zM35 -203q27 8 44 21.5t17 26.5q0 8 -6 8.5t-11 1.5q-16 5 -25 16.5t-9 26.5q0 17 12.5 31.5t32.5 14.5q26 0 40 -17.5t14 -41.5
q0 -42 -26.5 -73.5t-71.5 -44.5z" />
    <glyph glyph-name="uogonek" unicode="&#x173;" horiz-adv-x="646" 
d="M394 107q0 21 3 50q-42 -79 -87 -123.5t-100 -44.5q-51 0 -82 39.5t-31 99.5q0 42 14.5 83t32 79t32 71.5t14.5 59.5q0 17 -7 26.5t-23 9.5q-33 0 -65.5 -40t-54.5 -107h-35q26 84 69 133.5t94 49.5q42 0 66.5 -28t24.5 -71q0 -46 -15.5 -91.5t-33.5 -87t-33.5 -77.5
t-15.5 -62t15 -40t41 -14q24 0 49.5 17t52.5 54.5t55 97t57 145.5l48 144h83l-97 -342q-8 -29 -11.5 -46t-3.5 -30q0 -14 7 -23.5t19 -9.5q28 0 56 34.5t51 100.5h36q-47 -134 -113 -165q-16 -10 -30.5 -20.5t-32.5 -24.5q-30 -23 -48 -56t-18 -65q0 -17 9 -26t23 -9
q17 0 31 7.5t33 31.5l27 -20q-23 -29 -47.5 -43t-62.5 -14q-47 0 -74 18.5t-27 52.5t21 62t70 61l64 41q-50 17 -50 112z" />
    <glyph glyph-name="scommaaccent" unicode="&#x219;" horiz-adv-x="453" 
d="M116 166q0 -40 -43 -51q-16 -4 -16 -17q0 -12 8.5 -25t24.5 -24.5t38.5 -18.5t49.5 -7q28 0 52 8t42 21.5t28 32t10 40.5q0 30 -24.5 49t-78.5 45q-51 24 -75.5 52.5t-24.5 66.5q0 34 13.5 62.5t36.5 49.5t53.5 33t64.5 12q29 0 54.5 -8.5t44 -24.5t29.5 -37.5t11 -48.5
q0 -26 -15 -41t-38 -15q-19 0 -31.5 11.5t-12.5 28.5q0 24 29 41q8 5 10 8.5t2 7.5q0 16 -23 30.5t-62 14.5q-23 0 -42.5 -7t-33.5 -18t-22.5 -26t-8.5 -31q0 -25 17 -41.5t63 -36.5q19 -8 41 -19.5t41 -27.5t31.5 -38t12.5 -51q0 -39 -15 -71t-41.5 -55.5t-62.5 -36.5
t-77 -13q-36 0 -66.5 10t-52.5 29t-34.5 45t-12.5 59q0 36 18.5 55t45.5 19q19 0 30.5 -11.5t11.5 -29.5zM96 -203q27 8 44 21.5t17 26.5q0 8 -6 8.5t-11 1.5q-16 5 -25 16.5t-9 26.5q0 17 12.5 31.5t32.5 14.5q26 0 40 -17.5t14 -41.5q0 -42 -26.5 -73.5t-71.5 -44.5z" />
    <glyph glyph-name="tcommaaccent" unicode="&#x163;" horiz-adv-x="346" 
d="M324 171q-33 -91 -79.5 -134.5t-102.5 -46.5l-24 -32q38 -10 54.5 -29t16.5 -45q0 -22 -12.5 -41.5t-33.5 -33.5t-49.5 -22.5t-60.5 -8.5q-16 0 -34 2.5t-32 5.5l11 31q10 -2 19.5 -3.5t23.5 -1.5q46 0 74.5 17t28.5 43q0 15 -11.5 29t-43.5 14h-10t-10 -1l58 78
q-28 6 -43 26.5t-15 58.5q0 21 4 47t12 56l76 267h-79l9 33h79l39 140h88l-39 -140h99l-9 -33h-99l-96 -339q-5 -16 -7 -28t-2 -21q0 -16 7.5 -25.5t22.5 -9.5q14 0 32 9.5t37 28.5t36 46t30 63h35z" />
    <glyph glyph-name="uni021B" unicode="&#x21b;" horiz-adv-x="346" 
d="M324 171q-34 -94 -83 -138t-108 -44q-39 0 -61.5 21t-22.5 67q0 21 4 47t12 56l76 267h-79l9 33h79l39 140h88l-39 -140h99l-9 -33h-99l-96 -339q-5 -16 -7 -28t-2 -21q0 -16 7.5 -25.5t22.5 -9.5q14 0 32 9.5t37 28.5t36 46t30 63h35zM49 -203q27 8 44 21.5t17 26.5
q0 8 -6 8.5t-11 1.5q-16 5 -25 16.5t-9 26.5q0 17 12.5 31.5t32.5 14.5q26 0 40 -17.5t14 -41.5q0 -42 -26.5 -73.5t-71.5 -44.5z" />
    <glyph glyph-name="tbar" unicode="&#x167;" horiz-adv-x="346" 
d="M35 318h69l37 129h-79l9 33h79l39 140h88l-39 -140h99l-9 -33h-99l-37 -129h100l-10 -33h-99l-50 -177q-5 -16 -7 -28t-2 -21q0 -16 7.5 -25.5t22.5 -9.5q14 0 32 9.5t37 28.5t36 46t30 63h35q-34 -94 -83 -138t-108 -44q-39 0 -61.5 21t-22.5 67q0 21 4 47t12 56l30 105
h-69z" />
    <glyph glyph-name="eng" unicode="&#x14b;" horiz-adv-x="593" 
d="M9 325q11 38 29 69t40 53.5t46.5 34.5t49.5 12q24 0 39.5 -9t24.5 -23.5t12.5 -34t3.5 -40.5q0 -12 -1.5 -28t-5.5 -36q52 93 101 131.5t90 38.5q48 0 76 -35t28 -101q0 -48 -9.5 -106.5t-26 -120t-38 -121t-46.5 -107.5q-36 -73 -80.5 -107.5t-101.5 -34.5
q-48 0 -79 29.5t-31 75.5q0 25 15.5 41.5t38.5 16.5q20 0 33 -13.5t13 -31.5q0 -13 -4 -21.5t-14 -18.5q-12 -11 -12 -22q0 -24 41 -24q28 0 51.5 20.5t46.5 80.5q4 11 16 46.5t27.5 84.5t32 105.5t30 109.5t22.5 97t9 69q0 26 -12 38.5t-32 12.5q-17 0 -42.5 -14t-56 -50
t-64 -97.5t-66.5 -157.5l-49 -137h-83l100 352q11 35 13.5 49t2.5 23q0 31 -27 31q-31 0 -63.5 -36t-52.5 -94h-35z" />
    <glyph glyph-name="Ldot" unicode="&#x13f;" horiz-adv-x="655" 
d="M156 708h306l-9 -33h-34q-38 0 -55.5 -9.5t-25.5 -35.5l-154 -546q-5 -14 -6 -20t-1 -14q0 -17 31 -17h75q28 0 59 10t60.5 27t56 41t47.5 53q19 26 34.5 52.5t36.5 66.5h30l-85 -283h-566l9 33h61q18 0 34 14.5t22 35.5l152 537q2 7 3 13.5t1 11.5q0 30 -47 30h-44z
M605 463q0 -23 -16.5 -39.5t-39.5 -16.5t-39.5 16.5t-16.5 39.5t16.5 40t39.5 17t39.5 -17t16.5 -40z" />
    <glyph glyph-name="Euro" unicode="&#x20ac;" horiz-adv-x="658" 
d="M188 375q-8 -25 -15 -49.5t-12 -47.5h268l-12 -33h-262q-6 -39 -6 -70q0 -72 40 -114.5t109 -42.5q40 0 77 17.5t68 48t55.5 71t39.5 87.5h35q-17 -53 -45 -99.5t-64.5 -81.5t-80 -55.5t-90.5 -20.5t-88.5 20t-73.5 55t-51.5 82.5t-23.5 102.5h-51l12 33h38q1 23 6 47.5
t13 49.5h-50l12 33h51q23 54 60 103.5t81 88t92.5 61t95.5 22.5q79 0 132 -63q8 -10 14 -13.5t15 -3.5q11 0 24.5 22t24.5 53h32l-54 -283l-32 -1q1 8 1 16.5v13.5q0 56 -12 97.5t-32 67.5q-23 32 -50.5 46t-64.5 14q-34 0 -63.5 -17t-57.5 -47q-25 -27 -49.5 -74.5
t-44.5 -102.5h264l-12 -33h-263z" />
    <glyph glyph-name="igrave" unicode="&#xec;" horiz-adv-x="355" 
d="M5 312q64 180 159 180q42 0 67 -26.5t25 -74.5q0 -42 -15.5 -88.5t-34.5 -91.5t-34.5 -84.5t-15.5 -66.5q0 -14 6 -22.5t17 -8.5q29 0 63 36t56 104h35q-27 -87 -72 -133t-99 -46q-38 0 -59 24.5t-21 68.5q0 46 16 95t35.5 94t36 83.5t16.5 62.5q0 19 -9.5 27.5
t-23.5 8.5q-26 0 -57 -35.5t-56 -106.5h-35zM98 659q-17 14 -23.5 25.5t-6.5 25.5q0 16 9.5 25.5t25.5 9.5q23 0 39.5 -14.5t39.5 -55.5l64 -109h-32z" />
    <glyph glyph-name="iacute" unicode="&#xed;" horiz-adv-x="355" 
d="M5 312q64 180 159 180q42 0 67 -26.5t25 -74.5q0 -42 -15.5 -88.5t-34.5 -91.5t-34.5 -84.5t-15.5 -66.5q0 -14 6 -22.5t17 -8.5q29 0 63 36t56 104h35q-27 -87 -72 -133t-99 -46q-38 0 -59 24.5t-21 68.5q0 46 16 95t35.5 94t36 83.5t16.5 62.5q0 19 -9.5 27.5
t-23.5 8.5q-26 0 -57 -35.5t-56 -106.5h-35zM180 566h-31l68 109q24 39 38.5 54.5t36.5 15.5q15 0 24.5 -9.5t9.5 -25.5q0 -14 -8 -25t-26 -26z" />
    <glyph glyph-name="icircumflex" unicode="&#xee;" horiz-adv-x="355" 
d="M5 312q64 180 159 180q42 0 67 -26.5t25 -74.5q0 -42 -15.5 -88.5t-34.5 -91.5t-34.5 -84.5t-15.5 -66.5q0 -14 6 -22.5t17 -8.5q29 0 63 36t56 104h35q-27 -87 -72 -133t-99 -46q-38 0 -59 24.5t-21 68.5q0 46 16 95t35.5 94t36 83.5t16.5 62.5q0 19 -9.5 27.5
t-23.5 8.5q-26 0 -57 -35.5t-56 -106.5h-35zM246 663l-153 -99h-40l180 165h62l44 -165h-31z" />
    <glyph glyph-name="itilde" unicode="&#x129;" horiz-adv-x="355" 
d="M5 312q64 180 159 180q42 0 67 -26.5t25 -74.5q0 -42 -15.5 -88.5t-34.5 -91.5t-34.5 -84.5t-15.5 -66.5q0 -14 6 -22.5t17 -8.5q29 0 63 36t56 104h35q-27 -87 -72 -133t-99 -46q-38 0 -59 24.5t-21 68.5q0 46 16 95t35.5 94t36 83.5t16.5 62.5q0 19 -9.5 27.5
t-23.5 8.5q-26 0 -57 -35.5t-56 -106.5h-35zM382 697q-11 -117 -97 -117q-15 0 -32 5t-37 17q-20 11 -44 24.5t-42 13.5q-36 0 -45 -60h-32q9 117 98 117q17 0 34 -6.5t36 -17.5q23 -14 44.5 -24.5t39.5 -10.5q14 0 28 15t16 44h33z" />
    <glyph glyph-name="idieresis" unicode="&#xef;" horiz-adv-x="355" 
d="M5 312q64 180 159 180q42 0 67 -26.5t25 -74.5q0 -42 -15.5 -88.5t-34.5 -91.5t-34.5 -84.5t-15.5 -66.5q0 -14 6 -22.5t17 -8.5q29 0 63 36t56 104h35q-27 -87 -72 -133t-99 -46q-38 0 -59 24.5t-21 68.5q0 46 16 95t35.5 94t36 83.5t16.5 62.5q0 19 -9.5 27.5
t-23.5 8.5q-26 0 -57 -35.5t-56 -106.5h-35zM68 632q0 21 15 36t37 15q21 0 36 -15t15 -36t-15 -36t-36 -15q-22 0 -37 15t-15 36zM260 632q0 21 15 36t36 15t36 -15t15 -36t-15 -36t-36 -15t-36 15t-15 36z" />
    <glyph glyph-name="imacron" unicode="&#x12b;" horiz-adv-x="355" 
d="M5 312q64 180 159 180q42 0 67 -26.5t25 -74.5q0 -42 -15.5 -88.5t-34.5 -91.5t-34.5 -84.5t-15.5 -66.5q0 -14 6 -22.5t17 -8.5q29 0 63 36t56 104h35q-27 -87 -72 -133t-99 -46q-38 0 -59 24.5t-21 68.5q0 46 16 95t35.5 94t36 83.5t16.5 62.5q0 19 -9.5 27.5
t-23.5 8.5q-26 0 -57 -35.5t-56 -106.5h-35zM79 650h285l-13 -48h-286z" />
    <glyph glyph-name="ibreve" unicode="&#x12d;" horiz-adv-x="355" 
d="M5 312q64 180 159 180q42 0 67 -26.5t25 -74.5q0 -42 -15.5 -88.5t-34.5 -91.5t-34.5 -84.5t-15.5 -66.5q0 -14 6 -22.5t17 -8.5q29 0 63 36t56 104h35q-27 -87 -72 -133t-99 -46q-38 0 -59 24.5t-21 68.5q0 46 16 95t35.5 94t36 83.5t16.5 62.5q0 19 -9.5 27.5
t-23.5 8.5q-26 0 -57 -35.5t-56 -106.5h-35zM386 730q-31 -72 -76 -111t-96 -39q-52 0 -81.5 40t-29.5 110h32q0 -36 24.5 -58t62.5 -22t73 21.5t58 58.5h33z" />
    <glyph glyph-name="iogonek" unicode="&#x12f;" horiz-adv-x="355" 
d="M5 312q64 180 159 180q42 0 67 -26.5t25 -74.5q0 -42 -15.5 -88.5t-34.5 -91.5t-34.5 -84.5t-15.5 -66.5q0 -14 6 -22.5t17 -8.5q29 0 63 36t56 104h35q-44 -139 -126 -170q-15 -11 -29.5 -21t-32.5 -24q-30 -23 -48 -56t-18 -65q0 -17 9 -26t23 -9q17 0 31 7.5t33 31.5
l27 -20q-23 -29 -47.5 -43t-62.5 -14q-47 0 -74 18.5t-27 52.5t21 62t70 61q14 10 29.5 19.5t29.5 18.5q-28 6 -43.5 29.5t-15.5 61.5q0 46 16 95t35.5 94t36 83.5t16.5 62.5q0 19 -9.5 27.5t-23.5 8.5q-26 0 -57 -35.5t-56 -106.5h-35zM201 644q0 24 17 40.5t40 16.5
q24 0 40.5 -16.5t16.5 -40.5t-16.5 -40.5t-40.5 -16.5q-23 0 -40 16.5t-17 40.5z" />
    <glyph glyph-name="ldot" unicode="&#x140;" horiz-adv-x="412" 
d="M300 171q-16 -47 -37 -81.5t-44 -57t-47.5 -33t-48.5 -10.5q-35 0 -55 21t-20 67q0 41 17 103l123 434q4 13 4 29t-8 24t-37 8h-28l9 33h45q25 0 60.5 3t72.5 8l-171 -601q-10 -34 -10 -56q0 -33 21 -33q26 0 61 36.5t58 105.5h35zM413 349q0 -23 -16.5 -39.5
t-39.5 -16.5t-39.5 16.5t-16.5 39.5t16.5 40t39.5 17t39.5 -17t16.5 -40z" />
    <glyph glyph-name="agrave" unicode="&#xe0;" horiz-adv-x="617" 
d="M315 493q40 0 69.5 -24.5t40.5 -75.5l28 87h79l-110 -390q-5 -18 -5 -29q0 -14 7.5 -23t20.5 -9q26 0 56 36.5t59 105.5h35q-37 -96 -80 -139t-93 -43q-36 0 -58 23.5t-22 64.5v23q-44 -61 -88.5 -85.5t-82.5 -24.5q-29 0 -54.5 14.5t-44 40t-29 59.5t-10.5 74
q0 73 29.5 131t72.5 99t92 63t88 22zM311 459q-26 0 -46 -8.5t-37 -29.5q-26 -29 -47.5 -76.5t-37 -97t-24.5 -91.5t-9 -60q0 -34 17.5 -53.5t49.5 -19.5q31 0 59.5 17.5t52.5 45.5t44 63t34 71t21.5 69t7.5 56q0 54 -24 84t-61 30zM247 659q-17 14 -23.5 25.5t-6.5 25.5
q0 16 9.5 25.5t25.5 9.5q23 0 39.5 -14.5t39.5 -55.5l64 -109h-32z" />
    <glyph glyph-name="aacute" unicode="&#xe1;" horiz-adv-x="617" 
d="M315 493q40 0 69.5 -24.5t40.5 -75.5l28 87h79l-110 -390q-5 -18 -5 -29q0 -14 7.5 -23t20.5 -9q26 0 56 36.5t59 105.5h35q-37 -96 -80 -139t-93 -43q-36 0 -58 23.5t-22 64.5v23q-44 -61 -88.5 -85.5t-82.5 -24.5q-29 0 -54.5 14.5t-44 40t-29 59.5t-10.5 74
q0 73 29.5 131t72.5 99t92 63t88 22zM311 459q-26 0 -46 -8.5t-37 -29.5q-26 -29 -47.5 -76.5t-37 -97t-24.5 -91.5t-9 -60q0 -34 17.5 -53.5t49.5 -19.5q31 0 59.5 17.5t52.5 45.5t44 63t34 71t21.5 69t7.5 56q0 54 -24 84t-61 30zM329 566h-31l68 109q24 39 38.5 54.5
t36.5 15.5q15 0 24.5 -9.5t9.5 -25.5q0 -14 -8 -25t-26 -26z" />
    <glyph glyph-name="acircumflex" unicode="&#xe2;" horiz-adv-x="617" 
d="M315 493q40 0 69.5 -24.5t40.5 -75.5l28 87h79l-110 -390q-5 -18 -5 -29q0 -14 7.5 -23t20.5 -9q26 0 56 36.5t59 105.5h35q-37 -96 -80 -139t-93 -43q-36 0 -58 23.5t-22 64.5v23q-44 -61 -88.5 -85.5t-82.5 -24.5q-29 0 -54.5 14.5t-44 40t-29 59.5t-10.5 74
q0 73 29.5 131t72.5 99t92 63t88 22zM311 459q-26 0 -46 -8.5t-37 -29.5q-26 -29 -47.5 -76.5t-37 -97t-24.5 -91.5t-9 -60q0 -34 17.5 -53.5t49.5 -19.5q31 0 59.5 17.5t52.5 45.5t44 63t34 71t21.5 69t7.5 56q0 54 -24 84t-61 30zM395 663l-153 -99h-40l180 165h62
l44 -165h-31z" />
    <glyph glyph-name="atilde" unicode="&#xe3;" horiz-adv-x="617" 
d="M315 493q40 0 69.5 -24.5t40.5 -75.5l28 87h79l-110 -390q-5 -18 -5 -29q0 -14 7.5 -23t20.5 -9q26 0 56 36.5t59 105.5h35q-37 -96 -80 -139t-93 -43q-36 0 -58 23.5t-22 64.5v23q-44 -61 -88.5 -85.5t-82.5 -24.5q-29 0 -54.5 14.5t-44 40t-29 59.5t-10.5 74
q0 73 29.5 131t72.5 99t92 63t88 22zM311 459q-26 0 -46 -8.5t-37 -29.5q-26 -29 -47.5 -76.5t-37 -97t-24.5 -91.5t-9 -60q0 -34 17.5 -53.5t49.5 -19.5q31 0 59.5 17.5t52.5 45.5t44 63t34 71t21.5 69t7.5 56q0 54 -24 84t-61 30zM531 697q-11 -117 -97 -117q-15 0 -32 5
t-37 17q-20 11 -44 24.5t-42 13.5q-36 0 -45 -60h-32q9 117 98 117q17 0 34 -6.5t36 -17.5q23 -14 44.5 -24.5t39.5 -10.5q14 0 28 15t16 44h33z" />
    <glyph glyph-name="adieresis" unicode="&#xe4;" horiz-adv-x="617" 
d="M315 493q40 0 69.5 -24.5t40.5 -75.5l28 87h79l-110 -390q-5 -18 -5 -29q0 -14 7.5 -23t20.5 -9q26 0 56 36.5t59 105.5h35q-37 -96 -80 -139t-93 -43q-36 0 -58 23.5t-22 64.5v23q-44 -61 -88.5 -85.5t-82.5 -24.5q-29 0 -54.5 14.5t-44 40t-29 59.5t-10.5 74
q0 73 29.5 131t72.5 99t92 63t88 22zM311 459q-26 0 -46 -8.5t-37 -29.5q-26 -29 -47.5 -76.5t-37 -97t-24.5 -91.5t-9 -60q0 -34 17.5 -53.5t49.5 -19.5q31 0 59.5 17.5t52.5 45.5t44 63t34 71t21.5 69t7.5 56q0 54 -24 84t-61 30zM217 632q0 21 15 36t37 15q21 0 36 -15
t15 -36t-15 -36t-36 -15q-22 0 -37 15t-15 36zM409 632q0 21 15 36t36 15t36 -15t15 -36t-15 -36t-36 -15t-36 15t-15 36z" />
    <glyph glyph-name="amacron" unicode="&#x101;" horiz-adv-x="617" 
d="M315 493q40 0 69.5 -24.5t40.5 -75.5l28 87h79l-110 -390q-5 -18 -5 -29q0 -14 7.5 -23t20.5 -9q26 0 56 36.5t59 105.5h35q-37 -96 -80 -139t-93 -43q-36 0 -58 23.5t-22 64.5v23q-44 -61 -88.5 -85.5t-82.5 -24.5q-29 0 -54.5 14.5t-44 40t-29 59.5t-10.5 74
q0 73 29.5 131t72.5 99t92 63t88 22zM311 459q-26 0 -46 -8.5t-37 -29.5q-26 -29 -47.5 -76.5t-37 -97t-24.5 -91.5t-9 -60q0 -34 17.5 -53.5t49.5 -19.5q31 0 59.5 17.5t52.5 45.5t44 63t34 71t21.5 69t7.5 56q0 54 -24 84t-61 30zM227 650h285l-13 -48h-286z" />
    <glyph glyph-name="abreve" unicode="&#x103;" horiz-adv-x="617" 
d="M315 493q40 0 69.5 -24.5t40.5 -75.5l28 87h79l-110 -390q-5 -18 -5 -29q0 -14 7.5 -23t20.5 -9q26 0 56 36.5t59 105.5h35q-37 -96 -80 -139t-93 -43q-36 0 -58 23.5t-22 64.5v23q-44 -61 -88.5 -85.5t-82.5 -24.5q-29 0 -54.5 14.5t-44 40t-29 59.5t-10.5 74
q0 73 29.5 131t72.5 99t92 63t88 22zM311 459q-26 0 -46 -8.5t-37 -29.5q-26 -29 -47.5 -76.5t-37 -97t-24.5 -91.5t-9 -60q0 -34 17.5 -53.5t49.5 -19.5q31 0 59.5 17.5t52.5 45.5t44 63t34 71t21.5 69t7.5 56q0 54 -24 84t-61 30zM534 730q-31 -72 -76 -111t-96 -39
q-52 0 -81.5 40t-29.5 110h32q0 -36 24.5 -58t62.5 -22t73 21.5t58 58.5h33z" />
    <glyph glyph-name="aring" unicode="&#xe5;" horiz-adv-x="617" 
d="M315 493q40 0 69.5 -24.5t40.5 -75.5l28 87h79l-110 -390q-5 -18 -5 -29q0 -14 7.5 -23t20.5 -9q26 0 56 36.5t59 105.5h35q-37 -96 -80 -139t-93 -43q-36 0 -58 23.5t-22 64.5v23q-44 -61 -88.5 -85.5t-82.5 -24.5q-29 0 -54.5 14.5t-44 40t-29 59.5t-10.5 74
q0 73 29.5 131t72.5 99t92 63t88 22zM311 459q-26 0 -46 -8.5t-37 -29.5q-26 -29 -47.5 -76.5t-37 -97t-24.5 -91.5t-9 -60q0 -34 17.5 -53.5t49.5 -19.5q31 0 59.5 17.5t52.5 45.5t44 63t34 71t21.5 69t7.5 56q0 54 -24 84t-61 30zM270 657q0 43 29.5 72.5t72.5 29.5
q21 0 40 -8t33 -21.5t22 -32.5t8 -40t-8 -40t-22 -32.5t-33 -21.5t-40 -8q-43 0 -72.5 29.5t-29.5 72.5zM303 657q0 -29 20 -49.5t49 -20.5t49.5 20.5t20.5 49.5t-20.5 49.5t-49.5 20.5t-49 -20.5t-20 -49.5z" />
    <glyph glyph-name="aogonek" unicode="&#x105;" horiz-adv-x="617" 
d="M315 493q40 0 69.5 -24.5t40.5 -75.5l28 87h79l-110 -390q-5 -18 -5 -29q0 -14 7.5 -23t20.5 -9q26 0 56 36.5t59 105.5h35q-28 -72 -58.5 -113.5t-65.5 -57.5q-16 -11 -30.5 -21.5t-33.5 -24.5q-30 -23 -48 -56t-18 -65q0 -17 9 -26t23 -9q17 0 31 7.5t33 31.5l27 -20
q-23 -29 -47.5 -43t-62.5 -14q-47 0 -74 18.5t-27 52.5t21 62t70 61l57 37q-27 7 -43 29t-16 57v23q-44 -61 -88.5 -85.5t-82.5 -24.5q-29 0 -54.5 14.5t-44 40t-29 59.5t-10.5 74q0 73 29.5 131t72.5 99t92 63t88 22zM311 459q-26 0 -46 -8.5t-37 -29.5
q-26 -29 -47.5 -76.5t-37 -97t-24.5 -91.5t-9 -60q0 -34 17.5 -53.5t49.5 -19.5q31 0 59.5 17.5t52.5 45.5t44 63t34 71t21.5 69t7.5 56q0 54 -24 84t-61 30z" />
    <glyph glyph-name="cacute" unicode="&#x107;" horiz-adv-x="446" 
d="M418 180q-11 -38 -34 -72.5t-53 -60.5t-65 -41.5t-71 -15.5q-35 0 -64.5 15t-51.5 40.5t-34 60.5t-12 76q0 37 11.5 74.5t31 72.5t46.5 65.5t57.5 53t63.5 35.5t66 13q51 0 81.5 -28.5t30.5 -76.5q0 -28 -16.5 -46.5t-41.5 -18.5q-21 0 -34.5 12.5t-13.5 32.5q0 19 21 40
q15 13 15 23q0 14 -12 21t-32 7q-34 0 -61 -21.5t-48 -55.5t-36 -75t-24.5 -80t-14 -71t-4.5 -48q0 -42 20.5 -65t58.5 -23q30 0 58.5 13t53.5 35t44 50.5t29 58.5h35zM311 566h-31l68 109q24 39 38.5 54.5t36.5 15.5q15 0 24.5 -9.5t9.5 -25.5q0 -14 -8 -25t-26 -26z" />
    <glyph glyph-name="ccircumflex" unicode="&#x109;" horiz-adv-x="446" 
d="M418 180q-11 -38 -34 -72.5t-53 -60.5t-65 -41.5t-71 -15.5q-35 0 -64.5 15t-51.5 40.5t-34 60.5t-12 76q0 37 11.5 74.5t31 72.5t46.5 65.5t57.5 53t63.5 35.5t66 13q51 0 81.5 -28.5t30.5 -76.5q0 -28 -16.5 -46.5t-41.5 -18.5q-21 0 -34.5 12.5t-13.5 32.5q0 19 21 40
q15 13 15 23q0 14 -12 21t-32 7q-34 0 -61 -21.5t-48 -55.5t-36 -75t-24.5 -80t-14 -71t-4.5 -48q0 -42 20.5 -65t58.5 -23q30 0 58.5 13t53.5 35t44 50.5t29 58.5h35zM378 663l-153 -99h-40l180 165h62l44 -165h-31z" />
    <glyph glyph-name="ccaron" unicode="&#x10d;" horiz-adv-x="446" 
d="M418 180q-11 -38 -34 -72.5t-53 -60.5t-65 -41.5t-71 -15.5q-35 0 -64.5 15t-51.5 40.5t-34 60.5t-12 76q0 37 11.5 74.5t31 72.5t46.5 65.5t57.5 53t63.5 35.5t66 13q51 0 81.5 -28.5t30.5 -76.5q0 -28 -16.5 -46.5t-41.5 -18.5q-21 0 -34.5 12.5t-13.5 32.5q0 19 21 40
q15 13 15 23q0 14 -12 21t-32 7q-34 0 -61 -21.5t-48 -55.5t-36 -75t-24.5 -80t-14 -71t-4.5 -48q0 -42 20.5 -65t58.5 -23q30 0 58.5 13t53.5 35t44 50.5t29 58.5h35zM285 729l62 -99l153 99h40l-179 -165h-62l-45 165h31z" />
    <glyph glyph-name="ccedilla" unicode="&#xe7;" horiz-adv-x="446" 
d="M418 180q-11 -37 -32.5 -70.5t-50 -59.5t-62 -42t-68.5 -18l-24 -32q38 -10 54.5 -29t16.5 -45q0 -22 -12.5 -41.5t-33.5 -33.5t-49.5 -22.5t-60.5 -8.5q-16 0 -34 2.5t-32 5.5l11 31q10 -2 19.5 -3.5t23.5 -1.5q46 0 74.5 17t28.5 43q0 15 -11.5 29t-43.5 14h-10t-10 -1
l59 78q-30 5 -55.5 21.5t-44 41.5t-28.5 57.5t-10 69.5t11.5 74.5t31 72.5t46.5 65.5t57.5 53t63.5 35.5t66 13q51 0 81.5 -28.5t30.5 -76.5q0 -28 -16.5 -46.5t-41.5 -18.5q-21 0 -34.5 12.5t-13.5 32.5q0 19 21 40q15 13 15 23q0 14 -12 21t-32 7q-34 0 -61 -21.5
t-48 -55.5t-36 -75t-24.5 -80t-14 -71t-4.5 -48q0 -42 20.5 -65t58.5 -23q30 0 58.5 13t53.5 35t44 50.5t29 58.5h35z" />
    <glyph glyph-name="cdotaccent" unicode="&#x10b;" horiz-adv-x="446" 
d="M418 180q-11 -38 -34 -72.5t-53 -60.5t-65 -41.5t-71 -15.5q-35 0 -64.5 15t-51.5 40.5t-34 60.5t-12 76q0 37 11.5 74.5t31 72.5t46.5 65.5t57.5 53t63.5 35.5t66 13q51 0 81.5 -28.5t30.5 -76.5q0 -28 -16.5 -46.5t-41.5 -18.5q-21 0 -34.5 12.5t-13.5 32.5q0 19 21 40
q15 13 15 23q0 14 -12 21t-32 7q-34 0 -61 -21.5t-48 -55.5t-36 -75t-24.5 -80t-14 -71t-4.5 -48q0 -42 20.5 -65t58.5 -23q30 0 58.5 13t53.5 35t44 50.5t29 58.5h35zM293 640q0 23 16.5 39.5t39.5 16.5t40 -16.5t17 -39.5t-17 -39.5t-40 -16.5t-39.5 16.5t-16.5 39.5z" />
    <glyph glyph-name="egrave" unicode="&#xe8;" horiz-adv-x="463" 
d="M426 390q0 -44 -24.5 -76.5t-65 -55.5t-94 -38t-111.5 -24q-11 -46 -11 -76q0 -44 26.5 -70.5t71.5 -26.5q63 0 109 36t68 91h36q-26 -71 -82.5 -115.5t-136.5 -44.5q-39 0 -72 13.5t-57 38t-37 58t-13 74.5q0 55 25 112t64 103t87.5 75t95.5 29q57 0 89 -27.5t32 -75.5z
M196 379q-15 -26 -30.5 -66.5t-26.5 -83.5q56 10 94 26t73 44q30 24 44 49.5t14 51.5q0 27 -16.5 44t-43.5 17t-56.5 -22t-51.5 -60zM226 659q-17 14 -23.5 25.5t-6.5 25.5q0 16 9.5 25.5t25.5 9.5q23 0 39.5 -14.5t39.5 -55.5l64 -109h-32z" />
    <glyph glyph-name="eacute" unicode="&#xe9;" horiz-adv-x="463" 
d="M426 390q0 -44 -24.5 -76.5t-65 -55.5t-94 -38t-111.5 -24q-11 -46 -11 -76q0 -44 26.5 -70.5t71.5 -26.5q63 0 109 36t68 91h36q-26 -71 -82.5 -115.5t-136.5 -44.5q-39 0 -72 13.5t-57 38t-37 58t-13 74.5q0 55 25 112t64 103t87.5 75t95.5 29q57 0 89 -27.5t32 -75.5z
M196 379q-15 -26 -30.5 -66.5t-26.5 -83.5q56 10 94 26t73 44q30 24 44 49.5t14 51.5q0 27 -16.5 44t-43.5 17t-56.5 -22t-51.5 -60zM308 566h-31l68 109q24 39 38.5 54.5t36.5 15.5q15 0 24.5 -9.5t9.5 -25.5q0 -14 -8 -25t-26 -26z" />
    <glyph glyph-name="ecircumflex" unicode="&#xea;" horiz-adv-x="463" 
d="M426 390q0 -44 -24.5 -76.5t-65 -55.5t-94 -38t-111.5 -24q-11 -46 -11 -76q0 -44 26.5 -70.5t71.5 -26.5q63 0 109 36t68 91h36q-26 -71 -82.5 -115.5t-136.5 -44.5q-39 0 -72 13.5t-57 38t-37 58t-13 74.5q0 55 25 112t64 103t87.5 75t95.5 29q57 0 89 -27.5t32 -75.5z
M196 379q-15 -26 -30.5 -66.5t-26.5 -83.5q56 10 94 26t73 44q30 24 44 49.5t14 51.5q0 27 -16.5 44t-43.5 17t-56.5 -22t-51.5 -60zM374 663l-153 -99h-40l180 165h62l44 -165h-31z" />
    <glyph glyph-name="edieresis" unicode="&#xeb;" horiz-adv-x="463" 
d="M426 390q0 -44 -24.5 -76.5t-65 -55.5t-94 -38t-111.5 -24q-11 -46 -11 -76q0 -44 26.5 -70.5t71.5 -26.5q63 0 109 36t68 91h36q-26 -71 -82.5 -115.5t-136.5 -44.5q-39 0 -72 13.5t-57 38t-37 58t-13 74.5q0 55 25 112t64 103t87.5 75t95.5 29q57 0 89 -27.5t32 -75.5z
M196 379q-15 -26 -30.5 -66.5t-26.5 -83.5q56 10 94 26t73 44q30 24 44 49.5t14 51.5q0 27 -16.5 44t-43.5 17t-56.5 -22t-51.5 -60zM196 632q0 21 15 36t37 15q21 0 36 -15t15 -36t-15 -36t-36 -15q-22 0 -37 15t-15 36zM388 632q0 21 15 36t36 15t36 -15t15 -36t-15 -36
t-36 -15t-36 15t-15 36z" />
    <glyph glyph-name="emacron" unicode="&#x113;" horiz-adv-x="463" 
d="M426 390q0 -44 -24.5 -76.5t-65 -55.5t-94 -38t-111.5 -24q-11 -46 -11 -76q0 -44 26.5 -70.5t71.5 -26.5q63 0 109 36t68 91h36q-26 -71 -82.5 -115.5t-136.5 -44.5q-39 0 -72 13.5t-57 38t-37 58t-13 74.5q0 55 25 112t64 103t87.5 75t95.5 29q57 0 89 -27.5t32 -75.5z
M196 379q-15 -26 -30.5 -66.5t-26.5 -83.5q56 10 94 26t73 44q30 24 44 49.5t14 51.5q0 27 -16.5 44t-43.5 17t-56.5 -22t-51.5 -60zM206 650h285l-13 -48h-286z" />
    <glyph glyph-name="ebreve" unicode="&#x115;" horiz-adv-x="463" 
d="M426 390q0 -44 -24.5 -76.5t-65 -55.5t-94 -38t-111.5 -24q-11 -46 -11 -76q0 -44 26.5 -70.5t71.5 -26.5q63 0 109 36t68 91h36q-26 -71 -82.5 -115.5t-136.5 -44.5q-39 0 -72 13.5t-57 38t-37 58t-13 74.5q0 55 25 112t64 103t87.5 75t95.5 29q57 0 89 -27.5t32 -75.5z
M196 379q-15 -26 -30.5 -66.5t-26.5 -83.5q56 10 94 26t73 44q30 24 44 49.5t14 51.5q0 27 -16.5 44t-43.5 17t-56.5 -22t-51.5 -60zM513 730q-31 -72 -76 -111t-96 -39q-52 0 -81.5 40t-29.5 110h32q0 -36 24.5 -58t62.5 -22t73 21.5t58 58.5h33z" />
    <glyph glyph-name="edotaccent" unicode="&#x117;" horiz-adv-x="463" 
d="M426 390q0 -44 -24.5 -76.5t-65 -55.5t-94 -38t-111.5 -24q-11 -46 -11 -76q0 -44 26.5 -70.5t71.5 -26.5q63 0 109 36t68 91h36q-26 -71 -82.5 -115.5t-136.5 -44.5q-39 0 -72 13.5t-57 38t-37 58t-13 74.5q0 55 25 112t64 103t87.5 75t95.5 29q57 0 89 -27.5t32 -75.5z
M196 379q-15 -26 -30.5 -66.5t-26.5 -83.5q56 10 94 26t73 44q30 24 44 49.5t14 51.5q0 27 -16.5 44t-43.5 17t-56.5 -22t-51.5 -60zM289 640q0 23 16.5 39.5t39.5 16.5t40 -16.5t17 -39.5t-17 -39.5t-40 -16.5t-39.5 16.5t-16.5 39.5z" />
    <glyph glyph-name="ecaron" unicode="&#x11b;" horiz-adv-x="463" 
d="M426 390q0 -44 -24.5 -76.5t-65 -55.5t-94 -38t-111.5 -24q-11 -46 -11 -76q0 -44 26.5 -70.5t71.5 -26.5q63 0 109 36t68 91h36q-26 -71 -82.5 -115.5t-136.5 -44.5q-39 0 -72 13.5t-57 38t-37 58t-13 74.5q0 55 25 112t64 103t87.5 75t95.5 29q57 0 89 -27.5t32 -75.5z
M196 379q-15 -26 -30.5 -66.5t-26.5 -83.5q56 10 94 26t73 44q30 24 44 49.5t14 51.5q0 27 -16.5 44t-43.5 17t-56.5 -22t-51.5 -60zM281 729l62 -99l153 99h40l-179 -165h-62l-45 165h31z" />
    <glyph glyph-name="eogonek" unicode="&#x119;" horiz-adv-x="463" 
d="M426 390q0 -44 -24.5 -76.5t-65 -55.5t-94 -38t-111.5 -24q-11 -46 -11 -76q0 -44 26.5 -70.5t71.5 -26.5q63 0 109 36t68 91h36q-20 -55 -59 -94.5t-93 -55.5q-16 -11 -30 -21.5t-33 -24.5q-30 -23 -48 -56t-18 -65q0 -17 9 -26t23 -9q17 0 31 7.5t33 31.5l27 -20
q-23 -29 -47.5 -43t-62.5 -14q-47 0 -74 18.5t-27 52.5t21 62t70 61l56 36q-39 1 -71.5 14.5t-55.5 38t-36 58t-13 73.5q0 55 25 112t64 103t87.5 75t95.5 29q57 0 89 -27.5t32 -75.5zM196 379q-15 -26 -30.5 -66.5t-26.5 -83.5q56 10 94 26t73 44q30 24 44 49.5t14 51.5
q0 27 -16.5 44t-43.5 17t-56.5 -22t-51.5 -60z" />
    <glyph glyph-name="gcircumflex" unicode="&#x11d;" horiz-adv-x="553" 
d="M239 -176q25 26 45 87.5t47 171.5q-44 -51 -82.5 -72t-76.5 -21q-28 0 -53.5 13.5t-44.5 38t-30 58.5t-11 76q0 67 25 124.5t65 100.5t89.5 67.5t99.5 24.5q45 0 73 -21.5t39 -61.5l20 70h88l-145 -511q-9 -32 -19 -55.5t-21 -42t-24 -33.5t-29 -30q-54 -48 -122 -48
q-28 0 -52 8t-41.5 22t-27.5 34t-10 43q0 26 16 44.5t39 18.5q19 0 32 -12t13 -29q0 -28 -22 -39q-14 -8 -18 -13t-4 -10q0 -13 20 -23t49 -10q20 0 39.5 7.5t33.5 22.5zM178 23q33 0 62.5 19t54 49t44 67.5t33 75t20.5 71t7 56.5q0 44 -24 71t-64 27q-24 0 -44 -8t-38 -29
q-20 -22 -40 -60t-36 -82.5t-26 -89.5t-10 -81q0 -38 14 -62t47 -24zM387 663l-153 -99h-40l180 165h62l44 -165h-31z" />
    <glyph glyph-name="gbreve" unicode="&#x11f;" horiz-adv-x="553" 
d="M239 -176q25 26 45 87.5t47 171.5q-44 -51 -82.5 -72t-76.5 -21q-28 0 -53.5 13.5t-44.5 38t-30 58.5t-11 76q0 67 25 124.5t65 100.5t89.5 67.5t99.5 24.5q45 0 73 -21.5t39 -61.5l20 70h88l-145 -511q-9 -32 -19 -55.5t-21 -42t-24 -33.5t-29 -30q-54 -48 -122 -48
q-28 0 -52 8t-41.5 22t-27.5 34t-10 43q0 26 16 44.5t39 18.5q19 0 32 -12t13 -29q0 -28 -22 -39q-14 -8 -18 -13t-4 -10q0 -13 20 -23t49 -10q20 0 39.5 7.5t33.5 22.5zM178 23q33 0 62.5 19t54 49t44 67.5t33 75t20.5 71t7 56.5q0 44 -24 71t-64 27q-24 0 -44 -8t-38 -29
q-20 -22 -40 -60t-36 -82.5t-26 -89.5t-10 -81q0 -38 14 -62t47 -24zM527 730q-31 -72 -76 -111t-96 -39q-52 0 -81.5 40t-29.5 110h32q0 -36 24.5 -58t62.5 -22t73 21.5t58 58.5h33z" />
    <glyph glyph-name="gdotaccent" unicode="&#x121;" horiz-adv-x="553" 
d="M239 -176q25 26 45 87.5t47 171.5q-44 -51 -82.5 -72t-76.5 -21q-28 0 -53.5 13.5t-44.5 38t-30 58.5t-11 76q0 67 25 124.5t65 100.5t89.5 67.5t99.5 24.5q45 0 73 -21.5t39 -61.5l20 70h88l-145 -511q-9 -32 -19 -55.5t-21 -42t-24 -33.5t-29 -30q-54 -48 -122 -48
q-28 0 -52 8t-41.5 22t-27.5 34t-10 43q0 26 16 44.5t39 18.5q19 0 32 -12t13 -29q0 -28 -22 -39q-14 -8 -18 -13t-4 -10q0 -13 20 -23t49 -10q20 0 39.5 7.5t33.5 22.5zM178 23q33 0 62.5 19t54 49t44 67.5t33 75t20.5 71t7 56.5q0 44 -24 71t-64 27q-24 0 -44 -8t-38 -29
q-20 -22 -40 -60t-36 -82.5t-26 -89.5t-10 -81q0 -38 14 -62t47 -24zM302 640q0 23 16.5 39.5t39.5 16.5t40 -16.5t17 -39.5t-17 -39.5t-40 -16.5t-39.5 16.5t-16.5 39.5z" />
    <glyph glyph-name="gcommaaccent" unicode="&#x123;" horiz-adv-x="553" 
d="M239 -176q25 26 45 87.5t47 171.5q-44 -51 -82.5 -72t-76.5 -21q-28 0 -53.5 13.5t-44.5 38t-30 58.5t-11 76q0 67 25 124.5t65 100.5t89.5 67.5t99.5 24.5q45 0 73 -21.5t39 -61.5l20 70h88l-145 -511q-9 -32 -19 -55.5t-21 -42t-24 -33.5t-29 -30q-54 -48 -122 -48
q-28 0 -52 8t-41.5 22t-27.5 34t-10 43q0 26 16 44.5t39 18.5q19 0 32 -12t13 -29q0 -28 -22 -39q-14 -8 -18 -13t-4 -10q0 -13 20 -23t49 -10q20 0 39.5 7.5t33.5 22.5zM178 23q33 0 62.5 19t54 49t44 67.5t33 75t20.5 71t7 56.5q0 44 -24 71t-64 27q-24 0 -44 -8t-38 -29
q-20 -22 -40 -60t-36 -82.5t-26 -89.5t-10 -81q0 -38 14 -62t47 -24zM420 731q-27 -7 -44 -20.5t-17 -27.5q0 -8 6 -8t12 -2q15 -5 24 -16.5t9 -26.5q0 -17 -12.5 -31.5t-32.5 -14.5q-26 0 -40 17.5t-14 42.5q0 42 26.5 73.5t71.5 43.5z" />
    <glyph glyph-name="ograve" unicode="&#xf2;" horiz-adv-x="538" 
d="M210 -10q-41 0 -73.5 19t-55.5 51t-35.5 73.5t-12.5 85.5q0 51 24 100.5t63 88t89 62t102 23.5q40 0 74 -16.5t59 -45.5t38.5 -69t13.5 -88q0 -56 -27 -107.5t-69 -90.5t-92.5 -62.5t-97.5 -23.5zM210 23q33 0 60.5 17.5t49.5 45.5t38.5 63t27.5 70.5t16.5 67.5t5.5 55
q0 56 -25.5 87t-73.5 31q-32 0 -59 -17.5t-48.5 -46t-37.5 -64t-27 -71t-16.5 -68t-5.5 -53.5q0 -30 8 -52t21.5 -36.5t30.5 -21.5t35 -7zM233 659q-17 14 -23.5 25.5t-6.5 25.5q0 16 9.5 25.5t25.5 9.5q23 0 39.5 -14.5t39.5 -55.5l64 -109h-32z" />
    <glyph glyph-name="oacute" unicode="&#xf3;" horiz-adv-x="538" 
d="M210 -10q-41 0 -73.5 19t-55.5 51t-35.5 73.5t-12.5 85.5q0 51 24 100.5t63 88t89 62t102 23.5q40 0 74 -16.5t59 -45.5t38.5 -69t13.5 -88q0 -56 -27 -107.5t-69 -90.5t-92.5 -62.5t-97.5 -23.5zM210 23q33 0 60.5 17.5t49.5 45.5t38.5 63t27.5 70.5t16.5 67.5t5.5 55
q0 56 -25.5 87t-73.5 31q-32 0 -59 -17.5t-48.5 -46t-37.5 -64t-27 -71t-16.5 -68t-5.5 -53.5q0 -30 8 -52t21.5 -36.5t30.5 -21.5t35 -7zM314 566h-31l68 109q24 39 38.5 54.5t36.5 15.5q15 0 24.5 -9.5t9.5 -25.5q0 -14 -8 -25t-26 -26z" />
    <glyph glyph-name="ocircumflex" unicode="&#xf4;" horiz-adv-x="538" 
d="M210 -10q-41 0 -73.5 19t-55.5 51t-35.5 73.5t-12.5 85.5q0 51 24 100.5t63 88t89 62t102 23.5q40 0 74 -16.5t59 -45.5t38.5 -69t13.5 -88q0 -56 -27 -107.5t-69 -90.5t-92.5 -62.5t-97.5 -23.5zM210 23q33 0 60.5 17.5t49.5 45.5t38.5 63t27.5 70.5t16.5 67.5t5.5 55
q0 56 -25.5 87t-73.5 31q-32 0 -59 -17.5t-48.5 -46t-37.5 -64t-27 -71t-16.5 -68t-5.5 -53.5q0 -30 8 -52t21.5 -36.5t30.5 -21.5t35 -7zM381 663l-153 -99h-40l180 165h62l44 -165h-31z" />
    <glyph glyph-name="otilde" unicode="&#xf5;" horiz-adv-x="538" 
d="M210 -10q-41 0 -73.5 19t-55.5 51t-35.5 73.5t-12.5 85.5q0 51 24 100.5t63 88t89 62t102 23.5q40 0 74 -16.5t59 -45.5t38.5 -69t13.5 -88q0 -56 -27 -107.5t-69 -90.5t-92.5 -62.5t-97.5 -23.5zM210 23q33 0 60.5 17.5t49.5 45.5t38.5 63t27.5 70.5t16.5 67.5t5.5 55
q0 56 -25.5 87t-73.5 31q-32 0 -59 -17.5t-48.5 -46t-37.5 -64t-27 -71t-16.5 -68t-5.5 -53.5q0 -30 8 -52t21.5 -36.5t30.5 -21.5t35 -7zM517 697q-11 -117 -97 -117q-15 0 -32 5t-37 17q-20 11 -44 24.5t-42 13.5q-36 0 -45 -60h-32q9 117 98 117q17 0 34 -6.5t36 -17.5
q23 -14 44.5 -24.5t39.5 -10.5q14 0 28 15t16 44h33z" />
    <glyph glyph-name="odieresis" unicode="&#xf6;" horiz-adv-x="538" 
d="M210 -10q-41 0 -73.5 19t-55.5 51t-35.5 73.5t-12.5 85.5q0 51 24 100.5t63 88t89 62t102 23.5q40 0 74 -16.5t59 -45.5t38.5 -69t13.5 -88q0 -56 -27 -107.5t-69 -90.5t-92.5 -62.5t-97.5 -23.5zM210 23q33 0 60.5 17.5t49.5 45.5t38.5 63t27.5 70.5t16.5 67.5t5.5 55
q0 56 -25.5 87t-73.5 31q-32 0 -59 -17.5t-48.5 -46t-37.5 -64t-27 -71t-16.5 -68t-5.5 -53.5q0 -30 8 -52t21.5 -36.5t30.5 -21.5t35 -7zM202 632q0 21 15 36t37 15q21 0 36 -15t15 -36t-15 -36t-36 -15q-22 0 -37 15t-15 36zM394 632q0 21 15 36t36 15t36 -15t15 -36
t-15 -36t-36 -15t-36 15t-15 36z" />
    <glyph glyph-name="omacron" unicode="&#x14d;" horiz-adv-x="538" 
d="M210 -10q-41 0 -73.5 19t-55.5 51t-35.5 73.5t-12.5 85.5q0 51 24 100.5t63 88t89 62t102 23.5q40 0 74 -16.5t59 -45.5t38.5 -69t13.5 -88q0 -56 -27 -107.5t-69 -90.5t-92.5 -62.5t-97.5 -23.5zM210 23q33 0 60.5 17.5t49.5 45.5t38.5 63t27.5 70.5t16.5 67.5t5.5 55
q0 56 -25.5 87t-73.5 31q-32 0 -59 -17.5t-48.5 -46t-37.5 -64t-27 -71t-16.5 -68t-5.5 -53.5q0 -30 8 -52t21.5 -36.5t30.5 -21.5t35 -7zM213 650h285l-13 -48h-286z" />
    <glyph glyph-name="obreve" unicode="&#x14f;" horiz-adv-x="538" 
d="M210 -10q-41 0 -73.5 19t-55.5 51t-35.5 73.5t-12.5 85.5q0 51 24 100.5t63 88t89 62t102 23.5q40 0 74 -16.5t59 -45.5t38.5 -69t13.5 -88q0 -56 -27 -107.5t-69 -90.5t-92.5 -62.5t-97.5 -23.5zM210 23q33 0 60.5 17.5t49.5 45.5t38.5 63t27.5 70.5t16.5 67.5t5.5 55
q0 56 -25.5 87t-73.5 31q-32 0 -59 -17.5t-48.5 -46t-37.5 -64t-27 -71t-16.5 -68t-5.5 -53.5q0 -30 8 -52t21.5 -36.5t30.5 -21.5t35 -7zM520 730q-31 -72 -76 -111t-96 -39q-52 0 -81.5 40t-29.5 110h32q0 -36 24.5 -58t62.5 -22t73 21.5t58 58.5h33z" />
    <glyph glyph-name="ohungarumlaut" unicode="&#x151;" horiz-adv-x="538" 
d="M210 -10q-41 0 -73.5 19t-55.5 51t-35.5 73.5t-12.5 85.5q0 51 24 100.5t63 88t89 62t102 23.5q40 0 74 -16.5t59 -45.5t38.5 -69t13.5 -88q0 -56 -27 -107.5t-69 -90.5t-92.5 -62.5t-97.5 -23.5zM210 23q33 0 60.5 17.5t49.5 45.5t38.5 63t27.5 70.5t16.5 67.5t5.5 55
q0 56 -25.5 87t-73.5 31q-32 0 -59 -17.5t-48.5 -46t-37.5 -64t-27 -71t-16.5 -68t-5.5 -53.5q0 -30 8 -52t21.5 -36.5t30.5 -21.5t35 -7zM428 565h-33l68 124q16 29 29.5 44.5t29.5 15.5q17 0 28 -11t11 -28q0 -11 -7 -23t-24 -27zM273 565h-33l68 124q16 30 29 45t30 15
t27.5 -11t10.5 -28q0 -11 -6.5 -23t-22.5 -27z" />
    <glyph glyph-name="lcaron" unicode="&#x13e;" horiz-adv-x="323" 
d="M300 171q-16 -47 -37 -81.5t-44 -57t-47.5 -33t-48.5 -10.5q-35 0 -55 21t-20 67q0 41 17 103l123 434q4 13 4 29t-8 24t-37 8h-28l9 33h45q25 0 60.5 3t72.5 8l-171 -601q-10 -34 -10 -56q0 -33 21 -33q26 0 61 36.5t58 105.5h35zM330 520h-31l60 122q16 32 30 44t31 12
q30 0 30 -31q0 -11 -9 -25t-25 -31z" />
    <glyph glyph-name="lacute" unicode="&#x13a;" horiz-adv-x="323" 
d="M300 171q-16 -47 -37 -81.5t-44 -57t-47.5 -33t-48.5 -10.5q-35 0 -55 21t-20 67q0 41 17 103l123 434q4 13 4 29t-8 24t-37 8h-28l9 33h45q25 0 60.5 3t72.5 8l-171 -601q-10 -34 -10 -56q0 -33 21 -33q26 0 61 36.5t58 105.5h35v0zM247 784h-31l68 109q24 39 38.5 54.5
t36.5 15.5q15 0 24.5 -9.5t9.5 -25.5q0 -14 -8 -25t-26 -26z" />
    <glyph glyph-name="lcommaaccent" unicode="&#x13c;" horiz-adv-x="323" 
d="M300 171q-16 -47 -37 -81.5t-44 -57t-47.5 -33t-48.5 -10.5q-35 0 -55 21t-20 67q0 41 17 103l123 434q4 13 4 29t-8 24t-37 8h-28l9 33h45q25 0 60.5 3t72.5 8l-171 -601q-10 -34 -10 -56q0 -33 21 -33q26 0 61 36.5t58 105.5h35v0zM34 -203q27 8 44 21.5t17 26.5
q0 8 -6 8.5t-11 1.5q-16 5 -25 16.5t-9 26.5q0 17 12.5 31.5t32.5 14.5q26 0 40 -17.5t14 -41.5q0 -42 -26.5 -73.5t-71.5 -44.5z" />
    <glyph glyph-name="dcaron" unicode="&#x10f;" horiz-adv-x="617" 
d="M315 493q38 0 66 -21.5t42 -67.5l59 210q5 17 5 29q0 16 -8.5 24t-37.5 8h-28l9 33h45q25 0 61 3t72 8l-178 -629q-5 -18 -5 -29q0 -14 7.5 -23t20.5 -9q26 0 56 36.5t59 105.5h35q-37 -96 -80 -139t-93 -43q-36 0 -58 23.5t-22 64.5v23q-44 -61 -88.5 -85.5t-82.5 -24.5
q-29 0 -54.5 14.5t-44 40t-29 59.5t-10.5 74q0 73 29.5 131t72.5 99t92 63t88 22zM311 459q-26 0 -46 -8.5t-37 -29.5q-26 -29 -47.5 -76.5t-37 -97t-24.5 -91.5t-9 -60q0 -34 17.5 -53.5t49.5 -19.5q31 0 59.5 17.5t52.5 45.5t44 63t34 71t21.5 69t7.5 56q0 54 -24 84
t-61 30zM624 520h-31l60 122q16 32 30 44t31 12q30 0 30 -31q0 -11 -9 -25t-25 -31z" />
    <glyph glyph-name="Cacute" unicode="&#x106;" horiz-adv-x="699" 
d="M615 242q-18 -53 -48 -99.5t-69 -81.5t-85.5 -55.5t-96.5 -20.5q-54 0 -101 22t-81.5 60.5t-54.5 90.5t-20 111q0 50 17 103.5t45.5 104t67.5 95t82.5 78t90 53t91.5 19.5q42 0 77.5 -19t60.5 -54q7 -10 13 -13.5t14 -3.5q13 0 29.5 25t29.5 60h31l-62 -322l-31 -1v54
q0 58 -12 100t-31 71q-21 32 -52 50.5t-73 18.5q-35 0 -65.5 -17t-59.5 -46q-21 -21 -41.5 -54t-39 -72t-35 -82.5t-28 -86.5t-18.5 -83t-7 -72q0 -72 45 -114.5t123 -42.5q43 0 83 17.5t73.5 48t59.5 71t43 87.5h35zM454 784h-31l68 109q24 39 38.5 54.5t36.5 15.5
q15 0 24.5 -9.5t9.5 -25.5q0 -14 -8 -25t-26 -26z" />
    <glyph glyph-name="Ccircumflex" unicode="&#x108;" horiz-adv-x="699" 
d="M615 242q-18 -53 -48 -99.5t-69 -81.5t-85.5 -55.5t-96.5 -20.5q-54 0 -101 22t-81.5 60.5t-54.5 90.5t-20 111q0 50 17 103.5t45.5 104t67.5 95t82.5 78t90 53t91.5 19.5q42 0 77.5 -19t60.5 -54q7 -10 13 -13.5t14 -3.5q13 0 29.5 25t29.5 60h31l-62 -322l-31 -1v54
q0 58 -12 100t-31 71q-21 32 -52 50.5t-73 18.5q-35 0 -65.5 -17t-59.5 -46q-21 -21 -41.5 -54t-39 -72t-35 -82.5t-28 -86.5t-18.5 -83t-7 -72q0 -72 45 -114.5t123 -42.5q43 0 83 17.5t73.5 48t59.5 71t43 87.5h35zM520 881l-153 -99h-40l180 165h62l44 -165h-31z" />
    <glyph glyph-name="Ccaron" unicode="&#x10c;" horiz-adv-x="699" 
d="M615 242q-18 -53 -48 -99.5t-69 -81.5t-85.5 -55.5t-96.5 -20.5q-54 0 -101 22t-81.5 60.5t-54.5 90.5t-20 111q0 50 17 103.5t45.5 104t67.5 95t82.5 78t90 53t91.5 19.5q42 0 77.5 -19t60.5 -54q7 -10 13 -13.5t14 -3.5q13 0 29.5 25t29.5 60h31l-62 -322l-31 -1v54
q0 58 -12 100t-31 71q-21 32 -52 50.5t-73 18.5q-35 0 -65.5 -17t-59.5 -46q-21 -21 -41.5 -54t-39 -72t-35 -82.5t-28 -86.5t-18.5 -83t-7 -72q0 -72 45 -114.5t123 -42.5q43 0 83 17.5t73.5 48t59.5 71t43 87.5h35zM427 947l62 -99l153 99h40l-179 -165h-62l-45 165h31z
" />
    <glyph glyph-name="Ccedilla" unicode="&#xc7;" horiz-adv-x="699" 
d="M615 242q-17 -52 -46.5 -98t-68 -81t-84 -56t-94.5 -22l-20 -27q38 -10 54.5 -29t16.5 -45q0 -22 -12.5 -41.5t-33.5 -33.5t-49.5 -22.5t-60.5 -8.5q-16 0 -34 2.5t-32 5.5l11 31q10 -2 19.5 -3.5t23.5 -1.5q46 0 74.5 17t28.5 43q0 15 -11.5 29t-43.5 14h-10t-10 -1
l55 73q-49 5 -91 29t-72.5 61.5t-48 86.5t-17.5 105q0 50 17 103.5t45.5 104t67.5 95t82.5 78t90 53t91.5 19.5q42 0 77.5 -19t60.5 -54q7 -10 13 -13.5t14 -3.5q13 0 29.5 25t29.5 60h31l-62 -322l-31 -1v54q0 58 -12 100t-31 71q-21 32 -52 50.5t-73 18.5q-35 0 -65.5 -17
t-59.5 -46q-21 -21 -41.5 -54t-39 -72t-35 -82.5t-28 -86.5t-18.5 -83t-7 -72q0 -72 45 -114.5t123 -42.5q43 0 83 17.5t73.5 48t59.5 71t43 87.5h35z" />
    <glyph glyph-name="Cdotaccent" unicode="&#x10a;" horiz-adv-x="699" 
d="M615 242q-18 -53 -48 -99.5t-69 -81.5t-85.5 -55.5t-96.5 -20.5q-54 0 -101 22t-81.5 60.5t-54.5 90.5t-20 111q0 50 17 103.5t45.5 104t67.5 95t82.5 78t90 53t91.5 19.5q42 0 77.5 -19t60.5 -54q7 -10 13 -13.5t14 -3.5q13 0 29.5 25t29.5 60h31l-62 -322l-31 -1v54
q0 58 -12 100t-31 71q-21 32 -52 50.5t-73 18.5q-35 0 -65.5 -17t-59.5 -46q-21 -21 -41.5 -54t-39 -72t-35 -82.5t-28 -86.5t-18.5 -83t-7 -72q0 -72 45 -114.5t123 -42.5q43 0 83 17.5t73.5 48t59.5 71t43 87.5h35zM435 858q0 23 16.5 39.5t39.5 16.5t40 -16.5t17 -39.5
t-17 -39.5t-40 -16.5t-39.5 16.5t-16.5 39.5z" />
    <glyph glyph-name="Tcaron" unicode="&#x164;" horiz-adv-x="747" 
d="M168 708h650l-67 -258h-31q2 19 3.5 38t1.5 35q0 81 -35 116.5t-114 35.5q-15 0 -24 -1.5t-14.5 -7t-9 -17t-9.5 -31.5l-147 -518q-2 -8 -4 -19t-2 -19q0 -29 37 -29h87l-10 -33h-375l10 33h80q32 0 48 14t27 52l152 537q4 12 4 22q0 17 -34 17q-61 0 -114 -29t-101 -95
q-35 -45 -55 -101h-32zM471 947l62 -99l153 99h40l-179 -165h-62l-45 165h31z" />
    <glyph glyph-name="Tcommaaccent" unicode="&#x162;" horiz-adv-x="747" 
d="M168 708h650l-67 -258h-31q2 19 3.5 38t1.5 35q0 81 -35 116.5t-114 35.5q-15 0 -24 -1.5t-14.5 -7t-9 -17t-9.5 -31.5l-147 -518q-2 -8 -4 -19t-2 -19q0 -29 37 -29h87l-10 -33h-166l-32 -42q38 -10 54.5 -29t16.5 -45q0 -22 -12.5 -41.5t-33.5 -33.5t-49.5 -22.5
t-60.5 -8.5q-16 0 -34 2.5t-32 5.5l11 31q10 -2 19.5 -3.5t23.5 -1.5q46 0 74.5 17t28.5 43q0 15 -11.5 29t-43.5 14h-10t-10 -1l65 86h-173l10 33h80q32 0 48 14t27 52l152 537q4 12 4 22q0 17 -34 17q-61 0 -114 -29t-101 -95q-35 -45 -55 -101h-32z" />
    <glyph glyph-name="uni021A" unicode="&#x21a;" horiz-adv-x="747" 
d="M168 708h650l-67 -258h-31q2 19 3.5 38t1.5 35q0 81 -35 116.5t-114 35.5q-15 0 -24 -1.5t-14.5 -7t-9 -17t-9.5 -31.5l-147 -518q-2 -8 -4 -19t-2 -19q0 -29 37 -29h87l-10 -33h-375l10 33h80q32 0 48 14t27 52l152 537q4 12 4 22q0 17 -34 17q-61 0 -114 -29t-101 -95
q-35 -45 -55 -101h-32zM213 -203q27 8 44 21.5t17 26.5q0 8 -6 8.5t-11 1.5q-16 5 -25 16.5t-9 26.5q0 17 12.5 31.5t32.5 14.5q26 0 40 -17.5t14 -41.5q0 -42 -26.5 -73.5t-71.5 -44.5z" />
    <glyph glyph-name="Tbar" unicode="&#x166;" horiz-adv-x="747" 
d="M168 708h650l-67 -258h-31q2 19 3.5 38t1.5 35q0 81 -35 116.5t-114 35.5q-15 0 -24 -1.5t-14.5 -7t-9 -17t-9.5 -31.5l-70 -247h134l-10 -34h-134l-67 -237q-2 -8 -4 -19t-2 -19q0 -29 37 -29h87l-10 -33h-375l10 33h80q32 0 48 14t27 52l67 238h-133l9 34h134l75 265
q4 12 4 22q0 17 -34 17q-61 0 -114 -29t-101 -95q-35 -45 -55 -101h-32z" />
    <glyph glyph-name="Egrave" unicode="&#xc8;" horiz-adv-x="686" 
d="M267 381h31q22 0 47.5 7.5t44.5 20.5q37 26 57 65.5t33 83.5h32l-118 -417h-32q8 32 14.5 64t6.5 49q0 44 -21.5 69t-82.5 25h-21l-80 -283q-2 -8 -2 -14q0 -7 5.5 -12.5t19.5 -5.5h119q13 0 37.5 5.5t55 20.5t62.5 42.5t60 72.5q18 28 28.5 50.5t23.5 54.5h32l-79 -279
h-584l9 33h61q18 0 34 14.5t22 35.5l151 537q2 6 3 13t1 12q0 30 -46 30h-45l10 33h545l-64 -271h-32q6 37 8 56t2 40q0 53 -16.5 81.5t-42 42t-57 16t-62.5 2.5h-41q-16 0 -25.5 -1t-15 -5t-9 -12t-7.5 -21zM324 877q-17 14 -23.5 25.5t-6.5 25.5q0 16 9.5 25.5t25.5 9.5
q23 0 39.5 -14.5t39.5 -55.5l64 -109h-32z" />
    <glyph glyph-name="Eacute" unicode="&#xc9;" horiz-adv-x="686" 
d="M267 381h31q22 0 47.5 7.5t44.5 20.5q37 26 57 65.5t33 83.5h32l-118 -417h-32q8 32 14.5 64t6.5 49q0 44 -21.5 69t-82.5 25h-21l-80 -283q-2 -8 -2 -14q0 -7 5.5 -12.5t19.5 -5.5h119q13 0 37.5 5.5t55 20.5t62.5 42.5t60 72.5q18 28 28.5 50.5t23.5 54.5h32l-79 -279
h-584l9 33h61q18 0 34 14.5t22 35.5l151 537q2 6 3 13t1 12q0 30 -46 30h-45l10 33h545l-64 -271h-32q6 37 8 56t2 40q0 53 -16.5 81.5t-42 42t-57 16t-62.5 2.5h-41q-16 0 -25.5 -1t-15 -5t-9 -12t-7.5 -21zM406 784h-31l68 109q24 39 38.5 54.5t36.5 15.5q15 0 24.5 -9.5
t9.5 -25.5q0 -14 -8 -25t-26 -26z" />
    <glyph glyph-name="Ecircumflex" unicode="&#xca;" horiz-adv-x="686" 
d="M267 381h31q22 0 47.5 7.5t44.5 20.5q37 26 57 65.5t33 83.5h32l-118 -417h-32q8 32 14.5 64t6.5 49q0 44 -21.5 69t-82.5 25h-21l-80 -283q-2 -8 -2 -14q0 -7 5.5 -12.5t19.5 -5.5h119q13 0 37.5 5.5t55 20.5t62.5 42.5t60 72.5q18 28 28.5 50.5t23.5 54.5h32l-79 -279
h-584l9 33h61q18 0 34 14.5t22 35.5l151 537q2 6 3 13t1 12q0 30 -46 30h-45l10 33h545l-64 -271h-32q6 37 8 56t2 40q0 53 -16.5 81.5t-42 42t-57 16t-62.5 2.5h-41q-16 0 -25.5 -1t-15 -5t-9 -12t-7.5 -21zM472 881l-153 -99h-40l180 165h62l44 -165h-31z" />
    <glyph glyph-name="Edieresis" unicode="&#xcb;" horiz-adv-x="686" 
d="M267 381h31q22 0 47.5 7.5t44.5 20.5q37 26 57 65.5t33 83.5h32l-118 -417h-32q8 32 14.5 64t6.5 49q0 44 -21.5 69t-82.5 25h-21l-80 -283q-2 -8 -2 -14q0 -7 5.5 -12.5t19.5 -5.5h119q13 0 37.5 5.5t55 20.5t62.5 42.5t60 72.5q18 28 28.5 50.5t23.5 54.5h32l-79 -279
h-584l9 33h61q18 0 34 14.5t22 35.5l151 537q2 6 3 13t1 12q0 30 -46 30h-45l10 33h545l-64 -271h-32q6 37 8 56t2 40q0 53 -16.5 81.5t-42 42t-57 16t-62.5 2.5h-41q-16 0 -25.5 -1t-15 -5t-9 -12t-7.5 -21zM294 850q0 21 15 36t37 15q21 0 36 -15t15 -36t-15 -36t-36 -15
q-22 0 -37 15t-15 36zM486 850q0 21 15 36t36 15t36 -15t15 -36t-15 -36t-36 -15t-36 15t-15 36z" />
    <glyph glyph-name="Emacron" unicode="&#x112;" horiz-adv-x="686" 
d="M267 381h31q22 0 47.5 7.5t44.5 20.5q37 26 57 65.5t33 83.5h32l-118 -417h-32q8 32 14.5 64t6.5 49q0 44 -21.5 69t-82.5 25h-21l-80 -283q-2 -8 -2 -14q0 -7 5.5 -12.5t19.5 -5.5h119q13 0 37.5 5.5t55 20.5t62.5 42.5t60 72.5q18 28 28.5 50.5t23.5 54.5h32l-79 -279
h-584l9 33h61q18 0 34 14.5t22 35.5l151 537q2 6 3 13t1 12q0 30 -46 30h-45l10 33h545l-64 -271h-32q6 37 8 56t2 40q0 53 -16.5 81.5t-42 42t-57 16t-62.5 2.5h-41q-16 0 -25.5 -1t-15 -5t-9 -12t-7.5 -21zM305 868h285l-13 -48h-286z" />
    <glyph glyph-name="Ebreve" unicode="&#x114;" horiz-adv-x="686" 
d="M267 381h31q22 0 47.5 7.5t44.5 20.5q37 26 57 65.5t33 83.5h32l-118 -417h-32q8 32 14.5 64t6.5 49q0 44 -21.5 69t-82.5 25h-21l-80 -283q-2 -8 -2 -14q0 -7 5.5 -12.5t19.5 -5.5h119q13 0 37.5 5.5t55 20.5t62.5 42.5t60 72.5q18 28 28.5 50.5t23.5 54.5h32l-79 -279
h-584l9 33h61q18 0 34 14.5t22 35.5l151 537q2 6 3 13t1 12q0 30 -46 30h-45l10 33h545l-64 -271h-32q6 37 8 56t2 40q0 53 -16.5 81.5t-42 42t-57 16t-62.5 2.5h-41q-16 0 -25.5 -1t-15 -5t-9 -12t-7.5 -21zM612 948q-31 -72 -76 -111t-96 -39q-52 0 -81.5 40t-29.5 110h32
q0 -36 24.5 -58t62.5 -22t73 21.5t58 58.5h33z" />
    <glyph glyph-name="Edotaccent" unicode="&#x116;" horiz-adv-x="686" 
d="M267 381h31q22 0 47.5 7.5t44.5 20.5q37 26 57 65.5t33 83.5h32l-118 -417h-32q8 32 14.5 64t6.5 49q0 44 -21.5 69t-82.5 25h-21l-80 -283q-2 -8 -2 -14q0 -7 5.5 -12.5t19.5 -5.5h119q13 0 37.5 5.5t55 20.5t62.5 42.5t60 72.5q18 28 28.5 50.5t23.5 54.5h32l-79 -279
h-584l9 33h61q18 0 34 14.5t22 35.5l151 537q2 6 3 13t1 12q0 30 -46 30h-45l10 33h545l-64 -271h-32q6 37 8 56t2 40q0 53 -16.5 81.5t-42 42t-57 16t-62.5 2.5h-41q-16 0 -25.5 -1t-15 -5t-9 -12t-7.5 -21zM387 858q0 23 16.5 39.5t39.5 16.5t40 -16.5t17 -39.5t-17 -39.5
t-40 -16.5t-39.5 16.5t-16.5 39.5z" />
    <glyph glyph-name="Ecaron" unicode="&#x11a;" horiz-adv-x="686" 
d="M267 381h31q22 0 47.5 7.5t44.5 20.5q37 26 57 65.5t33 83.5h32l-118 -417h-32q8 32 14.5 64t6.5 49q0 44 -21.5 69t-82.5 25h-21l-80 -283q-2 -8 -2 -14q0 -7 5.5 -12.5t19.5 -5.5h119q13 0 37.5 5.5t55 20.5t62.5 42.5t60 72.5q18 28 28.5 50.5t23.5 54.5h32l-79 -279
h-584l9 33h61q18 0 34 14.5t22 35.5l151 537q2 6 3 13t1 12q0 30 -46 30h-45l10 33h545l-64 -271h-32q6 37 8 56t2 40q0 53 -16.5 81.5t-42 42t-57 16t-62.5 2.5h-41q-16 0 -25.5 -1t-15 -5t-9 -12t-7.5 -21zM379 947l62 -99l153 99h40l-179 -165h-62l-45 165h31z" />
    <glyph glyph-name="Eogonek" unicode="&#x118;" horiz-adv-x="686" 
d="M-44 0l9 33h61q18 0 34 14.5t22 35.5l151 537q2 6 3 13t1 12q0 30 -46 30h-45l10 33h545l-64 -271h-32q6 37 8 56t2 40q0 53 -16.5 81.5t-42 42t-57 16t-62.5 2.5h-41q-16 0 -25.5 -1t-15 -5t-9 -12t-7.5 -21l-72 -255h31q22 0 47.5 7.5t44.5 20.5q37 26 57 65.5t33 83.5
h32l-118 -417h-32q8 32 14.5 64t6.5 49q0 44 -21.5 69t-82.5 25h-21l-80 -283q-2 -8 -2 -14q0 -7 5.5 -12.5t19.5 -5.5h119q13 0 37.5 5.5t55 20.5t62.5 42.5t60 72.5q18 28 28.5 50.5t23.5 54.5h32l-79 -279h-73q-16 -11 -30.5 -21.5t-33.5 -24.5q-30 -23 -48 -56t-18 -65
q0 -17 9 -26t23 -9q17 0 31 7.5t33 31.5l27 -20q-23 -29 -47.5 -43t-62.5 -14q-47 0 -74 18.5t-27 52.5t21 62t70 61l71 46h-455z" />
    </font>
</defs>
</svg>
